<?xml version="1.0" encoding="UTF-8" standalone="no"?>
<!DOCTYPE svg PUBLIC "-//W3C//DTD SVG 1.1//EN"
 "http://www.w3.org/Graphics/SVG/1.1/DTD/svg11.dtd">
<!-- Generated by graphviz version 2.40.1 (20161225.0304)
 -->
<!-- Title: Ui::MainWidget Pages: 1 -->
<svg width="92pt" height="84pt"
 viewBox="0.00 0.00 92.00 84.00" xmlns="http://www.w3.org/2000/svg" xmlns:xlink="http://www.w3.org/1999/xlink">
<g id="graph0" class="graph" transform="scale(1 1) rotate(0) translate(4 80)">
<title>Ui::MainWidget</title>
<polygon fill="#ffffff" stroke="transparent" points="-4,4 -4,-80 88,-80 88,4 -4,4"/>
<!-- Node0 -->
<g id="node1" class="node">
<title>Node0</title>
<polygon fill="#bfbfbf" stroke="#000000" points="0,-.5 0,-19.5 84,-19.5 84,-.5 0,-.5"/>
<text text-anchor="middle" x="42" y="-7.5" font-family="Helvetica,sans-Serif" font-size="10.00" fill="#000000">Ui::MainWidget</text>
</g>
<!-- Node1 -->
<g id="node2" class="node">
<title>Node1</title>
<g id="a_node2"><a xlink:href="classUi__MainWidget.html" target="_top" xlink:title="Ui_MainWidget">
<polygon fill="#ffffff" stroke="#000000" points=".5,-56.5 .5,-75.5 83.5,-75.5 83.5,-56.5 .5,-56.5"/>
<text text-anchor="middle" x="42" y="-63.5" font-family="Helvetica,sans-Serif" font-size="10.00" fill="#000000">Ui_MainWidget</text>
</a>
</g>
</g>
<!-- Node1&#45;&gt;Node0 -->
<g id="edge1" class="edge">
<title>Node1&#45;&gt;Node0</title>
<path fill="none" stroke="#191970" d="M35.5113,-46.1575C34.919,-37.155 35.3335,-26.9199 36.7549,-19.6427"/>
<polygon fill="#191970" stroke="#191970" points="32.0561,-46.739 36.7332,-56.2455 39.0053,-45.8972 32.0561,-46.739"/>
</g>
<!-- Node1&#45;&gt;Node0 -->
<g id="edge2" class="edge">
<title>Node1&#45;&gt;Node0</title>
<path fill="none" stroke="#191970" d="M48.4887,-46.1575C49.081,-37.155 48.6665,-26.9199 47.2451,-19.6427"/>
<polygon fill="#191970" stroke="#191970" points="44.9947,-45.8972 47.2668,-56.2455 51.9439,-46.739 44.9947,-45.8972"/>
</g>
</g>
</svg>
