<?xml version="1.0" encoding="UTF-8" standalone="no"?>
<!DOCTYPE svg PUBLIC "-//W3C//DTD SVG 1.1//EN"
 "http://www.w3.org/Graphics/SVG/1.1/DTD/svg11.dtd">
<!-- Generated by graphviz version 2.40.1 (20161225.0304)
 -->
<!-- Title: mty::doc::CheckPoint&lt; csl::Expr &gt; Pages: 1 -->
<svg width="278pt" height="117pt"
 viewBox="0.00 0.00 278.00 117.00" xmlns="http://www.w3.org/2000/svg" xmlns:xlink="http://www.w3.org/1999/xlink">
<g id="graph0" class="graph" transform="scale(1 1) rotate(0) translate(4 113)">
<title>mty::doc::CheckPoint&lt; csl::Expr &gt;</title>
<polygon fill="#ffffff" stroke="transparent" points="-4,4 -4,-113 274,-113 274,4 -4,4"/>
<!-- Node0 -->
<g id="node1" class="node">
<title>Node0</title>
<polygon fill="#bfbfbf" stroke="#000000" points="86,-.5 86,-30.5 198,-30.5 198,-.5 86,-.5"/>
<text text-anchor="start" x="94" y="-18.5" font-family="Helvetica,sans-Serif" font-size="10.00" fill="#000000">mty::doc::CheckPoint</text>
<text text-anchor="middle" x="142" y="-7.5" font-family="Helvetica,sans-Serif" font-size="10.00" fill="#000000">&lt; csl::Expr &gt;</text>
</g>
<!-- Node1 -->
<g id="node2" class="node">
<title>Node1</title>
<g id="a_node2"><a xlink:href="classmty_1_1doc_1_1CheckPoint__Base.html" target="_top" xlink:title="mty::doc::CheckPoint_Base">
<polygon fill="#ffffff" stroke="#000000" points="0,-78.5 0,-97.5 140,-97.5 140,-78.5 0,-78.5"/>
<text text-anchor="middle" x="70" y="-85.5" font-family="Helvetica,sans-Serif" font-size="10.00" fill="#000000">mty::doc::CheckPoint_Base</text>
</a>
</g>
</g>
<!-- Node1&#45;&gt;Node0 -->
<g id="edge1" class="edge">
<title>Node1&#45;&gt;Node0</title>
<path fill="none" stroke="#191970" d="M87.0074,-70.8745C99.1297,-58.668 115.2781,-42.4075 126.9366,-30.668"/>
<polygon fill="#191970" stroke="#191970" points="84.2734,-68.6605 79.7102,-78.2223 89.2403,-73.5931 84.2734,-68.6605"/>
</g>
<!-- Node2 -->
<g id="node3" class="node">
<title>Node2</title>
<g id="a_node3"><a xlink:href="classmty_1_1doc_1_1CheckPoint__Implementation.html" target="_top" xlink:title="mty::doc::CheckPoint\l_Implementation\&lt; csl\l::Expr \&gt;">
<polygon fill="#ffffff" stroke="#000000" points="158,-67.5 158,-108.5 270,-108.5 270,-67.5 158,-67.5"/>
<text text-anchor="start" x="166" y="-96.5" font-family="Helvetica,sans-Serif" font-size="10.00" fill="#000000">mty::doc::CheckPoint</text>
<text text-anchor="start" x="166" y="-85.5" font-family="Helvetica,sans-Serif" font-size="10.00" fill="#000000">_Implementation&lt; csl</text>
<text text-anchor="middle" x="214" y="-74.5" font-family="Helvetica,sans-Serif" font-size="10.00" fill="#000000">::Expr &gt;</text>
</a>
</g>
</g>
<!-- Node2&#45;&gt;Node0 -->
<g id="edge2" class="edge">
<title>Node2&#45;&gt;Node0</title>
<path fill="none" stroke="#191970" d="M186.4796,-60.2885C176.4645,-50.2038 165.521,-39.1843 156.995,-30.5991"/>
<polygon fill="#191970" stroke="#191970" points="184.0303,-62.7891 193.5603,-67.4183 188.9971,-57.8565 184.0303,-62.7891"/>
</g>
</g>
</svg>
