<?xml version="1.0" encoding="UTF-8" standalone="no"?>
<!DOCTYPE svg PUBLIC "-//W3C//DTD SVG 1.1//EN"
 "http://www.w3.org/Graphics/SVG/1.1/DTD/svg11.dtd">
<!-- Generated by graphviz version 2.40.1 (20161225.0304)
 -->
<!-- Title: mty::MSSM_HEM Pages: 1 -->
<svg width="201pt" height="252pt"
 viewBox="0.00 0.00 201.00 252.00" xmlns="http://www.w3.org/2000/svg" xmlns:xlink="http://www.w3.org/1999/xlink">
<g id="graph0" class="graph" transform="scale(1 1) rotate(0) translate(4 248)">
<title>mty::MSSM_HEM</title>
<polygon fill="#ffffff" stroke="transparent" points="-4,4 -4,-248 197,-248 197,4 -4,4"/>
<!-- Node0 -->
<g id="node1" class="node">
<title>Node0</title>
<polygon fill="#bfbfbf" stroke="#000000" points="48,-.5 48,-19.5 145,-19.5 145,-.5 48,-.5"/>
<text text-anchor="middle" x="96.5" y="-7.5" font-family="Helvetica,sans-Serif" font-size="10.00" fill="#000000">mty::MSSM_HEM</text>
</g>
<!-- Node1 -->
<g id="node2" class="node">
<title>Node1</title>
<g id="a_node2"><a xlink:href="classmty_1_1MSSM__Model.html" target="_top" xlink:title="Base class for MSSM models. If taken as is, represents the unconstrained MSSM with 105 parameters (+S...">
<polygon fill="#ffffff" stroke="#000000" points="46,-56.5 46,-75.5 147,-75.5 147,-56.5 46,-56.5"/>
<text text-anchor="middle" x="96.5" y="-63.5" font-family="Helvetica,sans-Serif" font-size="10.00" fill="#000000">mty::MSSM_Model</text>
</a>
</g>
</g>
<!-- Node1&#45;&gt;Node0 -->
<g id="edge1" class="edge">
<title>Node1&#45;&gt;Node0</title>
<path fill="none" stroke="#191970" d="M96.5,-46.1575C96.5,-37.155 96.5,-26.9199 96.5,-19.6427"/>
<polygon fill="#191970" stroke="#191970" points="93.0001,-46.2455 96.5,-56.2455 100.0001,-46.2456 93.0001,-46.2455"/>
</g>
<!-- Node2 -->
<g id="node3" class="node">
<title>Node2</title>
<g id="a_node3"><a xlink:href="classmty_1_1Model.html" target="_top" xlink:title="Contains all objects in the theory. In particular QuantumField objects, Gauge, Flavor, Particle... ">
<polygon fill="#ffffff" stroke="#000000" points="15,-112.5 15,-131.5 80,-131.5 80,-112.5 15,-112.5"/>
<text text-anchor="middle" x="47.5" y="-119.5" font-family="Helvetica,sans-Serif" font-size="10.00" fill="#000000">mty::Model</text>
</a>
</g>
</g>
<!-- Node2&#45;&gt;Node1 -->
<g id="edge2" class="edge">
<title>Node2&#45;&gt;Node1</title>
<path fill="none" stroke="#191970" d="M62.8122,-104.5004C71.1447,-94.9775 81.1353,-83.5596 88.0627,-75.6427"/>
<polygon fill="#191970" stroke="#191970" points="59.9862,-102.415 56.0351,-112.2455 65.2543,-107.0245 59.9862,-102.415"/>
</g>
<!-- Node3 -->
<g id="node4" class="node">
<title>Node3</title>
<g id="a_node4"><a xlink:href="classmty_1_1ModelBuilder.html" target="_top" xlink:title="Class containing all model building features of MARTY. ">
<polygon fill="#ffffff" stroke="#000000" points="0,-168.5 0,-187.5 95,-187.5 95,-168.5 0,-168.5"/>
<text text-anchor="middle" x="47.5" y="-175.5" font-family="Helvetica,sans-Serif" font-size="10.00" fill="#000000">mty::ModelBuilder</text>
</a>
</g>
</g>
<!-- Node3&#45;&gt;Node2 -->
<g id="edge3" class="edge">
<title>Node3&#45;&gt;Node2</title>
<path fill="none" stroke="#191970" d="M47.5,-158.1575C47.5,-149.155 47.5,-138.9199 47.5,-131.6427"/>
<polygon fill="#191970" stroke="#191970" points="44.0001,-158.2455 47.5,-168.2455 51.0001,-158.2456 44.0001,-158.2455"/>
</g>
<!-- Node4 -->
<g id="node5" class="node">
<title>Node4</title>
<g id="a_node5"><a xlink:href="classmty_1_1ModelData.html" target="_top" xlink:title="The class ModelData contains all the necessary features to store and manipulate the content of a mode...">
<polygon fill="#ffffff" stroke="#000000" points="4.5,-224.5 4.5,-243.5 90.5,-243.5 90.5,-224.5 4.5,-224.5"/>
<text text-anchor="middle" x="47.5" y="-231.5" font-family="Helvetica,sans-Serif" font-size="10.00" fill="#000000">mty::ModelData</text>
</a>
</g>
</g>
<!-- Node4&#45;&gt;Node3 -->
<g id="edge4" class="edge">
<title>Node4&#45;&gt;Node3</title>
<path fill="none" stroke="#191970" d="M47.5,-214.1575C47.5,-205.155 47.5,-194.9199 47.5,-187.6427"/>
<polygon fill="#191970" stroke="#191970" points="44.0001,-214.2455 47.5,-224.2455 51.0001,-214.2456 44.0001,-214.2455"/>
</g>
<!-- Node5 -->
<g id="node6" class="node">
<title>Node5</title>
<g id="a_node6"><a xlink:href="structmty_1_1MSSM__Data.html" target="_top" xlink:title="mty::MSSM_Data">
<polygon fill="#ffffff" stroke="#000000" points="98,-112.5 98,-131.5 193,-131.5 193,-112.5 98,-112.5"/>
<text text-anchor="middle" x="145.5" y="-119.5" font-family="Helvetica,sans-Serif" font-size="10.00" fill="#000000">mty::MSSM_Data</text>
</a>
</g>
</g>
<!-- Node5&#45;&gt;Node1 -->
<g id="edge5" class="edge">
<title>Node5&#45;&gt;Node1</title>
<path fill="none" stroke="#006400" d="M130.1878,-104.5004C121.8553,-94.9775 111.8647,-83.5596 104.9373,-75.6427"/>
<polygon fill="#006400" stroke="#006400" points="127.7457,-107.0245 136.9649,-112.2455 133.0138,-102.415 127.7457,-107.0245"/>
</g>
</g>
</svg>
