<?xml version="1.0" encoding="UTF-8" standalone="no"?>
<!DOCTYPE svg PUBLIC "-//W3C//DTD SVG 1.1//EN"
 "http://www.w3.org/Graphics/SVG/1.1/DTD/svg11.dtd">
<!-- Generated by graphviz version 2.40.1 (20161225.0304)
 -->
<!-- Title: drawer::Matrix&lt; T1, T2 &gt; Pages: 1 -->
<svg width="119pt" height="106pt"
 viewBox="0.00 0.00 119.00 106.00" xmlns="http://www.w3.org/2000/svg" xmlns:xlink="http://www.w3.org/1999/xlink">
<g id="graph0" class="graph" transform="scale(1 1) rotate(0) translate(4 102)">
<title>drawer::Matrix&lt; T1, T2 &gt;</title>
<polygon fill="#ffffff" stroke="transparent" points="-4,4 -4,-102 115,-102 115,4 -4,4"/>
<!-- Node0 -->
<g id="node1" class="node">
<title>Node0</title>
<polygon fill="#bfbfbf" stroke="#000000" points="4.5,-.5 4.5,-30.5 106.5,-30.5 106.5,-.5 4.5,-.5"/>
<text text-anchor="start" x="12.5" y="-18.5" font-family="Helvetica,sans-Serif" font-size="10.00" fill="#000000">drawer::Matrix&lt; T1,</text>
<text text-anchor="middle" x="55.5" y="-7.5" font-family="Helvetica,sans-Serif" font-size="10.00" fill="#000000"> T2 &gt;</text>
</g>
<!-- Node1 -->
<g id="node2" class="node">
<title>Node1</title>
<g id="a_node2"><a xlink:href="classdrawer_1_1Base__iterable.html" target="_top" xlink:title="drawer::Base_iterable\l\&lt; T1, T2 \&gt;">
<polygon fill="#ffffff" stroke="#000000" points="0,-67.5 0,-97.5 111,-97.5 111,-67.5 0,-67.5"/>
<text text-anchor="start" x="8" y="-85.5" font-family="Helvetica,sans-Serif" font-size="10.00" fill="#000000">drawer::Base_iterable</text>
<text text-anchor="middle" x="55.5" y="-74.5" font-family="Helvetica,sans-Serif" font-size="10.00" fill="#000000">&lt; T1, T2 &gt;</text>
</a>
</g>
</g>
<!-- Node1&#45;&gt;Node0 -->
<g id="edge1" class="edge">
<title>Node1&#45;&gt;Node0</title>
<path fill="none" stroke="#191970" d="M48.9384,-57.3179C48.5239,-48.3414 48.7933,-38.5143 49.7464,-30.6432"/>
<polygon fill="#191970" stroke="#191970" points="45.4504,-57.6087 49.7392,-67.2967 52.428,-57.0487 45.4504,-57.6087"/>
</g>
<!-- Node1&#45;&gt;Node0 -->
<g id="edge2" class="edge">
<title>Node1&#45;&gt;Node0</title>
<path fill="none" stroke="#191970" d="M62.0616,-57.3179C62.4761,-48.3414 62.2067,-38.5143 61.2536,-30.6432"/>
<polygon fill="#191970" stroke="#191970" points="58.572,-57.0487 61.2608,-67.2967 65.5496,-57.6087 58.572,-57.0487"/>
</g>
</g>
</svg>
