<?xml version="1.0" encoding="UTF-8" standalone="no"?>
<!DOCTYPE svg PUBLIC "-//W3C//DTD SVG 1.1//EN"
 "http://www.w3.org/Graphics/SVG/1.1/DTD/svg11.dtd">
<!-- Generated by graphviz version 2.40.1 (20161225.0304)
 -->
<!-- Title: mty::MSSM_Model Pages: 1 -->
<svg width="230pt" height="308pt"
 viewBox="0.00 0.00 230.00 308.00" xmlns="http://www.w3.org/2000/svg" xmlns:xlink="http://www.w3.org/1999/xlink">
<g id="graph0" class="graph" transform="scale(1 1) rotate(0) translate(4 304)">
<title>mty::MSSM_Model</title>
<polygon fill="#ffffff" stroke="transparent" points="-4,4 -4,-304 226,-304 226,4 -4,4"/>
<!-- Node0 -->
<g id="node1" class="node">
<title>Node0</title>
<polygon fill="#bfbfbf" stroke="#000000" points="58,-112.5 58,-131.5 159,-131.5 159,-112.5 58,-112.5"/>
<text text-anchor="middle" x="108.5" y="-119.5" font-family="Helvetica,sans-Serif" font-size="10.00" fill="#000000">mty::MSSM_Model</text>
</g>
<!-- Node5 -->
<g id="node6" class="node">
<title>Node5</title>
<g id="a_node6"><a xlink:href="classmty_1_1MSSM__HEM.html" target="_top" xlink:title="mty::MSSM_HEM">
<polygon fill="#ffffff" stroke="#000000" points="0,-56.5 0,-75.5 97,-75.5 97,-56.5 0,-56.5"/>
<text text-anchor="middle" x="48.5" y="-63.5" font-family="Helvetica,sans-Serif" font-size="10.00" fill="#000000">mty::MSSM_HEM</text>
</a>
</g>
</g>
<!-- Node0&#45;&gt;Node5 -->
<g id="edge5" class="edge">
<title>Node0&#45;&gt;Node5</title>
<path fill="none" stroke="#191970" d="M90.6722,-105.3607C80.2922,-95.6727 67.5709,-83.7995 58.8314,-75.6427"/>
<polygon fill="#191970" stroke="#191970" points="88.3501,-107.981 98.0488,-112.2455 93.1263,-102.8636 88.3501,-107.981"/>
</g>
<!-- Node6 -->
<g id="node7" class="node">
<title>Node6</title>
<g id="a_node7"><a xlink:href="classmty_1_1PMSSM__Model.html" target="_top" xlink:title="mty::PMSSM_Model">
<polygon fill="#ffffff" stroke="#000000" points="115,-56.5 115,-75.5 222,-75.5 222,-56.5 115,-56.5"/>
<text text-anchor="middle" x="168.5" y="-63.5" font-family="Helvetica,sans-Serif" font-size="10.00" fill="#000000">mty::PMSSM_Model</text>
</a>
</g>
</g>
<!-- Node0&#45;&gt;Node6 -->
<g id="edge6" class="edge">
<title>Node0&#45;&gt;Node6</title>
<path fill="none" stroke="#191970" d="M126.3278,-105.3607C136.7078,-95.6727 149.4291,-83.7995 158.1686,-75.6427"/>
<polygon fill="#191970" stroke="#191970" points="123.8737,-102.8636 118.9512,-112.2455 128.6499,-107.981 123.8737,-102.8636"/>
</g>
<!-- Node1 -->
<g id="node2" class="node">
<title>Node1</title>
<g id="a_node2"><a xlink:href="classmty_1_1Model.html" target="_top" xlink:title="Contains all objects in the theory. In particular QuantumField objects, Gauge, Flavor, Particle... ">
<polygon fill="#ffffff" stroke="#000000" points="27,-168.5 27,-187.5 92,-187.5 92,-168.5 27,-168.5"/>
<text text-anchor="middle" x="59.5" y="-175.5" font-family="Helvetica,sans-Serif" font-size="10.00" fill="#000000">mty::Model</text>
</a>
</g>
</g>
<!-- Node1&#45;&gt;Node0 -->
<g id="edge1" class="edge">
<title>Node1&#45;&gt;Node0</title>
<path fill="none" stroke="#191970" d="M74.8122,-160.5004C83.1447,-150.9775 93.1353,-139.5596 100.0627,-131.6427"/>
<polygon fill="#191970" stroke="#191970" points="71.9862,-158.415 68.0351,-168.2455 77.2543,-163.0245 71.9862,-158.415"/>
</g>
<!-- Node2 -->
<g id="node3" class="node">
<title>Node2</title>
<g id="a_node3"><a xlink:href="classmty_1_1ModelBuilder.html" target="_top" xlink:title="Class containing all model building features of MARTY. ">
<polygon fill="#ffffff" stroke="#000000" points="12,-224.5 12,-243.5 107,-243.5 107,-224.5 12,-224.5"/>
<text text-anchor="middle" x="59.5" y="-231.5" font-family="Helvetica,sans-Serif" font-size="10.00" fill="#000000">mty::ModelBuilder</text>
</a>
</g>
</g>
<!-- Node2&#45;&gt;Node1 -->
<g id="edge2" class="edge">
<title>Node2&#45;&gt;Node1</title>
<path fill="none" stroke="#191970" d="M59.5,-214.1575C59.5,-205.155 59.5,-194.9199 59.5,-187.6427"/>
<polygon fill="#191970" stroke="#191970" points="56.0001,-214.2455 59.5,-224.2455 63.0001,-214.2456 56.0001,-214.2455"/>
</g>
<!-- Node3 -->
<g id="node4" class="node">
<title>Node3</title>
<g id="a_node4"><a xlink:href="classmty_1_1ModelData.html" target="_top" xlink:title="The class ModelData contains all the necessary features to store and manipulate the content of a mode...">
<polygon fill="#ffffff" stroke="#000000" points="16.5,-280.5 16.5,-299.5 102.5,-299.5 102.5,-280.5 16.5,-280.5"/>
<text text-anchor="middle" x="59.5" y="-287.5" font-family="Helvetica,sans-Serif" font-size="10.00" fill="#000000">mty::ModelData</text>
</a>
</g>
</g>
<!-- Node3&#45;&gt;Node2 -->
<g id="edge3" class="edge">
<title>Node3&#45;&gt;Node2</title>
<path fill="none" stroke="#191970" d="M59.5,-270.1575C59.5,-261.155 59.5,-250.9199 59.5,-243.6427"/>
<polygon fill="#191970" stroke="#191970" points="56.0001,-270.2455 59.5,-280.2455 63.0001,-270.2456 56.0001,-270.2455"/>
</g>
<!-- Node4 -->
<g id="node5" class="node">
<title>Node4</title>
<g id="a_node5"><a xlink:href="structmty_1_1MSSM__Data.html" target="_top" xlink:title="mty::MSSM_Data">
<polygon fill="#ffffff" stroke="#000000" points="110,-168.5 110,-187.5 205,-187.5 205,-168.5 110,-168.5"/>
<text text-anchor="middle" x="157.5" y="-175.5" font-family="Helvetica,sans-Serif" font-size="10.00" fill="#000000">mty::MSSM_Data</text>
</a>
</g>
</g>
<!-- Node4&#45;&gt;Node0 -->
<g id="edge4" class="edge">
<title>Node4&#45;&gt;Node0</title>
<path fill="none" stroke="#006400" d="M142.1878,-160.5004C133.8553,-150.9775 123.8647,-139.5596 116.9373,-131.6427"/>
<polygon fill="#006400" stroke="#006400" points="139.7457,-163.0245 148.9649,-168.2455 145.0138,-158.415 139.7457,-163.0245"/>
</g>
<!-- Node7 -->
<g id="node8" class="node">
<title>Node7</title>
<g id="a_node8"><a xlink:href="classmty_1_1NMFV__Model.html" target="_top" xlink:title="mty::NMFV_Model">
<polygon fill="#ffffff" stroke="#000000" points="119,-.5 119,-19.5 218,-19.5 218,-.5 119,-.5"/>
<text text-anchor="middle" x="168.5" y="-7.5" font-family="Helvetica,sans-Serif" font-size="10.00" fill="#000000">mty::NMFV_Model</text>
</a>
</g>
</g>
<!-- Node6&#45;&gt;Node7 -->
<g id="edge7" class="edge">
<title>Node6&#45;&gt;Node7</title>
<path fill="none" stroke="#191970" d="M168.5,-46.1575C168.5,-37.155 168.5,-26.9199 168.5,-19.6427"/>
<polygon fill="#191970" stroke="#191970" points="165.0001,-46.2455 168.5,-56.2455 172.0001,-46.2456 165.0001,-46.2455"/>
</g>
</g>
</svg>
