<?xml version="1.0" encoding="UTF-8" standalone="no"?>
<!DOCTYPE svg PUBLIC "-//W3C//DTD SVG 1.1//EN"
 "http://www.w3.org/Graphics/SVG/1.1/DTD/svg11.dtd">
<!-- Generated by graphviz version 2.40.1 (20161225.0304)
 -->
<!-- Title: mty::GeneralizedIndexBase Pages: 1 -->
<svg width="530pt" height="84pt"
 viewBox="0.00 0.00 529.50 84.00" xmlns="http://www.w3.org/2000/svg" xmlns:xlink="http://www.w3.org/1999/xlink">
<g id="graph0" class="graph" transform="scale(1 1) rotate(0) translate(4 80)">
<title>mty::GeneralizedIndexBase</title>
<polygon fill="#ffffff" stroke="transparent" points="-4,4 -4,-80 525.5,-80 525.5,4 -4,4"/>
<!-- Node0 -->
<g id="node1" class="node">
<title>Node0</title>
<polygon fill="#bfbfbf" stroke="#000000" points="186,-56.5 186,-75.5 323,-75.5 323,-56.5 186,-56.5"/>
<text text-anchor="middle" x="254.5" y="-63.5" font-family="Helvetica,sans-Serif" font-size="10.00" fill="#000000">mty::GeneralizedIndexBase</text>
</g>
<!-- Node1 -->
<g id="node2" class="node">
<title>Node1</title>
<g id="a_node2"><a xlink:href="classmty_1_1GenEpsilonIndex.html" target="_top" xlink:title="mty::GenEpsilonIndex">
<polygon fill="#ffffff" stroke="#000000" points="0,-.5 0,-19.5 113,-19.5 113,-.5 0,-.5"/>
<text text-anchor="middle" x="56.5" y="-7.5" font-family="Helvetica,sans-Serif" font-size="10.00" fill="#000000">mty::GenEpsilonIndex</text>
</a>
</g>
</g>
<!-- Node0&#45;&gt;Node1 -->
<g id="edge1" class="edge">
<title>Node0&#45;&gt;Node1</title>
<path fill="none" stroke="#191970" d="M210.6155,-53.5882C174.2377,-43.2996 123.2879,-28.8895 90.0933,-19.5011"/>
<polygon fill="#191970" stroke="#191970" points="209.8875,-57.0195 220.4626,-56.3733 211.7926,-50.2838 209.8875,-57.0195"/>
</g>
<!-- Node2 -->
<g id="node3" class="node">
<title>Node2</title>
<g id="a_node3"><a xlink:href="classmty_1_1GenGammaIndex.html" target="_top" xlink:title="mty::GenGammaIndex">
<polygon fill="#ffffff" stroke="#000000" points="131.5,-.5 131.5,-19.5 247.5,-19.5 247.5,-.5 131.5,-.5"/>
<text text-anchor="middle" x="189.5" y="-7.5" font-family="Helvetica,sans-Serif" font-size="10.00" fill="#000000">mty::GenGammaIndex</text>
</a>
</g>
</g>
<!-- Node0&#45;&gt;Node2 -->
<g id="edge2" class="edge">
<title>Node0&#45;&gt;Node2</title>
<path fill="none" stroke="#191970" d="M235.5165,-49.645C224.2121,-39.9058 210.253,-27.8795 200.6924,-19.6427"/>
<polygon fill="#191970" stroke="#191970" points="233.3173,-52.3701 243.1779,-56.2455 237.8862,-47.0668 233.3173,-52.3701"/>
</g>
<!-- Node3 -->
<g id="node4" class="node">
<title>Node3</title>
<g id="a_node4"><a xlink:href="classmty_1_1GenMetricIndex.html" target="_top" xlink:title="mty::GenMetricIndex">
<polygon fill="#ffffff" stroke="#000000" points="265.5,-.5 265.5,-19.5 373.5,-19.5 373.5,-.5 265.5,-.5"/>
<text text-anchor="middle" x="319.5" y="-7.5" font-family="Helvetica,sans-Serif" font-size="10.00" fill="#000000">mty::GenMetricIndex</text>
</a>
</g>
</g>
<!-- Node0&#45;&gt;Node3 -->
<g id="edge3" class="edge">
<title>Node0&#45;&gt;Node3</title>
<path fill="none" stroke="#191970" d="M273.4835,-49.645C284.7879,-39.9058 298.747,-27.8795 308.3076,-19.6427"/>
<polygon fill="#191970" stroke="#191970" points="271.1138,-47.0668 265.8221,-56.2455 275.6827,-52.3701 271.1138,-47.0668"/>
</g>
<!-- Node4 -->
<g id="node5" class="node">
<title>Node4</title>
<g id="a_node5"><a xlink:href="classmty_1_1GenMomentumIndex.html" target="_top" xlink:title="mty::GenMomentumIndex">
<polygon fill="#ffffff" stroke="#000000" points="391.5,-.5 391.5,-19.5 521.5,-19.5 521.5,-.5 391.5,-.5"/>
<text text-anchor="middle" x="456.5" y="-7.5" font-family="Helvetica,sans-Serif" font-size="10.00" fill="#000000">mty::GenMomentumIndex</text>
</a>
</g>
</g>
<!-- Node0&#45;&gt;Node4 -->
<g id="edge4" class="edge">
<title>Node0&#45;&gt;Node4</title>
<path fill="none" stroke="#191970" d="M299.2711,-53.5882C336.3838,-43.2996 388.3629,-28.8895 422.2281,-19.5011"/>
<polygon fill="#191970" stroke="#191970" points="297.9265,-50.3289 289.225,-56.3733 299.7966,-57.0745 297.9265,-50.3289"/>
</g>
</g>
</svg>
