<?xml version="1.0" encoding="UTF-8" standalone="no"?>
<!DOCTYPE svg PUBLIC "-//W3C//DTD SVG 1.1//EN"
 "http://www.w3.org/Graphics/SVG/1.1/DTD/svg11.dtd">
<!-- Generated by graphviz version 2.40.1 (20161225.0304)
 -->
<!-- Title: JSON::AbstractLeaf Pages: 1 -->
<svg width="116pt" height="140pt"
 viewBox="0.00 0.00 116.00 140.00" xmlns="http://www.w3.org/2000/svg" xmlns:xlink="http://www.w3.org/1999/xlink">
<g id="graph0" class="graph" transform="scale(1 1) rotate(0) translate(4 136)">
<title>JSON::AbstractLeaf</title>
<polygon fill="#ffffff" stroke="transparent" points="-4,4 -4,-136 112,-136 112,4 -4,4"/>
<!-- Node0 -->
<g id="node1" class="node">
<title>Node0</title>
<polygon fill="#bfbfbf" stroke="#000000" points="1.5,-56.5 1.5,-75.5 106.5,-75.5 106.5,-56.5 1.5,-56.5"/>
<text text-anchor="middle" x="54" y="-63.5" font-family="Helvetica,sans-Serif" font-size="10.00" fill="#000000">JSON::AbstractLeaf</text>
</g>
<!-- Node2 -->
<g id="node3" class="node">
<title>Node2</title>
<g id="a_node3"><a xlink:href="classJSON_1_1Leaf.html" target="_top" xlink:title="Template class inherited from Object that stores a parameter of a .json file. This class does not hav...">
<polygon fill="#ffffff" stroke="#000000" points="0,-.5 0,-19.5 108,-19.5 108,-.5 0,-.5"/>
<text text-anchor="middle" x="54" y="-7.5" font-family="Helvetica,sans-Serif" font-size="10.00" fill="#000000">JSON::Leaf&lt; Type &gt;</text>
</a>
</g>
</g>
<!-- Node0&#45;&gt;Node2 -->
<g id="edge3" class="edge">
<title>Node0&#45;&gt;Node2</title>
<path fill="none" stroke="#191970" d="M47.5113,-46.1575C46.919,-37.155 47.3335,-26.9199 48.7549,-19.6427"/>
<polygon fill="#191970" stroke="#191970" points="44.0561,-46.739 48.7332,-56.2455 51.0053,-45.8972 44.0561,-46.739"/>
</g>
<!-- Node0&#45;&gt;Node2 -->
<g id="edge4" class="edge">
<title>Node0&#45;&gt;Node2</title>
<path fill="none" stroke="#191970" d="M60.4887,-46.1575C61.081,-37.155 60.6665,-26.9199 59.2451,-19.6427"/>
<polygon fill="#191970" stroke="#191970" points="56.9947,-45.8972 59.2668,-56.2455 63.9439,-46.739 56.9947,-45.8972"/>
</g>
<!-- Node1 -->
<g id="node2" class="node">
<title>Node1</title>
<g id="a_node2"><a xlink:href="classJSON_1_1Object.html" target="_top" xlink:title="Abstract object in JSON tree structure. Can be specialized either in Node or in Leaf&lt;T&gt; with a specif...">
<polygon fill="#ffffff" stroke="#000000" points="15,-112.5 15,-131.5 93,-131.5 93,-112.5 15,-112.5"/>
<text text-anchor="middle" x="54" y="-119.5" font-family="Helvetica,sans-Serif" font-size="10.00" fill="#000000">JSON::Object</text>
</a>
</g>
</g>
<!-- Node1&#45;&gt;Node0 -->
<g id="edge1" class="edge">
<title>Node1&#45;&gt;Node0</title>
<path fill="none" stroke="#191970" d="M47.5113,-102.1575C46.919,-93.155 47.3335,-82.9199 48.7549,-75.6427"/>
<polygon fill="#191970" stroke="#191970" points="44.0561,-102.739 48.7332,-112.2455 51.0053,-101.8972 44.0561,-102.739"/>
</g>
<!-- Node1&#45;&gt;Node0 -->
<g id="edge2" class="edge">
<title>Node1&#45;&gt;Node0</title>
<path fill="none" stroke="#191970" d="M60.4887,-102.1575C61.081,-93.155 60.6665,-82.9199 59.2451,-75.6427"/>
<polygon fill="#191970" stroke="#191970" points="56.9947,-101.8972 59.2668,-112.2455 63.9439,-102.739 56.9947,-101.8972"/>
</g>
</g>
</svg>
