<?xml version="1.0" encoding="UTF-8" standalone="no"?>
<!DOCTYPE svg PUBLIC "-//W3C//DTD SVG 1.1//EN"
 "http://www.w3.org/Graphics/SVG/1.1/DTD/svg11.dtd">
<!-- Generated by graphviz version 2.40.1 (20161225.0304)
 -->
<!-- Title: JSON::List Pages: 1 -->
<svg width="86pt" height="140pt"
 viewBox="0.00 0.00 86.00 140.00" xmlns="http://www.w3.org/2000/svg" xmlns:xlink="http://www.w3.org/1999/xlink">
<g id="graph0" class="graph" transform="scale(1 1) rotate(0) translate(4 136)">
<title>JSON::List</title>
<polygon fill="#ffffff" stroke="transparent" points="-4,4 -4,-136 82,-136 82,4 -4,4"/>
<!-- Node0 -->
<g id="node1" class="node">
<title>Node0</title>
<polygon fill="#bfbfbf" stroke="#000000" points="6.5,-.5 6.5,-19.5 71.5,-19.5 71.5,-.5 6.5,-.5"/>
<text text-anchor="middle" x="39" y="-7.5" font-family="Helvetica,sans-Serif" font-size="10.00" fill="#000000">JSON::List</text>
</g>
<!-- Node1 -->
<g id="node2" class="node">
<title>Node1</title>
<g id="a_node2"><a xlink:href="classJSON_1_1Node.html" target="_top" xlink:title="Inherits from JSON::Object, specialized in JSON Node. A Node owns a vector of Object. The Node&#39;s children can either be Leaf or other Node objects. This allows to store the tree structure of a .json file. ">
<polygon fill="#ffffff" stroke="#000000" points="2.5,-56.5 2.5,-75.5 75.5,-75.5 75.5,-56.5 2.5,-56.5"/>
<text text-anchor="middle" x="39" y="-63.5" font-family="Helvetica,sans-Serif" font-size="10.00" fill="#000000">JSON::Node</text>
</a>
</g>
</g>
<!-- Node1&#45;&gt;Node0 -->
<g id="edge1" class="edge">
<title>Node1&#45;&gt;Node0</title>
<path fill="none" stroke="#191970" d="M32.5113,-46.1575C31.919,-37.155 32.3335,-26.9199 33.7549,-19.6427"/>
<polygon fill="#191970" stroke="#191970" points="29.0561,-46.739 33.7332,-56.2455 36.0053,-45.8972 29.0561,-46.739"/>
</g>
<!-- Node1&#45;&gt;Node0 -->
<g id="edge4" class="edge">
<title>Node1&#45;&gt;Node0</title>
<path fill="none" stroke="#191970" d="M45.4887,-46.1575C46.081,-37.155 45.6665,-26.9199 44.2451,-19.6427"/>
<polygon fill="#191970" stroke="#191970" points="41.9947,-45.8972 44.2668,-56.2455 48.9439,-46.739 41.9947,-45.8972"/>
</g>
<!-- Node2 -->
<g id="node3" class="node">
<title>Node2</title>
<g id="a_node3"><a xlink:href="classJSON_1_1Object.html" target="_top" xlink:title="Abstract object in JSON tree structure. Can be specialized either in Node or in Leaf&lt;T&gt; with a specif...">
<polygon fill="#ffffff" stroke="#000000" points="0,-112.5 0,-131.5 78,-131.5 78,-112.5 0,-112.5"/>
<text text-anchor="middle" x="39" y="-119.5" font-family="Helvetica,sans-Serif" font-size="10.00" fill="#000000">JSON::Object</text>
</a>
</g>
</g>
<!-- Node2&#45;&gt;Node1 -->
<g id="edge2" class="edge">
<title>Node2&#45;&gt;Node1</title>
<path fill="none" stroke="#191970" d="M32.5113,-102.1575C31.919,-93.155 32.3335,-82.9199 33.7549,-75.6427"/>
<polygon fill="#191970" stroke="#191970" points="29.0561,-102.739 33.7332,-112.2455 36.0053,-101.8972 29.0561,-102.739"/>
</g>
<!-- Node2&#45;&gt;Node1 -->
<g id="edge3" class="edge">
<title>Node2&#45;&gt;Node1</title>
<path fill="none" stroke="#191970" d="M45.4887,-102.1575C46.081,-93.155 45.6665,-82.9199 44.2451,-75.6427"/>
<polygon fill="#191970" stroke="#191970" points="41.9947,-101.8972 44.2668,-112.2455 48.9439,-102.739 41.9947,-101.8972"/>
</g>
</g>
</svg>
