<?xml version="1.0" encoding="UTF-8" standalone="no"?>
<!DOCTYPE svg PUBLIC "-//W3C//DTD SVG 1.1//EN"
 "http://www.w3.org/Graphics/SVG/1.1/DTD/svg11.dtd">
<!-- Generated by graphviz version 2.40.1 (20161225.0304)
 -->
<!-- Title: mty::NonAbelianGauged Pages: 1 -->
<svg width="389pt" height="294pt"
 viewBox="0.00 0.00 389.00 294.00" xmlns="http://www.w3.org/2000/svg" xmlns:xlink="http://www.w3.org/1999/xlink">
<g id="graph0" class="graph" transform="scale(1 1) rotate(0) translate(4 290)">
<title>mty::NonAbelianGauged</title>
<polygon fill="#ffffff" stroke="transparent" points="-4,4 -4,-290 385,-290 385,4 -4,4"/>
<!-- Node0 -->
<g id="node1" class="node">
<title>Node0</title>
<polygon fill="#bfbfbf" stroke="#000000" points="135,-133.5 135,-152.5 258,-152.5 258,-133.5 135,-133.5"/>
<text text-anchor="middle" x="196.5" y="-140.5" font-family="Helvetica,sans-Serif" font-size="10.00" fill="#000000">mty::NonAbelianGauged</text>
</g>
<!-- Node2 -->
<g id="node3" class="node">
<title>Node2</title>
<g id="a_node3"><a xlink:href="classmty_1_1E6Gauged.html" target="_top" xlink:title="mty::E6Gauged">
<polygon fill="#ffffff" stroke="#000000" points="295,-266.5 295,-285.5 380,-285.5 380,-266.5 295,-266.5"/>
<text text-anchor="middle" x="337.5" y="-273.5" font-family="Helvetica,sans-Serif" font-size="10.00" fill="#000000">mty::E6Gauged</text>
</a>
</g>
</g>
<!-- Node0&#45;&gt;Node2 -->
<g id="edge2" class="edge">
<title>Node0&#45;&gt;Node2</title>
<path fill="none" stroke="#191970" d="M207.946,-160.8871C224.4035,-185.3984 256.8868,-229.5097 294,-257 298.9005,-260.6298 304.6026,-263.7488 310.2334,-266.3488"/>
<polygon fill="#191970" stroke="#191970" points="210.867,-158.9588 202.447,-152.5281 205.019,-162.806 210.867,-158.9588"/>
</g>
<!-- Node3 -->
<g id="node4" class="node">
<title>Node3</title>
<g id="a_node4"><a xlink:href="classmty_1_1E7Gauged.html" target="_top" xlink:title="mty::E7Gauged">
<polygon fill="#ffffff" stroke="#000000" points="295,-228.5 295,-247.5 380,-247.5 380,-228.5 295,-228.5"/>
<text text-anchor="middle" x="337.5" y="-235.5" font-family="Helvetica,sans-Serif" font-size="10.00" fill="#000000">mty::E7Gauged</text>
</a>
</g>
</g>
<!-- Node0&#45;&gt;Node3 -->
<g id="edge3" class="edge">
<title>Node0&#45;&gt;Node3</title>
<path fill="none" stroke="#191970" d="M214.4953,-159.2813C233.3416,-175.7737 264.2808,-201.3081 294,-219 299.8066,-222.4567 306.3565,-225.6484 312.5777,-228.3901"/>
<polygon fill="#191970" stroke="#191970" points="216.7714,-156.6218 206.9662,-152.6083 212.1285,-161.8604 216.7714,-156.6218"/>
</g>
<!-- Node4 -->
<g id="node5" class="node">
<title>Node4</title>
<g id="a_node5"><a xlink:href="classmty_1_1E8Gauged.html" target="_top" xlink:title="mty::E8Gauged">
<polygon fill="#ffffff" stroke="#000000" points="295,-190.5 295,-209.5 380,-209.5 380,-190.5 295,-190.5"/>
<text text-anchor="middle" x="337.5" y="-197.5" font-family="Helvetica,sans-Serif" font-size="10.00" fill="#000000">mty::E8Gauged</text>
</a>
</g>
</g>
<!-- Node0&#45;&gt;Node4 -->
<g id="edge4" class="edge">
<title>Node0&#45;&gt;Node4</title>
<path fill="none" stroke="#191970" d="M229.5012,-156.3409C255.3613,-166.795 290.7162,-181.0874 313.8228,-190.4284"/>
<polygon fill="#191970" stroke="#191970" points="230.6831,-153.0436 220.1002,-152.5405 228.0596,-159.5334 230.6831,-153.0436"/>
</g>
<!-- Node5 -->
<g id="node6" class="node">
<title>Node5</title>
<g id="a_node6"><a xlink:href="classmty_1_1F4Gauged.html" target="_top" xlink:title="mty::F4Gauged">
<polygon fill="#ffffff" stroke="#000000" points="295.5,-152.5 295.5,-171.5 379.5,-171.5 379.5,-152.5 295.5,-152.5"/>
<text text-anchor="middle" x="337.5" y="-159.5" font-family="Helvetica,sans-Serif" font-size="10.00" fill="#000000">mty::F4Gauged</text>
</a>
</g>
</g>
<!-- Node0&#45;&gt;Node5 -->
<g id="edge5" class="edge">
<title>Node0&#45;&gt;Node5</title>
<path fill="none" stroke="#191970" d="M268.2982,-152.6749C277.4877,-153.9132 286.6477,-155.1476 295.1535,-156.2937"/>
<polygon fill="#191970" stroke="#191970" points="268.7225,-149.2006 258.3447,-151.3337 267.7876,-156.1379 268.7225,-149.2006"/>
</g>
<!-- Node6 -->
<g id="node7" class="node">
<title>Node6</title>
<g id="a_node7"><a xlink:href="classmty_1_1G2Gauged.html" target="_top" xlink:title="mty::G2Gauged">
<polygon fill="#ffffff" stroke="#000000" points="294.5,-114.5 294.5,-133.5 380.5,-133.5 380.5,-114.5 294.5,-114.5"/>
<text text-anchor="middle" x="337.5" y="-121.5" font-family="Helvetica,sans-Serif" font-size="10.00" fill="#000000">mty::G2Gauged</text>
</a>
</g>
</g>
<!-- Node0&#45;&gt;Node6 -->
<g id="edge6" class="edge">
<title>Node0&#45;&gt;Node6</title>
<path fill="none" stroke="#191970" d="M268.3471,-133.3185C277.2222,-132.1225 286.0689,-130.9304 294.3242,-129.818"/>
<polygon fill="#191970" stroke="#191970" points="267.7876,-129.8621 258.3447,-134.6663 268.7225,-136.7994 267.7876,-129.8621"/>
</g>
<!-- Node7 -->
<g id="node8" class="node">
<title>Node7</title>
<g id="a_node8"><a xlink:href="classmty_1_1SOGauged.html" target="_top" xlink:title="mty::SOGauged">
<polygon fill="#ffffff" stroke="#000000" points="294,-76.5 294,-95.5 381,-95.5 381,-76.5 294,-76.5"/>
<text text-anchor="middle" x="337.5" y="-83.5" font-family="Helvetica,sans-Serif" font-size="10.00" fill="#000000">mty::SOGauged</text>
</a>
</g>
</g>
<!-- Node0&#45;&gt;Node7 -->
<g id="edge7" class="edge">
<title>Node0&#45;&gt;Node7</title>
<path fill="none" stroke="#191970" d="M229.5012,-129.6591C255.3613,-119.205 290.7162,-104.9126 313.8228,-95.5716"/>
<polygon fill="#191970" stroke="#191970" points="228.0596,-126.4666 220.1002,-133.4595 230.6831,-132.9564 228.0596,-126.4666"/>
</g>
<!-- Node8 -->
<g id="node9" class="node">
<title>Node8</title>
<g id="a_node9"><a xlink:href="classmty_1_1SpGauged.html" target="_top" xlink:title="mty::SpGauged">
<polygon fill="#ffffff" stroke="#000000" points="295,-38.5 295,-57.5 380,-57.5 380,-38.5 295,-38.5"/>
<text text-anchor="middle" x="337.5" y="-45.5" font-family="Helvetica,sans-Serif" font-size="10.00" fill="#000000">mty::SpGauged</text>
</a>
</g>
</g>
<!-- Node0&#45;&gt;Node8 -->
<g id="edge8" class="edge">
<title>Node0&#45;&gt;Node8</title>
<path fill="none" stroke="#191970" d="M214.4953,-126.7187C233.3416,-110.2263 264.2808,-84.6919 294,-67 299.8066,-63.5433 306.3565,-60.3516 312.5777,-57.6099"/>
<polygon fill="#191970" stroke="#191970" points="212.1285,-124.1396 206.9662,-133.3917 216.7714,-129.3782 212.1285,-124.1396"/>
</g>
<!-- Node9 -->
<g id="node10" class="node">
<title>Node9</title>
<g id="a_node10"><a xlink:href="classmty_1_1SUGauged.html" target="_top" xlink:title="mty::SUGauged">
<polygon fill="#ffffff" stroke="#000000" points="294,-.5 294,-19.5 381,-19.5 381,-.5 294,-.5"/>
<text text-anchor="middle" x="337.5" y="-7.5" font-family="Helvetica,sans-Serif" font-size="10.00" fill="#000000">mty::SUGauged</text>
</a>
</g>
</g>
<!-- Node0&#45;&gt;Node9 -->
<g id="edge9" class="edge">
<title>Node0&#45;&gt;Node9</title>
<path fill="none" stroke="#191970" d="M207.946,-125.1129C224.4035,-100.6016 256.8868,-56.4903 294,-29 298.9005,-25.3702 304.6026,-22.2512 310.2334,-19.6512"/>
<polygon fill="#191970" stroke="#191970" points="205.019,-123.194 202.447,-133.4719 210.867,-127.0412 205.019,-123.194"/>
</g>
<!-- Node1 -->
<g id="node2" class="node">
<title>Node1</title>
<g id="a_node2"><a xlink:href="classmty_1_1GaugedGroup.html" target="_top" xlink:title="mty::GaugedGroup">
<polygon fill="#ffffff" stroke="#000000" points="0,-133.5 0,-152.5 99,-152.5 99,-133.5 0,-133.5"/>
<text text-anchor="middle" x="49.5" y="-140.5" font-family="Helvetica,sans-Serif" font-size="10.00" fill="#000000">mty::GaugedGroup</text>
</a>
</g>
</g>
<!-- Node1&#45;&gt;Node0 -->
<g id="edge1" class="edge">
<title>Node1&#45;&gt;Node0</title>
<path fill="none" stroke="#191970" d="M109.3466,-143C117.7348,-143 126.369,-143 134.7911,-143"/>
<polygon fill="#191970" stroke="#191970" points="109.2675,-139.5001 99.2675,-143 109.2675,-146.5001 109.2675,-139.5001"/>
</g>
</g>
</svg>
