<?xml version="1.0" encoding="UTF-8" standalone="no"?>
<!DOCTYPE svg PUBLIC "-//W3C//DTD SVG 1.1//EN"
 "http://www.w3.org/Graphics/SVG/1.1/DTD/svg11.dtd">
<!-- Generated by graphviz version 2.40.1 (20161225.0304)
 -->
<!-- Title: sgl::GammaIndex Pages: 1 -->
<svg width="180pt" height="274pt"
 viewBox="0.00 0.00 180.00 274.00" xmlns="http://www.w3.org/2000/svg" xmlns:xlink="http://www.w3.org/1999/xlink">
<g id="graph0" class="graph" transform="scale(1 1) rotate(0) translate(4 270)">
<title>sgl::GammaIndex</title>
<polygon fill="#ffffff" stroke="transparent" points="-4,4 -4,-270 176,-270 176,4 -4,4"/>
<!-- Node0 -->
<g id="node1" class="node">
<title>Node0</title>
<polygon fill="#bfbfbf" stroke="#000000" points="39,-.5 39,-19.5 133,-19.5 133,-.5 39,-.5"/>
<text text-anchor="middle" x="86" y="-7.5" font-family="Helvetica,sans-Serif" font-size="10.00" fill="#000000">sgl::GammaIndex</text>
</g>
<!-- Node1 -->
<g id="node2" class="node">
<title>Node1</title>
<g id="a_node2"><a xlink:href="classsgl_1_1AbstractGeneralizedIndex.html" target="_top" xlink:title="sgl::AbstractGeneralized\lIndex">
<polygon fill="#ffffff" stroke="#000000" points="24,-56.5 24,-86.5 148,-86.5 148,-56.5 24,-56.5"/>
<text text-anchor="start" x="32" y="-74.5" font-family="Helvetica,sans-Serif" font-size="10.00" fill="#000000">sgl::AbstractGeneralized</text>
<text text-anchor="middle" x="86" y="-63.5" font-family="Helvetica,sans-Serif" font-size="10.00" fill="#000000">Index</text>
</a>
</g>
</g>
<!-- Node1&#45;&gt;Node0 -->
<g id="edge1" class="edge">
<title>Node1&#45;&gt;Node0</title>
<path fill="none" stroke="#191970" d="M86,-46.2849C86,-36.9858 86,-26.9883 86,-19.8469"/>
<polygon fill="#191970" stroke="#191970" points="82.5001,-46.2977 86,-56.2977 89.5001,-46.2978 82.5001,-46.2977"/>
</g>
<!-- Node2 -->
<g id="node3" class="node">
<title>Node2</title>
<g id="a_node3"><a xlink:href="classsgl_1_1AbstractLiteral.html" target="_top" xlink:title="sgl::AbstractLiteral">
<polygon fill="#ffffff" stroke="#000000" points="37,-123.5 37,-142.5 135,-142.5 135,-123.5 37,-123.5"/>
<text text-anchor="middle" x="86" y="-130.5" font-family="Helvetica,sans-Serif" font-size="10.00" fill="#000000">sgl::AbstractLiteral</text>
</a>
</g>
</g>
<!-- Node2&#45;&gt;Node1 -->
<g id="edge2" class="edge">
<title>Node2&#45;&gt;Node1</title>
<path fill="none" stroke="#191970" d="M86,-113.3693C86,-104.681 86,-94.6241 86,-86.5446"/>
<polygon fill="#191970" stroke="#191970" points="82.5001,-113.3906 86,-123.3906 89.5001,-113.3907 82.5001,-113.3906"/>
</g>
<!-- Node3 -->
<g id="node4" class="node">
<title>Node3</title>
<g id="a_node4"><a xlink:href="classsgl_1_1AbstractGammaSym.html" target="_top" xlink:title="sgl::AbstractGammaSym">
<polygon fill="#ffffff" stroke="#000000" points="22.5,-179.5 22.5,-198.5 149.5,-198.5 149.5,-179.5 22.5,-179.5"/>
<text text-anchor="middle" x="86" y="-186.5" font-family="Helvetica,sans-Serif" font-size="10.00" fill="#000000">sgl::AbstractGammaSym</text>
</a>
</g>
</g>
<!-- Node3&#45;&gt;Node2 -->
<g id="edge3" class="edge">
<title>Node3&#45;&gt;Node2</title>
<path fill="none" stroke="#191970" d="M86,-169.1575C86,-160.155 86,-149.9199 86,-142.6427"/>
<polygon fill="#191970" stroke="#191970" points="82.5001,-169.2455 86,-179.2455 89.5001,-169.2456 82.5001,-169.2455"/>
</g>
<!-- Node4 -->
<g id="node5" class="node">
<title>Node4</title>
<polygon fill="#ffffff" stroke="#bfbfbf" points="0,-235.5 0,-265.5 172,-265.5 172,-235.5 0,-235.5"/>
<text text-anchor="start" x="8" y="-253.5" font-family="Helvetica,sans-Serif" font-size="10.00" fill="#000000">std::enable_shared</text>
<text text-anchor="middle" x="86" y="-242.5" font-family="Helvetica,sans-Serif" font-size="10.00" fill="#000000">_from_this&lt; AbstractGammaSym &gt;</text>
</g>
<!-- Node4&#45;&gt;Node3 -->
<g id="edge4" class="edge">
<title>Node4&#45;&gt;Node3</title>
<path fill="none" stroke="#191970" d="M86,-225.2849C86,-215.9858 86,-205.9883 86,-198.8469"/>
<polygon fill="#191970" stroke="#191970" points="82.5001,-225.2977 86,-235.2977 89.5001,-225.2978 82.5001,-225.2977"/>
</g>
</g>
</svg>
