<?xml version="1.0" encoding="UTF-8" standalone="no"?>
<!DOCTYPE svg PUBLIC "-//W3C//DTD SVG 1.1//EN"
 "http://www.w3.org/Graphics/SVG/1.1/DTD/svg11.dtd">
<!-- Generated by graphviz version 2.40.1 (20161225.0304)
 -->
<!-- Title: mty::FermionPropStruct Pages: 1 -->
<svg width="129pt" height="140pt"
 viewBox="0.00 0.00 129.00 140.00" xmlns="http://www.w3.org/2000/svg" xmlns:xlink="http://www.w3.org/1999/xlink">
<g id="graph0" class="graph" transform="scale(1 1) rotate(0) translate(4 136)">
<title>mty::FermionPropStruct</title>
<polygon fill="#ffffff" stroke="transparent" points="-4,4 -4,-136 125,-136 125,4 -4,4"/>
<!-- Node0 -->
<g id="node1" class="node">
<title>Node0</title>
<polygon fill="#bfbfbf" stroke="#000000" points="0,-.5 0,-19.5 121,-19.5 121,-.5 0,-.5"/>
<text text-anchor="middle" x="60.5" y="-7.5" font-family="Helvetica,sans-Serif" font-size="10.00" fill="#000000">mty::FermionPropStruct</text>
</g>
<!-- Node1 -->
<g id="node2" class="node">
<title>Node1</title>
<g id="a_node2"><a doxygen="/home/uhlrich/Bureau/MARTY/newlife/marty-dev/csl/csl.tag:../../csl/html/" xlink:href="../../csl/html/classcsl_1_1AbstractDuoFunc.html" target="_top" xlink:title="csl::AbstractDuoFunc">
<polygon fill="#ffffff" stroke="#000000" points="4.5,-56.5 4.5,-75.5 116.5,-75.5 116.5,-56.5 4.5,-56.5"/>
<text text-anchor="middle" x="60.5" y="-63.5" font-family="Helvetica,sans-Serif" font-size="10.00" fill="#000000">csl::AbstractDuoFunc</text>
</a>
</g>
</g>
<!-- Node1&#45;&gt;Node0 -->
<g id="edge1" class="edge">
<title>Node1&#45;&gt;Node0</title>
<path fill="none" stroke="#191970" d="M60.5,-46.1575C60.5,-37.155 60.5,-26.9199 60.5,-19.6427"/>
<polygon fill="#191970" stroke="#191970" points="57.0001,-46.2455 60.5,-56.2455 64.0001,-46.2456 57.0001,-46.2455"/>
</g>
<!-- Node2 -->
<g id="node3" class="node">
<title>Node2</title>
<g id="a_node3"><a doxygen="/home/uhlrich/Bureau/MARTY/newlife/marty-dev/csl/csl.tag:../../csl/html/" xlink:href="../../csl/html/classcsl_1_1Abstract.html" target="_top" xlink:title="csl::Abstract">
<polygon fill="#ffffff" stroke="#000000" points="24.5,-112.5 24.5,-131.5 96.5,-131.5 96.5,-112.5 24.5,-112.5"/>
<text text-anchor="middle" x="60.5" y="-119.5" font-family="Helvetica,sans-Serif" font-size="10.00" fill="#000000">csl::Abstract</text>
</a>
</g>
</g>
<!-- Node2&#45;&gt;Node1 -->
<g id="edge2" class="edge">
<title>Node2&#45;&gt;Node1</title>
<path fill="none" stroke="#191970" d="M60.5,-102.1575C60.5,-93.155 60.5,-82.9199 60.5,-75.6427"/>
<polygon fill="#191970" stroke="#191970" points="57.0001,-102.2455 60.5,-112.2455 64.0001,-102.2456 57.0001,-102.2455"/>
</g>
</g>
</svg>
