<?xml version="1.0" encoding="UTF-8" standalone="no"?>
<!DOCTYPE svg PUBLIC "-//W3C//DTD SVG 1.1//EN"
 "http://www.w3.org/Graphics/SVG/1.1/DTD/svg11.dtd">
<!-- Generated by graphviz version 2.40.1 (20161225.0304)
 -->
<!-- Title: mty::GaugedGroup Pages: 1 -->
<svg width="389pt" height="294pt"
 viewBox="0.00 0.00 389.00 294.00" xmlns="http://www.w3.org/2000/svg" xmlns:xlink="http://www.w3.org/1999/xlink">
<g id="graph0" class="graph" transform="scale(1 1) rotate(0) translate(4 290)">
<title>mty::GaugedGroup</title>
<polygon fill="#ffffff" stroke="transparent" points="-4,4 -4,-290 385,-290 385,4 -4,4"/>
<!-- Node0 -->
<g id="node1" class="node">
<title>Node0</title>
<polygon fill="#bfbfbf" stroke="#000000" points="0,-114.5 0,-133.5 99,-133.5 99,-114.5 0,-114.5"/>
<text text-anchor="middle" x="49.5" y="-121.5" font-family="Helvetica,sans-Serif" font-size="10.00" fill="#000000">mty::GaugedGroup</text>
</g>
<!-- Node1 -->
<g id="node2" class="node">
<title>Node1</title>
<g id="a_node2"><a xlink:href="classmty_1_1NonAbelianGauged.html" target="_top" xlink:title="mty::NonAbelianGauged">
<polygon fill="#ffffff" stroke="#000000" points="135,-133.5 135,-152.5 258,-152.5 258,-133.5 135,-133.5"/>
<text text-anchor="middle" x="196.5" y="-140.5" font-family="Helvetica,sans-Serif" font-size="10.00" fill="#000000">mty::NonAbelianGauged</text>
</a>
</g>
</g>
<!-- Node0&#45;&gt;Node1 -->
<g id="edge1" class="edge">
<title>Node0&#45;&gt;Node1</title>
<path fill="none" stroke="#191970" d="M109.3466,-131.7353C117.7348,-132.8195 126.369,-133.9354 134.7911,-135.024"/>
<polygon fill="#191970" stroke="#191970" points="109.6337,-128.2433 99.2675,-130.4325 108.7363,-135.1856 109.6337,-128.2433"/>
</g>
<!-- Node10 -->
<g id="node11" class="node">
<title>Node10</title>
<g id="a_node11"><a xlink:href="classmty_1_1U1Gauged.html" target="_top" xlink:title="mty::U1Gauged">
<polygon fill="#ffffff" stroke="#000000" points="153.5,-95.5 153.5,-114.5 239.5,-114.5 239.5,-95.5 153.5,-95.5"/>
<text text-anchor="middle" x="196.5" y="-102.5" font-family="Helvetica,sans-Serif" font-size="10.00" fill="#000000">mty::U1Gauged</text>
</a>
</g>
</g>
<!-- Node0&#45;&gt;Node10 -->
<g id="edge10" class="edge">
<title>Node0&#45;&gt;Node10</title>
<path fill="none" stroke="#191970" d="M109.288,-116.2723C123.9808,-114.3732 139.4314,-112.3762 153.1778,-110.5995"/>
<polygon fill="#191970" stroke="#191970" points="108.7363,-112.8144 99.2675,-117.5675 109.6337,-119.7567 108.7363,-112.8144"/>
</g>
<!-- Node2 -->
<g id="node3" class="node">
<title>Node2</title>
<g id="a_node3"><a xlink:href="classmty_1_1E6Gauged.html" target="_top" xlink:title="mty::E6Gauged">
<polygon fill="#ffffff" stroke="#000000" points="295,-266.5 295,-285.5 380,-285.5 380,-266.5 295,-266.5"/>
<text text-anchor="middle" x="337.5" y="-273.5" font-family="Helvetica,sans-Serif" font-size="10.00" fill="#000000">mty::E6Gauged</text>
</a>
</g>
</g>
<!-- Node1&#45;&gt;Node2 -->
<g id="edge2" class="edge">
<title>Node1&#45;&gt;Node2</title>
<path fill="none" stroke="#191970" d="M207.946,-160.8871C224.4035,-185.3984 256.8868,-229.5097 294,-257 298.9005,-260.6298 304.6026,-263.7488 310.2334,-266.3488"/>
<polygon fill="#191970" stroke="#191970" points="210.867,-158.9588 202.447,-152.5281 205.019,-162.806 210.867,-158.9588"/>
</g>
<!-- Node3 -->
<g id="node4" class="node">
<title>Node3</title>
<g id="a_node4"><a xlink:href="classmty_1_1E7Gauged.html" target="_top" xlink:title="mty::E7Gauged">
<polygon fill="#ffffff" stroke="#000000" points="295,-228.5 295,-247.5 380,-247.5 380,-228.5 295,-228.5"/>
<text text-anchor="middle" x="337.5" y="-235.5" font-family="Helvetica,sans-Serif" font-size="10.00" fill="#000000">mty::E7Gauged</text>
</a>
</g>
</g>
<!-- Node1&#45;&gt;Node3 -->
<g id="edge3" class="edge">
<title>Node1&#45;&gt;Node3</title>
<path fill="none" stroke="#191970" d="M214.4953,-159.2813C233.3416,-175.7737 264.2808,-201.3081 294,-219 299.8066,-222.4567 306.3565,-225.6484 312.5777,-228.3901"/>
<polygon fill="#191970" stroke="#191970" points="216.7714,-156.6218 206.9662,-152.6083 212.1285,-161.8604 216.7714,-156.6218"/>
</g>
<!-- Node4 -->
<g id="node5" class="node">
<title>Node4</title>
<g id="a_node5"><a xlink:href="classmty_1_1E8Gauged.html" target="_top" xlink:title="mty::E8Gauged">
<polygon fill="#ffffff" stroke="#000000" points="295,-190.5 295,-209.5 380,-209.5 380,-190.5 295,-190.5"/>
<text text-anchor="middle" x="337.5" y="-197.5" font-family="Helvetica,sans-Serif" font-size="10.00" fill="#000000">mty::E8Gauged</text>
</a>
</g>
</g>
<!-- Node1&#45;&gt;Node4 -->
<g id="edge4" class="edge">
<title>Node1&#45;&gt;Node4</title>
<path fill="none" stroke="#191970" d="M229.5012,-156.3409C255.3613,-166.795 290.7162,-181.0874 313.8228,-190.4284"/>
<polygon fill="#191970" stroke="#191970" points="230.6831,-153.0436 220.1002,-152.5405 228.0596,-159.5334 230.6831,-153.0436"/>
</g>
<!-- Node5 -->
<g id="node6" class="node">
<title>Node5</title>
<g id="a_node6"><a xlink:href="classmty_1_1F4Gauged.html" target="_top" xlink:title="mty::F4Gauged">
<polygon fill="#ffffff" stroke="#000000" points="295.5,-152.5 295.5,-171.5 379.5,-171.5 379.5,-152.5 295.5,-152.5"/>
<text text-anchor="middle" x="337.5" y="-159.5" font-family="Helvetica,sans-Serif" font-size="10.00" fill="#000000">mty::F4Gauged</text>
</a>
</g>
</g>
<!-- Node1&#45;&gt;Node5 -->
<g id="edge5" class="edge">
<title>Node1&#45;&gt;Node5</title>
<path fill="none" stroke="#191970" d="M268.2982,-152.6749C277.4877,-153.9132 286.6477,-155.1476 295.1535,-156.2937"/>
<polygon fill="#191970" stroke="#191970" points="268.7225,-149.2006 258.3447,-151.3337 267.7876,-156.1379 268.7225,-149.2006"/>
</g>
<!-- Node6 -->
<g id="node7" class="node">
<title>Node6</title>
<g id="a_node7"><a xlink:href="classmty_1_1G2Gauged.html" target="_top" xlink:title="mty::G2Gauged">
<polygon fill="#ffffff" stroke="#000000" points="294.5,-114.5 294.5,-133.5 380.5,-133.5 380.5,-114.5 294.5,-114.5"/>
<text text-anchor="middle" x="337.5" y="-121.5" font-family="Helvetica,sans-Serif" font-size="10.00" fill="#000000">mty::G2Gauged</text>
</a>
</g>
</g>
<!-- Node1&#45;&gt;Node6 -->
<g id="edge6" class="edge">
<title>Node1&#45;&gt;Node6</title>
<path fill="none" stroke="#191970" d="M268.3471,-133.3185C277.2222,-132.1225 286.0689,-130.9304 294.3242,-129.818"/>
<polygon fill="#191970" stroke="#191970" points="267.7876,-129.8621 258.3447,-134.6663 268.7225,-136.7994 267.7876,-129.8621"/>
</g>
<!-- Node7 -->
<g id="node8" class="node">
<title>Node7</title>
<g id="a_node8"><a xlink:href="classmty_1_1SOGauged.html" target="_top" xlink:title="mty::SOGauged">
<polygon fill="#ffffff" stroke="#000000" points="294,-76.5 294,-95.5 381,-95.5 381,-76.5 294,-76.5"/>
<text text-anchor="middle" x="337.5" y="-83.5" font-family="Helvetica,sans-Serif" font-size="10.00" fill="#000000">mty::SOGauged</text>
</a>
</g>
</g>
<!-- Node1&#45;&gt;Node7 -->
<g id="edge7" class="edge">
<title>Node1&#45;&gt;Node7</title>
<path fill="none" stroke="#191970" d="M241.0155,-130.3285C246.7889,-128.3705 252.5763,-126.2461 258,-124 274.715,-117.0777 277.6993,-112.8483 294,-105 300.6827,-101.7825 308.0431,-98.4789 314.7786,-95.5476"/>
<polygon fill="#191970" stroke="#191970" points="239.8085,-127.0404 231.379,-133.4586 241.9712,-133.698 239.8085,-127.0404"/>
</g>
<!-- Node8 -->
<g id="node9" class="node">
<title>Node8</title>
<g id="a_node9"><a xlink:href="classmty_1_1SpGauged.html" target="_top" xlink:title="mty::SpGauged">
<polygon fill="#ffffff" stroke="#000000" points="295,-38.5 295,-57.5 380,-57.5 380,-38.5 295,-38.5"/>
<text text-anchor="middle" x="337.5" y="-45.5" font-family="Helvetica,sans-Serif" font-size="10.00" fill="#000000">mty::SpGauged</text>
</a>
</g>
</g>
<!-- Node1&#45;&gt;Node8 -->
<g id="edge8" class="edge">
<title>Node1&#45;&gt;Node8</title>
<path fill="none" stroke="#191970" d="M250.1593,-129.0947C252.914,-127.5683 255.5505,-125.8759 258,-124 281.7883,-105.782 271.2703,-86.5228 294,-67 298.3761,-63.2413 303.6115,-60.1176 308.9089,-57.5625"/>
<polygon fill="#191970" stroke="#191970" points="248.5729,-125.9734 241.0435,-133.4272 251.5778,-132.2957 248.5729,-125.9734"/>
</g>
<!-- Node9 -->
<g id="node10" class="node">
<title>Node9</title>
<g id="a_node10"><a xlink:href="classmty_1_1SUGauged.html" target="_top" xlink:title="mty::SUGauged">
<polygon fill="#ffffff" stroke="#000000" points="294,-.5 294,-19.5 381,-19.5 381,-.5 294,-.5"/>
<text text-anchor="middle" x="337.5" y="-7.5" font-family="Helvetica,sans-Serif" font-size="10.00" fill="#000000">mty::SUGauged</text>
</a>
</g>
</g>
<!-- Node1&#45;&gt;Node9 -->
<g id="edge9" class="edge">
<title>Node1&#45;&gt;Node9</title>
<path fill="none" stroke="#191970" d="M252.5802,-128.3701C254.4951,-127.0382 256.3124,-125.5852 258,-124 290.9107,-93.0872 262.8738,-61.709 294,-29 297.6359,-25.1792 302.1726,-22.0813 306.9324,-19.5837"/>
<polygon fill="#191970" stroke="#191970" points="250.6046,-125.4678 243.6586,-133.4681 254.0776,-131.5456 250.6046,-125.4678"/>
</g>
</g>
</svg>
