<?xml version="1.0" encoding="UTF-8" standalone="no"?>
<!DOCTYPE svg PUBLIC "-//W3C//DTD SVG 1.1//EN"
 "http://www.w3.org/Graphics/SVG/1.1/DTD/svg11.dtd">
<!-- Generated by graphviz version 2.40.1 (20161225.0304)
 -->
<!-- Title: mty::FieldStrength Pages: 1 -->
<svg width="136pt" height="308pt"
 viewBox="0.00 0.00 136.00 308.00" xmlns="http://www.w3.org/2000/svg" xmlns:xlink="http://www.w3.org/1999/xlink">
<g id="graph0" class="graph" transform="scale(1 1) rotate(0) translate(4 304)">
<title>mty::FieldStrength</title>
<polygon fill="#ffffff" stroke="transparent" points="-4,4 -4,-304 132,-304 132,4 -4,4"/>
<!-- Node0 -->
<g id="node1" class="node">
<title>Node0</title>
<polygon fill="#bfbfbf" stroke="#000000" points="15.5,-.5 15.5,-19.5 112.5,-19.5 112.5,-.5 15.5,-.5"/>
<text text-anchor="middle" x="64" y="-7.5" font-family="Helvetica,sans-Serif" font-size="10.00" fill="#000000">mty::FieldStrength</text>
</g>
<!-- Node1 -->
<g id="node2" class="node">
<title>Node1</title>
<g id="a_node2"><a xlink:href="classmty_1_1BaseVectorBoson.html" target="_top" xlink:title="Base class for vector objects. ">
<polygon fill="#ffffff" stroke="#000000" points="5,-56.5 5,-75.5 123,-75.5 123,-56.5 5,-56.5"/>
<text text-anchor="middle" x="64" y="-63.5" font-family="Helvetica,sans-Serif" font-size="10.00" fill="#000000">mty::BaseVectorBoson</text>
</a>
</g>
</g>
<!-- Node1&#45;&gt;Node0 -->
<g id="edge1" class="edge">
<title>Node1&#45;&gt;Node0</title>
<path fill="none" stroke="#191970" d="M64,-46.1575C64,-37.155 64,-26.9199 64,-19.6427"/>
<polygon fill="#191970" stroke="#191970" points="60.5001,-46.2455 64,-56.2455 67.5001,-46.2456 60.5001,-46.2455"/>
</g>
<!-- Node2 -->
<g id="node3" class="node">
<title>Node2</title>
<g id="a_node3"><a xlink:href="classmty_1_1QuantumFieldParent.html" target="_top" xlink:title="Base class for parents of QuantumField objects. ">
<polygon fill="#ffffff" stroke="#000000" points="0,-112.5 0,-131.5 128,-131.5 128,-112.5 0,-112.5"/>
<text text-anchor="middle" x="64" y="-119.5" font-family="Helvetica,sans-Serif" font-size="10.00" fill="#000000">mty::QuantumFieldParent</text>
</a>
</g>
</g>
<!-- Node2&#45;&gt;Node1 -->
<g id="edge2" class="edge">
<title>Node2&#45;&gt;Node1</title>
<path fill="none" stroke="#191970" d="M64,-102.1575C64,-93.155 64,-82.9199 64,-75.6427"/>
<polygon fill="#191970" stroke="#191970" points="60.5001,-102.2455 64,-112.2455 67.5001,-102.2456 60.5001,-102.2455"/>
</g>
<!-- Node3 -->
<g id="node4" class="node">
<title>Node3</title>
<g id="a_node4"><a doxygen="/home/uhlrich/Bureau/MARTY/newlife/marty-dev/csl/csl.tag:../../csl/html/" xlink:href="../../csl/html/classcsl_1_1TensorFieldParent.html" target="_top" xlink:title="csl::TensorFieldParent">
<polygon fill="#ffffff" stroke="#000000" points="6.5,-168.5 6.5,-187.5 121.5,-187.5 121.5,-168.5 6.5,-168.5"/>
<text text-anchor="middle" x="64" y="-175.5" font-family="Helvetica,sans-Serif" font-size="10.00" fill="#000000">csl::TensorFieldParent</text>
</a>
</g>
</g>
<!-- Node3&#45;&gt;Node2 -->
<g id="edge3" class="edge">
<title>Node3&#45;&gt;Node2</title>
<path fill="none" stroke="#191970" d="M64,-158.1575C64,-149.155 64,-138.9199 64,-131.6427"/>
<polygon fill="#191970" stroke="#191970" points="60.5001,-158.2455 64,-168.2455 67.5001,-158.2456 60.5001,-158.2455"/>
</g>
<!-- Node4 -->
<g id="node5" class="node">
<title>Node4</title>
<g id="a_node5"><a doxygen="/home/uhlrich/Bureau/MARTY/newlife/marty-dev/csl/csl.tag:../../csl/html/" xlink:href="../../csl/html/classcsl_1_1TensorParent.html" target="_top" xlink:title="csl::TensorParent">
<polygon fill="#ffffff" stroke="#000000" points="17,-224.5 17,-243.5 111,-243.5 111,-224.5 17,-224.5"/>
<text text-anchor="middle" x="64" y="-231.5" font-family="Helvetica,sans-Serif" font-size="10.00" fill="#000000">csl::TensorParent</text>
</a>
</g>
</g>
<!-- Node4&#45;&gt;Node3 -->
<g id="edge4" class="edge">
<title>Node4&#45;&gt;Node3</title>
<path fill="none" stroke="#191970" d="M64,-214.1575C64,-205.155 64,-194.9199 64,-187.6427"/>
<polygon fill="#191970" stroke="#191970" points="60.5001,-214.2455 64,-224.2455 67.5001,-214.2456 60.5001,-214.2455"/>
</g>
<!-- Node5 -->
<g id="node6" class="node">
<title>Node5</title>
<g id="a_node6"><a doxygen="/home/uhlrich/Bureau/MARTY/newlife/marty-dev/csl/csl.tag:../../csl/html/" xlink:href="../../csl/html/classcsl_1_1AbstractParent.html" target="_top" xlink:title="csl::AbstractParent">
<polygon fill="#ffffff" stroke="#000000" points="13.5,-280.5 13.5,-299.5 114.5,-299.5 114.5,-280.5 13.5,-280.5"/>
<text text-anchor="middle" x="64" y="-287.5" font-family="Helvetica,sans-Serif" font-size="10.00" fill="#000000">csl::AbstractParent</text>
</a>
</g>
</g>
<!-- Node5&#45;&gt;Node4 -->
<g id="edge5" class="edge">
<title>Node5&#45;&gt;Node4</title>
<path fill="none" stroke="#191970" d="M64,-270.1575C64,-261.155 64,-250.9199 64,-243.6427"/>
<polygon fill="#191970" stroke="#191970" points="60.5001,-270.2455 64,-280.2455 67.5001,-270.2456 60.5001,-270.2455"/>
</g>
</g>
</svg>
