<?xml version="1.0" encoding="UTF-8" standalone="no"?>
<!DOCTYPE svg PUBLIC "-//W3C//DTD SVG 1.1//EN"
 "http://www.w3.org/Graphics/SVG/1.1/DTD/svg11.dtd">
<!-- Generated by graphviz version 2.40.1 (20161225.0304)
 -->
<!-- Title: mty::ModelBuilder Pages: 1 -->
<svg width="759pt" height="249pt"
 viewBox="0.00 0.00 759.00 248.50" xmlns="http://www.w3.org/2000/svg" xmlns:xlink="http://www.w3.org/1999/xlink">
<g id="graph0" class="graph" transform="scale(1 1) rotate(0) translate(4 244.5)">
<title>mty::ModelBuilder</title>
<polygon fill="#ffffff" stroke="transparent" points="-4,4 -4,-244.5 755,-244.5 755,4 -4,4"/>
<!-- Node0 -->
<g id="node1" class="node">
<title>Node0</title>
<polygon fill="#bfbfbf" stroke="#000000" points="122,-107 122,-126 217,-126 217,-107 122,-107"/>
<text text-anchor="middle" x="169.5" y="-114" font-family="Helvetica,sans-Serif" font-size="10.00" fill="#000000">mty::ModelBuilder</text>
</g>
<!-- Node2 -->
<g id="node3" class="node">
<title>Node2</title>
<g id="a_node3"><a xlink:href="classmty_1_1Model.html" target="_top" xlink:title="Contains all objects in the theory. In particular QuantumField objects, Gauge, Flavor, Particle... ">
<polygon fill="#ffffff" stroke="#000000" points="253,-107 253,-126 318,-126 318,-107 253,-107"/>
<text text-anchor="middle" x="285.5" y="-114" font-family="Helvetica,sans-Serif" font-size="10.00" fill="#000000">mty::Model</text>
</a>
</g>
</g>
<!-- Node0&#45;&gt;Node2 -->
<g id="edge2" class="edge">
<title>Node0&#45;&gt;Node2</title>
<path fill="none" stroke="#191970" d="M227.2518,-116.5C236.0146,-116.5 244.785,-116.5 252.7629,-116.5"/>
<polygon fill="#191970" stroke="#191970" points="227.0164,-113.0001 217.0163,-116.5 227.0163,-120.0001 227.0164,-113.0001"/>
</g>
<!-- Node1 -->
<g id="node2" class="node">
<title>Node1</title>
<g id="a_node2"><a xlink:href="classmty_1_1ModelData.html" target="_top" xlink:title="The class ModelData contains all the necessary features to store and manipulate the content of a mode...">
<polygon fill="#ffffff" stroke="#000000" points="0,-107 0,-126 86,-126 86,-107 0,-107"/>
<text text-anchor="middle" x="43" y="-114" font-family="Helvetica,sans-Serif" font-size="10.00" fill="#000000">mty::ModelData</text>
</a>
</g>
</g>
<!-- Node1&#45;&gt;Node0 -->
<g id="edge1" class="edge">
<title>Node1&#45;&gt;Node0</title>
<path fill="none" stroke="#191970" d="M96.3149,-116.5C104.7562,-116.5 113.4396,-116.5 121.7434,-116.5"/>
<polygon fill="#191970" stroke="#191970" points="96.1804,-113.0001 86.1803,-116.5 96.1803,-120.0001 96.1804,-113.0001"/>
</g>
<!-- Node3 -->
<g id="node4" class="node">
<title>Node3</title>
<g id="a_node4"><a xlink:href="classmty_1_1MSSM__Model.html" target="_top" xlink:title="Base class for MSSM models. If taken as is, represents the unconstrained MSSM with 105 parameters (+S...">
<polygon fill="#ffffff" stroke="#000000" points="363,-202 363,-221 464,-221 464,-202 363,-202"/>
<text text-anchor="middle" x="413.5" y="-209" font-family="Helvetica,sans-Serif" font-size="10.00" fill="#000000">mty::MSSM_Model</text>
</a>
</g>
</g>
<!-- Node2&#45;&gt;Node3 -->
<g id="edge3" class="edge">
<title>Node2&#45;&gt;Node3</title>
<path fill="none" stroke="#191970" d="M297.6139,-134.7655C309.9104,-151.9676 330.4525,-177.3012 354,-192.5 359.922,-196.3224 366.6726,-199.4286 373.4492,-201.9359"/>
<polygon fill="#191970" stroke="#191970" points="300.2305,-132.3957 291.6641,-126.1614 294.473,-136.3771 300.2305,-132.3957"/>
</g>
<!-- Node7 -->
<g id="node8" class="node">
<title>Node7</title>
<g id="a_node8"><a xlink:href="classmty_1_1PMSSM__LEM.html" target="_top" xlink:title="mty::PMSSM_LEM">
<polygon fill="#ffffff" stroke="#000000" points="363,-164 363,-183 464,-183 464,-164 363,-164"/>
<text text-anchor="middle" x="413.5" y="-171" font-family="Helvetica,sans-Serif" font-size="10.00" fill="#000000">mty::PMSSM_LEM</text>
</a>
</g>
</g>
<!-- Node2&#45;&gt;Node7 -->
<g id="edge7" class="edge">
<title>Node2&#45;&gt;Node7</title>
<path fill="none" stroke="#191970" d="M309.5383,-131.3685C322.4144,-138.9356 338.7299,-147.9033 354,-154.5 362.1628,-158.0263 371.2009,-161.243 379.7163,-163.9866"/>
<polygon fill="#191970" stroke="#191970" points="311.2127,-128.2917 300.8345,-126.16 307.6181,-134.2983 311.2127,-128.2917"/>
</g>
<!-- Node8 -->
<g id="node9" class="node">
<title>Node8</title>
<g id="a_node9"><a xlink:href="classmty_1_1QCD__Model.html" target="_top" xlink:title="mty::QCD_Model">
<polygon fill="#ffffff" stroke="#000000" points="367,-126 367,-145 460,-145 460,-126 367,-126"/>
<text text-anchor="middle" x="413.5" y="-133" font-family="Helvetica,sans-Serif" font-size="10.00" fill="#000000">mty::QCD_Model</text>
</a>
</g>
</g>
<!-- Node2&#45;&gt;Node8 -->
<g id="edge8" class="edge">
<title>Node2&#45;&gt;Node8</title>
<path fill="none" stroke="#191970" d="M328.2321,-122.8431C340.6521,-124.6866 354.2776,-126.7092 366.9213,-128.586"/>
<polygon fill="#191970" stroke="#191970" points="328.5365,-119.35 318.131,-121.3437 327.5087,-126.2741 328.5365,-119.35"/>
</g>
<!-- Node9 -->
<g id="node10" class="node">
<title>Node9</title>
<g id="a_node10"><a xlink:href="classmty_1_1QED__Model.html" target="_top" xlink:title="mty::QED_Model">
<polygon fill="#ffffff" stroke="#000000" points="367.5,-88 367.5,-107 459.5,-107 459.5,-88 367.5,-88"/>
<text text-anchor="middle" x="413.5" y="-95" font-family="Helvetica,sans-Serif" font-size="10.00" fill="#000000">mty::QED_Model</text>
</a>
</g>
</g>
<!-- Node2&#45;&gt;Node9 -->
<g id="edge9" class="edge">
<title>Node2&#45;&gt;Node9</title>
<path fill="none" stroke="#191970" d="M328.3365,-110.1415C340.8874,-108.2784 354.662,-106.2338 367.4063,-104.342"/>
<polygon fill="#191970" stroke="#191970" points="327.5087,-106.7259 318.131,-111.6563 328.5365,-113.65 327.5087,-106.7259"/>
</g>
<!-- Node10 -->
<g id="node11" class="node">
<title>Node10</title>
<g id="a_node11"><a xlink:href="classmty_1_1SM__Model.html" target="_top" xlink:title="Standard Model of particle physics. ">
<polygon fill="#ffffff" stroke="#000000" points="370.5,-50 370.5,-69 456.5,-69 456.5,-50 370.5,-50"/>
<text text-anchor="middle" x="413.5" y="-57" font-family="Helvetica,sans-Serif" font-size="10.00" fill="#000000">mty::SM_Model</text>
</a>
</g>
</g>
<!-- Node2&#45;&gt;Node10 -->
<g id="edge10" class="edge">
<title>Node2&#45;&gt;Node10</title>
<path fill="none" stroke="#191970" d="M309.5383,-101.6315C322.4144,-94.0644 338.7299,-85.0967 354,-78.5 362.1628,-74.9737 371.2009,-71.757 379.7163,-69.0134"/>
<polygon fill="#191970" stroke="#191970" points="307.6181,-98.7017 300.8345,-106.84 311.2127,-104.7083 307.6181,-98.7017"/>
</g>
<!-- Node11 -->
<g id="node12" class="node">
<title>Node11</title>
<g id="a_node12"><a xlink:href="classmty_1_1TwoHDM__Model.html" target="_top" xlink:title="mty::TwoHDM_Model\&lt;\l type \&gt;">
<polygon fill="#ffffff" stroke="#000000" points="354,-.5 354,-30.5 473,-30.5 473,-.5 354,-.5"/>
<text text-anchor="start" x="362" y="-18.5" font-family="Helvetica,sans-Serif" font-size="10.00" fill="#000000">mty::TwoHDM_Model&lt;</text>
<text text-anchor="middle" x="413.5" y="-7.5" font-family="Helvetica,sans-Serif" font-size="10.00" fill="#000000"> type &gt;</text>
</a>
</g>
</g>
<!-- Node2&#45;&gt;Node11 -->
<g id="edge11" class="edge">
<title>Node2&#45;&gt;Node11</title>
<path fill="none" stroke="#191970" d="M298.1232,-98.4175C310.6666,-81.5537 331.2715,-56.6409 354,-40.5 359.2072,-36.8021 365.0453,-33.5115 370.9752,-30.6302"/>
<polygon fill="#191970" stroke="#191970" points="295.0475,-96.6977 292.0218,-106.8513 300.719,-100.8008 295.0475,-96.6977"/>
</g>
<!-- Node4 -->
<g id="node5" class="node">
<title>Node4</title>
<g id="a_node5"><a xlink:href="classmty_1_1MSSM__HEM.html" target="_top" xlink:title="mty::MSSM_HEM">
<polygon fill="#ffffff" stroke="#000000" points="514,-221 514,-240 611,-240 611,-221 514,-221"/>
<text text-anchor="middle" x="562.5" y="-228" font-family="Helvetica,sans-Serif" font-size="10.00" fill="#000000">mty::MSSM_HEM</text>
</a>
</g>
</g>
<!-- Node3&#45;&gt;Node4 -->
<g id="edge4" class="edge">
<title>Node3&#45;&gt;Node4</title>
<path fill="none" stroke="#191970" d="M474.2943,-219.2523C487.4729,-220.9328 501.2442,-222.6889 513.881,-224.3003"/>
<polygon fill="#191970" stroke="#191970" points="474.723,-215.7787 464.3606,-217.9856 473.8375,-222.7225 474.723,-215.7787"/>
</g>
<!-- Node5 -->
<g id="node6" class="node">
<title>Node5</title>
<g id="a_node6"><a xlink:href="classmty_1_1PMSSM__Model.html" target="_top" xlink:title="mty::PMSSM_Model">
<polygon fill="#ffffff" stroke="#000000" points="509,-183 509,-202 616,-202 616,-183 509,-183"/>
<text text-anchor="middle" x="562.5" y="-190" font-family="Helvetica,sans-Serif" font-size="10.00" fill="#000000">mty::PMSSM_Model</text>
</a>
</g>
</g>
<!-- Node3&#45;&gt;Node5 -->
<g id="edge5" class="edge">
<title>Node3&#45;&gt;Node5</title>
<path fill="none" stroke="#191970" d="M474.6208,-203.7061C485.9581,-202.2604 497.7228,-200.7602 508.8178,-199.3454"/>
<polygon fill="#191970" stroke="#191970" points="473.8375,-200.2775 464.3606,-205.0144 474.723,-207.2213 473.8375,-200.2775"/>
</g>
<!-- Node6 -->
<g id="node7" class="node">
<title>Node6</title>
<g id="a_node7"><a xlink:href="classmty_1_1NMFV__Model.html" target="_top" xlink:title="mty::NMFV_Model">
<polygon fill="#ffffff" stroke="#000000" points="652,-183 652,-202 751,-202 751,-183 652,-183"/>
<text text-anchor="middle" x="701.5" y="-190" font-family="Helvetica,sans-Serif" font-size="10.00" fill="#000000">mty::NMFV_Model</text>
</a>
</g>
</g>
<!-- Node5&#45;&gt;Node6 -->
<g id="edge6" class="edge">
<title>Node5&#45;&gt;Node6</title>
<path fill="none" stroke="#191970" d="M626.2864,-192.5C634.9173,-192.5 643.6665,-192.5 651.9968,-192.5"/>
<polygon fill="#191970" stroke="#191970" points="626.2411,-189.0001 616.241,-192.5 626.241,-196.0001 626.2411,-189.0001"/>
</g>
</g>
</svg>
