<?xml version="1.0" encoding="UTF-8" standalone="no"?>
<!DOCTYPE svg PUBLIC "-//W3C//DTD SVG 1.1//EN"
 "http://www.w3.org/Graphics/SVG/1.1/DTD/svg11.dtd">
<!-- Generated by graphviz version 2.40.1 (20161225.0304)
 -->
<!-- Title: Ui::EdgeForm Pages: 1 -->
<svg width="85pt" height="84pt"
 viewBox="0.00 0.00 85.00 84.00" xmlns="http://www.w3.org/2000/svg" xmlns:xlink="http://www.w3.org/1999/xlink">
<g id="graph0" class="graph" transform="scale(1 1) rotate(0) translate(4 80)">
<title>Ui::EdgeForm</title>
<polygon fill="#ffffff" stroke="transparent" points="-4,4 -4,-80 81,-80 81,4 -4,4"/>
<!-- Node0 -->
<g id="node1" class="node">
<title>Node0</title>
<polygon fill="#bfbfbf" stroke="#000000" points="0,-.5 0,-19.5 77,-19.5 77,-.5 0,-.5"/>
<text text-anchor="middle" x="38.5" y="-7.5" font-family="Helvetica,sans-Serif" font-size="10.00" fill="#000000">Ui::EdgeForm</text>
</g>
<!-- Node1 -->
<g id="node2" class="node">
<title>Node1</title>
<g id="a_node2"><a xlink:href="classUi__EdgeForm.html" target="_top" xlink:title="Ui_EdgeForm">
<polygon fill="#ffffff" stroke="#000000" points="0,-56.5 0,-75.5 77,-75.5 77,-56.5 0,-56.5"/>
<text text-anchor="middle" x="38.5" y="-63.5" font-family="Helvetica,sans-Serif" font-size="10.00" fill="#000000">Ui_EdgeForm</text>
</a>
</g>
</g>
<!-- Node1&#45;&gt;Node0 -->
<g id="edge1" class="edge">
<title>Node1&#45;&gt;Node0</title>
<path fill="none" stroke="#191970" d="M32.0113,-46.1575C31.419,-37.155 31.8335,-26.9199 33.2549,-19.6427"/>
<polygon fill="#191970" stroke="#191970" points="28.5561,-46.739 33.2332,-56.2455 35.5053,-45.8972 28.5561,-46.739"/>
</g>
<!-- Node1&#45;&gt;Node0 -->
<g id="edge2" class="edge">
<title>Node1&#45;&gt;Node0</title>
<path fill="none" stroke="#191970" d="M44.9887,-46.1575C45.581,-37.155 45.1665,-26.9199 43.7451,-19.6427"/>
<polygon fill="#191970" stroke="#191970" points="41.4947,-45.8972 43.7668,-56.2455 48.4439,-46.739 41.4947,-45.8972"/>
</g>
</g>
</svg>
