<?xml version="1.0" encoding="UTF-8" standalone="no"?>
<!DOCTYPE svg PUBLIC "-//W3C//DTD SVG 1.1//EN"
 "http://www.w3.org/Graphics/SVG/1.1/DTD/svg11.dtd">
<!-- Generated by graphviz version 2.40.1 (20161225.0304)
 -->
<!-- Title: sgl::AbstractMultiFunction Pages: 1 -->
<svg width="242pt" height="207pt"
 viewBox="0.00 0.00 241.50 207.00" xmlns="http://www.w3.org/2000/svg" xmlns:xlink="http://www.w3.org/1999/xlink">
<g id="graph0" class="graph" transform="scale(1 1) rotate(0) translate(4 203)">
<title>sgl::AbstractMultiFunction</title>
<polygon fill="#ffffff" stroke="transparent" points="-4,4 -4,-203 237.5,-203 237.5,4 -4,4"/>
<!-- Node0 -->
<g id="node1" class="node">
<title>Node0</title>
<polygon fill="#bfbfbf" stroke="#000000" points="66,-56.5 66,-75.5 197,-75.5 197,-56.5 66,-56.5"/>
<text text-anchor="middle" x="131.5" y="-63.5" font-family="Helvetica,sans-Serif" font-size="10.00" fill="#000000">sgl::AbstractMultiFunction</text>
</g>
<!-- Node3 -->
<g id="node4" class="node">
<title>Node3</title>
<g id="a_node4"><a xlink:href="classsgl_1_1IndexChain.html" target="_top" xlink:title="sgl::IndexChain">
<polygon fill="#ffffff" stroke="#000000" points="0,-.5 0,-19.5 85,-19.5 85,-.5 0,-.5"/>
<text text-anchor="middle" x="42.5" y="-7.5" font-family="Helvetica,sans-Serif" font-size="10.00" fill="#000000">sgl::IndexChain</text>
</a>
</g>
</g>
<!-- Node0&#45;&gt;Node3 -->
<g id="edge3" class="edge">
<title>Node0&#45;&gt;Node3</title>
<path fill="none" stroke="#191970" d="M107.2936,-50.769C91.5225,-40.8456 71.424,-28.1994 57.825,-19.6427"/>
<polygon fill="#191970" stroke="#191970" points="105.6695,-53.8823 115.9974,-56.2455 109.3974,-47.9575 105.6695,-53.8823"/>
</g>
<!-- Node4 -->
<g id="node5" class="node">
<title>Node4</title>
<g id="a_node5"><a xlink:href="classsgl_1_1Prod.html" target="_top" xlink:title="sgl::Prod">
<polygon fill="#ffffff" stroke="#000000" points="103.5,-.5 103.5,-19.5 159.5,-19.5 159.5,-.5 103.5,-.5"/>
<text text-anchor="middle" x="131.5" y="-7.5" font-family="Helvetica,sans-Serif" font-size="10.00" fill="#000000">sgl::Prod</text>
</a>
</g>
</g>
<!-- Node0&#45;&gt;Node4 -->
<g id="edge4" class="edge">
<title>Node0&#45;&gt;Node4</title>
<path fill="none" stroke="#191970" d="M131.5,-46.1575C131.5,-37.155 131.5,-26.9199 131.5,-19.6427"/>
<polygon fill="#191970" stroke="#191970" points="128.0001,-46.2455 131.5,-56.2455 135.0001,-46.2456 128.0001,-46.2455"/>
</g>
<!-- Node5 -->
<g id="node6" class="node">
<title>Node5</title>
<g id="a_node6"><a xlink:href="classsgl_1_1Sum.html" target="_top" xlink:title="sgl::Sum">
<polygon fill="#ffffff" stroke="#000000" points="177.5,-.5 177.5,-19.5 233.5,-19.5 233.5,-.5 177.5,-.5"/>
<text text-anchor="middle" x="205.5" y="-7.5" font-family="Helvetica,sans-Serif" font-size="10.00" fill="#000000">sgl::Sum</text>
</a>
</g>
</g>
<!-- Node0&#45;&gt;Node5 -->
<g id="edge5" class="edge">
<title>Node0&#45;&gt;Node5</title>
<path fill="none" stroke="#191970" d="M152.3657,-50.2097C165.3625,-40.3743 181.6622,-28.0394 192.7579,-19.6427"/>
<polygon fill="#191970" stroke="#191970" points="150.2518,-47.4201 144.3898,-56.2455 154.476,-53.002 150.2518,-47.4201"/>
</g>
<!-- Node1 -->
<g id="node2" class="node">
<title>Node1</title>
<g id="a_node2"><a xlink:href="classsgl_1_1AbstractGammaSym.html" target="_top" xlink:title="sgl::AbstractGammaSym">
<polygon fill="#ffffff" stroke="#000000" points="68,-112.5 68,-131.5 195,-131.5 195,-112.5 68,-112.5"/>
<text text-anchor="middle" x="131.5" y="-119.5" font-family="Helvetica,sans-Serif" font-size="10.00" fill="#000000">sgl::AbstractGammaSym</text>
</a>
</g>
</g>
<!-- Node1&#45;&gt;Node0 -->
<g id="edge1" class="edge">
<title>Node1&#45;&gt;Node0</title>
<path fill="none" stroke="#191970" d="M131.5,-102.1575C131.5,-93.155 131.5,-82.9199 131.5,-75.6427"/>
<polygon fill="#191970" stroke="#191970" points="128.0001,-102.2455 131.5,-112.2455 135.0001,-102.2456 128.0001,-102.2455"/>
</g>
<!-- Node2 -->
<g id="node3" class="node">
<title>Node2</title>
<polygon fill="#ffffff" stroke="#bfbfbf" points="45.5,-168.5 45.5,-198.5 217.5,-198.5 217.5,-168.5 45.5,-168.5"/>
<text text-anchor="start" x="53.5" y="-186.5" font-family="Helvetica,sans-Serif" font-size="10.00" fill="#000000">std::enable_shared</text>
<text text-anchor="middle" x="131.5" y="-175.5" font-family="Helvetica,sans-Serif" font-size="10.00" fill="#000000">_from_this&lt; AbstractGammaSym &gt;</text>
</g>
<!-- Node2&#45;&gt;Node1 -->
<g id="edge2" class="edge">
<title>Node2&#45;&gt;Node1</title>
<path fill="none" stroke="#191970" d="M131.5,-158.2849C131.5,-148.9858 131.5,-138.9883 131.5,-131.8469"/>
<polygon fill="#191970" stroke="#191970" points="128.0001,-158.2977 131.5,-168.2977 135.0001,-158.2978 128.0001,-158.2977"/>
</g>
</g>
</svg>
