<?xml version="1.0" encoding="UTF-8" standalone="no"?>
<!DOCTYPE svg PUBLIC "-//W3C//DTD SVG 1.1//EN"
 "http://www.w3.org/Graphics/SVG/1.1/DTD/svg11.dtd">
<!-- Generated by graphviz version 2.40.1 (20161225.0304)
 -->
<!-- Title: mty::TwoHDM_Model&lt; type &gt; Pages: 1 -->
<svg width="127pt" height="207pt"
 viewBox="0.00 0.00 127.00 207.00" xmlns="http://www.w3.org/2000/svg" xmlns:xlink="http://www.w3.org/1999/xlink">
<g id="graph0" class="graph" transform="scale(1 1) rotate(0) translate(4 203)">
<title>mty::TwoHDM_Model&lt; type &gt;</title>
<polygon fill="#ffffff" stroke="transparent" points="-4,4 -4,-203 123,-203 123,4 -4,4"/>
<!-- Node0 -->
<g id="node1" class="node">
<title>Node0</title>
<polygon fill="#bfbfbf" stroke="#000000" points="0,-.5 0,-30.5 119,-30.5 119,-.5 0,-.5"/>
<text text-anchor="start" x="8" y="-18.5" font-family="Helvetica,sans-Serif" font-size="10.00" fill="#000000">mty::TwoHDM_Model&lt;</text>
<text text-anchor="middle" x="59.5" y="-7.5" font-family="Helvetica,sans-Serif" font-size="10.00" fill="#000000"> type &gt;</text>
</g>
<!-- Node1 -->
<g id="node2" class="node">
<title>Node1</title>
<g id="a_node2"><a xlink:href="classmty_1_1Model.html" target="_top" xlink:title="Contains all objects in the theory. In particular QuantumField objects, Gauge, Flavor, Particle... ">
<polygon fill="#ffffff" stroke="#000000" points="27,-67.5 27,-86.5 92,-86.5 92,-67.5 27,-67.5"/>
<text text-anchor="middle" x="59.5" y="-74.5" font-family="Helvetica,sans-Serif" font-size="10.00" fill="#000000">mty::Model</text>
</a>
</g>
</g>
<!-- Node1&#45;&gt;Node0 -->
<g id="edge1" class="edge">
<title>Node1&#45;&gt;Node0</title>
<path fill="none" stroke="#191970" d="M59.5,-57.3693C59.5,-48.681 59.5,-38.6241 59.5,-30.5446"/>
<polygon fill="#191970" stroke="#191970" points="56.0001,-57.3906 59.5,-67.3906 63.0001,-57.3907 56.0001,-57.3906"/>
</g>
<!-- Node2 -->
<g id="node3" class="node">
<title>Node2</title>
<g id="a_node3"><a xlink:href="classmty_1_1ModelBuilder.html" target="_top" xlink:title="Class containing all model building features of MARTY. ">
<polygon fill="#ffffff" stroke="#000000" points="12,-123.5 12,-142.5 107,-142.5 107,-123.5 12,-123.5"/>
<text text-anchor="middle" x="59.5" y="-130.5" font-family="Helvetica,sans-Serif" font-size="10.00" fill="#000000">mty::ModelBuilder</text>
</a>
</g>
</g>
<!-- Node2&#45;&gt;Node1 -->
<g id="edge2" class="edge">
<title>Node2&#45;&gt;Node1</title>
<path fill="none" stroke="#191970" d="M59.5,-113.1575C59.5,-104.155 59.5,-93.9199 59.5,-86.6427"/>
<polygon fill="#191970" stroke="#191970" points="56.0001,-113.2455 59.5,-123.2455 63.0001,-113.2456 56.0001,-113.2455"/>
</g>
<!-- Node3 -->
<g id="node4" class="node">
<title>Node3</title>
<g id="a_node4"><a xlink:href="classmty_1_1ModelData.html" target="_top" xlink:title="The class ModelData contains all the necessary features to store and manipulate the content of a mode...">
<polygon fill="#ffffff" stroke="#000000" points="16.5,-179.5 16.5,-198.5 102.5,-198.5 102.5,-179.5 16.5,-179.5"/>
<text text-anchor="middle" x="59.5" y="-186.5" font-family="Helvetica,sans-Serif" font-size="10.00" fill="#000000">mty::ModelData</text>
</a>
</g>
</g>
<!-- Node3&#45;&gt;Node2 -->
<g id="edge3" class="edge">
<title>Node3&#45;&gt;Node2</title>
<path fill="none" stroke="#191970" d="M59.5,-169.1575C59.5,-160.155 59.5,-149.9199 59.5,-142.6427"/>
<polygon fill="#191970" stroke="#191970" points="56.0001,-169.2455 59.5,-179.2455 63.0001,-169.2456 56.0001,-169.2455"/>
</g>
</g>
</svg>
