<?xml version="1.0" encoding="UTF-8" standalone="no"?>
<!DOCTYPE svg PUBLIC "-//W3C//DTD SVG 1.1//EN"
 "http://www.w3.org/Graphics/SVG/1.1/DTD/svg11.dtd">
<!-- Generated by graphviz version 2.40.1 (20161225.0304)
 -->
<!-- Title: mty::QuantumFieldParent Pages: 1 -->
<svg width="512pt" height="364pt"
 viewBox="0.00 0.00 512.00 364.00" xmlns="http://www.w3.org/2000/svg" xmlns:xlink="http://www.w3.org/1999/xlink">
<g id="graph0" class="graph" transform="scale(1 1) rotate(0) translate(4 360)">
<title>mty::QuantumFieldParent</title>
<polygon fill="#ffffff" stroke="transparent" points="-4,4 -4,-360 508,-360 508,4 -4,4"/>
<!-- Node0 -->
<g id="node1" class="node">
<title>Node0</title>
<polygon fill="#bfbfbf" stroke="#000000" points="219.5,-168.5 219.5,-187.5 347.5,-187.5 347.5,-168.5 219.5,-168.5"/>
<text text-anchor="middle" x="283.5" y="-175.5" font-family="Helvetica,sans-Serif" font-size="10.00" fill="#000000">mty::QuantumFieldParent</text>
</g>
<!-- Node4 -->
<g id="node5" class="node">
<title>Node4</title>
<g id="a_node5"><a xlink:href="classmty_1_1BaseVectorBoson.html" target="_top" xlink:title="Base class for vector objects. ">
<polygon fill="#ffffff" stroke="#000000" points="41.5,-112.5 41.5,-131.5 159.5,-131.5 159.5,-112.5 41.5,-112.5"/>
<text text-anchor="middle" x="100.5" y="-119.5" font-family="Helvetica,sans-Serif" font-size="10.00" fill="#000000">mty::BaseVectorBoson</text>
</a>
</g>
</g>
<!-- Node0&#45;&gt;Node4 -->
<g id="edge4" class="edge">
<title>Node0&#45;&gt;Node4</title>
<path fill="none" stroke="#191970" d="M242.075,-165.3235C208.5144,-155.0536 161.966,-140.8093 131.5483,-131.5011"/>
<polygon fill="#191970" stroke="#191970" points="241.4547,-168.7938 252.0412,-168.3733 243.5031,-162.1002 241.4547,-168.7938"/>
</g>
<!-- Node8 -->
<g id="node9" class="node">
<title>Node8</title>
<g id="a_node9"><a xlink:href="classmty_1_1DiracFermion.html" target="_top" xlink:title="Dirac or Majorana fermion in MARTY. ">
<polygon fill="#ffffff" stroke="#000000" points="177.5,-112.5 177.5,-131.5 275.5,-131.5 275.5,-112.5 177.5,-112.5"/>
<text text-anchor="middle" x="226.5" y="-119.5" font-family="Helvetica,sans-Serif" font-size="10.00" fill="#000000">mty::DiracFermion</text>
</a>
</g>
</g>
<!-- Node0&#45;&gt;Node8 -->
<g id="edge8" class="edge">
<title>Node0&#45;&gt;Node8</title>
<path fill="none" stroke="#191970" d="M266.2729,-161.0751C256.4659,-151.4402 244.536,-139.7196 236.3149,-131.6427"/>
<polygon fill="#191970" stroke="#191970" points="263.9851,-163.734 273.5714,-168.2455 268.8909,-158.7406 263.9851,-163.734"/>
</g>
<!-- Node9 -->
<g id="node10" class="node">
<title>Node9</title>
<g id="a_node10"><a xlink:href="classmty_1_1ScalarBoson.html" target="_top" xlink:title="Scalar boson, spin 0 particles in MARTY. ">
<polygon fill="#ffffff" stroke="#000000" points="294,-112.5 294,-131.5 389,-131.5 389,-112.5 294,-112.5"/>
<text text-anchor="middle" x="341.5" y="-119.5" font-family="Helvetica,sans-Serif" font-size="10.00" fill="#000000">mty::ScalarBoson</text>
</a>
</g>
</g>
<!-- Node0&#45;&gt;Node9 -->
<g id="edge9" class="edge">
<title>Node0&#45;&gt;Node9</title>
<path fill="none" stroke="#191970" d="M301.0293,-161.0751C311.0083,-151.4402 323.1476,-139.7196 331.5129,-131.6427"/>
<polygon fill="#191970" stroke="#191970" points="298.3658,-158.7817 293.6028,-168.2455 303.228,-163.8175 298.3658,-158.7817"/>
</g>
<!-- Node12 -->
<g id="node13" class="node">
<title>Node12</title>
<g id="a_node13"><a xlink:href="classmty_1_1WeylFermion.html" target="_top" xlink:title="Weyl fermion, two&#45;component Chiral particle. ">
<polygon fill="#ffffff" stroke="#000000" points="407,-112.5 407,-131.5 504,-131.5 504,-112.5 407,-112.5"/>
<text text-anchor="middle" x="455.5" y="-119.5" font-family="Helvetica,sans-Serif" font-size="10.00" fill="#000000">mty::WeylFermion</text>
</a>
</g>
</g>
<!-- Node0&#45;&gt;Node12 -->
<g id="edge12" class="edge">
<title>Node0&#45;&gt;Node12</title>
<path fill="none" stroke="#191970" d="M322.8435,-165.1905C354.3551,-154.9309 397.8519,-140.7691 426.318,-131.5011"/>
<polygon fill="#191970" stroke="#191970" points="321.493,-161.9493 313.0679,-168.3733 323.6601,-168.6054 321.493,-161.9493"/>
</g>
<!-- Node1 -->
<g id="node2" class="node">
<title>Node1</title>
<g id="a_node2"><a doxygen="/home/uhlrich/Bureau/MARTY/newlife/marty-dev/csl/csl.tag:../../csl/html/" xlink:href="../../csl/html/classcsl_1_1TensorFieldParent.html" target="_top" xlink:title="csl::TensorFieldParent">
<polygon fill="#ffffff" stroke="#000000" points="226,-224.5 226,-243.5 341,-243.5 341,-224.5 226,-224.5"/>
<text text-anchor="middle" x="283.5" y="-231.5" font-family="Helvetica,sans-Serif" font-size="10.00" fill="#000000">csl::TensorFieldParent</text>
</a>
</g>
</g>
<!-- Node1&#45;&gt;Node0 -->
<g id="edge1" class="edge">
<title>Node1&#45;&gt;Node0</title>
<path fill="none" stroke="#191970" d="M283.5,-214.1575C283.5,-205.155 283.5,-194.9199 283.5,-187.6427"/>
<polygon fill="#191970" stroke="#191970" points="280.0001,-214.2455 283.5,-224.2455 287.0001,-214.2456 280.0001,-214.2455"/>
</g>
<!-- Node2 -->
<g id="node3" class="node">
<title>Node2</title>
<g id="a_node3"><a doxygen="/home/uhlrich/Bureau/MARTY/newlife/marty-dev/csl/csl.tag:../../csl/html/" xlink:href="../../csl/html/classcsl_1_1TensorParent.html" target="_top" xlink:title="csl::TensorParent">
<polygon fill="#ffffff" stroke="#000000" points="236.5,-280.5 236.5,-299.5 330.5,-299.5 330.5,-280.5 236.5,-280.5"/>
<text text-anchor="middle" x="283.5" y="-287.5" font-family="Helvetica,sans-Serif" font-size="10.00" fill="#000000">csl::TensorParent</text>
</a>
</g>
</g>
<!-- Node2&#45;&gt;Node1 -->
<g id="edge2" class="edge">
<title>Node2&#45;&gt;Node1</title>
<path fill="none" stroke="#191970" d="M283.5,-270.1575C283.5,-261.155 283.5,-250.9199 283.5,-243.6427"/>
<polygon fill="#191970" stroke="#191970" points="280.0001,-270.2455 283.5,-280.2455 287.0001,-270.2456 280.0001,-270.2455"/>
</g>
<!-- Node3 -->
<g id="node4" class="node">
<title>Node3</title>
<g id="a_node4"><a doxygen="/home/uhlrich/Bureau/MARTY/newlife/marty-dev/csl/csl.tag:../../csl/html/" xlink:href="../../csl/html/classcsl_1_1AbstractParent.html" target="_top" xlink:title="csl::AbstractParent">
<polygon fill="#ffffff" stroke="#000000" points="233,-336.5 233,-355.5 334,-355.5 334,-336.5 233,-336.5"/>
<text text-anchor="middle" x="283.5" y="-343.5" font-family="Helvetica,sans-Serif" font-size="10.00" fill="#000000">csl::AbstractParent</text>
</a>
</g>
</g>
<!-- Node3&#45;&gt;Node2 -->
<g id="edge3" class="edge">
<title>Node3&#45;&gt;Node2</title>
<path fill="none" stroke="#191970" d="M283.5,-326.1575C283.5,-317.155 283.5,-306.9199 283.5,-299.6427"/>
<polygon fill="#191970" stroke="#191970" points="280.0001,-326.2455 283.5,-336.2455 287.0001,-326.2456 280.0001,-326.2455"/>
</g>
<!-- Node5 -->
<g id="node6" class="node">
<title>Node5</title>
<g id="a_node6"><a xlink:href="classmty_1_1FieldStrength.html" target="_top" xlink:title="Field strength object in MARTY. ">
<polygon fill="#ffffff" stroke="#000000" points="0,-56.5 0,-75.5 97,-75.5 97,-56.5 0,-56.5"/>
<text text-anchor="middle" x="48.5" y="-63.5" font-family="Helvetica,sans-Serif" font-size="10.00" fill="#000000">mty::FieldStrength</text>
</a>
</g>
</g>
<!-- Node4&#45;&gt;Node5 -->
<g id="edge5" class="edge">
<title>Node4&#45;&gt;Node5</title>
<path fill="none" stroke="#191970" d="M84.5178,-104.7884C75.6222,-95.2085 64.8796,-83.6396 57.4539,-75.6427"/>
<polygon fill="#191970" stroke="#191970" points="82.073,-107.2992 91.4423,-112.2455 87.2025,-102.536 82.073,-107.2992"/>
</g>
<!-- Node6 -->
<g id="node7" class="node">
<title>Node6</title>
<g id="a_node7"><a xlink:href="classmty_1_1VectorBoson.html" target="_top" xlink:title="Implementation of vector bosons in AMRTY. ">
<polygon fill="#ffffff" stroke="#000000" points="115,-56.5 115,-75.5 210,-75.5 210,-56.5 115,-56.5"/>
<text text-anchor="middle" x="162.5" y="-63.5" font-family="Helvetica,sans-Serif" font-size="10.00" fill="#000000">mty::VectorBoson</text>
</a>
</g>
</g>
<!-- Node4&#45;&gt;Node6 -->
<g id="edge6" class="edge">
<title>Node4&#45;&gt;Node6</title>
<path fill="none" stroke="#191970" d="M118.9221,-105.3607C129.6481,-95.6727 142.7934,-83.7995 151.8242,-75.6427"/>
<polygon fill="#191970" stroke="#191970" points="116.3746,-102.9453 111.2996,-112.2455 121.0666,-108.14 116.3746,-102.9453"/>
</g>
<!-- Node7 -->
<g id="node8" class="node">
<title>Node7</title>
<g id="a_node8"><a xlink:href="classmty_1_1GaugeBoson.html" target="_top" xlink:title="Gauge boson implementation in MARTY. ">
<polygon fill="#ffffff" stroke="#000000" points="115,-.5 115,-19.5 210,-19.5 210,-.5 115,-.5"/>
<text text-anchor="middle" x="162.5" y="-7.5" font-family="Helvetica,sans-Serif" font-size="10.00" fill="#000000">mty::GaugeBoson</text>
</a>
</g>
</g>
<!-- Node6&#45;&gt;Node7 -->
<g id="edge7" class="edge">
<title>Node6&#45;&gt;Node7</title>
<path fill="none" stroke="#191970" d="M162.5,-46.1575C162.5,-37.155 162.5,-26.9199 162.5,-19.6427"/>
<polygon fill="#191970" stroke="#191970" points="159.0001,-46.2455 162.5,-56.2455 166.0001,-46.2456 159.0001,-46.2455"/>
</g>
<!-- Node10 -->
<g id="node11" class="node">
<title>Node10</title>
<g id="a_node11"><a xlink:href="classmty_1_1GhostBoson.html" target="_top" xlink:title="Ghost boson, created with the vector bosons in non abelian gauge groups. ">
<polygon fill="#ffffff" stroke="#000000" points="261,-56.5 261,-75.5 354,-75.5 354,-56.5 261,-56.5"/>
<text text-anchor="middle" x="307.5" y="-63.5" font-family="Helvetica,sans-Serif" font-size="10.00" fill="#000000">mty::GhostBoson</text>
</a>
</g>
</g>
<!-- Node9&#45;&gt;Node10 -->
<g id="edge10" class="edge">
<title>Node9&#45;&gt;Node10</title>
<path fill="none" stroke="#191970" d="M330.3465,-103.6296C324.6753,-94.2887 318.0155,-83.3197 313.3545,-75.6427"/>
<polygon fill="#191970" stroke="#191970" points="327.3961,-105.5141 335.5777,-112.2455 333.3796,-101.8812 327.3961,-105.5141"/>
</g>
<!-- Node11 -->
<g id="node12" class="node">
<title>Node11</title>
<g id="a_node12"><a xlink:href="classmty_1_1GoldstoneBoson.html" target="_top" xlink:title="Goldstone boson class. ">
<polygon fill="#ffffff" stroke="#000000" points="372,-56.5 372,-75.5 483,-75.5 483,-56.5 372,-56.5"/>
<text text-anchor="middle" x="427.5" y="-63.5" font-family="Helvetica,sans-Serif" font-size="10.00" fill="#000000">mty::GoldstoneBoson</text>
</a>
</g>
</g>
<!-- Node9&#45;&gt;Node11 -->
<g id="edge11" class="edge">
<title>Node9&#45;&gt;Node11</title>
<path fill="none" stroke="#191970" d="M364.8905,-106.769C380.1299,-96.8456 399.5509,-84.1994 412.6916,-75.6427"/>
<polygon fill="#191970" stroke="#191970" points="362.9502,-103.8558 356.4801,-112.2455 366.7699,-109.7218 362.9502,-103.8558"/>
</g>
</g>
</svg>
