<?xml version="1.0" encoding="UTF-8" standalone="no"?>
<!DOCTYPE svg PUBLIC "-//W3C//DTD SVG 1.1//EN"
 "http://www.w3.org/Graphics/SVG/1.1/DTD/svg11.dtd">
<!-- Generated by graphviz version 2.40.1 (20161225.0304)
 -->
<!-- Title: mty::BaseVectorBoson Pages: 1 -->
<svg width="218pt" height="364pt"
 viewBox="0.00 0.00 218.00 364.00" xmlns="http://www.w3.org/2000/svg" xmlns:xlink="http://www.w3.org/1999/xlink">
<g id="graph0" class="graph" transform="scale(1 1) rotate(0) translate(4 360)">
<title>mty::BaseVectorBoson</title>
<polygon fill="#ffffff" stroke="transparent" points="-4,4 -4,-360 214,-360 214,4 -4,4"/>
<!-- Node0 -->
<g id="node1" class="node">
<title>Node0</title>
<polygon fill="#bfbfbf" stroke="#000000" points="46.5,-112.5 46.5,-131.5 164.5,-131.5 164.5,-112.5 46.5,-112.5"/>
<text text-anchor="middle" x="105.5" y="-119.5" font-family="Helvetica,sans-Serif" font-size="10.00" fill="#000000">mty::BaseVectorBoson</text>
</g>
<!-- Node5 -->
<g id="node6" class="node">
<title>Node5</title>
<g id="a_node6"><a xlink:href="classmty_1_1FieldStrength.html" target="_top" xlink:title="Field strength object in MARTY. ">
<polygon fill="#ffffff" stroke="#000000" points="0,-56.5 0,-75.5 97,-75.5 97,-56.5 0,-56.5"/>
<text text-anchor="middle" x="48.5" y="-63.5" font-family="Helvetica,sans-Serif" font-size="10.00" fill="#000000">mty::FieldStrength</text>
</a>
</g>
</g>
<!-- Node0&#45;&gt;Node5 -->
<g id="edge5" class="edge">
<title>Node0&#45;&gt;Node5</title>
<path fill="none" stroke="#191970" d="M88.2729,-105.0751C78.4659,-95.4402 66.536,-83.7196 58.3149,-75.6427"/>
<polygon fill="#191970" stroke="#191970" points="85.9851,-107.734 95.5714,-112.2455 90.8909,-102.7406 85.9851,-107.734"/>
</g>
<!-- Node6 -->
<g id="node7" class="node">
<title>Node6</title>
<g id="a_node7"><a xlink:href="classmty_1_1VectorBoson.html" target="_top" xlink:title="Implementation of vector bosons in AMRTY. ">
<polygon fill="#ffffff" stroke="#000000" points="115,-56.5 115,-75.5 210,-75.5 210,-56.5 115,-56.5"/>
<text text-anchor="middle" x="162.5" y="-63.5" font-family="Helvetica,sans-Serif" font-size="10.00" fill="#000000">mty::VectorBoson</text>
</a>
</g>
</g>
<!-- Node0&#45;&gt;Node6 -->
<g id="edge6" class="edge">
<title>Node0&#45;&gt;Node6</title>
<path fill="none" stroke="#191970" d="M122.7271,-105.0751C132.5341,-95.4402 144.464,-83.7196 152.6851,-75.6427"/>
<polygon fill="#191970" stroke="#191970" points="120.1091,-102.7406 115.4286,-112.2455 125.0149,-107.734 120.1091,-102.7406"/>
</g>
<!-- Node1 -->
<g id="node2" class="node">
<title>Node1</title>
<g id="a_node2"><a xlink:href="classmty_1_1QuantumFieldParent.html" target="_top" xlink:title="Base class for parents of QuantumField objects. ">
<polygon fill="#ffffff" stroke="#000000" points="41.5,-168.5 41.5,-187.5 169.5,-187.5 169.5,-168.5 41.5,-168.5"/>
<text text-anchor="middle" x="105.5" y="-175.5" font-family="Helvetica,sans-Serif" font-size="10.00" fill="#000000">mty::QuantumFieldParent</text>
</a>
</g>
</g>
<!-- Node1&#45;&gt;Node0 -->
<g id="edge1" class="edge">
<title>Node1&#45;&gt;Node0</title>
<path fill="none" stroke="#191970" d="M105.5,-158.1575C105.5,-149.155 105.5,-138.9199 105.5,-131.6427"/>
<polygon fill="#191970" stroke="#191970" points="102.0001,-158.2455 105.5,-168.2455 109.0001,-158.2456 102.0001,-158.2455"/>
</g>
<!-- Node2 -->
<g id="node3" class="node">
<title>Node2</title>
<g id="a_node3"><a doxygen="/home/uhlrich/Bureau/MARTY/newlife/marty-dev/csl/csl.tag:../../csl/html/" xlink:href="../../csl/html/classcsl_1_1TensorFieldParent.html" target="_top" xlink:title="csl::TensorFieldParent">
<polygon fill="#ffffff" stroke="#000000" points="48,-224.5 48,-243.5 163,-243.5 163,-224.5 48,-224.5"/>
<text text-anchor="middle" x="105.5" y="-231.5" font-family="Helvetica,sans-Serif" font-size="10.00" fill="#000000">csl::TensorFieldParent</text>
</a>
</g>
</g>
<!-- Node2&#45;&gt;Node1 -->
<g id="edge2" class="edge">
<title>Node2&#45;&gt;Node1</title>
<path fill="none" stroke="#191970" d="M105.5,-214.1575C105.5,-205.155 105.5,-194.9199 105.5,-187.6427"/>
<polygon fill="#191970" stroke="#191970" points="102.0001,-214.2455 105.5,-224.2455 109.0001,-214.2456 102.0001,-214.2455"/>
</g>
<!-- Node3 -->
<g id="node4" class="node">
<title>Node3</title>
<g id="a_node4"><a doxygen="/home/uhlrich/Bureau/MARTY/newlife/marty-dev/csl/csl.tag:../../csl/html/" xlink:href="../../csl/html/classcsl_1_1TensorParent.html" target="_top" xlink:title="csl::TensorParent">
<polygon fill="#ffffff" stroke="#000000" points="58.5,-280.5 58.5,-299.5 152.5,-299.5 152.5,-280.5 58.5,-280.5"/>
<text text-anchor="middle" x="105.5" y="-287.5" font-family="Helvetica,sans-Serif" font-size="10.00" fill="#000000">csl::TensorParent</text>
</a>
</g>
</g>
<!-- Node3&#45;&gt;Node2 -->
<g id="edge3" class="edge">
<title>Node3&#45;&gt;Node2</title>
<path fill="none" stroke="#191970" d="M105.5,-270.1575C105.5,-261.155 105.5,-250.9199 105.5,-243.6427"/>
<polygon fill="#191970" stroke="#191970" points="102.0001,-270.2455 105.5,-280.2455 109.0001,-270.2456 102.0001,-270.2455"/>
</g>
<!-- Node4 -->
<g id="node5" class="node">
<title>Node4</title>
<g id="a_node5"><a doxygen="/home/uhlrich/Bureau/MARTY/newlife/marty-dev/csl/csl.tag:../../csl/html/" xlink:href="../../csl/html/classcsl_1_1AbstractParent.html" target="_top" xlink:title="csl::AbstractParent">
<polygon fill="#ffffff" stroke="#000000" points="55,-336.5 55,-355.5 156,-355.5 156,-336.5 55,-336.5"/>
<text text-anchor="middle" x="105.5" y="-343.5" font-family="Helvetica,sans-Serif" font-size="10.00" fill="#000000">csl::AbstractParent</text>
</a>
</g>
</g>
<!-- Node4&#45;&gt;Node3 -->
<g id="edge4" class="edge">
<title>Node4&#45;&gt;Node3</title>
<path fill="none" stroke="#191970" d="M105.5,-326.1575C105.5,-317.155 105.5,-306.9199 105.5,-299.6427"/>
<polygon fill="#191970" stroke="#191970" points="102.0001,-326.2455 105.5,-336.2455 109.0001,-326.2456 102.0001,-326.2455"/>
</g>
<!-- Node7 -->
<g id="node8" class="node">
<title>Node7</title>
<g id="a_node8"><a xlink:href="classmty_1_1GaugeBoson.html" target="_top" xlink:title="Gauge boson implementation in MARTY. ">
<polygon fill="#ffffff" stroke="#000000" points="115,-.5 115,-19.5 210,-19.5 210,-.5 115,-.5"/>
<text text-anchor="middle" x="162.5" y="-7.5" font-family="Helvetica,sans-Serif" font-size="10.00" fill="#000000">mty::GaugeBoson</text>
</a>
</g>
</g>
<!-- Node6&#45;&gt;Node7 -->
<g id="edge7" class="edge">
<title>Node6&#45;&gt;Node7</title>
<path fill="none" stroke="#191970" d="M162.5,-46.1575C162.5,-37.155 162.5,-26.9199 162.5,-19.6427"/>
<polygon fill="#191970" stroke="#191970" points="159.0001,-46.2455 162.5,-56.2455 166.0001,-46.2456 159.0001,-46.2455"/>
</g>
</g>
</svg>
