<?xml version="1.0" encoding="UTF-8" standalone="no"?>
<!DOCTYPE svg PUBLIC "-//W3C//DTD SVG 1.1//EN"
 "http://www.w3.org/Graphics/SVG/1.1/DTD/svg11.dtd">
<!-- Generated by graphviz version 2.40.1 (20161225.0304)
 -->
<!-- Title: mty::ScalarBoson Pages: 1 -->
<svg width="230pt" height="308pt"
 viewBox="0.00 0.00 230.00 308.00" xmlns="http://www.w3.org/2000/svg" xmlns:xlink="http://www.w3.org/1999/xlink">
<g id="graph0" class="graph" transform="scale(1 1) rotate(0) translate(4 304)">
<title>mty::ScalarBoson</title>
<polygon fill="#ffffff" stroke="transparent" points="-4,4 -4,-304 226,-304 226,4 -4,4"/>
<!-- Node0 -->
<g id="node1" class="node">
<title>Node0</title>
<polygon fill="#bfbfbf" stroke="#000000" points="59,-56.5 59,-75.5 154,-75.5 154,-56.5 59,-56.5"/>
<text text-anchor="middle" x="106.5" y="-63.5" font-family="Helvetica,sans-Serif" font-size="10.00" fill="#000000">mty::ScalarBoson</text>
</g>
<!-- Node5 -->
<g id="node6" class="node">
<title>Node5</title>
<g id="a_node6"><a xlink:href="classmty_1_1GhostBoson.html" target="_top" xlink:title="Ghost boson, created with the vector bosons in non abelian gauge groups. ">
<polygon fill="#ffffff" stroke="#000000" points="0,-.5 0,-19.5 93,-19.5 93,-.5 0,-.5"/>
<text text-anchor="middle" x="46.5" y="-7.5" font-family="Helvetica,sans-Serif" font-size="10.00" fill="#000000">mty::GhostBoson</text>
</a>
</g>
</g>
<!-- Node0&#45;&gt;Node5 -->
<g id="edge5" class="edge">
<title>Node0&#45;&gt;Node5</title>
<path fill="none" stroke="#191970" d="M88.6722,-49.3607C78.2922,-39.6727 65.5709,-27.7995 56.8314,-19.6427"/>
<polygon fill="#191970" stroke="#191970" points="86.3501,-51.981 96.0488,-56.2455 91.1263,-46.8636 86.3501,-51.981"/>
</g>
<!-- Node6 -->
<g id="node7" class="node">
<title>Node6</title>
<g id="a_node7"><a xlink:href="classmty_1_1GoldstoneBoson.html" target="_top" xlink:title="Goldstone boson class. ">
<polygon fill="#ffffff" stroke="#000000" points="111,-.5 111,-19.5 222,-19.5 222,-.5 111,-.5"/>
<text text-anchor="middle" x="166.5" y="-7.5" font-family="Helvetica,sans-Serif" font-size="10.00" fill="#000000">mty::GoldstoneBoson</text>
</a>
</g>
</g>
<!-- Node0&#45;&gt;Node6 -->
<g id="edge6" class="edge">
<title>Node0&#45;&gt;Node6</title>
<path fill="none" stroke="#191970" d="M124.3278,-49.3607C134.7078,-39.6727 147.4291,-27.7995 156.1686,-19.6427"/>
<polygon fill="#191970" stroke="#191970" points="121.8737,-46.8636 116.9512,-56.2455 126.6499,-51.981 121.8737,-46.8636"/>
</g>
<!-- Node1 -->
<g id="node2" class="node">
<title>Node1</title>
<g id="a_node2"><a xlink:href="classmty_1_1QuantumFieldParent.html" target="_top" xlink:title="Base class for parents of QuantumField objects. ">
<polygon fill="#ffffff" stroke="#000000" points="42.5,-112.5 42.5,-131.5 170.5,-131.5 170.5,-112.5 42.5,-112.5"/>
<text text-anchor="middle" x="106.5" y="-119.5" font-family="Helvetica,sans-Serif" font-size="10.00" fill="#000000">mty::QuantumFieldParent</text>
</a>
</g>
</g>
<!-- Node1&#45;&gt;Node0 -->
<g id="edge1" class="edge">
<title>Node1&#45;&gt;Node0</title>
<path fill="none" stroke="#191970" d="M106.5,-102.1575C106.5,-93.155 106.5,-82.9199 106.5,-75.6427"/>
<polygon fill="#191970" stroke="#191970" points="103.0001,-102.2455 106.5,-112.2455 110.0001,-102.2456 103.0001,-102.2455"/>
</g>
<!-- Node2 -->
<g id="node3" class="node">
<title>Node2</title>
<g id="a_node3"><a doxygen="/home/uhlrich/Bureau/MARTY/newlife/marty-dev/csl/csl.tag:../../csl/html/" xlink:href="../../csl/html/classcsl_1_1TensorFieldParent.html" target="_top" xlink:title="csl::TensorFieldParent">
<polygon fill="#ffffff" stroke="#000000" points="49,-168.5 49,-187.5 164,-187.5 164,-168.5 49,-168.5"/>
<text text-anchor="middle" x="106.5" y="-175.5" font-family="Helvetica,sans-Serif" font-size="10.00" fill="#000000">csl::TensorFieldParent</text>
</a>
</g>
</g>
<!-- Node2&#45;&gt;Node1 -->
<g id="edge2" class="edge">
<title>Node2&#45;&gt;Node1</title>
<path fill="none" stroke="#191970" d="M106.5,-158.1575C106.5,-149.155 106.5,-138.9199 106.5,-131.6427"/>
<polygon fill="#191970" stroke="#191970" points="103.0001,-158.2455 106.5,-168.2455 110.0001,-158.2456 103.0001,-158.2455"/>
</g>
<!-- Node3 -->
<g id="node4" class="node">
<title>Node3</title>
<g id="a_node4"><a doxygen="/home/uhlrich/Bureau/MARTY/newlife/marty-dev/csl/csl.tag:../../csl/html/" xlink:href="../../csl/html/classcsl_1_1TensorParent.html" target="_top" xlink:title="csl::TensorParent">
<polygon fill="#ffffff" stroke="#000000" points="59.5,-224.5 59.5,-243.5 153.5,-243.5 153.5,-224.5 59.5,-224.5"/>
<text text-anchor="middle" x="106.5" y="-231.5" font-family="Helvetica,sans-Serif" font-size="10.00" fill="#000000">csl::TensorParent</text>
</a>
</g>
</g>
<!-- Node3&#45;&gt;Node2 -->
<g id="edge3" class="edge">
<title>Node3&#45;&gt;Node2</title>
<path fill="none" stroke="#191970" d="M106.5,-214.1575C106.5,-205.155 106.5,-194.9199 106.5,-187.6427"/>
<polygon fill="#191970" stroke="#191970" points="103.0001,-214.2455 106.5,-224.2455 110.0001,-214.2456 103.0001,-214.2455"/>
</g>
<!-- Node4 -->
<g id="node5" class="node">
<title>Node4</title>
<g id="a_node5"><a doxygen="/home/uhlrich/Bureau/MARTY/newlife/marty-dev/csl/csl.tag:../../csl/html/" xlink:href="../../csl/html/classcsl_1_1AbstractParent.html" target="_top" xlink:title="csl::AbstractParent">
<polygon fill="#ffffff" stroke="#000000" points="56,-280.5 56,-299.5 157,-299.5 157,-280.5 56,-280.5"/>
<text text-anchor="middle" x="106.5" y="-287.5" font-family="Helvetica,sans-Serif" font-size="10.00" fill="#000000">csl::AbstractParent</text>
</a>
</g>
</g>
<!-- Node4&#45;&gt;Node3 -->
<g id="edge4" class="edge">
<title>Node4&#45;&gt;Node3</title>
<path fill="none" stroke="#191970" d="M106.5,-270.1575C106.5,-261.155 106.5,-250.9199 106.5,-243.6427"/>
<polygon fill="#191970" stroke="#191970" points="103.0001,-270.2455 106.5,-280.2455 110.0001,-270.2456 103.0001,-270.2455"/>
</g>
</g>
</svg>
