<?xml version="1.0" encoding="UTF-8" standalone="no"?>
<!DOCTYPE svg PUBLIC "-//W3C//DTD SVG 1.1//EN"
 "http://www.w3.org/Graphics/SVG/1.1/DTD/svg11.dtd">
<!-- Generated by graphviz version 2.40.1 (20161225.0304)
 -->
<!-- Title: Ui_NodeForm Pages: 1 -->
<svg width="86pt" height="84pt"
 viewBox="0.00 0.00 86.00 84.00" xmlns="http://www.w3.org/2000/svg" xmlns:xlink="http://www.w3.org/1999/xlink">
<g id="graph0" class="graph" transform="scale(1 1) rotate(0) translate(4 80)">
<title>Ui_NodeForm</title>
<polygon fill="#ffffff" stroke="transparent" points="-4,4 -4,-80 82,-80 82,4 -4,4"/>
<!-- Node0 -->
<g id="node1" class="node">
<title>Node0</title>
<polygon fill="#bfbfbf" stroke="#000000" points=".5,-56.5 .5,-75.5 77.5,-75.5 77.5,-56.5 .5,-56.5"/>
<text text-anchor="middle" x="39" y="-63.5" font-family="Helvetica,sans-Serif" font-size="10.00" fill="#000000">Ui_NodeForm</text>
</g>
<!-- Node1 -->
<g id="node2" class="node">
<title>Node1</title>
<g id="a_node2"><a xlink:href="classUi_1_1NodeForm.html" target="_top" xlink:title="Ui::NodeForm">
<polygon fill="#ffffff" stroke="#000000" points="0,-.5 0,-19.5 78,-19.5 78,-.5 0,-.5"/>
<text text-anchor="middle" x="39" y="-7.5" font-family="Helvetica,sans-Serif" font-size="10.00" fill="#000000">Ui::NodeForm</text>
</a>
</g>
</g>
<!-- Node0&#45;&gt;Node1 -->
<g id="edge1" class="edge">
<title>Node0&#45;&gt;Node1</title>
<path fill="none" stroke="#191970" d="M32.5113,-46.1575C31.919,-37.155 32.3335,-26.9199 33.7549,-19.6427"/>
<polygon fill="#191970" stroke="#191970" points="29.0561,-46.739 33.7332,-56.2455 36.0053,-45.8972 29.0561,-46.739"/>
</g>
<!-- Node0&#45;&gt;Node1 -->
<g id="edge2" class="edge">
<title>Node0&#45;&gt;Node1</title>
<path fill="none" stroke="#191970" d="M45.4887,-46.1575C46.081,-37.155 45.6665,-26.9199 44.2451,-19.6427"/>
<polygon fill="#191970" stroke="#191970" points="41.9947,-45.8972 44.2668,-56.2455 48.9439,-46.739 41.9947,-45.8972"/>
</g>
</g>
</svg>
