<?xml version="1.0" encoding="UTF-8" standalone="no"?>
<!DOCTYPE svg PUBLIC "-//W3C//DTD SVG 1.1//EN"
 "http://www.w3.org/Graphics/SVG/1.1/DTD/svg11.dtd">
<!-- Generated by graphviz version 2.40.1 (20161225.0304)
 -->
<!-- Title: sgl::AbstractLiteral Pages: 1 -->
<svg width="448pt" height="274pt"
 viewBox="0.00 0.00 448.00 274.00" xmlns="http://www.w3.org/2000/svg" xmlns:xlink="http://www.w3.org/1999/xlink">
<g id="graph0" class="graph" transform="scale(1 1) rotate(0) translate(4 270)">
<title>sgl::AbstractLiteral</title>
<polygon fill="#ffffff" stroke="transparent" points="-4,4 -4,-270 444,-270 444,4 -4,4"/>
<!-- Node0 -->
<g id="node1" class="node">
<title>Node0</title>
<polygon fill="#bfbfbf" stroke="#000000" points="280,-123.5 280,-142.5 378,-142.5 378,-123.5 280,-123.5"/>
<text text-anchor="middle" x="329" y="-130.5" font-family="Helvetica,sans-Serif" font-size="10.00" fill="#000000">sgl::AbstractLiteral</text>
</g>
<!-- Node3 -->
<g id="node4" class="node">
<title>Node3</title>
<g id="a_node4"><a xlink:href="classsgl_1_1AbstractGeneralizedIndex.html" target="_top" xlink:title="sgl::AbstractGeneralized\lIndex">
<polygon fill="#ffffff" stroke="#000000" points="149,-56.5 149,-86.5 273,-86.5 273,-56.5 149,-56.5"/>
<text text-anchor="start" x="157" y="-74.5" font-family="Helvetica,sans-Serif" font-size="10.00" fill="#000000">sgl::AbstractGeneralized</text>
<text text-anchor="middle" x="211" y="-63.5" font-family="Helvetica,sans-Serif" font-size="10.00" fill="#000000">Index</text>
</a>
</g>
</g>
<!-- Node0&#45;&gt;Node3 -->
<g id="edge3" class="edge">
<title>Node0&#45;&gt;Node3</title>
<path fill="none" stroke="#191970" d="M301.4808,-118.6574C282.9807,-109.0154 258.6409,-96.3298 239.866,-86.5446"/>
<polygon fill="#191970" stroke="#191970" points="300.077,-121.8725 310.5625,-123.3906 303.3123,-115.665 300.077,-121.8725"/>
</g>
<!-- Node8 -->
<g id="node9" class="node">
<title>Node8</title>
<g id="a_node9"><a xlink:href="classsgl_1_1CSLExpr.html" target="_top" xlink:title="sgl::CSLExpr">
<polygon fill="#ffffff" stroke="#000000" points="291.5,-62 291.5,-81 366.5,-81 366.5,-62 291.5,-62"/>
<text text-anchor="middle" x="329" y="-69" font-family="Helvetica,sans-Serif" font-size="10.00" fill="#000000">sgl::CSLExpr</text>
</a>
</g>
</g>
<!-- Node0&#45;&gt;Node8 -->
<g id="edge8" class="edge">
<title>Node0&#45;&gt;Node8</title>
<path fill="none" stroke="#191970" d="M329,-113.2462C329,-102.5519 329,-89.814 329,-81.2449"/>
<polygon fill="#191970" stroke="#191970" points="325.5001,-113.3906 329,-123.3906 332.5001,-113.3907 325.5001,-113.3906"/>
</g>
<!-- Node9 -->
<g id="node10" class="node">
<title>Node9</title>
<g id="a_node10"><a xlink:href="classsgl_1_1Field.html" target="_top" xlink:title="sgl::Field">
<polygon fill="#ffffff" stroke="#000000" points="384,-62 384,-81 440,-81 440,-62 384,-62"/>
<text text-anchor="middle" x="412" y="-69" font-family="Helvetica,sans-Serif" font-size="10.00" fill="#000000">sgl::Field</text>
</a>
</g>
</g>
<!-- Node0&#45;&gt;Node9 -->
<g id="edge9" class="edge">
<title>Node0&#45;&gt;Node9</title>
<path fill="none" stroke="#191970" d="M350.3923,-117.1491C365.8142,-105.722 386.1216,-90.6749 399.1223,-81.0419"/>
<polygon fill="#191970" stroke="#191970" points="347.9198,-114.625 341.9688,-123.3906 352.0872,-120.2493 347.9198,-114.625"/>
</g>
<!-- Node1 -->
<g id="node2" class="node">
<title>Node1</title>
<g id="a_node2"><a xlink:href="classsgl_1_1AbstractGammaSym.html" target="_top" xlink:title="sgl::AbstractGammaSym">
<polygon fill="#ffffff" stroke="#000000" points="265.5,-179.5 265.5,-198.5 392.5,-198.5 392.5,-179.5 265.5,-179.5"/>
<text text-anchor="middle" x="329" y="-186.5" font-family="Helvetica,sans-Serif" font-size="10.00" fill="#000000">sgl::AbstractGammaSym</text>
</a>
</g>
</g>
<!-- Node1&#45;&gt;Node0 -->
<g id="edge1" class="edge">
<title>Node1&#45;&gt;Node0</title>
<path fill="none" stroke="#191970" d="M329,-169.1575C329,-160.155 329,-149.9199 329,-142.6427"/>
<polygon fill="#191970" stroke="#191970" points="325.5001,-169.2455 329,-179.2455 332.5001,-169.2456 325.5001,-169.2455"/>
</g>
<!-- Node2 -->
<g id="node3" class="node">
<title>Node2</title>
<polygon fill="#ffffff" stroke="#bfbfbf" points="243,-235.5 243,-265.5 415,-265.5 415,-235.5 243,-235.5"/>
<text text-anchor="start" x="251" y="-253.5" font-family="Helvetica,sans-Serif" font-size="10.00" fill="#000000">std::enable_shared</text>
<text text-anchor="middle" x="329" y="-242.5" font-family="Helvetica,sans-Serif" font-size="10.00" fill="#000000">_from_this&lt; AbstractGammaSym &gt;</text>
</g>
<!-- Node2&#45;&gt;Node1 -->
<g id="edge2" class="edge">
<title>Node2&#45;&gt;Node1</title>
<path fill="none" stroke="#191970" d="M329,-225.2849C329,-215.9858 329,-205.9883 329,-198.8469"/>
<polygon fill="#191970" stroke="#191970" points="325.5001,-225.2977 329,-235.2977 332.5001,-225.2978 325.5001,-225.2977"/>
</g>
<!-- Node4 -->
<g id="node5" class="node">
<title>Node4</title>
<g id="a_node5"><a xlink:href="classsgl_1_1EpsilonIndex.html" target="_top" xlink:title="sgl::EpsilonIndex">
<polygon fill="#ffffff" stroke="#000000" points="0,-.5 0,-19.5 92,-19.5 92,-.5 0,-.5"/>
<text text-anchor="middle" x="46" y="-7.5" font-family="Helvetica,sans-Serif" font-size="10.00" fill="#000000">sgl::EpsilonIndex</text>
</a>
</g>
</g>
<!-- Node3&#45;&gt;Node4 -->
<g id="edge4" class="edge">
<title>Node3&#45;&gt;Node4</title>
<path fill="none" stroke="#191970" d="M160.9115,-52.8306C131.4118,-41.8353 95.3379,-28.3896 71.5691,-19.5303"/>
<polygon fill="#191970" stroke="#191970" points="160.0438,-56.2424 170.6365,-56.4554 162.4886,-49.6832 160.0438,-56.2424"/>
</g>
<!-- Node5 -->
<g id="node6" class="node">
<title>Node5</title>
<g id="a_node6"><a xlink:href="classsgl_1_1GammaIndex.html" target="_top" xlink:title="sgl::GammaIndex">
<polygon fill="#ffffff" stroke="#000000" points="110,-.5 110,-19.5 204,-19.5 204,-.5 110,-.5"/>
<text text-anchor="middle" x="157" y="-7.5" font-family="Helvetica,sans-Serif" font-size="10.00" fill="#000000">sgl::GammaIndex</text>
</a>
</g>
</g>
<!-- Node3&#45;&gt;Node5 -->
<g id="edge5" class="edge">
<title>Node3&#45;&gt;Node5</title>
<path fill="none" stroke="#191970" d="M190.9515,-48.6669C182.2236,-38.7269 172.4559,-27.6026 165.6461,-19.8469"/>
<polygon fill="#191970" stroke="#191970" points="188.4236,-51.0926 197.6517,-56.2977 193.6837,-46.474 188.4236,-51.0926"/>
</g>
<!-- Node6 -->
<g id="node7" class="node">
<title>Node6</title>
<g id="a_node7"><a xlink:href="classsgl_1_1MetricIndex.html" target="_top" xlink:title="sgl::MetricIndex">
<polygon fill="#ffffff" stroke="#000000" points="222,-.5 222,-19.5 308,-19.5 308,-.5 222,-.5"/>
<text text-anchor="middle" x="265" y="-7.5" font-family="Helvetica,sans-Serif" font-size="10.00" fill="#000000">sgl::MetricIndex</text>
</a>
</g>
</g>
<!-- Node3&#45;&gt;Node6 -->
<g id="edge6" class="edge">
<title>Node3&#45;&gt;Node6</title>
<path fill="none" stroke="#191970" d="M231.0485,-48.6669C239.7764,-38.7269 249.5441,-27.6026 256.3539,-19.8469"/>
<polygon fill="#191970" stroke="#191970" points="228.3163,-46.474 224.3483,-56.2977 233.5764,-51.0926 228.3163,-46.474"/>
</g>
<!-- Node7 -->
<g id="node8" class="node">
<title>Node7</title>
<g id="a_node8"><a xlink:href="classsgl_1_1MomentumIndex.html" target="_top" xlink:title="sgl::MomentumIndex">
<polygon fill="#ffffff" stroke="#000000" points="326,-.5 326,-19.5 434,-19.5 434,-.5 326,-.5"/>
<text text-anchor="middle" x="380" y="-7.5" font-family="Helvetica,sans-Serif" font-size="10.00" fill="#000000">sgl::MomentumIndex</text>
</a>
</g>
</g>
<!-- Node3&#45;&gt;Node7 -->
<g id="edge7" class="edge">
<title>Node3&#45;&gt;Node7</title>
<path fill="none" stroke="#191970" d="M261.909,-52.9739C292.1961,-41.9523 329.3601,-28.4281 353.811,-19.5303"/>
<polygon fill="#191970" stroke="#191970" points="260.5423,-49.7467 252.3421,-56.4554 262.9361,-56.3247 260.5423,-49.7467"/>
</g>
</g>
</svg>
