<?xml version="1.0" encoding="UTF-8" standalone="no"?>
<!DOCTYPE svg PUBLIC "-//W3C//DTD SVG 1.1//EN"
 "http://www.w3.org/Graphics/SVG/1.1/DTD/svg11.dtd">
<!-- Generated by graphviz version 2.40.1 (20161225.0304)
 -->
<!-- Title: mty::NMFV_Model Pages: 1 -->
<svg width="201pt" height="308pt"
 viewBox="0.00 0.00 201.00 308.00" xmlns="http://www.w3.org/2000/svg" xmlns:xlink="http://www.w3.org/1999/xlink">
<g id="graph0" class="graph" transform="scale(1 1) rotate(0) translate(4 304)">
<title>mty::NMFV_Model</title>
<polygon fill="#ffffff" stroke="transparent" points="-4,4 -4,-304 197,-304 197,4 -4,4"/>
<!-- Node0 -->
<g id="node1" class="node">
<title>Node0</title>
<polygon fill="#bfbfbf" stroke="#000000" points="47,-.5 47,-19.5 146,-19.5 146,-.5 47,-.5"/>
<text text-anchor="middle" x="96.5" y="-7.5" font-family="Helvetica,sans-Serif" font-size="10.00" fill="#000000">mty::NMFV_Model</text>
</g>
<!-- Node1 -->
<g id="node2" class="node">
<title>Node1</title>
<g id="a_node2"><a xlink:href="classmty_1_1PMSSM__Model.html" target="_top" xlink:title="mty::PMSSM_Model">
<polygon fill="#ffffff" stroke="#000000" points="43,-56.5 43,-75.5 150,-75.5 150,-56.5 43,-56.5"/>
<text text-anchor="middle" x="96.5" y="-63.5" font-family="Helvetica,sans-Serif" font-size="10.00" fill="#000000">mty::PMSSM_Model</text>
</a>
</g>
</g>
<!-- Node1&#45;&gt;Node0 -->
<g id="edge1" class="edge">
<title>Node1&#45;&gt;Node0</title>
<path fill="none" stroke="#191970" d="M96.5,-46.1575C96.5,-37.155 96.5,-26.9199 96.5,-19.6427"/>
<polygon fill="#191970" stroke="#191970" points="93.0001,-46.2455 96.5,-56.2455 100.0001,-46.2456 93.0001,-46.2455"/>
</g>
<!-- Node2 -->
<g id="node3" class="node">
<title>Node2</title>
<g id="a_node3"><a xlink:href="classmty_1_1MSSM__Model.html" target="_top" xlink:title="Base class for MSSM models. If taken as is, represents the unconstrained MSSM with 105 parameters (+S...">
<polygon fill="#ffffff" stroke="#000000" points="46,-112.5 46,-131.5 147,-131.5 147,-112.5 46,-112.5"/>
<text text-anchor="middle" x="96.5" y="-119.5" font-family="Helvetica,sans-Serif" font-size="10.00" fill="#000000">mty::MSSM_Model</text>
</a>
</g>
</g>
<!-- Node2&#45;&gt;Node1 -->
<g id="edge2" class="edge">
<title>Node2&#45;&gt;Node1</title>
<path fill="none" stroke="#191970" d="M96.5,-102.1575C96.5,-93.155 96.5,-82.9199 96.5,-75.6427"/>
<polygon fill="#191970" stroke="#191970" points="93.0001,-102.2455 96.5,-112.2455 100.0001,-102.2456 93.0001,-102.2455"/>
</g>
<!-- Node3 -->
<g id="node4" class="node">
<title>Node3</title>
<g id="a_node4"><a xlink:href="classmty_1_1Model.html" target="_top" xlink:title="Contains all objects in the theory. In particular QuantumField objects, Gauge, Flavor, Particle... ">
<polygon fill="#ffffff" stroke="#000000" points="15,-168.5 15,-187.5 80,-187.5 80,-168.5 15,-168.5"/>
<text text-anchor="middle" x="47.5" y="-175.5" font-family="Helvetica,sans-Serif" font-size="10.00" fill="#000000">mty::Model</text>
</a>
</g>
</g>
<!-- Node3&#45;&gt;Node2 -->
<g id="edge3" class="edge">
<title>Node3&#45;&gt;Node2</title>
<path fill="none" stroke="#191970" d="M62.8122,-160.5004C71.1447,-150.9775 81.1353,-139.5596 88.0627,-131.6427"/>
<polygon fill="#191970" stroke="#191970" points="59.9862,-158.415 56.0351,-168.2455 65.2543,-163.0245 59.9862,-158.415"/>
</g>
<!-- Node4 -->
<g id="node5" class="node">
<title>Node4</title>
<g id="a_node5"><a xlink:href="classmty_1_1ModelBuilder.html" target="_top" xlink:title="Class containing all model building features of MARTY. ">
<polygon fill="#ffffff" stroke="#000000" points="0,-224.5 0,-243.5 95,-243.5 95,-224.5 0,-224.5"/>
<text text-anchor="middle" x="47.5" y="-231.5" font-family="Helvetica,sans-Serif" font-size="10.00" fill="#000000">mty::ModelBuilder</text>
</a>
</g>
</g>
<!-- Node4&#45;&gt;Node3 -->
<g id="edge4" class="edge">
<title>Node4&#45;&gt;Node3</title>
<path fill="none" stroke="#191970" d="M47.5,-214.1575C47.5,-205.155 47.5,-194.9199 47.5,-187.6427"/>
<polygon fill="#191970" stroke="#191970" points="44.0001,-214.2455 47.5,-224.2455 51.0001,-214.2456 44.0001,-214.2455"/>
</g>
<!-- Node5 -->
<g id="node6" class="node">
<title>Node5</title>
<g id="a_node6"><a xlink:href="classmty_1_1ModelData.html" target="_top" xlink:title="The class ModelData contains all the necessary features to store and manipulate the content of a mode...">
<polygon fill="#ffffff" stroke="#000000" points="4.5,-280.5 4.5,-299.5 90.5,-299.5 90.5,-280.5 4.5,-280.5"/>
<text text-anchor="middle" x="47.5" y="-287.5" font-family="Helvetica,sans-Serif" font-size="10.00" fill="#000000">mty::ModelData</text>
</a>
</g>
</g>
<!-- Node5&#45;&gt;Node4 -->
<g id="edge5" class="edge">
<title>Node5&#45;&gt;Node4</title>
<path fill="none" stroke="#191970" d="M47.5,-270.1575C47.5,-261.155 47.5,-250.9199 47.5,-243.6427"/>
<polygon fill="#191970" stroke="#191970" points="44.0001,-270.2455 47.5,-280.2455 51.0001,-270.2456 44.0001,-270.2455"/>
</g>
<!-- Node6 -->
<g id="node7" class="node">
<title>Node6</title>
<g id="a_node7"><a xlink:href="structmty_1_1MSSM__Data.html" target="_top" xlink:title="mty::MSSM_Data">
<polygon fill="#ffffff" stroke="#000000" points="98,-168.5 98,-187.5 193,-187.5 193,-168.5 98,-168.5"/>
<text text-anchor="middle" x="145.5" y="-175.5" font-family="Helvetica,sans-Serif" font-size="10.00" fill="#000000">mty::MSSM_Data</text>
</a>
</g>
</g>
<!-- Node6&#45;&gt;Node2 -->
<g id="edge6" class="edge">
<title>Node6&#45;&gt;Node2</title>
<path fill="none" stroke="#006400" d="M130.1878,-160.5004C121.8553,-150.9775 111.8647,-139.5596 104.9373,-131.6427"/>
<polygon fill="#006400" stroke="#006400" points="127.7457,-163.0245 136.9649,-168.2455 133.0138,-158.415 127.7457,-163.0245"/>
</g>
</g>
</svg>
