<?xml version="1.0" encoding="UTF-8" standalone="no"?>
<!DOCTYPE svg PUBLIC "-//W3C//DTD SVG 1.1//EN"
 "http://www.w3.org/Graphics/SVG/1.1/DTD/svg11.dtd">
<!-- Generated by graphviz version 2.40.1 (20161225.0304)
 -->
<!-- Title: drawer::Base_iterable&lt; T1, T2 &gt; Pages: 1 -->
<svg width="232pt" height="106pt"
 viewBox="0.00 0.00 232.00 106.00" xmlns="http://www.w3.org/2000/svg" xmlns:xlink="http://www.w3.org/1999/xlink">
<g id="graph0" class="graph" transform="scale(1 1) rotate(0) translate(4 102)">
<title>drawer::Base_iterable&lt; T1, T2 &gt;</title>
<polygon fill="#ffffff" stroke="transparent" points="-4,4 -4,-102 228,-102 228,4 -4,4"/>
<!-- Node0 -->
<g id="node1" class="node">
<title>Node0</title>
<polygon fill="#bfbfbf" stroke="#000000" points="55.5,-67.5 55.5,-97.5 166.5,-97.5 166.5,-67.5 55.5,-67.5"/>
<text text-anchor="start" x="63.5" y="-85.5" font-family="Helvetica,sans-Serif" font-size="10.00" fill="#000000">drawer::Base_iterable</text>
<text text-anchor="middle" x="111" y="-74.5" font-family="Helvetica,sans-Serif" font-size="10.00" fill="#000000">&lt; T1, T2 &gt;</text>
</g>
<!-- Node1 -->
<g id="node2" class="node">
<title>Node1</title>
<g id="a_node2"><a xlink:href="classdrawer_1_1Matrix.html" target="_top" xlink:title="drawer::Matrix\&lt; T1,\l T2 \&gt;">
<polygon fill="#ffffff" stroke="#000000" points="0,-.5 0,-30.5 102,-30.5 102,-.5 0,-.5"/>
<text text-anchor="start" x="8" y="-18.5" font-family="Helvetica,sans-Serif" font-size="10.00" fill="#000000">drawer::Matrix&lt; T1,</text>
<text text-anchor="middle" x="51" y="-7.5" font-family="Helvetica,sans-Serif" font-size="10.00" fill="#000000"> T2 &gt;</text>
</a>
</g>
</g>
<!-- Node0&#45;&gt;Node1 -->
<g id="edge1" class="edge">
<title>Node0&#45;&gt;Node1</title>
<path fill="none" stroke="#191970" d="M84.3636,-59.9253C75.1266,-50.2828 65.4994,-39.2843 58.8075,-30.6432"/>
<polygon fill="#191970" stroke="#191970" points="82.1133,-62.6284 91.6243,-67.2967 87.1004,-57.7162 82.1133,-62.6284"/>
</g>
<!-- Node0&#45;&gt;Node1 -->
<g id="edge2" class="edge">
<title>Node0&#45;&gt;Node1</title>
<path fill="none" stroke="#191970" d="M96.7245,-59.3509C88.7727,-49.8482 78.9254,-39.1132 70.3146,-30.6432"/>
<polygon fill="#191970" stroke="#191970" points="94.1381,-61.7189 103.1459,-67.2967 99.5825,-57.319 94.1381,-61.7189"/>
</g>
<!-- Node2 -->
<g id="node3" class="node">
<title>Node2</title>
<g id="a_node3"><a xlink:href="classdrawer_1_1Vector.html" target="_top" xlink:title="drawer::Vector\&lt; T1,\l T2 \&gt;">
<polygon fill="#ffffff" stroke="#000000" points="120,-.5 120,-30.5 224,-30.5 224,-.5 120,-.5"/>
<text text-anchor="start" x="128" y="-18.5" font-family="Helvetica,sans-Serif" font-size="10.00" fill="#000000">drawer::Vector&lt; T1,</text>
<text text-anchor="middle" x="172" y="-7.5" font-family="Helvetica,sans-Serif" font-size="10.00" fill="#000000"> T2 &gt;</text>
</a>
</g>
</g>
<!-- Node0&#45;&gt;Node2 -->
<g id="edge3" class="edge">
<title>Node0&#45;&gt;Node2</title>
<path fill="none" stroke="#191970" d="M125.621,-59.3509C133.7147,-49.8482 143.7222,-39.1132 152.4594,-30.6432"/>
<polygon fill="#191970" stroke="#191970" points="122.7337,-57.3514 119.081,-67.2967 128.1384,-61.7999 122.7337,-57.3514"/>
</g>
<!-- Node0&#45;&gt;Node2 -->
<g id="edge4" class="edge">
<title>Node0&#45;&gt;Node2</title>
<path fill="none" stroke="#191970" d="M137.6949,-60.2113C147.1601,-50.5009 157.0781,-39.3698 163.9665,-30.6432"/>
<polygon fill="#191970" stroke="#191970" points="135.2035,-57.7529 130.6027,-67.2967 140.1509,-62.705 135.2035,-57.7529"/>
</g>
</g>
</svg>
