<?xml version="1.0" encoding="UTF-8" standalone="no"?>
<!DOCTYPE svg PUBLIC "-//W3C//DTD SVG 1.1//EN"
 "http://www.w3.org/Graphics/SVG/1.1/DTD/svg11.dtd">
<!-- Generated by graphviz version 2.40.1 (20161225.0304)
 -->
<!-- Title: mty::PolarizationField Pages: 1 -->
<svg width="139pt" height="420pt"
 viewBox="0.00 0.00 139.00 420.00" xmlns="http://www.w3.org/2000/svg" xmlns:xlink="http://www.w3.org/1999/xlink">
<g id="graph0" class="graph" transform="scale(1 1) rotate(0) translate(4 416)">
<title>mty::PolarizationField</title>
<polygon fill="#ffffff" stroke="transparent" points="-4,4 -4,-416 135,-416 135,4 -4,4"/>
<!-- Node0 -->
<g id="node1" class="node">
<title>Node0</title>
<polygon fill="#bfbfbf" stroke="#000000" points="10,-.5 10,-19.5 121,-19.5 121,-.5 10,-.5"/>
<text text-anchor="middle" x="65.5" y="-7.5" font-family="Helvetica,sans-Serif" font-size="10.00" fill="#000000">mty::PolarizationField</text>
</g>
<!-- Node1 -->
<g id="node2" class="node">
<title>Node1</title>
<g id="a_node2"><a xlink:href="classmty_1_1QuantumField.html" target="_top" xlink:title="Class deriving from csl::TensorFieldElement, may enter expressions. In contrary to QuantumFieldParent...">
<polygon fill="#ffffff" stroke="#000000" points="15.5,-56.5 15.5,-75.5 115.5,-75.5 115.5,-56.5 15.5,-56.5"/>
<text text-anchor="middle" x="65.5" y="-63.5" font-family="Helvetica,sans-Serif" font-size="10.00" fill="#000000">mty::QuantumField</text>
</a>
</g>
</g>
<!-- Node1&#45;&gt;Node0 -->
<g id="edge1" class="edge">
<title>Node1&#45;&gt;Node0</title>
<path fill="none" stroke="#191970" d="M65.5,-46.1575C65.5,-37.155 65.5,-26.9199 65.5,-19.6427"/>
<polygon fill="#191970" stroke="#191970" points="62.0001,-46.2455 65.5,-56.2455 69.0001,-46.2456 62.0001,-46.2455"/>
</g>
<!-- Node2 -->
<g id="node3" class="node">
<title>Node2</title>
<g id="a_node3"><a doxygen="/home/uhlrich/Bureau/MARTY/newlife/marty-dev/csl/csl.tag:../../csl/html/" xlink:href="../../csl/html/classcsl_1_1TensorFieldElement.html" target="_top" xlink:title="csl::TensorFieldElement">
<polygon fill="#ffffff" stroke="#000000" points="4.5,-112.5 4.5,-131.5 126.5,-131.5 126.5,-112.5 4.5,-112.5"/>
<text text-anchor="middle" x="65.5" y="-119.5" font-family="Helvetica,sans-Serif" font-size="10.00" fill="#000000">csl::TensorFieldElement</text>
</a>
</g>
</g>
<!-- Node2&#45;&gt;Node1 -->
<g id="edge2" class="edge">
<title>Node2&#45;&gt;Node1</title>
<path fill="none" stroke="#191970" d="M65.5,-102.1575C65.5,-93.155 65.5,-82.9199 65.5,-75.6427"/>
<polygon fill="#191970" stroke="#191970" points="62.0001,-102.2455 65.5,-112.2455 69.0001,-102.2456 62.0001,-102.2455"/>
</g>
<!-- Node3 -->
<g id="node4" class="node">
<title>Node3</title>
<g id="a_node4"><a doxygen="/home/uhlrich/Bureau/MARTY/newlife/marty-dev/csl/csl.tag:../../csl/html/" xlink:href="../../csl/html/classcsl_1_1TensorElement.html" target="_top" xlink:title="csl::TensorElement">
<polygon fill="#ffffff" stroke="#000000" points="15,-168.5 15,-187.5 116,-187.5 116,-168.5 15,-168.5"/>
<text text-anchor="middle" x="65.5" y="-175.5" font-family="Helvetica,sans-Serif" font-size="10.00" fill="#000000">csl::TensorElement</text>
</a>
</g>
</g>
<!-- Node3&#45;&gt;Node2 -->
<g id="edge3" class="edge">
<title>Node3&#45;&gt;Node2</title>
<path fill="none" stroke="#191970" d="M65.5,-158.1575C65.5,-149.155 65.5,-138.9199 65.5,-131.6427"/>
<polygon fill="#191970" stroke="#191970" points="62.0001,-158.2455 65.5,-168.2455 69.0001,-158.2456 62.0001,-158.2455"/>
</g>
<!-- Node4 -->
<g id="node5" class="node">
<title>Node4</title>
<g id="a_node5"><a doxygen="/home/uhlrich/Bureau/MARTY/newlife/marty-dev/csl/csl.tag:../../csl/html/" xlink:href="../../csl/html/classcsl_1_1AbstractElement.html" target="_top" xlink:title="csl::AbstractElement">
<polygon fill="#ffffff" stroke="#000000" points="11.5,-224.5 11.5,-243.5 119.5,-243.5 119.5,-224.5 11.5,-224.5"/>
<text text-anchor="middle" x="65.5" y="-231.5" font-family="Helvetica,sans-Serif" font-size="10.00" fill="#000000">csl::AbstractElement</text>
</a>
</g>
</g>
<!-- Node4&#45;&gt;Node3 -->
<g id="edge4" class="edge">
<title>Node4&#45;&gt;Node3</title>
<path fill="none" stroke="#191970" d="M65.5,-214.1575C65.5,-205.155 65.5,-194.9199 65.5,-187.6427"/>
<polygon fill="#191970" stroke="#191970" points="62.0001,-214.2455 65.5,-224.2455 69.0001,-214.2456 62.0001,-214.2455"/>
</g>
<!-- Node5 -->
<g id="node6" class="node">
<title>Node5</title>
<g id="a_node6"><a doxygen="/home/uhlrich/Bureau/MARTY/newlife/marty-dev/csl/csl.tag:../../csl/html/" xlink:href="../../csl/html/classcsl_1_1Complexified.html" target="_top" xlink:title="csl::Complexified">
<polygon fill="#ffffff" stroke="#000000" points="19.5,-280.5 19.5,-299.5 111.5,-299.5 111.5,-280.5 19.5,-280.5"/>
<text text-anchor="middle" x="65.5" y="-287.5" font-family="Helvetica,sans-Serif" font-size="10.00" fill="#000000">csl::Complexified</text>
</a>
</g>
</g>
<!-- Node5&#45;&gt;Node4 -->
<g id="edge5" class="edge">
<title>Node5&#45;&gt;Node4</title>
<path fill="none" stroke="#191970" d="M65.5,-270.1575C65.5,-261.155 65.5,-250.9199 65.5,-243.6427"/>
<polygon fill="#191970" stroke="#191970" points="62.0001,-270.2455 65.5,-280.2455 69.0001,-270.2456 62.0001,-270.2455"/>
</g>
<!-- Node6 -->
<g id="node7" class="node">
<title>Node6</title>
<g id="a_node7"><a doxygen="/home/uhlrich/Bureau/MARTY/newlife/marty-dev/csl/csl.tag:../../csl/html/" xlink:href="../../csl/html/classcsl_1_1AbstractBuildingBlock.html" target="_top" xlink:title="csl::AbstractBuildingBlock">
<polygon fill="#ffffff" stroke="#000000" points="0,-336.5 0,-355.5 131,-355.5 131,-336.5 0,-336.5"/>
<text text-anchor="middle" x="65.5" y="-343.5" font-family="Helvetica,sans-Serif" font-size="10.00" fill="#000000">csl::AbstractBuildingBlock</text>
</a>
</g>
</g>
<!-- Node6&#45;&gt;Node5 -->
<g id="edge6" class="edge">
<title>Node6&#45;&gt;Node5</title>
<path fill="none" stroke="#191970" d="M65.5,-326.1575C65.5,-317.155 65.5,-306.9199 65.5,-299.6427"/>
<polygon fill="#191970" stroke="#191970" points="62.0001,-326.2455 65.5,-336.2455 69.0001,-326.2456 62.0001,-326.2455"/>
</g>
<!-- Node7 -->
<g id="node8" class="node">
<title>Node7</title>
<g id="a_node8"><a doxygen="/home/uhlrich/Bureau/MARTY/newlife/marty-dev/csl/csl.tag:../../csl/html/" xlink:href="../../csl/html/classcsl_1_1Abstract.html" target="_top" xlink:title="csl::Abstract">
<polygon fill="#ffffff" stroke="#000000" points="29.5,-392.5 29.5,-411.5 101.5,-411.5 101.5,-392.5 29.5,-392.5"/>
<text text-anchor="middle" x="65.5" y="-399.5" font-family="Helvetica,sans-Serif" font-size="10.00" fill="#000000">csl::Abstract</text>
</a>
</g>
</g>
<!-- Node7&#45;&gt;Node6 -->
<g id="edge7" class="edge">
<title>Node7&#45;&gt;Node6</title>
<path fill="none" stroke="#191970" d="M65.5,-382.1575C65.5,-373.155 65.5,-362.9199 65.5,-355.6427"/>
<polygon fill="#191970" stroke="#191970" points="62.0001,-382.2455 65.5,-392.2455 69.0001,-382.2456 62.0001,-382.2455"/>
</g>
</g>
</svg>
