<?xml version="1.0" encoding="UTF-8" standalone="no"?>
<!DOCTYPE svg PUBLIC "-//W3C//DTD SVG 1.1//EN"
 "http://www.w3.org/Graphics/SVG/1.1/DTD/svg11.dtd">
<!-- Generated by graphviz version 2.40.1 (20161225.0304)
 -->
<!-- Title: Ui::MainWindow Pages: 1 -->
<svg width="97pt" height="84pt"
 viewBox="0.00 0.00 97.00 84.00" xmlns="http://www.w3.org/2000/svg" xmlns:xlink="http://www.w3.org/1999/xlink">
<g id="graph0" class="graph" transform="scale(1 1) rotate(0) translate(4 80)">
<title>Ui::MainWindow</title>
<polygon fill="#ffffff" stroke="transparent" points="-4,4 -4,-80 93,-80 93,4 -4,4"/>
<!-- Node0 -->
<g id="node1" class="node">
<title>Node0</title>
<polygon fill="#bfbfbf" stroke="#000000" points="0,-.5 0,-19.5 89,-19.5 89,-.5 0,-.5"/>
<text text-anchor="middle" x="44.5" y="-7.5" font-family="Helvetica,sans-Serif" font-size="10.00" fill="#000000">Ui::MainWindow</text>
</g>
<!-- Node1 -->
<g id="node2" class="node">
<title>Node1</title>
<g id="a_node2"><a xlink:href="classUi__MainWindow.html" target="_top" xlink:title="Ui_MainWindow">
<polygon fill="#ffffff" stroke="#000000" points=".5,-56.5 .5,-75.5 88.5,-75.5 88.5,-56.5 .5,-56.5"/>
<text text-anchor="middle" x="44.5" y="-63.5" font-family="Helvetica,sans-Serif" font-size="10.00" fill="#000000">Ui_MainWindow</text>
</a>
</g>
</g>
<!-- Node1&#45;&gt;Node0 -->
<g id="edge1" class="edge">
<title>Node1&#45;&gt;Node0</title>
<path fill="none" stroke="#191970" d="M38.0113,-46.1575C37.419,-37.155 37.8335,-26.9199 39.2549,-19.6427"/>
<polygon fill="#191970" stroke="#191970" points="34.5561,-46.739 39.2332,-56.2455 41.5053,-45.8972 34.5561,-46.739"/>
</g>
<!-- Node1&#45;&gt;Node0 -->
<g id="edge2" class="edge">
<title>Node1&#45;&gt;Node0</title>
<path fill="none" stroke="#191970" d="M50.9887,-46.1575C51.581,-37.155 51.1665,-26.9199 49.7451,-19.6427"/>
<polygon fill="#191970" stroke="#191970" points="47.4947,-45.8972 49.7668,-56.2455 54.4439,-46.739 47.4947,-45.8972"/>
</g>
</g>
</svg>
