<?xml version="1.0" encoding="UTF-8" standalone="no"?>
<!DOCTYPE svg PUBLIC "-//W3C//DTD SVG 1.1//EN"
 "http://www.w3.org/Graphics/SVG/1.1/DTD/svg11.dtd">
<!-- Generated by graphviz version 2.40.1 (20161225.0304)
 -->
<!-- Title: sgl::AbstractGammaSym Pages: 1 -->
<!--zoomable 281 -->
<svg id="main" version="1.1" xmlns="http://www.w3.org/2000/svg" xmlns:xlink="http://www.w3.org/1999/xlink" xml:space="preserve" onload="init(evt)">
<style type="text/css"><![CDATA[
.edge:hover path { stroke: red; }
.edge:hover polygon { stroke: red; fill: red; }
]]></style>
<script type="text/javascript"><![CDATA[
var edges = document.getElementsByTagName('g');
if (edges && edges.length) {
  for (var i=0;i<edges.length;i++) {
    if (edges[i].id.substr(0,4)=='edge') {
      edges[i].setAttribute('class','edge');
    }
  }
}
]]></script>
        <defs>
                <circle id="rim" cx="0" cy="0" r="7"/>
                <circle id="rim2" cx="0" cy="0" r="3.5"/>
                <g id="zoomPlus">
                        <use xlink:href="#rim" fill="#404040">
                                <set attributeName="fill" to="#808080" begin="zoomplus.mouseover" end="zoomplus.mouseout"/>
                        </use>
                        <path d="M-4,0h8M0,-4v8" fill="none" stroke="white" stroke-width="1.5" pointer-events="none"/>
                </g>
                <g id="zoomMin">
                        <use xlink:href="#rim" fill="#404040">
                                <set attributeName="fill" to="#808080" begin="zoomminus.mouseover" end="zoomminus.mouseout"/>
                        </use>
                        <path d="M-4,0h8" fill="none" stroke="white" stroke-width="1.5" pointer-events="none"/>
                </g>
                <g id="dirArrow">
                        <path fill="none" stroke="white" stroke-width="1.5" d="M0,-3.0v7 M-2.5,-0.5L0,-3.0L2.5,-0.5"/>
                </g>
               <g id="resetDef">
                       <use xlink:href="#rim2" fill="#404040">
                               <set attributeName="fill" to="#808080" begin="reset.mouseover" end="reset.mouseout"/>
                       </use>
               </g>
        </defs>

<script type="text/javascript">
var viewWidth = 814;
var viewHeight = 281;
var sectionId = 'dynsection-0';
</script>
<script xlink:href="svgpan.js"/>
<svg id="graph" class="graph">
<g id="viewport">
<title>sgl::AbstractGammaSym</title>
<polygon fill="#ffffff" stroke="transparent" points="-4,4 -4,-277 810,-277 810,4 -4,4"/>
<!-- Node0 -->
<g id="node1" class="node">
<title>Node0</title>
<polygon fill="#bfbfbf" stroke="#000000" points="208,-76.5 208,-95.5 335,-95.5 335,-76.5 208,-76.5"/>
<text text-anchor="middle" x="271.5" y="-83.5" font-family="Helvetica,sans-Serif" font-size="10.00" fill="#000000">sgl::AbstractGammaSym</text>
</g>
<!-- Node2 -->
<g id="node3" class="node">
<title>Node2</title>
<g id="a_node3"><a xlink:href="classsgl_1_1AbstractLiteral.html" target="_top" xlink:title="sgl::AbstractLiteral">
<polygon fill="#ffffff" stroke="#000000" points="387.5,-133.5 387.5,-152.5 485.5,-152.5 485.5,-133.5 387.5,-133.5"/>
<text text-anchor="middle" x="436.5" y="-140.5" font-family="Helvetica,sans-Serif" font-size="10.00" fill="#000000">sgl::AbstractLiteral</text>
</a>
</g>
</g>
<!-- Node0&#45;&gt;Node2 -->
<g id="edge2" class="edge">
<title>Node0&#45;&gt;Node2</title>
<path fill="none" stroke="#191970" d="M308.9245,-98.9285C339.2842,-109.4164 381.3956,-123.9639 408.7926,-133.4284"/>
<polygon fill="#191970" stroke="#191970" points="309.712,-95.4976 299.1173,-95.5405 307.4264,-102.114 309.712,-95.4976"/>
</g>
<!-- Node10 -->
<g id="node11" class="node">
<title>Node10</title>
<g id="a_node11"><a xlink:href="classsgl_1_1AbstractMultiFunction.html" target="_top" xlink:title="sgl::AbstractMultiFunction">
<polygon fill="#ffffff" stroke="#000000" points="371,-57.5 371,-76.5 502,-76.5 502,-57.5 371,-57.5"/>
<text text-anchor="middle" x="436.5" y="-64.5" font-family="Helvetica,sans-Serif" font-size="10.00" fill="#000000">sgl::AbstractMultiFunction</text>
</a>
</g>
</g>
<!-- Node0&#45;&gt;Node10 -->
<g id="edge10" class="edge">
<title>Node0&#45;&gt;Node10</title>
<path fill="none" stroke="#191970" d="M345.2671,-77.5056C353.8321,-76.5193 362.5241,-75.5184 370.9682,-74.5461"/>
<polygon fill="#191970" stroke="#191970" points="344.8272,-74.033 335.2933,-78.6541 345.6281,-80.9871 344.8272,-74.033"/>
</g>
<!-- Node1 -->
<g id="node2" class="node">
<title>Node1</title>
<polygon fill="#ffffff" stroke="#bfbfbf" points="0,-71 0,-101 172,-101 172,-71 0,-71"/>
<text text-anchor="start" x="8" y="-89" font-family="Helvetica,sans-Serif" font-size="10.00" fill="#000000">std::enable_shared</text>
<text text-anchor="middle" x="86" y="-78" font-family="Helvetica,sans-Serif" font-size="10.00" fill="#000000">_from_this&lt; AbstractGammaSym &gt;</text>
</g>
<!-- Node1&#45;&gt;Node0 -->
<g id="edge1" class="edge">
<title>Node1&#45;&gt;Node0</title>
<path fill="none" stroke="#191970" d="M182.3884,-86C191.038,-86 199.6453,-86 207.9088,-86"/>
<polygon fill="#191970" stroke="#191970" points="182.2333,-82.5001 172.2333,-86 182.2333,-89.5001 182.2333,-82.5001"/>
</g>
<!-- Node3 -->
<g id="node4" class="node">
<title>Node3</title>
<g id="a_node4"><a xlink:href="classsgl_1_1AbstractGeneralizedIndex.html" target="_top" xlink:title="sgl::AbstractGeneralized\lIndex">
<polygon fill="#ffffff" stroke="#000000" points="538,-191 538,-221 662,-221 662,-191 538,-191"/>
<text text-anchor="start" x="546" y="-209" font-family="Helvetica,sans-Serif" font-size="10.00" fill="#000000">sgl::AbstractGeneralized</text>
<text text-anchor="middle" x="600" y="-198" font-family="Helvetica,sans-Serif" font-size="10.00" fill="#000000">Index</text>
</a>
</g>
</g>
<!-- Node2&#45;&gt;Node3 -->
<g id="edge3" class="edge">
<title>Node2&#45;&gt;Node3</title>
<path fill="none" stroke="#191970" d="M470.8863,-156.2498C497.1941,-166.3867 533.4917,-180.3729 560.9026,-190.935"/>
<polygon fill="#191970" stroke="#191970" points="471.9218,-152.898 461.3321,-152.5683 469.4049,-159.4299 471.9218,-152.898"/>
</g>
<!-- Node8 -->
<g id="node9" class="node">
<title>Node8</title>
<g id="a_node9"><a xlink:href="classsgl_1_1CSLExpr.html" target="_top" xlink:title="sgl::CSLExpr">
<polygon fill="#ffffff" stroke="#000000" points="562.5,-152.5 562.5,-171.5 637.5,-171.5 637.5,-152.5 562.5,-152.5"/>
<text text-anchor="middle" x="600" y="-159.5" font-family="Helvetica,sans-Serif" font-size="10.00" fill="#000000">sgl::CSLExpr</text>
</a>
</g>
</g>
<!-- Node2&#45;&gt;Node8 -->
<g id="edge8" class="edge">
<title>Node2&#45;&gt;Node8</title>
<path fill="none" stroke="#191970" d="M495.5993,-149.8678C517.8908,-152.4583 542.6217,-155.3322 562.4161,-157.6324"/>
<polygon fill="#191970" stroke="#191970" points="495.8926,-146.3784 485.5554,-148.7006 495.0845,-153.3316 495.8926,-146.3784"/>
</g>
<!-- Node9 -->
<g id="node10" class="node">
<title>Node9</title>
<g id="a_node10"><a xlink:href="classsgl_1_1Field.html" target="_top" xlink:title="sgl::Field">
<polygon fill="#ffffff" stroke="#000000" points="572,-114.5 572,-133.5 628,-133.5 628,-114.5 572,-114.5"/>
<text text-anchor="middle" x="600" y="-121.5" font-family="Helvetica,sans-Serif" font-size="10.00" fill="#000000">sgl::Field</text>
</a>
</g>
</g>
<!-- Node2&#45;&gt;Node9 -->
<g id="edge9" class="edge">
<title>Node2&#45;&gt;Node9</title>
<path fill="none" stroke="#191970" d="M495.7051,-136.1199C521.6986,-133.0992 550.9909,-129.6952 571.8992,-127.2655"/>
<polygon fill="#191970" stroke="#191970" points="495.0845,-132.6684 485.5554,-137.2994 495.8926,-139.6216 495.0845,-132.6684"/>
</g>
<!-- Node4 -->
<g id="node5" class="node">
<title>Node4</title>
<g id="a_node5"><a xlink:href="classsgl_1_1EpsilonIndex.html" target="_top" xlink:title="sgl::EpsilonIndex">
<polygon fill="#ffffff" stroke="#000000" points="706,-253.5 706,-272.5 798,-272.5 798,-253.5 706,-253.5"/>
<text text-anchor="middle" x="752" y="-260.5" font-family="Helvetica,sans-Serif" font-size="10.00" fill="#000000">sgl::EpsilonIndex</text>
</a>
</g>
</g>
<!-- Node3&#45;&gt;Node4 -->
<g id="edge4" class="edge">
<title>Node3&#45;&gt;Node4</title>
<path fill="none" stroke="#191970" d="M647.7056,-224.8457C663.6563,-231.054 681.558,-237.9214 698,-244 706.4828,-247.1361 715.7582,-250.4434 724.1908,-253.404"/>
<polygon fill="#191970" stroke="#191970" points="648.6448,-221.4552 638.0567,-221.0783 646.0988,-227.9758 648.6448,-221.4552"/>
</g>
<!-- Node5 -->
<g id="node6" class="node">
<title>Node5</title>
<g id="a_node6"><a xlink:href="classsgl_1_1GammaIndex.html" target="_top" xlink:title="sgl::GammaIndex">
<polygon fill="#ffffff" stroke="#000000" points="705,-215.5 705,-234.5 799,-234.5 799,-215.5 705,-215.5"/>
<text text-anchor="middle" x="752" y="-222.5" font-family="Helvetica,sans-Serif" font-size="10.00" fill="#000000">sgl::GammaIndex</text>
</a>
</g>
</g>
<!-- Node3&#45;&gt;Node5 -->
<g id="edge5" class="edge">
<title>Node3&#45;&gt;Node5</title>
<path fill="none" stroke="#191970" d="M672.3763,-215.047C683.4497,-216.4312 694.6259,-217.8282 704.9618,-219.1202"/>
<polygon fill="#191970" stroke="#191970" points="672.6197,-211.5503 662.2628,-213.7828 671.7514,-218.4963 672.6197,-211.5503"/>
</g>
<!-- Node6 -->
<g id="node7" class="node">
<title>Node6</title>
<g id="a_node7"><a xlink:href="classsgl_1_1MetricIndex.html" target="_top" xlink:title="sgl::MetricIndex">
<polygon fill="#ffffff" stroke="#000000" points="709,-177.5 709,-196.5 795,-196.5 795,-177.5 709,-177.5"/>
<text text-anchor="middle" x="752" y="-184.5" font-family="Helvetica,sans-Serif" font-size="10.00" fill="#000000">sgl::MetricIndex</text>
</a>
</g>
</g>
<!-- Node3&#45;&gt;Node6 -->
<g id="edge6" class="edge">
<title>Node3&#45;&gt;Node6</title>
<path fill="none" stroke="#191970" d="M672.201,-196.9749C684.6615,-195.4173 697.2586,-193.8427 708.6479,-192.419"/>
<polygon fill="#191970" stroke="#191970" points="671.7514,-193.5037 662.2628,-198.2172 672.6197,-200.4497 671.7514,-193.5037"/>
</g>
<!-- Node7 -->
<g id="node8" class="node">
<title>Node7</title>
<g id="a_node8"><a xlink:href="classsgl_1_1MomentumIndex.html" target="_top" xlink:title="sgl::MomentumIndex">
<polygon fill="#ffffff" stroke="#000000" points="698,-139.5 698,-158.5 806,-158.5 806,-139.5 698,-139.5"/>
<text text-anchor="middle" x="752" y="-146.5" font-family="Helvetica,sans-Serif" font-size="10.00" fill="#000000">sgl::MomentumIndex</text>
</a>
</g>
</g>
<!-- Node3&#45;&gt;Node7 -->
<g id="edge7" class="edge">
<title>Node3&#45;&gt;Node7</title>
<path fill="none" stroke="#191970" d="M647.7056,-187.1543C663.6563,-180.946 681.558,-174.0786 698,-168 706.4828,-164.8639 715.7582,-161.5566 724.1908,-158.596"/>
<polygon fill="#191970" stroke="#191970" points="646.0988,-184.0242 638.0567,-190.9217 648.6448,-190.5448 646.0988,-184.0242"/>
</g>
<!-- Node11 -->
<g id="node12" class="node">
<title>Node11</title>
<g id="a_node12"><a xlink:href="classsgl_1_1IndexChain.html" target="_top" xlink:title="sgl::IndexChain">
<polygon fill="#ffffff" stroke="#000000" points="557.5,-76.5 557.5,-95.5 642.5,-95.5 642.5,-76.5 557.5,-76.5"/>
<text text-anchor="middle" x="600" y="-83.5" font-family="Helvetica,sans-Serif" font-size="10.00" fill="#000000">sgl::IndexChain</text>
</a>
</g>
</g>
<!-- Node10&#45;&gt;Node11 -->
<g id="edge11" class="edge">
<title>Node10&#45;&gt;Node11</title>
<path fill="none" stroke="#191970" d="M512.2065,-75.7977C527.7478,-77.6037 543.5819,-79.4438 557.4458,-81.0549"/>
<polygon fill="#191970" stroke="#191970" points="512.3968,-72.2963 502.0596,-74.6185 511.5887,-79.2496 512.3968,-72.2963"/>
</g>
<!-- Node12 -->
<g id="node13" class="node">
<title>Node12</title>
<g id="a_node13"><a xlink:href="classsgl_1_1Prod.html" target="_top" xlink:title="sgl::Prod">
<polygon fill="#ffffff" stroke="#000000" points="572,-38.5 572,-57.5 628,-57.5 628,-38.5 572,-38.5"/>
<text text-anchor="middle" x="600" y="-45.5" font-family="Helvetica,sans-Serif" font-size="10.00" fill="#000000">sgl::Prod</text>
</a>
</g>
</g>
<!-- Node10&#45;&gt;Node12 -->
<g id="edge12" class="edge">
<title>Node10&#45;&gt;Node12</title>
<path fill="none" stroke="#191970" d="M512.1325,-58.2109C533.4711,-55.7312 555.3686,-53.1865 571.966,-51.2578"/>
<polygon fill="#191970" stroke="#191970" points="511.5887,-54.7504 502.0596,-59.3815 512.3968,-61.7037 511.5887,-54.7504"/>
</g>
<!-- Node13 -->
<g id="node14" class="node">
<title>Node13</title>
<g id="a_node14"><a xlink:href="classsgl_1_1Sum.html" target="_top" xlink:title="sgl::Sum">
<polygon fill="#ffffff" stroke="#000000" points="572,-.5 572,-19.5 628,-19.5 628,-.5 572,-.5"/>
<text text-anchor="middle" x="600" y="-7.5" font-family="Helvetica,sans-Serif" font-size="10.00" fill="#000000">sgl::Sum</text>
</a>
</g>
</g>
<!-- Node10&#45;&gt;Node13 -->
<g id="edge13" class="edge">
<title>Node10&#45;&gt;Node13</title>
<path fill="none" stroke="#191970" d="M470.3955,-53.7207C490.0351,-46.1748 515.2933,-36.7218 538,-29 548.9783,-25.2667 561.1591,-21.4618 571.7976,-18.2472"/>
<polygon fill="#191970" stroke="#191970" points="469.029,-50.4964 460.9618,-57.3645 471.5512,-57.0263 469.029,-50.4964"/>
</g>
</g>
</svg>
        <g id="navigator" transform="translate(0 0)" fill="#404254">
                <rect fill="#f2f5e9" fill-opacity="0.5" stroke="#606060" stroke-width=".5" x="0" y="0" width="60" height="60"/>
                <use id="zoomplus" xlink:href="#zoomPlus" x="17" y="9" onmousedown="handleZoom(evt,'in')"/>
                <use id="zoomminus" xlink:href="#zoomMin" x="42" y="9" onmousedown="handleZoom(evt,'out')"/>
                <use id="reset" xlink:href="#resetDef" x="30" y="36" onmousedown="handleReset()"/>
                <g id="arrowUp" xlink:href="#dirArrow" transform="translate(30 24)" onmousedown="handlePan(0,-1)">
                  <use xlink:href="#rim" fill="#404040">
                        <set attributeName="fill" to="#808080" begin="arrowUp.mouseover" end="arrowUp.mouseout"/>
                  </use>
                  <path fill="none" stroke="white" stroke-width="1.5" d="M0,-3.0v7 M-2.5,-0.5L0,-3.0L2.5,-0.5"/>
                </g>
                <g id="arrowRight" xlink:href="#dirArrow" transform="rotate(90) translate(36 -43)" onmousedown="handlePan(1,0)">
                  <use xlink:href="#rim" fill="#404040">
                        <set attributeName="fill" to="#808080" begin="arrowRight.mouseover" end="arrowRight.mouseout"/>
                  </use>
                  <path fill="none" stroke="white" stroke-width="1.5" d="M0,-3.0v7 M-2.5,-0.5L0,-3.0L2.5,-0.5"/>
                </g>
                <g id="arrowDown" xlink:href="#dirArrow" transform="rotate(180) translate(-30 -48)" onmousedown="handlePan(0,1)">
                  <use xlink:href="#rim" fill="#404040">
                        <set attributeName="fill" to="#808080" begin="arrowDown.mouseover" end="arrowDown.mouseout"/>
                  </use>
                  <path fill="none" stroke="white" stroke-width="1.5" d="M0,-3.0v7 M-2.5,-0.5L0,-3.0L2.5,-0.5"/>
                </g>
                <g id="arrowLeft" xlink:href="#dirArrow" transform="rotate(270) translate(-36 17)" onmousedown="handlePan(-1,0)">
                  <use xlink:href="#rim" fill="#404040">
                        <set attributeName="fill" to="#808080" begin="arrowLeft.mouseover" end="arrowLeft.mouseout"/>
                  </use>
                  <path fill="none" stroke="white" stroke-width="1.5" d="M0,-3.0v7 M-2.5,-0.5L0,-3.0L2.5,-0.5"/>
                </g>
        </g>
        <svg viewBox="0 0 15 15" width="100%" height="30px" preserveAspectRatio="xMaxYMin meet">
         <g id="arrow_out" transform="scale(0.3 0.3)">
          <a xlink:href="classsgl_1_1AbstractGammaSym__inherit__graph_org.svg" target="_base">
           <rect id="button" ry="5" rx="5" y="6" x="6" height="38" width="38"
                fill="#f2f5e9" fill-opacity="0.5" stroke="#606060" stroke-width="1.0"/>
           <path id="arrow"
             d="M 11.500037,31.436501 C 11.940474,20.09759 22.043105,11.32322 32.158766,21.979434 L 37.068811,17.246167 C 37.068811,17.246167 37.088388,32 37.088388,32 L 22.160133,31.978069 C 22.160133,31.978069 26.997745,27.140456 26.997745,27.140456 C 18.528582,18.264221 13.291696,25.230495 11.500037,31.436501 z"
             style="fill:#404040;"/>
          </a>
         </g>
        </svg>
</svg>
