<?xml version="1.0" encoding="UTF-8" standalone="no"?>
<!DOCTYPE svg PUBLIC "-//W3C//DTD SVG 1.1//EN"
 "http://www.w3.org/Graphics/SVG/1.1/DTD/svg11.dtd">
<!-- Generated by graphviz version 2.40.1 (20161225.0304)
 -->
<!-- Title: GaugedGroup Pages: 1 -->
<svg width="639pt" height="140pt"
 viewBox="0.00 0.00 638.50 140.00" xmlns="http://www.w3.org/2000/svg" xmlns:xlink="http://www.w3.org/1999/xlink">
<g id="graph0" class="graph" transform="scale(1 1) rotate(0) translate(4 136)">
<title>GaugedGroup</title>
<polygon fill="#ffffff" stroke="transparent" points="-4,4 -4,-136 634.5,-136 634.5,4 -4,4"/>
<!-- Node0 -->
<g id="node1" class="node">
<title>Node0</title>
<polygon fill="#bfbfbf" stroke="#000000" points="322.5,-112.5 322.5,-131.5 399.5,-131.5 399.5,-112.5 322.5,-112.5"/>
<text text-anchor="middle" x="361" y="-119.5" font-family="Helvetica,sans-Serif" font-size="10.00" fill="#000000">GaugedGroup</text>
</g>
<!-- Node1 -->
<g id="node2" class="node">
<title>Node1</title>
<g id="a_node2"><a xlink:href="classmty_1_1NonAbelianGauged.html" target="_top" xlink:title="NonAbelianGauged">
<polygon fill="#ffffff" stroke="#000000" points="260.5,-56.5 260.5,-75.5 361.5,-75.5 361.5,-56.5 260.5,-56.5"/>
<text text-anchor="middle" x="311" y="-63.5" font-family="Helvetica,sans-Serif" font-size="10.00" fill="#000000">NonAbelianGauged</text>
</a>
</g>
</g>
<!-- Node0&#45;&gt;Node1 -->
<g id="edge1" class="edge">
<title>Node0&#45;&gt;Node1</title>
<path fill="none" stroke="#191970" d="M345.3753,-104.5004C336.8727,-94.9775 326.6782,-83.5596 319.6095,-75.6427"/>
<polygon fill="#191970" stroke="#191970" points="343.0197,-107.1172 352.2907,-112.2455 348.2413,-102.4551 343.0197,-107.1172"/>
</g>
<!-- Node10 -->
<g id="node11" class="node">
<title>Node10</title>
<g id="a_node11"><a xlink:href="classmty_1_1U1Gauged.html" target="_top" xlink:title="U1Gauged">
<polygon fill="#ffffff" stroke="#000000" points="379.5,-56.5 379.5,-75.5 442.5,-75.5 442.5,-56.5 379.5,-56.5"/>
<text text-anchor="middle" x="411" y="-63.5" font-family="Helvetica,sans-Serif" font-size="10.00" fill="#000000">U1Gauged</text>
</a>
</g>
</g>
<!-- Node0&#45;&gt;Node10 -->
<g id="edge10" class="edge">
<title>Node0&#45;&gt;Node10</title>
<path fill="none" stroke="#191970" d="M376.6247,-104.5004C385.1273,-94.9775 395.3218,-83.5596 402.3905,-75.6427"/>
<polygon fill="#191970" stroke="#191970" points="373.7587,-102.4551 369.7093,-112.2455 378.9803,-107.1172 373.7587,-102.4551"/>
</g>
<!-- Node2 -->
<g id="node3" class="node">
<title>Node2</title>
<g id="a_node3"><a xlink:href="classmty_1_1E6Gauged.html" target="_top" xlink:title="E6Gauged">
<polygon fill="#ffffff" stroke="#000000" points="0,-.5 0,-19.5 62,-19.5 62,-.5 0,-.5"/>
<text text-anchor="middle" x="31" y="-7.5" font-family="Helvetica,sans-Serif" font-size="10.00" fill="#000000">E6Gauged</text>
</a>
</g>
</g>
<!-- Node1&#45;&gt;Node2 -->
<g id="edge2" class="edge">
<title>Node1&#45;&gt;Node2</title>
<path fill="none" stroke="#191970" d="M250.2208,-55.3155C201.5887,-46.5343 131.7236,-33.3989 71,-20 68.204,-19.383 65.3052,-18.7148 62.4039,-18.0262"/>
<polygon fill="#191970" stroke="#191970" points="249.8036,-58.7965 260.2652,-57.1217 251.0426,-51.907 249.8036,-58.7965"/>
</g>
<!-- Node3 -->
<g id="node4" class="node">
<title>Node3</title>
<g id="a_node4"><a xlink:href="classmty_1_1E7Gauged.html" target="_top" xlink:title="E7Gauged">
<polygon fill="#ffffff" stroke="#000000" points="80,-.5 80,-19.5 142,-19.5 142,-.5 80,-.5"/>
<text text-anchor="middle" x="111" y="-7.5" font-family="Helvetica,sans-Serif" font-size="10.00" fill="#000000">E7Gauged</text>
</a>
</g>
</g>
<!-- Node1&#45;&gt;Node3 -->
<g id="edge3" class="edge">
<title>Node1&#45;&gt;Node3</title>
<path fill="none" stroke="#191970" d="M266.9033,-53.6529C229.1701,-43.0876 175.7906,-28.1414 142.3032,-18.7649"/>
<polygon fill="#191970" stroke="#191970" points="266.0454,-57.0473 276.6188,-56.3733 267.9329,-50.3065 266.0454,-57.0473"/>
</g>
<!-- Node4 -->
<g id="node5" class="node">
<title>Node4</title>
<g id="a_node5"><a xlink:href="classmty_1_1E8Gauged.html" target="_top" xlink:title="E8Gauged">
<polygon fill="#ffffff" stroke="#000000" points="160,-.5 160,-19.5 222,-19.5 222,-.5 160,-.5"/>
<text text-anchor="middle" x="191" y="-7.5" font-family="Helvetica,sans-Serif" font-size="10.00" fill="#000000">E8Gauged</text>
</a>
</g>
</g>
<!-- Node1&#45;&gt;Node4 -->
<g id="edge4" class="edge">
<title>Node1&#45;&gt;Node4</title>
<path fill="none" stroke="#191970" d="M281.2376,-52.1109C259.4768,-41.9559 230.5318,-28.4482 211.3595,-19.5011"/>
<polygon fill="#191970" stroke="#191970" points="279.8293,-55.316 290.3713,-56.3733 282.7895,-48.9727 279.8293,-55.316"/>
</g>
<!-- Node5 -->
<g id="node6" class="node">
<title>Node5</title>
<g id="a_node6"><a xlink:href="classmty_1_1F4Gauged.html" target="_top" xlink:title="F4Gauged">
<polygon fill="#ffffff" stroke="#000000" points="240,-.5 240,-19.5 302,-19.5 302,-.5 240,-.5"/>
<text text-anchor="middle" x="271" y="-7.5" font-family="Helvetica,sans-Serif" font-size="10.00" fill="#000000">F4Gauged</text>
</a>
</g>
</g>
<!-- Node1&#45;&gt;Node5 -->
<g id="edge5" class="edge">
<title>Node1&#45;&gt;Node5</title>
<path fill="none" stroke="#191970" d="M298.0864,-47.9209C291.3697,-38.5176 283.4283,-27.3997 277.8876,-19.6427"/>
<polygon fill="#191970" stroke="#191970" points="295.372,-50.1425 304.0325,-56.2455 301.0682,-46.0738 295.372,-50.1425"/>
</g>
<!-- Node6 -->
<g id="node7" class="node">
<title>Node6</title>
<g id="a_node7"><a xlink:href="classmty_1_1G2Gauged.html" target="_top" xlink:title="G2Gauged">
<polygon fill="#ffffff" stroke="#000000" points="320.5,-.5 320.5,-19.5 383.5,-19.5 383.5,-.5 320.5,-.5"/>
<text text-anchor="middle" x="352" y="-7.5" font-family="Helvetica,sans-Serif" font-size="10.00" fill="#000000">G2Gauged</text>
</a>
</g>
</g>
<!-- Node1&#45;&gt;Node6 -->
<g id="edge6" class="edge">
<title>Node1&#45;&gt;Node6</title>
<path fill="none" stroke="#191970" d="M324.2364,-47.9209C331.1211,-38.5176 339.2609,-27.3997 344.9402,-19.6427"/>
<polygon fill="#191970" stroke="#191970" points="321.2251,-46.1093 318.1417,-56.2455 326.8731,-50.2445 321.2251,-46.1093"/>
</g>
<!-- Node7 -->
<g id="node8" class="node">
<title>Node7</title>
<g id="a_node8"><a xlink:href="classmty_1_1SOGauged.html" target="_top" xlink:title="SOGauged">
<polygon fill="#ffffff" stroke="#000000" points="401.5,-.5 401.5,-19.5 466.5,-19.5 466.5,-.5 401.5,-.5"/>
<text text-anchor="middle" x="434" y="-7.5" font-family="Helvetica,sans-Serif" font-size="10.00" fill="#000000">SOGauged</text>
</a>
</g>
</g>
<!-- Node1&#45;&gt;Node7 -->
<g id="edge7" class="edge">
<title>Node1&#45;&gt;Node7</title>
<path fill="none" stroke="#191970" d="M341.5065,-52.1109C363.8112,-41.9559 393.4799,-28.4482 413.1315,-19.5011"/>
<polygon fill="#191970" stroke="#191970" points="339.7953,-49.0442 332.1445,-56.3733 342.6959,-55.415 339.7953,-49.0442"/>
</g>
<!-- Node8 -->
<g id="node9" class="node">
<title>Node8</title>
<g id="a_node9"><a xlink:href="classmty_1_1SpGauged.html" target="_top" xlink:title="SpGauged">
<polygon fill="#ffffff" stroke="#000000" points="485,-.5 485,-19.5 547,-19.5 547,-.5 485,-.5"/>
<text text-anchor="middle" x="516" y="-7.5" font-family="Helvetica,sans-Serif" font-size="10.00" fill="#000000">SpGauged</text>
</a>
</g>
</g>
<!-- Node1&#45;&gt;Node8 -->
<g id="edge8" class="edge">
<title>Node1&#45;&gt;Node8</title>
<path fill="none" stroke="#191970" d="M356.2912,-53.6278C395.3367,-42.9617 450.6761,-27.8446 484.9041,-18.4945"/>
<polygon fill="#191970" stroke="#191970" points="354.965,-50.3617 346.2408,-56.3733 356.8096,-57.1143 354.965,-50.3617"/>
</g>
<!-- Node9 -->
<g id="node10" class="node">
<title>Node9</title>
<g id="a_node10"><a xlink:href="classmty_1_1SUGauged.html" target="_top" xlink:title="SUGauged">
<polygon fill="#ffffff" stroke="#000000" points="565.5,-.5 565.5,-19.5 630.5,-19.5 630.5,-.5 565.5,-.5"/>
<text text-anchor="middle" x="598" y="-7.5" font-family="Helvetica,sans-Serif" font-size="10.00" fill="#000000">SUGauged</text>
</a>
</g>
</g>
<!-- Node1&#45;&gt;Node9 -->
<g id="edge9" class="edge">
<title>Node1&#45;&gt;Node9</title>
<path fill="none" stroke="#191970" d="M371.7574,-55.4319C421.4331,-46.5899 493.4291,-33.3149 556,-20 559.0792,-19.3448 562.2785,-18.6354 565.4756,-17.9072"/>
<polygon fill="#191970" stroke="#191970" points="371.0536,-52.0021 361.8186,-57.1949 372.2762,-58.8945 371.0536,-52.0021"/>
</g>
</g>
</svg>
