<?xml version="1.0" encoding="UTF-8" standalone="no"?>
<!DOCTYPE svg PUBLIC "-//W3C//DTD SVG 1.1//EN"
 "http://www.w3.org/Graphics/SVG/1.1/DTD/svg11.dtd">
<!-- Generated by graphviz version 2.40.1 (20161225.0304)
 -->
<!-- Title: sgl::AbstractGeneralizedIndex Pages: 1 -->
<svg width="442pt" height="274pt"
 viewBox="0.00 0.00 442.00 274.00" xmlns="http://www.w3.org/2000/svg" xmlns:xlink="http://www.w3.org/1999/xlink">
<g id="graph0" class="graph" transform="scale(1 1) rotate(0) translate(4 270)">
<title>sgl::AbstractGeneralizedIndex</title>
<polygon fill="#ffffff" stroke="transparent" points="-4,4 -4,-270 438,-270 438,4 -4,4"/>
<!-- Node0 -->
<g id="node1" class="node">
<title>Node0</title>
<polygon fill="#bfbfbf" stroke="#000000" points="149,-56.5 149,-86.5 273,-86.5 273,-56.5 149,-56.5"/>
<text text-anchor="start" x="157" y="-74.5" font-family="Helvetica,sans-Serif" font-size="10.00" fill="#000000">sgl::AbstractGeneralized</text>
<text text-anchor="middle" x="211" y="-63.5" font-family="Helvetica,sans-Serif" font-size="10.00" fill="#000000">Index</text>
</g>
<!-- Node4 -->
<g id="node5" class="node">
<title>Node4</title>
<g id="a_node5"><a xlink:href="classsgl_1_1EpsilonIndex.html" target="_top" xlink:title="sgl::EpsilonIndex">
<polygon fill="#ffffff" stroke="#000000" points="0,-.5 0,-19.5 92,-19.5 92,-.5 0,-.5"/>
<text text-anchor="middle" x="46" y="-7.5" font-family="Helvetica,sans-Serif" font-size="10.00" fill="#000000">sgl::EpsilonIndex</text>
</a>
</g>
</g>
<!-- Node0&#45;&gt;Node4 -->
<g id="edge4" class="edge">
<title>Node0&#45;&gt;Node4</title>
<path fill="none" stroke="#191970" d="M160.9115,-52.8306C131.4118,-41.8353 95.3379,-28.3896 71.5691,-19.5303"/>
<polygon fill="#191970" stroke="#191970" points="160.0438,-56.2424 170.6365,-56.4554 162.4886,-49.6832 160.0438,-56.2424"/>
</g>
<!-- Node5 -->
<g id="node6" class="node">
<title>Node5</title>
<g id="a_node6"><a xlink:href="classsgl_1_1GammaIndex.html" target="_top" xlink:title="sgl::GammaIndex">
<polygon fill="#ffffff" stroke="#000000" points="110,-.5 110,-19.5 204,-19.5 204,-.5 110,-.5"/>
<text text-anchor="middle" x="157" y="-7.5" font-family="Helvetica,sans-Serif" font-size="10.00" fill="#000000">sgl::GammaIndex</text>
</a>
</g>
</g>
<!-- Node0&#45;&gt;Node5 -->
<g id="edge5" class="edge">
<title>Node0&#45;&gt;Node5</title>
<path fill="none" stroke="#191970" d="M190.9515,-48.6669C182.2236,-38.7269 172.4559,-27.6026 165.6461,-19.8469"/>
<polygon fill="#191970" stroke="#191970" points="188.4236,-51.0926 197.6517,-56.2977 193.6837,-46.474 188.4236,-51.0926"/>
</g>
<!-- Node6 -->
<g id="node7" class="node">
<title>Node6</title>
<g id="a_node7"><a xlink:href="classsgl_1_1MetricIndex.html" target="_top" xlink:title="sgl::MetricIndex">
<polygon fill="#ffffff" stroke="#000000" points="222,-.5 222,-19.5 308,-19.5 308,-.5 222,-.5"/>
<text text-anchor="middle" x="265" y="-7.5" font-family="Helvetica,sans-Serif" font-size="10.00" fill="#000000">sgl::MetricIndex</text>
</a>
</g>
</g>
<!-- Node0&#45;&gt;Node6 -->
<g id="edge6" class="edge">
<title>Node0&#45;&gt;Node6</title>
<path fill="none" stroke="#191970" d="M231.0485,-48.6669C239.7764,-38.7269 249.5441,-27.6026 256.3539,-19.8469"/>
<polygon fill="#191970" stroke="#191970" points="228.3163,-46.474 224.3483,-56.2977 233.5764,-51.0926 228.3163,-46.474"/>
</g>
<!-- Node7 -->
<g id="node8" class="node">
<title>Node7</title>
<g id="a_node8"><a xlink:href="classsgl_1_1MomentumIndex.html" target="_top" xlink:title="sgl::MomentumIndex">
<polygon fill="#ffffff" stroke="#000000" points="326,-.5 326,-19.5 434,-19.5 434,-.5 326,-.5"/>
<text text-anchor="middle" x="380" y="-7.5" font-family="Helvetica,sans-Serif" font-size="10.00" fill="#000000">sgl::MomentumIndex</text>
</a>
</g>
</g>
<!-- Node0&#45;&gt;Node7 -->
<g id="edge7" class="edge">
<title>Node0&#45;&gt;Node7</title>
<path fill="none" stroke="#191970" d="M261.909,-52.9739C292.1961,-41.9523 329.3601,-28.4281 353.811,-19.5303"/>
<polygon fill="#191970" stroke="#191970" points="260.5423,-49.7467 252.3421,-56.4554 262.9361,-56.3247 260.5423,-49.7467"/>
</g>
<!-- Node1 -->
<g id="node2" class="node">
<title>Node1</title>
<g id="a_node2"><a xlink:href="classsgl_1_1AbstractLiteral.html" target="_top" xlink:title="sgl::AbstractLiteral">
<polygon fill="#ffffff" stroke="#000000" points="162,-123.5 162,-142.5 260,-142.5 260,-123.5 162,-123.5"/>
<text text-anchor="middle" x="211" y="-130.5" font-family="Helvetica,sans-Serif" font-size="10.00" fill="#000000">sgl::AbstractLiteral</text>
</a>
</g>
</g>
<!-- Node1&#45;&gt;Node0 -->
<g id="edge1" class="edge">
<title>Node1&#45;&gt;Node0</title>
<path fill="none" stroke="#191970" d="M211,-113.3693C211,-104.681 211,-94.6241 211,-86.5446"/>
<polygon fill="#191970" stroke="#191970" points="207.5001,-113.3906 211,-123.3906 214.5001,-113.3907 207.5001,-113.3906"/>
</g>
<!-- Node2 -->
<g id="node3" class="node">
<title>Node2</title>
<g id="a_node3"><a xlink:href="classsgl_1_1AbstractGammaSym.html" target="_top" xlink:title="sgl::AbstractGammaSym">
<polygon fill="#ffffff" stroke="#000000" points="147.5,-179.5 147.5,-198.5 274.5,-198.5 274.5,-179.5 147.5,-179.5"/>
<text text-anchor="middle" x="211" y="-186.5" font-family="Helvetica,sans-Serif" font-size="10.00" fill="#000000">sgl::AbstractGammaSym</text>
</a>
</g>
</g>
<!-- Node2&#45;&gt;Node1 -->
<g id="edge2" class="edge">
<title>Node2&#45;&gt;Node1</title>
<path fill="none" stroke="#191970" d="M211,-169.1575C211,-160.155 211,-149.9199 211,-142.6427"/>
<polygon fill="#191970" stroke="#191970" points="207.5001,-169.2455 211,-179.2455 214.5001,-169.2456 207.5001,-169.2455"/>
</g>
<!-- Node3 -->
<g id="node4" class="node">
<title>Node3</title>
<polygon fill="#ffffff" stroke="#bfbfbf" points="125,-235.5 125,-265.5 297,-265.5 297,-235.5 125,-235.5"/>
<text text-anchor="start" x="133" y="-253.5" font-family="Helvetica,sans-Serif" font-size="10.00" fill="#000000">std::enable_shared</text>
<text text-anchor="middle" x="211" y="-242.5" font-family="Helvetica,sans-Serif" font-size="10.00" fill="#000000">_from_this&lt; AbstractGammaSym &gt;</text>
</g>
<!-- Node3&#45;&gt;Node2 -->
<g id="edge3" class="edge">
<title>Node3&#45;&gt;Node2</title>
<path fill="none" stroke="#191970" d="M211,-225.2849C211,-215.9858 211,-205.9883 211,-198.8469"/>
<polygon fill="#191970" stroke="#191970" points="207.5001,-225.2977 211,-235.2977 214.5001,-225.2978 207.5001,-225.2977"/>
</g>
</g>
</svg>
