<?xml version="1.0" encoding="UTF-8" standalone="no"?>
<!DOCTYPE svg PUBLIC "-//W3C//DTD SVG 1.1//EN"
 "http://www.w3.org/Graphics/SVG/1.1/DTD/svg11.dtd">
<!-- Generated by graphviz version 2.40.1 (20161225.0304)
 -->
<!-- Title: mty::SemiSimpleAlgebra Pages: 1 -->
<svg width="258pt" height="370pt"
 viewBox="0.00 0.00 258.00 370.00" xmlns="http://www.w3.org/2000/svg" xmlns:xlink="http://www.w3.org/1999/xlink">
<g id="graph0" class="graph" transform="scale(1 1) rotate(0) translate(4 366)">
<title>mty::SemiSimpleAlgebra</title>
<polygon fill="#ffffff" stroke="transparent" points="-4,4 -4,-366 254,-366 254,4 -4,4"/>
<!-- Node0 -->
<g id="node1" class="node">
<title>Node0</title>
<polygon fill="#bfbfbf" stroke="#000000" points="0,-171.5 0,-190.5 125,-190.5 125,-171.5 0,-171.5"/>
<text text-anchor="middle" x="62.5" y="-178.5" font-family="Helvetica,sans-Serif" font-size="10.00" fill="#000000">mty::SemiSimpleAlgebra</text>
</g>
<!-- Node1 -->
<g id="node2" class="node">
<title>Node1</title>
<g id="a_node2"><a xlink:href="classmty_1_1algebra_1_1A.html" target="_top" xlink:title="Semi&#45;simple Lie algebra A(l) == su(l+1). ">
<polygon fill="#ffffff" stroke="#000000" points="164,-342.5 164,-361.5 247,-361.5 247,-342.5 164,-342.5"/>
<text text-anchor="middle" x="205.5" y="-349.5" font-family="Helvetica,sans-Serif" font-size="10.00" fill="#000000">mty::algebra::A</text>
</a>
</g>
</g>
<!-- Node0&#45;&gt;Node1 -->
<g id="edge1" class="edge">
<title>Node0&#45;&gt;Node1</title>
<path fill="none" stroke="#191970" d="M70.3331,-199.9851C84.2335,-231.5675 116.0429,-295.1583 161,-333 165.4987,-336.7867 170.8644,-339.9232 176.2866,-342.4818"/>
<polygon fill="#191970" stroke="#191970" points="73.4632,-198.4029 66.3125,-190.5851 67.0272,-201.1558 73.4632,-198.4029"/>
</g>
<!-- Node2 -->
<g id="node3" class="node">
<title>Node2</title>
<g id="a_node3"><a xlink:href="classmty_1_1algebra_1_1B.html" target="_top" xlink:title="Semi&#45;simple Lie algebra B(l) == so(2l+1). ">
<polygon fill="#ffffff" stroke="#000000" points="164,-304.5 164,-323.5 247,-323.5 247,-304.5 164,-304.5"/>
<text text-anchor="middle" x="205.5" y="-311.5" font-family="Helvetica,sans-Serif" font-size="10.00" fill="#000000">mty::algebra::B</text>
</a>
</g>
</g>
<!-- Node0&#45;&gt;Node2 -->
<g id="edge2" class="edge">
<title>Node0&#45;&gt;Node2</title>
<path fill="none" stroke="#191970" d="M74.0737,-198.9238C90.712,-223.4779 123.5425,-267.6391 161,-295 166.0198,-298.6667 171.8558,-301.8012 177.6167,-304.4047"/>
<polygon fill="#191970" stroke="#191970" points="76.9608,-196.9444 68.5139,-190.5491 71.129,-200.8161 76.9608,-196.9444"/>
</g>
<!-- Node3 -->
<g id="node4" class="node">
<title>Node3</title>
<g id="a_node4"><a xlink:href="classmty_1_1algebra_1_1C.html" target="_top" xlink:title="Semi&#45;simple Lie algebra C(l) == sp(2l). ">
<polygon fill="#ffffff" stroke="#000000" points="163.5,-266.5 163.5,-285.5 247.5,-285.5 247.5,-266.5 163.5,-266.5"/>
<text text-anchor="middle" x="205.5" y="-273.5" font-family="Helvetica,sans-Serif" font-size="10.00" fill="#000000">mty::algebra::C</text>
</a>
</g>
</g>
<!-- Node0&#45;&gt;Node3 -->
<g id="edge3" class="edge">
<title>Node0&#45;&gt;Node3</title>
<path fill="none" stroke="#191970" d="M80.679,-197.3163C99.7179,-213.8366 130.9739,-239.393 161,-257 166.9421,-260.4844 173.6432,-263.686 180.0075,-266.4285"/>
<polygon fill="#191970" stroke="#191970" points="82.8947,-194.6039 73.073,-190.6308 78.2733,-199.8616 82.8947,-194.6039"/>
</g>
<!-- Node4 -->
<g id="node5" class="node">
<title>Node4</title>
<g id="a_node5"><a xlink:href="classmty_1_1algebra_1_1D.html" target="_top" xlink:title="Semi&#45;simple Lie algebra D(l) == so(2l). ">
<polygon fill="#ffffff" stroke="#000000" points="163.5,-228.5 163.5,-247.5 247.5,-247.5 247.5,-228.5 163.5,-228.5"/>
<text text-anchor="middle" x="205.5" y="-235.5" font-family="Helvetica,sans-Serif" font-size="10.00" fill="#000000">mty::algebra::D</text>
</a>
</g>
</g>
<!-- Node0&#45;&gt;Node4 -->
<g id="edge4" class="edge">
<title>Node0&#45;&gt;Node4</title>
<path fill="none" stroke="#191970" d="M95.9693,-194.3409C122.1962,-204.795 158.0526,-219.0874 181.4869,-228.4284"/>
<polygon fill="#191970" stroke="#191970" points="97.0202,-190.992 86.435,-190.5405 94.4283,-197.4945 97.0202,-190.992"/>
</g>
<!-- Node5 -->
<g id="node6" class="node">
<title>Node5</title>
<g id="a_node6"><a xlink:href="classmty_1_1algebra_1_1E6.html" target="_top" xlink:title="Exceptional semi&#45;simple Lie algebra E6. ">
<polygon fill="#ffffff" stroke="#000000" points="161,-190.5 161,-209.5 250,-209.5 250,-190.5 161,-190.5"/>
<text text-anchor="middle" x="205.5" y="-197.5" font-family="Helvetica,sans-Serif" font-size="10.00" fill="#000000">mty::algebra::E6</text>
</a>
</g>
</g>
<!-- Node0&#45;&gt;Node5 -->
<g id="edge5" class="edge">
<title>Node0&#45;&gt;Node5</title>
<path fill="none" stroke="#191970" d="M135.4016,-190.6862C144.0886,-191.8404 152.748,-192.991 160.8666,-194.0697"/>
<polygon fill="#191970" stroke="#191970" points="135.5958,-187.1813 125.2219,-189.3337 134.6738,-194.1204 135.5958,-187.1813"/>
</g>
<!-- Node6 -->
<g id="node7" class="node">
<title>Node6</title>
<g id="a_node7"><a xlink:href="classmty_1_1algebra_1_1E7.html" target="_top" xlink:title="Exceptional semi&#45;simple Lie algebra E7. ">
<polygon fill="#ffffff" stroke="#000000" points="161,-152.5 161,-171.5 250,-171.5 250,-152.5 161,-152.5"/>
<text text-anchor="middle" x="205.5" y="-159.5" font-family="Helvetica,sans-Serif" font-size="10.00" fill="#000000">mty::algebra::E7</text>
</a>
</g>
</g>
<!-- Node0&#45;&gt;Node6 -->
<g id="edge6" class="edge">
<title>Node0&#45;&gt;Node6</title>
<path fill="none" stroke="#191970" d="M135.4016,-171.3138C144.0886,-170.1596 152.748,-169.009 160.8666,-167.9303"/>
<polygon fill="#191970" stroke="#191970" points="134.6738,-167.8796 125.2219,-172.6663 135.5958,-174.8187 134.6738,-167.8796"/>
</g>
<!-- Node7 -->
<g id="node8" class="node">
<title>Node7</title>
<g id="a_node8"><a xlink:href="classmty_1_1algebra_1_1E8.html" target="_top" xlink:title="Exceptional semi&#45;simple Lie algebra E8. ">
<polygon fill="#ffffff" stroke="#000000" points="161,-114.5 161,-133.5 250,-133.5 250,-114.5 161,-114.5"/>
<text text-anchor="middle" x="205.5" y="-121.5" font-family="Helvetica,sans-Serif" font-size="10.00" fill="#000000">mty::algebra::E8</text>
</a>
</g>
</g>
<!-- Node0&#45;&gt;Node7 -->
<g id="edge7" class="edge">
<title>Node0&#45;&gt;Node7</title>
<path fill="none" stroke="#191970" d="M95.9693,-167.6591C122.1962,-157.205 158.0526,-142.9126 181.4869,-133.5716"/>
<polygon fill="#191970" stroke="#191970" points="94.4283,-164.5055 86.435,-171.4595 97.0202,-171.008 94.4283,-164.5055"/>
</g>
<!-- Node8 -->
<g id="node9" class="node">
<title>Node8</title>
<g id="a_node9"><a xlink:href="classmty_1_1algebra_1_1F4.html" target="_top" xlink:title="Exceptional semi&#45;simple Lie algebra F4. ">
<polygon fill="#ffffff" stroke="#000000" points="161.5,-76.5 161.5,-95.5 249.5,-95.5 249.5,-76.5 161.5,-76.5"/>
<text text-anchor="middle" x="205.5" y="-83.5" font-family="Helvetica,sans-Serif" font-size="10.00" fill="#000000">mty::algebra::F4</text>
</a>
</g>
</g>
<!-- Node0&#45;&gt;Node8 -->
<g id="edge8" class="edge">
<title>Node0&#45;&gt;Node8</title>
<path fill="none" stroke="#191970" d="M80.679,-164.6837C99.7179,-148.1634 130.9739,-122.607 161,-105 166.9421,-101.5156 173.6432,-98.314 180.0075,-95.5715"/>
<polygon fill="#191970" stroke="#191970" points="78.2733,-162.1384 73.073,-171.3692 82.8947,-167.3961 78.2733,-162.1384"/>
</g>
<!-- Node9 -->
<g id="node10" class="node">
<title>Node9</title>
<g id="a_node10"><a xlink:href="classmty_1_1algebra_1_1G2.html" target="_top" xlink:title="Exceptional semi&#45;simple Lie algebra G2. ">
<polygon fill="#ffffff" stroke="#000000" points="161,-38.5 161,-57.5 250,-57.5 250,-38.5 161,-38.5"/>
<text text-anchor="middle" x="205.5" y="-45.5" font-family="Helvetica,sans-Serif" font-size="10.00" fill="#000000">mty::algebra::G2</text>
</a>
</g>
</g>
<!-- Node0&#45;&gt;Node9 -->
<g id="edge9" class="edge">
<title>Node0&#45;&gt;Node9</title>
<path fill="none" stroke="#191970" d="M74.0737,-163.0762C90.712,-138.5221 123.5425,-94.3609 161,-67 166.0198,-63.3333 171.8558,-60.1988 177.6167,-57.5953"/>
<polygon fill="#191970" stroke="#191970" points="71.129,-161.1839 68.5139,-171.4509 76.9608,-165.0556 71.129,-161.1839"/>
</g>
<!-- Node10 -->
<g id="node11" class="node">
<title>Node10</title>
<g id="a_node11"><a xlink:href="classmty_1_1algebra_1_1R.html" target="_top" xlink:title="Algebra (R, +) of the U(1) group. ">
<polygon fill="#ffffff" stroke="#000000" points="163.5,-.5 163.5,-19.5 247.5,-19.5 247.5,-.5 163.5,-.5"/>
<text text-anchor="middle" x="205.5" y="-7.5" font-family="Helvetica,sans-Serif" font-size="10.00" fill="#000000">mty::algebra::R</text>
</a>
</g>
</g>
<!-- Node0&#45;&gt;Node10 -->
<g id="edge10" class="edge">
<title>Node0&#45;&gt;Node10</title>
<path fill="none" stroke="#191970" d="M70.3331,-162.0149C84.2335,-130.4325 116.0429,-66.8417 161,-29 165.4987,-25.2133 170.8644,-22.0768 176.2866,-19.5182"/>
<polygon fill="#191970" stroke="#191970" points="67.0272,-160.8442 66.3125,-171.4149 73.4632,-163.5971 67.0272,-160.8442"/>
</g>
</g>
</svg>
