<?xml version="1.0" encoding="UTF-8" standalone="no"?>
<!DOCTYPE svg PUBLIC "-//W3C//DTD SVG 1.1//EN"
 "http://www.w3.org/Graphics/SVG/1.1/DTD/svg11.dtd">
<!-- Generated by graphviz version 2.40.1 (20161225.0304)
 -->
<!-- Title: JSON::Object Pages: 1 -->
<svg width="206pt" height="140pt"
 viewBox="0.00 0.00 205.50 140.00" xmlns="http://www.w3.org/2000/svg" xmlns:xlink="http://www.w3.org/1999/xlink">
<g id="graph0" class="graph" transform="scale(1 1) rotate(0) translate(4 136)">
<title>JSON::Object</title>
<polygon fill="#ffffff" stroke="transparent" points="-4,4 -4,-136 201.5,-136 201.5,4 -4,4"/>
<!-- Node0 -->
<g id="node1" class="node">
<title>Node0</title>
<polygon fill="#bfbfbf" stroke="#000000" points="68,-112.5 68,-131.5 146,-131.5 146,-112.5 68,-112.5"/>
<text text-anchor="middle" x="107" y="-119.5" font-family="Helvetica,sans-Serif" font-size="10.00" fill="#000000">JSON::Object</text>
</g>
<!-- Node1 -->
<g id="node2" class="node">
<title>Node1</title>
<g id="a_node2"><a xlink:href="classJSON_1_1AbstractLeaf.html" target="_top" xlink:title="Abstract class inherited from Object, from which all leafs will derive. This class only contains a pu...">
<polygon fill="#ffffff" stroke="#000000" points="1.5,-56.5 1.5,-75.5 106.5,-75.5 106.5,-56.5 1.5,-56.5"/>
<text text-anchor="middle" x="54" y="-63.5" font-family="Helvetica,sans-Serif" font-size="10.00" fill="#000000">JSON::AbstractLeaf</text>
</a>
</g>
</g>
<!-- Node0&#45;&gt;Node1 -->
<g id="edge1" class="edge">
<title>Node0&#45;&gt;Node1</title>
<path fill="none" stroke="#191970" d="M85.0224,-105.3607C74.9166,-95.6727 64.0077,-83.7995 57.881,-75.6427"/>
<polygon fill="#191970" stroke="#191970" points="82.7735,-108.0477 92.5013,-112.2455 87.5145,-102.8976 82.7735,-108.0477"/>
</g>
<!-- Node0&#45;&gt;Node1 -->
<g id="edge4" class="edge">
<title>Node0&#45;&gt;Node1</title>
<path fill="none" stroke="#191970" d="M96.4983,-104.2112C88.3459,-94.7472 77.319,-83.4797 68.3712,-75.6427"/>
<polygon fill="#191970" stroke="#191970" points="94.0089,-106.6974 103.035,-112.2455 99.4388,-102.2797 94.0089,-106.6974"/>
</g>
<!-- Node3 -->
<g id="node4" class="node">
<title>Node3</title>
<g id="a_node4"><a xlink:href="classJSON_1_1Node.html" target="_top" xlink:title="Inherits from JSON::Object, specialized in JSON Node. A Node owns a vector of Object. The Node&#39;s children can either be Leaf or other Node objects. This allows to store the tree structure of a .json file. ">
<polygon fill="#ffffff" stroke="#000000" points="124.5,-56.5 124.5,-75.5 197.5,-75.5 197.5,-56.5 124.5,-56.5"/>
<text text-anchor="middle" x="161" y="-63.5" font-family="Helvetica,sans-Serif" font-size="10.00" fill="#000000">JSON::Node</text>
</a>
</g>
</g>
<!-- Node0&#45;&gt;Node3 -->
<g id="edge5" class="edge">
<title>Node0&#45;&gt;Node3</title>
<path fill="none" stroke="#191970" d="M117.5655,-104.5004C125.9114,-94.9775 137.2761,-83.5596 146.4566,-75.6427"/>
<polygon fill="#191970" stroke="#191970" points="114.8311,-102.3147 111.1392,-112.2455 120.2182,-106.7845 114.8311,-102.3147"/>
</g>
<!-- Node0&#45;&gt;Node3 -->
<g id="edge8" class="edge">
<title>Node0&#45;&gt;Node3</title>
<path fill="none" stroke="#191970" d="M129.2748,-105.3607C139.5535,-95.6727 150.6744,-83.7995 156.9468,-75.6427"/>
<polygon fill="#191970" stroke="#191970" points="126.7354,-102.9384 121.6729,-112.2455 131.4344,-108.1268 126.7354,-102.9384"/>
</g>
<!-- Node2 -->
<g id="node3" class="node">
<title>Node2</title>
<g id="a_node3"><a xlink:href="classJSON_1_1Leaf.html" target="_top" xlink:title="Template class inherited from Object that stores a parameter of a .json file. This class does not hav...">
<polygon fill="#ffffff" stroke="#000000" points="0,-.5 0,-19.5 108,-19.5 108,-.5 0,-.5"/>
<text text-anchor="middle" x="54" y="-7.5" font-family="Helvetica,sans-Serif" font-size="10.00" fill="#000000">JSON::Leaf&lt; Type &gt;</text>
</a>
</g>
</g>
<!-- Node1&#45;&gt;Node2 -->
<g id="edge2" class="edge">
<title>Node1&#45;&gt;Node2</title>
<path fill="none" stroke="#191970" d="M47.5113,-46.1575C46.919,-37.155 47.3335,-26.9199 48.7549,-19.6427"/>
<polygon fill="#191970" stroke="#191970" points="44.0561,-46.739 48.7332,-56.2455 51.0053,-45.8972 44.0561,-46.739"/>
</g>
<!-- Node1&#45;&gt;Node2 -->
<g id="edge3" class="edge">
<title>Node1&#45;&gt;Node2</title>
<path fill="none" stroke="#191970" d="M60.4887,-46.1575C61.081,-37.155 60.6665,-26.9199 59.2451,-19.6427"/>
<polygon fill="#191970" stroke="#191970" points="56.9947,-45.8972 59.2668,-56.2455 63.9439,-46.739 56.9947,-45.8972"/>
</g>
<!-- Node4 -->
<g id="node5" class="node">
<title>Node4</title>
<g id="a_node5"><a xlink:href="classJSON_1_1List.html" target="_top" xlink:title="A List is a particular Node of which all children are of the same type and have the same specifier...">
<polygon fill="#ffffff" stroke="#000000" points="128.5,-.5 128.5,-19.5 193.5,-19.5 193.5,-.5 128.5,-.5"/>
<text text-anchor="middle" x="161" y="-7.5" font-family="Helvetica,sans-Serif" font-size="10.00" fill="#000000">JSON::List</text>
</a>
</g>
</g>
<!-- Node3&#45;&gt;Node4 -->
<g id="edge6" class="edge">
<title>Node3&#45;&gt;Node4</title>
<path fill="none" stroke="#191970" d="M154.5113,-46.1575C153.919,-37.155 154.3335,-26.9199 155.7549,-19.6427"/>
<polygon fill="#191970" stroke="#191970" points="151.0561,-46.739 155.7332,-56.2455 158.0053,-45.8972 151.0561,-46.739"/>
</g>
<!-- Node3&#45;&gt;Node4 -->
<g id="edge7" class="edge">
<title>Node3&#45;&gt;Node4</title>
<path fill="none" stroke="#191970" d="M167.4887,-46.1575C168.081,-37.155 167.6665,-26.9199 166.2451,-19.6427"/>
<polygon fill="#191970" stroke="#191970" points="163.9947,-45.8972 166.2668,-56.2455 170.9439,-46.739 163.9947,-45.8972"/>
</g>
</g>
</svg>
