<?xml version="1.0" encoding="UTF-8" standalone="no"?>
<!DOCTYPE svg PUBLIC "-//W3C//DTD SVG 1.1//EN"
 "http://www.w3.org/Graphics/SVG/1.1/DTD/svg11.dtd">
<!-- Generated by graphviz version 2.40.1 (20161225.0304)
 -->
<!-- Title: mty::DiracBasis Pages: 1 -->
<svg width="218pt" height="84pt"
 viewBox="0.00 0.00 218.00 84.00" xmlns="http://www.w3.org/2000/svg" xmlns:xlink="http://www.w3.org/1999/xlink">
<g id="graph0" class="graph" transform="scale(1 1) rotate(0) translate(4 80)">
<title>mty::DiracBasis</title>
<polygon fill="#ffffff" stroke="transparent" points="-4,4 -4,-80 214,-80 214,4 -4,4"/>
<!-- Node0 -->
<g id="node1" class="node">
<title>Node0</title>
<polygon fill="#bfbfbf" stroke="#000000" points="58,-56.5 58,-75.5 145,-75.5 145,-56.5 58,-56.5"/>
<text text-anchor="middle" x="101.5" y="-63.5" font-family="Helvetica,sans-Serif" font-size="10.00" fill="#000000">mty::DiracBasis</text>
</g>
<!-- Node1 -->
<g id="node2" class="node">
<title>Node1</title>
<g id="a_node2"><a xlink:href="classmty_1_1ChiralBasis.html" target="_top" xlink:title="mty::ChiralBasis">
<polygon fill="#ffffff" stroke="#000000" points="0,-.5 0,-19.5 89,-19.5 89,-.5 0,-.5"/>
<text text-anchor="middle" x="44.5" y="-7.5" font-family="Helvetica,sans-Serif" font-size="10.00" fill="#000000">mty::ChiralBasis</text>
</a>
</g>
</g>
<!-- Node0&#45;&gt;Node1 -->
<g id="edge1" class="edge">
<title>Node0&#45;&gt;Node1</title>
<path fill="none" stroke="#191970" d="M84.2729,-49.0751C74.4659,-39.4402 62.536,-27.7196 54.3149,-19.6427"/>
<polygon fill="#191970" stroke="#191970" points="81.9851,-51.734 91.5714,-56.2455 86.8909,-46.7406 81.9851,-51.734"/>
</g>
<!-- Node2 -->
<g id="node3" class="node">
<title>Node2</title>
<g id="a_node3"><a xlink:href="classmty_1_1StandardBasis.html" target="_top" xlink:title="mty::StandardBasis">
<polygon fill="#ffffff" stroke="#000000" points="107,-.5 107,-19.5 210,-19.5 210,-.5 107,-.5"/>
<text text-anchor="middle" x="158.5" y="-7.5" font-family="Helvetica,sans-Serif" font-size="10.00" fill="#000000">mty::StandardBasis</text>
</a>
</g>
</g>
<!-- Node0&#45;&gt;Node2 -->
<g id="edge2" class="edge">
<title>Node0&#45;&gt;Node2</title>
<path fill="none" stroke="#191970" d="M118.7271,-49.0751C128.5341,-39.4402 140.464,-27.7196 148.6851,-19.6427"/>
<polygon fill="#191970" stroke="#191970" points="116.1091,-46.7406 111.4286,-56.2455 121.0149,-51.734 116.1091,-46.7406"/>
</g>
</g>
</svg>
