<?xml version="1.0" encoding="UTF-8" standalone="no"?>
<!DOCTYPE svg PUBLIC "-//W3C//DTD SVG 1.1//EN"
 "http://www.w3.org/Graphics/SVG/1.1/DTD/svg11.dtd">
<!-- Generated by graphviz version 2.40.1 (20161225.0304)
 -->
<!-- Title: src Pages: 1 -->
<svg width="89pt" height="188pt"
 viewBox="0.00 0.00 89.00 188.00" xmlns="http://www.w3.org/2000/svg" xmlns:xlink="http://www.w3.org/1999/xlink">
<g id="graph0" class="graph" transform="scale(1 1) rotate(0) translate(4 184)">
<title>src</title>
<polygon fill="#ffffff" stroke="transparent" points="-4,4 -4,-184 85,-184 85,4 -4,4"/>
<!-- dir_4e5980f041d15a1f8205e2c432258017 -->
<g id="node1" class="node">
<title>dir_4e5980f041d15a1f8205e2c432258017</title>
<g id="a_node1"><a xlink:href="dir_4e5980f041d15a1f8205e2c432258017.html" target="_top" xlink:title="src">
<polygon fill="#eeeeff" stroke="#000000" points="81,-180 27,-180 27,-144 81,-144 81,-180"/>
<text text-anchor="middle" x="54" y="-159.5" font-family="Helvetica,sans-Serif" font-size="10.00" fill="#000000">src</text>
</a>
</g>
</g>
<!-- dir_49b4a1e859b8c8e0ac120d42748fbb4b -->
<g id="node2" class="node">
<title>dir_49b4a1e859b8c8e0ac120d42748fbb4b</title>
<g id="a_node2"><a xlink:href="dir_49b4a1e859b8c8e0ac120d42748fbb4b.html" target="_top" xlink:title="sgl">
<polygon fill="#ffffff" stroke="#ff0000" points="54,-108 0,-108 0,-72 54,-72 54,-108"/>
<text text-anchor="middle" x="27" y="-87.5" font-family="Helvetica,sans-Serif" font-size="10.00" fill="#000000">sgl</text>
</a>
</g>
</g>
<!-- dir_4e5980f041d15a1f8205e2c432258017&#45;&gt;dir_49b4a1e859b8c8e0ac120d42748fbb4b -->
<g id="edge3" class="edge">
<title>dir_4e5980f041d15a1f8205e2c432258017&#45;&gt;dir_49b4a1e859b8c8e0ac120d42748fbb4b</title>
<path fill="none" stroke="#000000" d="M47.1868,-143.8314C44.2356,-135.9617 40.7142,-126.5712 37.445,-117.8533"/>
<polygon fill="#000000" stroke="#000000" points="40.6934,-116.5476 33.905,-108.4133 34.1391,-119.0055 40.6934,-116.5476"/>
<g id="a_edge3&#45;headlabel"><a xlink:href="dir_000015_000012.html" target="_top" xlink:title="3">
<text text-anchor="middle" x="44.614" y="-116.4164" font-family="Helvetica,sans-Serif" font-size="10.00" fill="#000000">3</text>
</a>
</g>
</g>
<!-- dir_65db4f6d262527884867afc6daa6f3c1 -->
<g id="node3" class="node">
<title>dir_65db4f6d262527884867afc6daa6f3c1</title>
<g id="a_node3"><a xlink:href="dir_65db4f6d262527884867afc6daa6f3c1.html" target="_top" xlink:title="include">
<polygon fill="none" stroke="#000000" points="54,-36 0,-36 0,0 54,0 54,-36"/>
<text text-anchor="middle" x="27" y="-15.5" font-family="Helvetica,sans-Serif" font-size="10.00" fill="#000000">include</text>
</a>
</g>
</g>
<!-- dir_4e5980f041d15a1f8205e2c432258017&#45;&gt;dir_65db4f6d262527884867afc6daa6f3c1 -->
<g id="edge4" class="edge">
<title>dir_4e5980f041d15a1f8205e2c432258017&#45;&gt;dir_65db4f6d262527884867afc6daa6f3c1</title>
<path fill="none" stroke="#000000" d="M59.9192,-143.6681C64.9449,-125.1912 70.2807,-96.0466 63,-72 60.0436,-62.2355 54.6748,-52.6229 48.97,-44.2762"/>
<polygon fill="#000000" stroke="#000000" points="51.7129,-42.0973 42.9905,-36.0831 46.0586,-46.2239 51.7129,-42.0973"/>
<g id="a_edge4&#45;headlabel"><a xlink:href="dir_000015_000007.html" target="_top" xlink:title="327">
<text text-anchor="middle" x="56.1253" y="-40.827" font-family="Helvetica,sans-Serif" font-size="10.00" fill="#000000">327</text>
</a>
</g>
</g>
<!-- dir_49b4a1e859b8c8e0ac120d42748fbb4b&#45;&gt;dir_65db4f6d262527884867afc6daa6f3c1 -->
<g id="edge1" class="edge">
<title>dir_49b4a1e859b8c8e0ac120d42748fbb4b&#45;&gt;dir_65db4f6d262527884867afc6daa6f3c1</title>
<path fill="none" stroke="#000000" d="M21.0476,-71.8314C20.2972,-64.131 20.0763,-54.9743 20.3849,-46.4166"/>
<polygon fill="#000000" stroke="#000000" points="23.8792,-46.6161 21.024,-36.4133 16.8935,-46.1697 23.8792,-46.6161"/>
<g id="a_edge1&#45;headlabel"><a xlink:href="dir_000012_000007.html" target="_top" xlink:title="5">
<text text-anchor="middle" x="26.4836" y="-47.8844" font-family="Helvetica,sans-Serif" font-size="10.00" fill="#000000">5</text>
</a>
</g>
</g>
<!-- dir_65db4f6d262527884867afc6daa6f3c1&#45;&gt;dir_49b4a1e859b8c8e0ac120d42748fbb4b -->
<g id="edge2" class="edge">
<title>dir_65db4f6d262527884867afc6daa6f3c1&#45;&gt;dir_49b4a1e859b8c8e0ac120d42748fbb4b</title>
<path fill="none" stroke="#000000" d="M32.976,-36.4133C33.7071,-44.0593 33.9203,-53.1084 33.6155,-61.5726"/>
<polygon fill="#000000" stroke="#000000" points="30.1048,-61.6264 32.9524,-71.8314 37.0902,-62.078 30.1048,-61.6264"/>
<g id="a_edge2&#45;headlabel"><a xlink:href="dir_000007_000012.html" target="_top" xlink:title="2">
<text text-anchor="middle" x="27.5032" y="-55.3562" font-family="Helvetica,sans-Serif" font-size="10.00" fill="#000000">2</text>
</a>
</g>
</g>
</g>
</svg>
