<?xml version="1.0" encoding="UTF-8" standalone="no"?>
<!DOCTYPE svg PUBLIC "-//W3C//DTD SVG 1.1//EN"
 "http://www.w3.org/Graphics/SVG/1.1/DTD/svg11.dtd">
<!-- Generated by graphviz version 2.40.1 (20161225.0304)
 -->
<!-- Title: /home/uhlrich/Bureau/MARTY/MARTY&#45;dev/grafed/grafed&#45;gui Pages: 1 -->
<svg width="100pt" height="151pt"
 viewBox="0.00 0.00 100.00 151.00" xmlns="http://www.w3.org/2000/svg" xmlns:xlink="http://www.w3.org/1999/xlink">
<g id="graph0" class="graph" transform="scale(1 1) rotate(0) translate(4 147)">
<title>/home/uhlrich/Bureau/MARTY/MARTY&#45;dev/grafed/grafed&#45;gui</title>
<polygon fill="#ffffff" stroke="transparent" points="-4,4 -4,-147 96,-147 96,4 -4,4"/>
<g id="clust1" class="cluster">
<title>clusterdir_4419158cdeae7564cccc7c350c06067a</title>
<g id="a_clust1"><a xlink:href="dir_4419158cdeae7564cccc7c350c06067a.html" target="_top" xlink:title="grafed">
<polygon fill="#ddddee" stroke="#000000" points="8,-64 8,-135 84,-135 84,-64 8,-64"/>
<text text-anchor="middle" x="46" y="-123" font-family="Helvetica,sans-Serif" font-size="10.00" fill="#000000">grafed</text>
</a>
</g>
</g>
<!-- dir_8bb642d841ae86cb402049d1fb9c817e -->
<g id="node1" class="node">
<title>dir_8bb642d841ae86cb402049d1fb9c817e</title>
<g id="a_node1"><a xlink:href="dir_8bb642d841ae86cb402049d1fb9c817e.html" target="_top" xlink:title="grafed&#45;gui">
<polygon fill="#eeeeff" stroke="#000000" points="75.5,-108 16.5,-108 16.5,-72 75.5,-72 75.5,-108"/>
<text text-anchor="middle" x="46" y="-87.5" font-family="Helvetica,sans-Serif" font-size="10.00" fill="#000000">grafed&#45;gui</text>
</a>
</g>
</g>
<!-- dir_f67fba804cf47363c26d336c808d2071 -->
<g id="node2" class="node">
<title>dir_f67fba804cf47363c26d336c808d2071</title>
<g id="a_node2"><a xlink:href="dir_f67fba804cf47363c26d336c808d2071.html" target="_top" xlink:title="include">
<polygon fill="none" stroke="#000000" points="73,-36 19,-36 19,0 73,0 73,-36"/>
<text text-anchor="middle" x="46" y="-15.5" font-family="Helvetica,sans-Serif" font-size="10.00" fill="#000000">include</text>
</a>
</g>
</g>
<!-- dir_8bb642d841ae86cb402049d1fb9c817e&#45;&gt;dir_f67fba804cf47363c26d336c808d2071 -->
<g id="edge1" class="edge">
<title>dir_8bb642d841ae86cb402049d1fb9c817e&#45;&gt;dir_f67fba804cf47363c26d336c808d2071</title>
<path fill="none" stroke="#000000" d="M46,-71.8314C46,-64.131 46,-54.9743 46,-46.4166"/>
<polygon fill="#000000" stroke="#000000" points="49.5001,-46.4132 46,-36.4133 42.5001,-46.4133 49.5001,-46.4132"/>
<g id="a_edge1&#45;headlabel"><a xlink:href="dir_000001_000002.html" target="_top" xlink:title="9">
<text text-anchor="middle" x="52.3393" y="-47.5079" font-family="Helvetica,sans-Serif" font-size="10.00" fill="#000000">9</text>
</a>
</g>
</g>
</g>
</svg>
