<?xml version="1.0" encoding="UTF-8" standalone="no"?>
<!DOCTYPE svg PUBLIC "-//W3C//DTD SVG 1.1//EN"
 "http://www.w3.org/Graphics/SVG/1.1/DTD/svg11.dtd">
<!-- Generated by graphviz version 2.40.1 (20161225.0304)
 -->
<!-- Title: models Pages: 1 -->
<svg width="166pt" height="204pt"
 viewBox="0.00 0.00 166.00 204.00" xmlns="http://www.w3.org/2000/svg" xmlns:xlink="http://www.w3.org/1999/xlink">
<g id="graph0" class="graph" transform="scale(1 1) rotate(0) translate(4 200)">
<title>models</title>
<polygon fill="#ffffff" stroke="transparent" points="-4,4 -4,-200 162,-200 162,4 -4,4"/>
<g id="clust1" class="cluster">
<title>clusterdir_df0d897f6ebd076477552e35a84956fa</title>
<g id="a_clust1"><a xlink:href="dir_df0d897f6ebd076477552e35a84956fa.html" target="_top">
<polygon fill="#eeeeff" stroke="#000000" points="8,-64 8,-188 150,-188 150,-64 8,-64"/>
</a>
</g>
</g>
<!-- dir_df0d897f6ebd076477552e35a84956fa -->
<g id="node1" class="node">
<title>dir_df0d897f6ebd076477552e35a84956fa</title>
<text text-anchor="middle" x="115" y="-159.5" font-family="Helvetica,sans-Serif" font-size="10.00" fill="#000000">models</text>
</g>
<!-- dir_280e8481525e685ffeaaa29a8d046b5a -->
<g id="node2" class="node">
<title>dir_280e8481525e685ffeaaa29a8d046b5a</title>
<g id="a_node2"><a xlink:href="dir_280e8481525e685ffeaaa29a8d046b5a.html" target="_top" xlink:title="include">
<polygon fill="#ffffff" stroke="#000000" points="70,-108 16,-108 16,-72 70,-72 70,-108"/>
<text text-anchor="middle" x="43" y="-87.5" font-family="Helvetica,sans-Serif" font-size="10.00" fill="#000000">include</text>
</a>
</g>
</g>
<!-- dir_65db4f6d262527884867afc6daa6f3c1 -->
<g id="node4" class="node">
<title>dir_65db4f6d262527884867afc6daa6f3c1</title>
<g id="a_node4"><a xlink:href="dir_65db4f6d262527884867afc6daa6f3c1.html" target="_top" xlink:title="include">
<polygon fill="none" stroke="#000000" points="97,-36 43,-36 43,0 97,0 97,-36"/>
<text text-anchor="middle" x="70" y="-15.5" font-family="Helvetica,sans-Serif" font-size="10.00" fill="#000000">include</text>
</a>
</g>
</g>
<!-- dir_280e8481525e685ffeaaa29a8d046b5a&#45;&gt;dir_65db4f6d262527884867afc6daa6f3c1 -->
<g id="edge3" class="edge">
<title>dir_280e8481525e685ffeaaa29a8d046b5a&#45;&gt;dir_65db4f6d262527884867afc6daa6f3c1</title>
<path fill="none" stroke="#000000" d="M49.8132,-71.8314C52.7644,-63.9617 56.2858,-54.5712 59.555,-45.8533"/>
<polygon fill="#000000" stroke="#000000" points="62.8609,-47.0055 63.095,-36.4133 56.3066,-44.5476 62.8609,-47.0055"/>
<g id="a_edge3&#45;headlabel"><a xlink:href="dir_000009_000007.html" target="_top" xlink:title="2">
<text text-anchor="middle" x="64.2573" y="-48.8682" font-family="Helvetica,sans-Serif" font-size="10.00" fill="#000000">2</text>
</a>
</g>
</g>
<!-- dir_4e7f23b9bb33fe003af6afd90e84a668 -->
<g id="node3" class="node">
<title>dir_4e7f23b9bb33fe003af6afd90e84a668</title>
<g id="a_node3"><a xlink:href="dir_4e7f23b9bb33fe003af6afd90e84a668.html" target="_top" xlink:title="src">
<polygon fill="#ffffff" stroke="#000000" points="70,-180 16,-180 16,-144 70,-144 70,-180"/>
<text text-anchor="middle" x="43" y="-159.5" font-family="Helvetica,sans-Serif" font-size="10.00" fill="#000000">src</text>
</a>
</g>
</g>
<!-- dir_4e7f23b9bb33fe003af6afd90e84a668&#45;&gt;dir_280e8481525e685ffeaaa29a8d046b5a -->
<g id="edge2" class="edge">
<title>dir_4e7f23b9bb33fe003af6afd90e84a668&#45;&gt;dir_280e8481525e685ffeaaa29a8d046b5a</title>
<path fill="none" stroke="#000000" d="M43,-143.8314C43,-136.131 43,-126.9743 43,-118.4166"/>
<polygon fill="#000000" stroke="#000000" points="46.5001,-118.4132 43,-108.4133 39.5001,-118.4133 46.5001,-118.4132"/>
<g id="a_edge2&#45;headlabel"><a xlink:href="dir_000010_000009.html" target="_top" xlink:title="4">
<text text-anchor="middle" x="49.3393" y="-119.5079" font-family="Helvetica,sans-Serif" font-size="10.00" fill="#000000">4</text>
</a>
</g>
</g>
<!-- dir_4e7f23b9bb33fe003af6afd90e84a668&#45;&gt;dir_65db4f6d262527884867afc6daa6f3c1 -->
<g id="edge1" class="edge">
<title>dir_4e7f23b9bb33fe003af6afd90e84a668&#45;&gt;dir_65db4f6d262527884867afc6daa6f3c1</title>
<path fill="none" stroke="#000000" d="M58.9905,-143.9169C66.6538,-134.0371 75.0166,-121.1563 79,-108 85.0862,-87.8985 82.3561,-64.2346 78.3608,-46.2178"/>
<polygon fill="#000000" stroke="#000000" points="81.7149,-45.201 75.9192,-36.3319 74.9191,-46.8794 81.7149,-45.201"/>
<g id="a_edge1&#45;headlabel"><a xlink:href="dir_000010_000007.html" target="_top" xlink:title="4">
<text text-anchor="middle" x="85.3331" y="-45.51" font-family="Helvetica,sans-Serif" font-size="10.00" fill="#000000">4</text>
</a>
</g>
</g>
</g>
</svg>
