<?xml version="1.0" encoding="UTF-8" standalone="no"?>
<!DOCTYPE svg PUBLIC "-//W3C//DTD SVG 1.1//EN"
 "http://www.w3.org/Graphics/SVG/1.1/DTD/svg11.dtd">
<!-- Generated by graphviz version 2.40.1 (20161225.0304)
 -->
<!-- Title: /home/uhlrich/Bureau/MARTY/MARTY&#45;dev/grafed/src Pages: 1 -->
<svg width="142pt" height="151pt"
 viewBox="0.00 0.00 142.00 151.00" xmlns="http://www.w3.org/2000/svg" xmlns:xlink="http://www.w3.org/1999/xlink">
<g id="graph0" class="graph" transform="scale(1 1) rotate(0) translate(4 147)">
<title>/home/uhlrich/Bureau/MARTY/MARTY&#45;dev/grafed/src</title>
<polygon fill="#ffffff" stroke="transparent" points="-4,4 -4,-147 138,-147 138,4 -4,4"/>
<g id="clust1" class="cluster">
<title>clusterdir_4419158cdeae7564cccc7c350c06067a</title>
<g id="a_clust1"><a xlink:href="dir_4419158cdeae7564cccc7c350c06067a.html" target="_top" xlink:title="grafed">
<polygon fill="#ddddee" stroke="#000000" points="34,-64 34,-135 104,-135 104,-64 34,-64"/>
<text text-anchor="middle" x="69" y="-123" font-family="Helvetica,sans-Serif" font-size="10.00" fill="#000000">grafed</text>
</a>
</g>
</g>
<!-- dir_0ffdc91a365e584ab9f5f08197156815 -->
<g id="node1" class="node">
<title>dir_0ffdc91a365e584ab9f5f08197156815</title>
<g id="a_node1"><a xlink:href="dir_0ffdc91a365e584ab9f5f08197156815.html" target="_top" xlink:title="src">
<polygon fill="#eeeeff" stroke="#000000" points="96,-108 42,-108 42,-72 96,-72 96,-108"/>
<text text-anchor="middle" x="69" y="-87.5" font-family="Helvetica,sans-Serif" font-size="10.00" fill="#000000">src</text>
</a>
</g>
</g>
<!-- dir_994dcca83ee610747b5b7b1e837a8f8c -->
<g id="node2" class="node">
<title>dir_994dcca83ee610747b5b7b1e837a8f8c</title>
<g id="a_node2"><a xlink:href="dir_994dcca83ee610747b5b7b1e837a8f8c.html" target="_top" xlink:title="jsonparser">
<polygon fill="#ffffff" stroke="#ff0000" points="62,-36 0,-36 0,0 62,0 62,-36"/>
<text text-anchor="middle" x="31" y="-15.5" font-family="Helvetica,sans-Serif" font-size="10.00" fill="#000000">jsonparser</text>
</a>
</g>
</g>
<!-- dir_0ffdc91a365e584ab9f5f08197156815&#45;&gt;dir_994dcca83ee610747b5b7b1e837a8f8c -->
<g id="edge1" class="edge">
<title>dir_0ffdc91a365e584ab9f5f08197156815&#45;&gt;dir_994dcca83ee610747b5b7b1e837a8f8c</title>
<path fill="none" stroke="#000000" d="M59.411,-71.8314C55.1683,-63.7925 50.0879,-54.1666 45.404,-45.2918"/>
<polygon fill="#000000" stroke="#000000" points="48.4811,-43.6235 40.7181,-36.4133 42.2904,-46.8908 48.4811,-43.6235"/>
<g id="a_edge1&#45;headlabel"><a xlink:href="dir_000003_000004.html" target="_top" xlink:title="1">
<text text-anchor="middle" x="52.6699" y="-42.9772" font-family="Helvetica,sans-Serif" font-size="10.00" fill="#000000">1</text>
</a>
</g>
</g>
<!-- dir_f67fba804cf47363c26d336c808d2071 -->
<g id="node3" class="node">
<title>dir_f67fba804cf47363c26d336c808d2071</title>
<g id="a_node3"><a xlink:href="dir_f67fba804cf47363c26d336c808d2071.html" target="_top" xlink:title="include">
<polygon fill="none" stroke="#000000" points="134,-36 80,-36 80,0 134,0 134,-36"/>
<text text-anchor="middle" x="107" y="-15.5" font-family="Helvetica,sans-Serif" font-size="10.00" fill="#000000">include</text>
</a>
</g>
</g>
<!-- dir_0ffdc91a365e584ab9f5f08197156815&#45;&gt;dir_f67fba804cf47363c26d336c808d2071 -->
<g id="edge2" class="edge">
<title>dir_0ffdc91a365e584ab9f5f08197156815&#45;&gt;dir_f67fba804cf47363c26d336c808d2071</title>
<path fill="none" stroke="#000000" d="M78.589,-71.8314C82.8317,-63.7925 87.9121,-54.1666 92.596,-45.2918"/>
<polygon fill="#000000" stroke="#000000" points="95.7096,-46.8908 97.2819,-36.4133 89.5189,-43.6235 95.7096,-46.8908"/>
<g id="a_edge2&#45;headlabel"><a xlink:href="dir_000003_000002.html" target="_top" xlink:title="2">
<text text-anchor="middle" x="96.5428" y="-48.895" font-family="Helvetica,sans-Serif" font-size="10.00" fill="#000000">2</text>
</a>
</g>
</g>
</g>
</svg>
