<?xml version="1.0" encoding="UTF-8" standalone="no"?>
<!DOCTYPE svg PUBLIC "-//W3C//DTD SVG 1.1//EN"
 "http://www.w3.org/Graphics/SVG/1.1/DTD/svg11.dtd">
<!-- Generated by graphviz version 2.40.1 (20161225.0304)
 -->
<!-- Title: scripts Pages: 1 -->
<svg width="90pt" height="188pt"
 viewBox="0.00 0.00 90.00 188.00" xmlns="http://www.w3.org/2000/svg" xmlns:xlink="http://www.w3.org/1999/xlink">
<g id="graph0" class="graph" transform="scale(1 1) rotate(0) translate(4 184)">
<title>scripts</title>
<polygon fill="#ffffff" stroke="transparent" points="-4,4 -4,-184 86,-184 86,4 -4,4"/>
<!-- dir_b45c0ac69f7bd6552721f1f3569b4495 -->
<g id="node1" class="node">
<title>dir_b45c0ac69f7bd6552721f1f3569b4495</title>
<g id="a_node1"><a xlink:href="dir_b45c0ac69f7bd6552721f1f3569b4495.html" target="_top" xlink:title="scripts">
<polygon fill="#eeeeff" stroke="#000000" points="54,-180 0,-180 0,-144 54,-144 54,-180"/>
<text text-anchor="middle" x="27" y="-159.5" font-family="Helvetica,sans-Serif" font-size="10.00" fill="#000000">scripts</text>
</a>
</g>
</g>
<!-- dir_65db4f6d262527884867afc6daa6f3c1 -->
<g id="node2" class="node">
<title>dir_65db4f6d262527884867afc6daa6f3c1</title>
<g id="a_node2"><a xlink:href="dir_65db4f6d262527884867afc6daa6f3c1.html" target="_top" xlink:title="include">
<polygon fill="none" stroke="#000000" points="54,-36 0,-36 0,0 54,0 54,-36"/>
<text text-anchor="middle" x="27" y="-15.5" font-family="Helvetica,sans-Serif" font-size="10.00" fill="#000000">include</text>
</a>
</g>
</g>
<!-- dir_b45c0ac69f7bd6552721f1f3569b4495&#45;&gt;dir_65db4f6d262527884867afc6daa6f3c1 -->
<g id="edge2" class="edge">
<title>dir_b45c0ac69f7bd6552721f1f3569b4495&#45;&gt;dir_65db4f6d262527884867afc6daa6f3c1</title>
<path fill="none" stroke="#000000" d="M23.585,-143.5804C21.8291,-133.1767 19.8774,-119.9092 19,-108 17.8244,-92.0432 17.8244,-87.9568 19,-72 19.6169,-63.6264 20.7649,-54.5812 22.0026,-46.3322"/>
<polygon fill="#000000" stroke="#000000" points="25.4648,-46.8463 23.585,-36.4196 18.5523,-45.7428 25.4648,-46.8463"/>
<g id="a_edge2&#45;headlabel"><a xlink:href="dir_000011_000007.html" target="_top" xlink:title="2">
<text text-anchor="middle" x="27.702" y="-48.3436" font-family="Helvetica,sans-Serif" font-size="10.00" fill="#000000">2</text>
</a>
</g>
</g>
<!-- dir_df0d897f6ebd076477552e35a84956fa -->
<g id="node3" class="node">
<title>dir_df0d897f6ebd076477552e35a84956fa</title>
<g id="a_node3"><a xlink:href="dir_df0d897f6ebd076477552e35a84956fa.html" target="_top" xlink:title="models">
<polygon fill="#ffffff" stroke="#ff0000" points="82,-108 28,-108 28,-72 82,-72 82,-108"/>
<text text-anchor="middle" x="55" y="-87.5" font-family="Helvetica,sans-Serif" font-size="10.00" fill="#000000">models</text>
</a>
</g>
</g>
<!-- dir_b45c0ac69f7bd6552721f1f3569b4495&#45;&gt;dir_df0d897f6ebd076477552e35a84956fa -->
<g id="edge3" class="edge">
<title>dir_b45c0ac69f7bd6552721f1f3569b4495&#45;&gt;dir_df0d897f6ebd076477552e35a84956fa</title>
<path fill="none" stroke="#000000" d="M34.0656,-143.8314C37.126,-135.9617 40.7779,-126.5712 44.1682,-117.8533"/>
<polygon fill="#000000" stroke="#000000" points="47.4768,-119.0019 47.8393,-108.4133 40.9527,-116.4647 47.4768,-119.0019"/>
<g id="a_edge3&#45;headlabel"><a xlink:href="dir_000011_000008.html" target="_top" xlink:title="1">
<text text-anchor="middle" x="48.8202" y="-120.8812" font-family="Helvetica,sans-Serif" font-size="10.00" fill="#000000">1</text>
</a>
</g>
</g>
<!-- dir_df0d897f6ebd076477552e35a84956fa&#45;&gt;dir_65db4f6d262527884867afc6daa6f3c1 -->
<g id="edge1" class="edge">
<title>dir_df0d897f6ebd076477552e35a84956fa&#45;&gt;dir_65db4f6d262527884867afc6daa6f3c1</title>
<path fill="none" stroke="#000000" d="M47.9344,-71.8314C44.874,-63.9617 41.2221,-54.5712 37.8318,-45.8533"/>
<polygon fill="#000000" stroke="#000000" points="41.0473,-44.4647 34.1607,-36.4133 34.5232,-47.0019 41.0473,-44.4647"/>
<g id="a_edge1&#45;headlabel"><a xlink:href="dir_000008_000007.html" target="_top" xlink:title="6">
<text text-anchor="middle" x="44.9963" y="-44.2859" font-family="Helvetica,sans-Serif" font-size="10.00" fill="#000000">6</text>
</a>
</g>
</g>
</g>
</svg>
