<?xml version="1.0" encoding="UTF-8" standalone="no"?>
<!DOCTYPE svg PUBLIC "-//W3C//DTD SVG 1.1//EN"
 "http://www.w3.org/Graphics/SVG/1.1/DTD/svg11.dtd">
<!-- Generated by graphviz version 2.40.1 (20161225.0304)
 -->
<!-- Title: models Pages: 1 -->
<svg width="238pt" height="132pt"
 viewBox="0.00 0.00 238.00 132.00" xmlns="http://www.w3.org/2000/svg" xmlns:xlink="http://www.w3.org/1999/xlink">
<g id="graph0" class="graph" transform="scale(1 1) rotate(0) translate(4 128)">
<title>models</title>
<polygon fill="#ffffff" stroke="transparent" points="-4,4 -4,-128 234,-128 234,4 -4,4"/>
<g id="clust1" class="cluster">
<title>clusterdir_1ae4179d5e953611aae20c997279e02c</title>
<g id="a_clust1"><a xlink:href="dir_1ae4179d5e953611aae20c997279e02c.html" target="_top">
<polygon fill="#eeeeff" stroke="#000000" points="8,-64 8,-116 222,-116 222,-64 8,-64"/>
</a>
</g>
</g>
<!-- dir_1ae4179d5e953611aae20c997279e02c -->
<g id="node1" class="node">
<title>dir_1ae4179d5e953611aae20c997279e02c</title>
<text text-anchor="middle" x="187" y="-87.5" font-family="Helvetica,sans-Serif" font-size="10.00" fill="#000000">models</text>
</g>
<!-- dir_78198cd724d504e97b5a739fb6862d44 -->
<g id="node2" class="node">
<title>dir_78198cd724d504e97b5a739fb6862d44</title>
<g id="a_node2"><a xlink:href="dir_78198cd724d504e97b5a739fb6862d44.html" target="_top" xlink:title="include">
<polygon fill="#ffffff" stroke="#000000" points="142,-108 88,-108 88,-72 142,-72 142,-108"/>
<text text-anchor="middle" x="115" y="-87.5" font-family="Helvetica,sans-Serif" font-size="10.00" fill="#000000">include</text>
</a>
</g>
</g>
<!-- dir_d44c64559bbebec7f509842c48db8b23 -->
<g id="node4" class="node">
<title>dir_d44c64559bbebec7f509842c48db8b23</title>
<g id="a_node4"><a xlink:href="dir_d44c64559bbebec7f509842c48db8b23.html" target="_top" xlink:title="include">
<polygon fill="none" stroke="#000000" points="106,-36 52,-36 52,0 106,0 106,-36"/>
<text text-anchor="middle" x="79" y="-15.5" font-family="Helvetica,sans-Serif" font-size="10.00" fill="#000000">include</text>
</a>
</g>
</g>
<!-- dir_78198cd724d504e97b5a739fb6862d44&#45;&gt;dir_d44c64559bbebec7f509842c48db8b23 -->
<g id="edge2" class="edge">
<title>dir_78198cd724d504e97b5a739fb6862d44&#45;&gt;dir_d44c64559bbebec7f509842c48db8b23</title>
<path fill="none" stroke="#000000" d="M105.9157,-71.8314C101.9385,-63.8771 97.1845,-54.369 92.7861,-45.5723"/>
<polygon fill="#000000" stroke="#000000" points="95.8093,-43.7923 88.2066,-36.4133 89.5483,-46.9228 95.8093,-43.7923"/>
<g id="a_edge2&#45;headlabel"><a xlink:href="dir_000009_000007.html" target="_top" xlink:title="2">
<text text-anchor="middle" x="99.9563" y="-43.2377" font-family="Helvetica,sans-Serif" font-size="10.00" fill="#000000">2</text>
</a>
</g>
</g>
<!-- dir_450f4b7a3ac29770d4e13dee6c6a3e84 -->
<g id="node3" class="node">
<title>dir_450f4b7a3ac29770d4e13dee6c6a3e84</title>
<g id="a_node3"><a xlink:href="dir_450f4b7a3ac29770d4e13dee6c6a3e84.html" target="_top" xlink:title="src">
<polygon fill="#ffffff" stroke="#000000" points="70,-108 16,-108 16,-72 70,-72 70,-108"/>
<text text-anchor="middle" x="43" y="-87.5" font-family="Helvetica,sans-Serif" font-size="10.00" fill="#000000">src</text>
</a>
</g>
</g>
<!-- dir_450f4b7a3ac29770d4e13dee6c6a3e84&#45;&gt;dir_d44c64559bbebec7f509842c48db8b23 -->
<g id="edge1" class="edge">
<title>dir_450f4b7a3ac29770d4e13dee6c6a3e84&#45;&gt;dir_d44c64559bbebec7f509842c48db8b23</title>
<path fill="none" stroke="#000000" d="M52.0843,-71.8314C56.0615,-63.8771 60.8155,-54.369 65.2139,-45.5723"/>
<polygon fill="#000000" stroke="#000000" points="68.4517,-46.9228 69.7934,-36.4133 62.1907,-43.7923 68.4517,-46.9228"/>
<g id="a_edge1&#45;headlabel"><a xlink:href="dir_000012_000007.html" target="_top" xlink:title="6">
<text text-anchor="middle" x="69.3837" y="-48.9077" font-family="Helvetica,sans-Serif" font-size="10.00" fill="#000000">6</text>
</a>
</g>
</g>
</g>
</svg>
