<?xml version="1.0" encoding="UTF-8" standalone="no"?>
<!DOCTYPE svg PUBLIC "-//W3C//DTD SVG 1.1//EN"
 "http://www.w3.org/Graphics/SVG/1.1/DTD/svg11.dtd">
<!-- Generated by graphviz version 2.40.1 (20161225.0304)
 -->
<!-- Title: /home/uhlrich/Bureau/MARTY/MARTY&#45;dev/grafed/gui/drawer&#45;gui Pages: 1 -->
<svg width="102pt" height="151pt"
 viewBox="0.00 0.00 102.00 151.00" xmlns="http://www.w3.org/2000/svg" xmlns:xlink="http://www.w3.org/1999/xlink">
<g id="graph0" class="graph" transform="scale(1 1) rotate(0) translate(4 147)">
<title>/home/uhlrich/Bureau/MARTY/MARTY&#45;dev/grafed/gui/drawer&#45;gui</title>
<polygon fill="#ffffff" stroke="transparent" points="-4,4 -4,-147 98,-147 98,4 -4,4"/>
<g id="clust1" class="cluster">
<title>clusterdir_4ce715900b90a3589de41f9716a9d3b7</title>
<g id="a_clust1"><a xlink:href="dir_4ce715900b90a3589de41f9716a9d3b7.html" target="_top" xlink:title="gui">
<polygon fill="#ddddee" stroke="#000000" points="8,-64 8,-135 86,-135 86,-64 8,-64"/>
<text text-anchor="middle" x="47" y="-123" font-family="Helvetica,sans-Serif" font-size="10.00" fill="#000000">gui</text>
</a>
</g>
</g>
<!-- dir_23bc3869a3c567a6360f0c486a3154d8 -->
<g id="node1" class="node">
<title>dir_23bc3869a3c567a6360f0c486a3154d8</title>
<g id="a_node1"><a xlink:href="dir_23bc3869a3c567a6360f0c486a3154d8.html" target="_top" xlink:title="drawer&#45;gui">
<polygon fill="#eeeeff" stroke="#000000" points="78,-108 16,-108 16,-72 78,-72 78,-108"/>
<text text-anchor="middle" x="47" y="-87.5" font-family="Helvetica,sans-Serif" font-size="10.00" fill="#000000">drawer&#45;gui</text>
</a>
</g>
</g>
<!-- dir_65db4f6d262527884867afc6daa6f3c1 -->
<g id="node2" class="node">
<title>dir_65db4f6d262527884867afc6daa6f3c1</title>
<g id="a_node2"><a xlink:href="dir_65db4f6d262527884867afc6daa6f3c1.html" target="_top" xlink:title="include">
<polygon fill="none" stroke="#000000" points="74,-36 20,-36 20,0 74,0 74,-36"/>
<text text-anchor="middle" x="47" y="-15.5" font-family="Helvetica,sans-Serif" font-size="10.00" fill="#000000">include</text>
</a>
</g>
</g>
<!-- dir_23bc3869a3c567a6360f0c486a3154d8&#45;&gt;dir_65db4f6d262527884867afc6daa6f3c1 -->
<g id="edge1" class="edge">
<title>dir_23bc3869a3c567a6360f0c486a3154d8&#45;&gt;dir_65db4f6d262527884867afc6daa6f3c1</title>
<path fill="none" stroke="#000000" d="M47,-71.8314C47,-64.131 47,-54.9743 47,-46.4166"/>
<polygon fill="#000000" stroke="#000000" points="50.5001,-46.4132 47,-36.4133 43.5001,-46.4133 50.5001,-46.4132"/>
<g id="a_edge1&#45;headlabel"><a xlink:href="dir_000007_000020.html" target="_top" xlink:title="3">
<text text-anchor="middle" x="53.3393" y="-47.5079" font-family="Helvetica,sans-Serif" font-size="10.00" fill="#000000">3</text>
</a>
</g>
</g>
</g>
</svg>
