<?xml version="1.0" encoding="UTF-8" standalone="no"?>
<!DOCTYPE svg PUBLIC "-//W3C//DTD SVG 1.1//EN"
 "http://www.w3.org/Graphics/SVG/1.1/DTD/svg11.dtd">
<!-- Generated by graphviz version 2.40.1 (20161225.0304)
 -->
<!-- Title: /home/uhlrich/Bureau/MARTY/MARTY&#45;dev/jsonparser Pages: 1 -->
<svg width="174pt" height="148pt"
 viewBox="0.00 0.00 174.00 148.00" xmlns="http://www.w3.org/2000/svg" xmlns:xlink="http://www.w3.org/1999/xlink">
<g id="graph0" class="graph" transform="scale(1 1) rotate(0) translate(4 144)">
<title>/home/uhlrich/Bureau/MARTY/MARTY&#45;dev/jsonparser</title>
<polygon fill="#ffffff" stroke="transparent" points="-4,4 -4,-144 170,-144 170,4 -4,4"/>
<g id="clust1" class="cluster">
<title>clusterdir_994dcca83ee610747b5b7b1e837a8f8c</title>
<g id="a_clust1"><a xlink:href="dir_994dcca83ee610747b5b7b1e837a8f8c.html" target="_top">
<polygon fill="#eeeeff" stroke="#000000" points="8,-8 8,-132 158,-132 158,-8 8,-8"/>
</a>
</g>
</g>
<!-- dir_994dcca83ee610747b5b7b1e837a8f8c -->
<g id="node1" class="node">
<title>dir_994dcca83ee610747b5b7b1e837a8f8c</title>
<text text-anchor="middle" x="119" y="-103.5" font-family="Helvetica,sans-Serif" font-size="10.00" fill="#000000">jsonparser</text>
</g>
<!-- dir_db66f8bcc36015ebfa43682966a92d37 -->
<g id="node2" class="node">
<title>dir_db66f8bcc36015ebfa43682966a92d37</title>
<g id="a_node2"><a xlink:href="dir_db66f8bcc36015ebfa43682966a92d37.html" target="_top" xlink:title="include">
<polygon fill="#ffffff" stroke="#000000" points="70,-52 16,-52 16,-16 70,-16 70,-52"/>
<text text-anchor="middle" x="43" y="-31.5" font-family="Helvetica,sans-Serif" font-size="10.00" fill="#000000">include</text>
</a>
</g>
</g>
<!-- dir_1183a1fab9cdad33706b2656f036ffc3 -->
<g id="node3" class="node">
<title>dir_1183a1fab9cdad33706b2656f036ffc3</title>
<g id="a_node3"><a xlink:href="dir_1183a1fab9cdad33706b2656f036ffc3.html" target="_top" xlink:title="src">
<polygon fill="#ffffff" stroke="#000000" points="70,-124 16,-124 16,-88 70,-88 70,-124"/>
<text text-anchor="middle" x="43" y="-103.5" font-family="Helvetica,sans-Serif" font-size="10.00" fill="#000000">src</text>
</a>
</g>
</g>
<!-- dir_1183a1fab9cdad33706b2656f036ffc3&#45;&gt;dir_db66f8bcc36015ebfa43682966a92d37 -->
<g id="edge1" class="edge">
<title>dir_1183a1fab9cdad33706b2656f036ffc3&#45;&gt;dir_db66f8bcc36015ebfa43682966a92d37</title>
<path fill="none" stroke="#000000" d="M43,-87.8314C43,-80.131 43,-70.9743 43,-62.4166"/>
<polygon fill="#000000" stroke="#000000" points="46.5001,-62.4132 43,-52.4133 39.5001,-62.4133 46.5001,-62.4132"/>
<g id="a_edge1&#45;headlabel"><a xlink:href="dir_000006_000005.html" target="_top" xlink:title="1">
<text text-anchor="middle" x="49.3393" y="-63.5079" font-family="Helvetica,sans-Serif" font-size="10.00" fill="#000000">1</text>
</a>
</g>
</g>
</g>
</svg>
