<?xml version="1.0" encoding="UTF-8" standalone="no"?>
<!DOCTYPE svg PUBLIC "-//W3C//DTD SVG 1.1//EN"
 "http://www.w3.org/Graphics/SVG/1.1/DTD/svg11.dtd">
<!-- Generated by graphviz version 2.40.1 (20161225.0304)
 -->
<!-- Title: /home/uhlrich/Bureau/MARTY/MARTY&#45;dev/grafed Pages: 1 -->
<svg width="306pt" height="148pt"
 viewBox="0.00 0.00 306.00 148.00" xmlns="http://www.w3.org/2000/svg" xmlns:xlink="http://www.w3.org/1999/xlink">
<g id="graph0" class="graph" transform="scale(1 1) rotate(0) translate(4 144)">
<title>/home/uhlrich/Bureau/MARTY/MARTY&#45;dev/grafed</title>
<polygon fill="#ffffff" stroke="transparent" points="-4,4 -4,-144 302,-144 302,4 -4,4"/>
<g id="clust1" class="cluster">
<title>clusterdir_4419158cdeae7564cccc7c350c06067a</title>
<g id="a_clust1"><a xlink:href="dir_4419158cdeae7564cccc7c350c06067a.html" target="_top">
<polygon fill="#eeeeff" stroke="#000000" points="8,-8 8,-132 228,-132 228,-8 8,-8"/>
</a>
</g>
</g>
<!-- dir_4419158cdeae7564cccc7c350c06067a -->
<g id="node1" class="node">
<title>dir_4419158cdeae7564cccc7c350c06067a</title>
<text text-anchor="middle" x="193" y="-103.5" font-family="Helvetica,sans-Serif" font-size="10.00" fill="#000000">grafed</text>
</g>
<!-- dir_8bb642d841ae86cb402049d1fb9c817e -->
<g id="node2" class="node">
<title>dir_8bb642d841ae86cb402049d1fb9c817e</title>
<g id="a_node2"><a xlink:href="dir_8bb642d841ae86cb402049d1fb9c817e.html" target="_top" xlink:title="grafed&#45;gui">
<polygon fill="#ffffff" stroke="#000000" points="75.5,-124 16.5,-124 16.5,-88 75.5,-88 75.5,-124"/>
<text text-anchor="middle" x="46" y="-103.5" font-family="Helvetica,sans-Serif" font-size="10.00" fill="#000000">grafed&#45;gui</text>
</a>
</g>
</g>
<!-- dir_f67fba804cf47363c26d336c808d2071 -->
<g id="node3" class="node">
<title>dir_f67fba804cf47363c26d336c808d2071</title>
<g id="a_node3"><a xlink:href="dir_f67fba804cf47363c26d336c808d2071.html" target="_top" xlink:title="include">
<polygon fill="#ffffff" stroke="#000000" points="110,-52 56,-52 56,-16 110,-16 110,-52"/>
<text text-anchor="middle" x="83" y="-31.5" font-family="Helvetica,sans-Serif" font-size="10.00" fill="#000000">include</text>
</a>
</g>
</g>
<!-- dir_8bb642d841ae86cb402049d1fb9c817e&#45;&gt;dir_f67fba804cf47363c26d336c808d2071 -->
<g id="edge1" class="edge">
<title>dir_8bb642d841ae86cb402049d1fb9c817e&#45;&gt;dir_f67fba804cf47363c26d336c808d2071</title>
<path fill="none" stroke="#000000" d="M55.3367,-87.8314C59.4243,-79.8771 64.3104,-70.369 68.8309,-61.5723"/>
<polygon fill="#000000" stroke="#000000" points="72.0799,-62.9074 73.5376,-52.4133 65.8539,-59.7078 72.0799,-62.9074"/>
<g id="a_edge1&#45;headlabel"><a xlink:href="dir_000001_000002.html" target="_top" xlink:title="9">
<text text-anchor="middle" x="72.9623" y="-64.9022" font-family="Helvetica,sans-Serif" font-size="10.00" fill="#000000">9</text>
</a>
</g>
</g>
<!-- dir_0ffdc91a365e584ab9f5f08197156815 -->
<g id="node4" class="node">
<title>dir_0ffdc91a365e584ab9f5f08197156815</title>
<g id="a_node4"><a xlink:href="dir_0ffdc91a365e584ab9f5f08197156815.html" target="_top" xlink:title="src">
<polygon fill="#ffffff" stroke="#000000" points="148,-124 94,-124 94,-88 148,-88 148,-124"/>
<text text-anchor="middle" x="121" y="-103.5" font-family="Helvetica,sans-Serif" font-size="10.00" fill="#000000">src</text>
</a>
</g>
</g>
<!-- dir_0ffdc91a365e584ab9f5f08197156815&#45;&gt;dir_f67fba804cf47363c26d336c808d2071 -->
<g id="edge3" class="edge">
<title>dir_0ffdc91a365e584ab9f5f08197156815&#45;&gt;dir_f67fba804cf47363c26d336c808d2071</title>
<path fill="none" stroke="#000000" d="M111.411,-87.8314C107.1683,-79.7925 102.0879,-70.1666 97.404,-61.2918"/>
<polygon fill="#000000" stroke="#000000" points="100.4811,-59.6235 92.7181,-52.4133 94.2904,-62.8908 100.4811,-59.6235"/>
<g id="a_edge3&#45;headlabel"><a xlink:href="dir_000003_000002.html" target="_top" xlink:title="2">
<text text-anchor="middle" x="104.6699" y="-58.9772" font-family="Helvetica,sans-Serif" font-size="10.00" fill="#000000">2</text>
</a>
</g>
</g>
<!-- dir_994dcca83ee610747b5b7b1e837a8f8c -->
<g id="node5" class="node">
<title>dir_994dcca83ee610747b5b7b1e837a8f8c</title>
<g id="a_node5"><a xlink:href="dir_994dcca83ee610747b5b7b1e837a8f8c.html" target="_top" xlink:title="jsonparser">
<polygon fill="#ffffff" stroke="#ff0000" points="298,-52 236,-52 236,-16 298,-16 298,-52"/>
<text text-anchor="middle" x="267" y="-31.5" font-family="Helvetica,sans-Serif" font-size="10.00" fill="#000000">jsonparser</text>
</a>
</g>
</g>
<!-- dir_0ffdc91a365e584ab9f5f08197156815&#45;&gt;dir_994dcca83ee610747b5b7b1e837a8f8c -->
<g id="edge2" class="edge">
<title>dir_0ffdc91a365e584ab9f5f08197156815&#45;&gt;dir_994dcca83ee610747b5b7b1e837a8f8c</title>
<path fill="none" stroke="#000000" d="M148.1036,-92.3897C151.102,-90.9015 154.1135,-89.4143 157,-88 187.2201,-73.1933 197.131,-69.15 226.4421,-54.7306"/>
<polygon fill="#000000" stroke="#000000" points="228.3165,-57.7083 235.7275,-50.1368 225.2124,-51.4341 228.3165,-57.7083"/>
<g id="a_edge2&#45;headlabel"><a xlink:href="dir_000003_000004.html" target="_top" xlink:title="1">
<text text-anchor="middle" x="226.3536" y="-59.3471" font-family="Helvetica,sans-Serif" font-size="10.00" fill="#000000">1</text>
</a>
</g>
</g>
</g>
</svg>
