<?xml version="1.0" encoding="UTF-8" standalone="no"?>
<!DOCTYPE svg PUBLIC "-//W3C//DTD SVG 1.1//EN"
 "http://www.w3.org/Graphics/SVG/1.1/DTD/svg11.dtd">
<!-- Generated by graphviz version 2.40.1 (20161225.0304)
 -->
<!-- Title: sgl Pages: 1 -->
<svg width="220pt" height="148pt"
 viewBox="0.00 0.00 220.00 148.00" xmlns="http://www.w3.org/2000/svg" xmlns:xlink="http://www.w3.org/1999/xlink">
<g id="graph0" class="graph" transform="scale(1 1) rotate(0) translate(4 144)">
<title>sgl</title>
<polygon fill="#ffffff" stroke="transparent" points="-4,4 -4,-144 216,-144 216,4 -4,4"/>
<g id="clust1" class="cluster">
<title>clusterdir_49b4a1e859b8c8e0ac120d42748fbb4b</title>
<g id="a_clust1"><a xlink:href="dir_49b4a1e859b8c8e0ac120d42748fbb4b.html" target="_top">
<polygon fill="#eeeeff" stroke="#000000" points="8,-8 8,-132 150,-132 150,-8 8,-8"/>
</a>
</g>
</g>
<!-- dir_49b4a1e859b8c8e0ac120d42748fbb4b -->
<g id="node1" class="node">
<title>dir_49b4a1e859b8c8e0ac120d42748fbb4b</title>
<text text-anchor="middle" x="115" y="-103.5" font-family="Helvetica,sans-Serif" font-size="10.00" fill="#000000">sgl</text>
</g>
<!-- dir_3c1a48b45bb671ea5b539716ab8671bf -->
<g id="node2" class="node">
<title>dir_3c1a48b45bb671ea5b539716ab8671bf</title>
<g id="a_node2"><a xlink:href="dir_3c1a48b45bb671ea5b539716ab8671bf.html" target="_top" xlink:title="include">
<polygon fill="#ffffff" stroke="#000000" points="105,-52 51,-52 51,-16 105,-16 105,-52"/>
<text text-anchor="middle" x="78" y="-31.5" font-family="Helvetica,sans-Serif" font-size="10.00" fill="#000000">include</text>
</a>
</g>
</g>
<!-- dir_65db4f6d262527884867afc6daa6f3c1 -->
<g id="node4" class="node">
<title>dir_65db4f6d262527884867afc6daa6f3c1</title>
<g id="a_node4"><a xlink:href="dir_65db4f6d262527884867afc6daa6f3c1.html" target="_top" xlink:title="include">
<polygon fill="none" stroke="#000000" points="212,-52 158,-52 158,-16 212,-16 212,-52"/>
<text text-anchor="middle" x="185" y="-31.5" font-family="Helvetica,sans-Serif" font-size="10.00" fill="#000000">include</text>
</a>
</g>
</g>
<!-- dir_3c1a48b45bb671ea5b539716ab8671bf&#45;&gt;dir_65db4f6d262527884867afc6daa6f3c1 -->
<g id="edge5" class="edge">
<title>dir_3c1a48b45bb671ea5b539716ab8671bf&#45;&gt;dir_65db4f6d262527884867afc6daa6f3c1</title>
<path fill="none" stroke="#000000" d="M105.168,-34C119.3041,-34 133.4402,-34 147.5763,-34"/>
<polygon fill="#000000" stroke="#000000" points="147.8696,-37.5001 157.8696,-34 147.8695,-30.5001 147.8696,-37.5001"/>
<g id="a_edge5&#45;headlabel"><a xlink:href="dir_000013_000007.html" target="_top" xlink:title="1">
<text text-anchor="middle" x="144.275" y="-37.8393" font-family="Helvetica,sans-Serif" font-size="10.00" fill="#000000">1</text>
</a>
</g>
</g>
<!-- dir_0ea659c3b316391b5be86e1d36e2eb45 -->
<g id="node3" class="node">
<title>dir_0ea659c3b316391b5be86e1d36e2eb45</title>
<g id="a_node3"><a xlink:href="dir_0ea659c3b316391b5be86e1d36e2eb45.html" target="_top" xlink:title="src">
<polygon fill="#ffffff" stroke="#000000" points="70,-124 16,-124 16,-88 70,-88 70,-124"/>
<text text-anchor="middle" x="43" y="-103.5" font-family="Helvetica,sans-Serif" font-size="10.00" fill="#000000">src</text>
</a>
</g>
</g>
<!-- dir_0ea659c3b316391b5be86e1d36e2eb45&#45;&gt;dir_3c1a48b45bb671ea5b539716ab8671bf -->
<g id="edge4" class="edge">
<title>dir_0ea659c3b316391b5be86e1d36e2eb45&#45;&gt;dir_3c1a48b45bb671ea5b539716ab8671bf</title>
<path fill="none" stroke="#000000" d="M51.832,-87.8314C55.6986,-79.8771 60.3206,-70.369 64.5968,-61.5723"/>
<polygon fill="#000000" stroke="#000000" points="67.8249,-62.9371 69.0491,-52.4133 61.5293,-59.8768 67.8249,-62.9371"/>
<g id="a_edge4&#45;headlabel"><a xlink:href="dir_000014_000013.html" target="_top" xlink:title="117">
<text text-anchor="middle" x="68.807" y="-64.9113" font-family="Helvetica,sans-Serif" font-size="10.00" fill="#000000">117</text>
</a>
</g>
</g>
<!-- dir_0ea659c3b316391b5be86e1d36e2eb45&#45;&gt;dir_65db4f6d262527884867afc6daa6f3c1 -->
<g id="edge3" class="edge">
<title>dir_0ea659c3b316391b5be86e1d36e2eb45&#45;&gt;dir_65db4f6d262527884867afc6daa6f3c1</title>
<path fill="none" stroke="#000000" d="M70.1036,-92.3897C73.102,-90.9015 76.1135,-89.4143 79,-88 109.2201,-73.1933 119.4879,-69.8457 148.503,-54.829"/>
<polygon fill="#000000" stroke="#000000" points="150.4483,-57.761 157.6807,-50.0187 147.1987,-51.561 150.4483,-57.761"/>
<g id="a_edge3&#45;headlabel"><a xlink:href="dir_000014_000007.html" target="_top" xlink:title="4">
<text text-anchor="middle" x="148.5826" y="-59.4445" font-family="Helvetica,sans-Serif" font-size="10.00" fill="#000000">4</text>
</a>
</g>
</g>
<!-- dir_65db4f6d262527884867afc6daa6f3c1&#45;&gt;dir_49b4a1e859b8c8e0ac120d42748fbb4b -->
<g id="edge1" class="edge">
<title>dir_65db4f6d262527884867afc6daa6f3c1&#45;&gt;dir_49b4a1e859b8c8e0ac120d42748fbb4b</title>
<path fill="none" stroke="#000000" d="M167.0982,-52.4133C158.756,-60.9938 148.6959,-71.3414 139.6495,-80.6463"/>
<polygon fill="#000000" stroke="#000000" points="137.1253,-78.2216 132.664,-87.8314 142.1443,-83.1012 137.1253,-78.2216"/>
<g id="a_edge1&#45;headlabel"><a xlink:href="dir_000007_000012.html" target="_top" xlink:title="2">
<text text-anchor="middle" x="137.5952" y="-71.1651" font-family="Helvetica,sans-Serif" font-size="10.00" fill="#000000">2</text>
</a>
</g>
</g>
<!-- dir_65db4f6d262527884867afc6daa6f3c1&#45;&gt;dir_3c1a48b45bb671ea5b539716ab8671bf -->
<g id="edge2" class="edge">
<title>dir_65db4f6d262527884867afc6daa6f3c1&#45;&gt;dir_3c1a48b45bb671ea5b539716ab8671bf</title>
<path fill="none" stroke="#000000" d="M157.8696,-34C143.7335,-34 129.5974,-34 115.4613,-34"/>
<polygon fill="#000000" stroke="#000000" points="115.168,-30.5001 105.168,-34 115.1679,-37.5001 115.168,-30.5001"/>
<g id="a_edge2&#45;headlabel"><a xlink:href="dir_000007_000013.html" target="_top" xlink:title="2">
<text text-anchor="middle" x="118.7626" y="-25.1607" font-family="Helvetica,sans-Serif" font-size="10.00" fill="#000000">2</text>
</a>
</g>
</g>
</g>
</svg>
