<?xml version="1.0" encoding="UTF-8" standalone="no"?>
<!DOCTYPE svg PUBLIC "-//W3C//DTD SVG 1.1//EN"
 "http://www.w3.org/Graphics/SVG/1.1/DTD/svg11.dtd">
<!-- Generated by graphviz version 2.40.1 (20161225.0304)
 -->
<!-- Title: scripts/old_scripts Pages: 1 -->
<svg width="104pt" height="151pt"
 viewBox="0.00 0.00 104.00 151.00" xmlns="http://www.w3.org/2000/svg" xmlns:xlink="http://www.w3.org/1999/xlink">
<g id="graph0" class="graph" transform="scale(1 1) rotate(0) translate(4 147)">
<title>scripts/old_scripts</title>
<polygon fill="#ffffff" stroke="transparent" points="-4,4 -4,-147 100,-147 100,4 -4,4"/>
<g id="clust1" class="cluster">
<title>clusterdir_b45c0ac69f7bd6552721f1f3569b4495</title>
<g id="a_clust1"><a xlink:href="dir_b45c0ac69f7bd6552721f1f3569b4495.html" target="_top" xlink:title="scripts">
<polygon fill="#ddddee" stroke="#000000" points="8,-64 8,-135 88,-135 88,-64 8,-64"/>
<text text-anchor="middle" x="48" y="-123" font-family="Helvetica,sans-Serif" font-size="10.00" fill="#000000">scripts</text>
</a>
</g>
</g>
<!-- dir_d4556edc8afb963a4f0c3f4a64f525a3 -->
<g id="node1" class="node">
<title>dir_d4556edc8afb963a4f0c3f4a64f525a3</title>
<g id="a_node1"><a xlink:href="dir_d4556edc8afb963a4f0c3f4a64f525a3.html" target="_top" xlink:title="old_scripts">
<polygon fill="#eeeeff" stroke="#000000" points="80,-108 16,-108 16,-72 80,-72 80,-108"/>
<text text-anchor="middle" x="48" y="-87.5" font-family="Helvetica,sans-Serif" font-size="10.00" fill="#000000">old_scripts</text>
</a>
</g>
</g>
<!-- dir_65db4f6d262527884867afc6daa6f3c1 -->
<g id="node2" class="node">
<title>dir_65db4f6d262527884867afc6daa6f3c1</title>
<g id="a_node2"><a xlink:href="dir_65db4f6d262527884867afc6daa6f3c1.html" target="_top" xlink:title="include">
<polygon fill="none" stroke="#000000" points="75,-36 21,-36 21,0 75,0 75,-36"/>
<text text-anchor="middle" x="48" y="-15.5" font-family="Helvetica,sans-Serif" font-size="10.00" fill="#000000">include</text>
</a>
</g>
</g>
<!-- dir_d4556edc8afb963a4f0c3f4a64f525a3&#45;&gt;dir_65db4f6d262527884867afc6daa6f3c1 -->
<g id="edge1" class="edge">
<title>dir_d4556edc8afb963a4f0c3f4a64f525a3&#45;&gt;dir_65db4f6d262527884867afc6daa6f3c1</title>
<path fill="none" stroke="#000000" d="M48,-71.8314C48,-64.131 48,-54.9743 48,-46.4166"/>
<polygon fill="#000000" stroke="#000000" points="51.5001,-46.4132 48,-36.4133 44.5001,-46.4133 51.5001,-46.4132"/>
<g id="a_edge1&#45;headlabel"><a xlink:href="dir_000013_000008.html" target="_top" xlink:title="20">
<text text-anchor="middle" x="54.3393" y="-47.5079" font-family="Helvetica,sans-Serif" font-size="10.00" fill="#000000">20</text>
</a>
</g>
</g>
</g>
</svg>
