<?xml version="1.0" encoding="UTF-8" standalone="no"?>
<!DOCTYPE svg PUBLIC "-//W3C//DTD SVG 1.1//EN"
 "http://www.w3.org/Graphics/SVG/1.1/DTD/svg11.dtd">
<!-- Generated by graphviz version 2.40.1 (20161225.0304)
 -->
<!-- Title: pmssm Pages: 1 -->
<svg width="238pt" height="132pt"
 viewBox="0.00 0.00 238.00 132.00" xmlns="http://www.w3.org/2000/svg" xmlns:xlink="http://www.w3.org/1999/xlink">
<g id="graph0" class="graph" transform="scale(1 1) rotate(0) translate(4 128)">
<title>pmssm</title>
<polygon fill="#ffffff" stroke="transparent" points="-4,4 -4,-128 234,-128 234,4 -4,4"/>
<g id="clust1" class="cluster">
<title>clusterdir_c7a5500a19f27948d1a8d9d8d8fa1544</title>
<g id="a_clust1"><a xlink:href="dir_c7a5500a19f27948d1a8d9d8d8fa1544.html" target="_top">
<polygon fill="#eeeeff" stroke="#000000" points="8,-64 8,-116 222,-116 222,-64 8,-64"/>
</a>
</g>
</g>
<!-- dir_c7a5500a19f27948d1a8d9d8d8fa1544 -->
<g id="node1" class="node">
<title>dir_c7a5500a19f27948d1a8d9d8d8fa1544</title>
<text text-anchor="middle" x="187" y="-87.5" font-family="Helvetica,sans-Serif" font-size="10.00" fill="#000000">pmssm</text>
</g>
<!-- dir_3cf92969d63ea2b23c7e04becfb7e6ee -->
<g id="node2" class="node">
<title>dir_3cf92969d63ea2b23c7e04becfb7e6ee</title>
<g id="a_node2"><a xlink:href="dir_3cf92969d63ea2b23c7e04becfb7e6ee.html" target="_top" xlink:title="include">
<polygon fill="#ffffff" stroke="#000000" points="142,-108 88,-108 88,-72 142,-72 142,-108"/>
<text text-anchor="middle" x="115" y="-87.5" font-family="Helvetica,sans-Serif" font-size="10.00" fill="#000000">include</text>
</a>
</g>
</g>
<!-- dir_d44c64559bbebec7f509842c48db8b23 -->
<g id="node4" class="node">
<title>dir_d44c64559bbebec7f509842c48db8b23</title>
<g id="a_node4"><a xlink:href="dir_d44c64559bbebec7f509842c48db8b23.html" target="_top" xlink:title="include">
<polygon fill="none" stroke="#000000" points="106,-36 52,-36 52,0 106,0 106,-36"/>
<text text-anchor="middle" x="79" y="-15.5" font-family="Helvetica,sans-Serif" font-size="10.00" fill="#000000">include</text>
</a>
</g>
</g>
<!-- dir_3cf92969d63ea2b23c7e04becfb7e6ee&#45;&gt;dir_d44c64559bbebec7f509842c48db8b23 -->
<g id="edge1" class="edge">
<title>dir_3cf92969d63ea2b23c7e04becfb7e6ee&#45;&gt;dir_d44c64559bbebec7f509842c48db8b23</title>
<path fill="none" stroke="#000000" d="M105.9157,-71.8314C101.9385,-63.8771 97.1845,-54.369 92.7861,-45.5723"/>
<polygon fill="#000000" stroke="#000000" points="95.8093,-43.7923 88.2066,-36.4133 89.5483,-46.9228 95.8093,-43.7923"/>
<g id="a_edge1&#45;headlabel"><a xlink:href="dir_000011_000007.html" target="_top" xlink:title="2">
<text text-anchor="middle" x="99.9563" y="-43.2377" font-family="Helvetica,sans-Serif" font-size="10.00" fill="#000000">2</text>
</a>
</g>
</g>
<!-- dir_6a03e55cf8e56b568a4a438f942d6673 -->
<g id="node3" class="node">
<title>dir_6a03e55cf8e56b568a4a438f942d6673</title>
<g id="a_node3"><a xlink:href="dir_6a03e55cf8e56b568a4a438f942d6673.html" target="_top" xlink:title="src">
<polygon fill="#ffffff" stroke="#000000" points="70,-108 16,-108 16,-72 70,-72 70,-108"/>
<text text-anchor="middle" x="43" y="-87.5" font-family="Helvetica,sans-Serif" font-size="10.00" fill="#000000">src</text>
</a>
</g>
</g>
<!-- dir_6a03e55cf8e56b568a4a438f942d6673&#45;&gt;dir_d44c64559bbebec7f509842c48db8b23 -->
<g id="edge2" class="edge">
<title>dir_6a03e55cf8e56b568a4a438f942d6673&#45;&gt;dir_d44c64559bbebec7f509842c48db8b23</title>
<path fill="none" stroke="#000000" d="M52.0843,-71.8314C56.0615,-63.8771 60.8155,-54.369 65.2139,-45.5723"/>
<polygon fill="#000000" stroke="#000000" points="68.4517,-46.9228 69.7934,-36.4133 62.1907,-43.7923 68.4517,-46.9228"/>
<g id="a_edge2&#45;headlabel"><a xlink:href="dir_000013_000007.html" target="_top" xlink:title="1">
<text text-anchor="middle" x="69.3837" y="-48.9077" font-family="Helvetica,sans-Serif" font-size="10.00" fill="#000000">1</text>
</a>
</g>
</g>
</g>
</svg>
