<?xml version="1.0" encoding="UTF-8" standalone="no"?>
<!DOCTYPE svg PUBLIC "-//W3C//DTD SVG 1.1//EN"
 "http://www.w3.org/Graphics/SVG/1.1/DTD/svg11.dtd">
<!-- Generated by graphviz version 2.40.1 (20161225.0304)
 -->
<!-- Title: Graphical Class Hierarchy Pages: 1 -->
<svg width="189pt" height="104pt"
 viewBox="0.00 0.00 189.00 104.00" xmlns="http://www.w3.org/2000/svg" xmlns:xlink="http://www.w3.org/1999/xlink">
<g id="graph0" class="graph" transform="scale(1 1) rotate(0) translate(4 100)">
<title>Graphical Class Hierarchy</title>
<polygon fill="#ffffff" stroke="transparent" points="-4,4 -4,-100 185,-100 185,4 -4,4"/>
<!-- Node52 -->
<g id="node1" class="node">
<title>Node52</title>
<polygon fill="#ffffff" stroke="#bfbfbf" points="0,-38.5 0,-57.5 53,-57.5 53,-38.5 0,-38.5"/>
<text text-anchor="middle" x="26.5" y="-45.5" font-family="Helvetica,sans-Serif" font-size="10.00" fill="#000000">QObject</text>
</g>
<!-- Node0 -->
<g id="node2" class="node">
<title>Node0</title>
<g id="a_node2"><a xlink:href="classDiagram.html" target="_top" xlink:title="Diagram">
<polygon fill="#ffffff" stroke="#000000" points="108.5,-76.5 108.5,-95.5 161.5,-95.5 161.5,-76.5 108.5,-76.5"/>
<text text-anchor="middle" x="135" y="-83.5" font-family="Helvetica,sans-Serif" font-size="10.00" fill="#000000">Diagram</text>
</a>
</g>
</g>
<!-- Node52&#45;&gt;Node0 -->
<g id="edge1" class="edge">
<title>Node52&#45;&gt;Node0</title>
<path fill="none" stroke="#191970" d="M62.5195,-60.6151C77.4862,-65.8569 94.5475,-71.8323 108.3559,-76.6684"/>
<polygon fill="#191970" stroke="#191970" points="63.6369,-57.2981 53.0421,-57.2958 61.3231,-63.9046 63.6369,-57.2981"/>
</g>
<!-- Node54 -->
<g id="node3" class="node">
<title>Node54</title>
<g id="a_node3"><a xlink:href="classlatexcompiler.html" target="_top" xlink:title="latexcompiler">
<polygon fill="#ffffff" stroke="#000000" points="98,-38.5 98,-57.5 172,-57.5 172,-38.5 98,-38.5"/>
<text text-anchor="middle" x="135" y="-45.5" font-family="Helvetica,sans-Serif" font-size="10.00" fill="#000000">latexcompiler</text>
</a>
</g>
</g>
<!-- Node52&#45;&gt;Node54 -->
<g id="edge2" class="edge">
<title>Node52&#45;&gt;Node54</title>
<path fill="none" stroke="#191970" d="M63.2712,-48C74.3621,-48 86.5443,-48 97.6711,-48"/>
<polygon fill="#191970" stroke="#191970" points="63.0421,-44.5001 53.0421,-48 63.0421,-51.5001 63.0421,-44.5001"/>
</g>
<!-- Node55 -->
<g id="node4" class="node">
<title>Node55</title>
<g id="a_node4"><a xlink:href="classResourceHandler.html" target="_top" xlink:title="ResourceHandler">
<polygon fill="#ffffff" stroke="#000000" points="89,-.5 89,-19.5 181,-19.5 181,-.5 89,-.5"/>
<text text-anchor="middle" x="135" y="-7.5" font-family="Helvetica,sans-Serif" font-size="10.00" fill="#000000">ResourceHandler</text>
</a>
</g>
</g>
<!-- Node52&#45;&gt;Node55 -->
<g id="edge3" class="edge">
<title>Node52&#45;&gt;Node55</title>
<path fill="none" stroke="#191970" d="M62.7942,-35.2887C77.4218,-30.1656 94.0125,-24.3551 107.599,-19.5967"/>
<polygon fill="#191970" stroke="#191970" points="61.3231,-32.0954 53.0421,-38.7042 63.6369,-38.7019 61.3231,-32.0954"/>
</g>
</g>
</svg>
