<?xml version="1.0" encoding="UTF-8" standalone="no"?>
<!DOCTYPE svg PUBLIC "-//W3C//DTD SVG 1.1//EN"
 "http://www.w3.org/Graphics/SVG/1.1/DTD/svg11.dtd">
<!-- Generated by graphviz version 2.40.1 (20161225.0304)
 -->
<!-- Title: Graphical Class Hierarchy Pages: 1 -->
<svg width="296pt" height="88pt"
 viewBox="0.00 0.00 296.00 88.00" xmlns="http://www.w3.org/2000/svg" xmlns:xlink="http://www.w3.org/1999/xlink">
<g id="graph0" class="graph" transform="scale(1 1) rotate(0) translate(4 84)">
<title>Graphical Class Hierarchy</title>
<polygon fill="#ffffff" stroke="transparent" points="-4,4 -4,-84 292,-84 292,4 -4,4"/>
<!-- Node203 -->
<g id="node1" class="node">
<title>Node203</title>
<g id="a_node1"><a xlink:href="classmty_1_1doc_1_1CheckPoint__Base.html" target="_top" xlink:title="mty::doc::CheckPoint_Base">
<polygon fill="#ffffff" stroke="#000000" points="0,-60.5 0,-79.5 140,-79.5 140,-60.5 0,-60.5"/>
<text text-anchor="middle" x="70" y="-67.5" font-family="Helvetica,sans-Serif" font-size="10.00" fill="#000000">mty::doc::CheckPoint_Base</text>
</a>
</g>
</g>
<!-- Node1 -->
<g id="node2" class="node">
<title>Node1</title>
<g id="a_node2"><a xlink:href="classmty_1_1doc_1_1CheckPoint_3_01csl_1_1Expr_01_4.html" target="_top" xlink:title="mty::doc::CheckPoint\l\&lt; csl::Expr \&gt;">
<polygon fill="#ffffff" stroke="#000000" points="176,-30 176,-60 288,-60 288,-30 176,-30"/>
<text text-anchor="start" x="184" y="-48" font-family="Helvetica,sans-Serif" font-size="10.00" fill="#000000">mty::doc::CheckPoint</text>
<text text-anchor="middle" x="232" y="-37" font-family="Helvetica,sans-Serif" font-size="10.00" fill="#000000">&lt; csl::Expr &gt;</text>
</a>
</g>
</g>
<!-- Node203&#45;&gt;Node1 -->
<g id="edge1" class="edge">
<title>Node203&#45;&gt;Node1</title>
<path fill="none" stroke="#191970" d="M141.6643,-58.9407C153.0946,-57.1768 164.7763,-55.374 175.7825,-53.6755"/>
<polygon fill="#191970" stroke="#191970" points="141.0566,-55.493 131.7074,-60.4773 142.1242,-62.4111 141.0566,-55.493"/>
</g>
<!-- Node0 -->
<g id="node3" class="node">
<title>Node0</title>
<g id="a_node3"><a xlink:href="classmty_1_1doc_1_1CheckPoint__Implementation.html" target="_top" xlink:title="mty::doc::CheckPoint\l_Implementation\&lt; csl\l::Expr \&gt;">
<polygon fill="#ffffff" stroke="#000000" points="14,-.5 14,-41.5 126,-41.5 126,-.5 14,-.5"/>
<text text-anchor="start" x="22" y="-29.5" font-family="Helvetica,sans-Serif" font-size="10.00" fill="#000000">mty::doc::CheckPoint</text>
<text text-anchor="start" x="22" y="-18.5" font-family="Helvetica,sans-Serif" font-size="10.00" fill="#000000">_Implementation&lt; csl</text>
<text text-anchor="middle" x="70" y="-7.5" font-family="Helvetica,sans-Serif" font-size="10.00" fill="#000000">::Expr &gt;</text>
</a>
</g>
</g>
<!-- Node0&#45;&gt;Node1 -->
<g id="edge2" class="edge">
<title>Node0&#45;&gt;Node1</title>
<path fill="none" stroke="#191970" d="M136.1606,-30.8016C149.3497,-32.7555 163.0822,-34.79 175.8943,-36.688"/>
<polygon fill="#191970" stroke="#191970" points="136.6101,-27.33 126.2051,-29.3267 135.5842,-34.2545 136.6101,-27.33"/>
</g>
</g>
</svg>
