<?xml version="1.0" encoding="UTF-8" standalone="no"?>
<!DOCTYPE svg PUBLIC "-//W3C//DTD SVG 1.1//EN"
 "http://www.w3.org/Graphics/SVG/1.1/DTD/svg11.dtd">
<!-- Generated by graphviz version 2.40.1 (20161225.0304)
 -->
<!-- Title: Graphical Class Hierarchy Pages: 1 -->
<svg width="202pt" height="66pt"
 viewBox="0.00 0.00 202.00 66.00" xmlns="http://www.w3.org/2000/svg" xmlns:xlink="http://www.w3.org/1999/xlink">
<g id="graph0" class="graph" transform="scale(1 1) rotate(0) translate(4 62)">
<title>Graphical Class Hierarchy</title>
<polygon fill="#ffffff" stroke="transparent" points="-4,4 -4,-62 198,-62 198,4 -4,4"/>
<!-- Node0 -->
<g id="node1" class="node">
<title>Node0</title>
<g id="a_node1"><a doxygen="/home/uhlrich/Bureau/MARTY/newlife/marty-dev/csl/csl.tag:../../csl/html/" xlink:href="../../csl/html/classcsl_1_1Space.html" target="_top" xlink:title="csl::Space">
<polygon fill="#ffffff" stroke="#000000" points="0,-19.5 0,-38.5 63,-38.5 63,-19.5 0,-19.5"/>
<text text-anchor="middle" x="31.5" y="-26.5" font-family="Helvetica,sans-Serif" font-size="10.00" fill="#000000">csl::Space</text>
</a>
</g>
</g>
<!-- Node1 -->
<g id="node2" class="node">
<title>Node1</title>
<g id="a_node2"><a xlink:href="classcolor_1_1ColorSpace.html" target="_top" xlink:title="Class inherited from csl::Space that is used for vector spaces of group representations, in particular for generators. ">
<polygon fill="#ffffff" stroke="#000000" points="99,-38.5 99,-57.5 194,-57.5 194,-38.5 99,-38.5"/>
<text text-anchor="middle" x="146.5" y="-45.5" font-family="Helvetica,sans-Serif" font-size="10.00" fill="#000000">color::ColorSpace</text>
</a>
</g>
</g>
<!-- Node0&#45;&gt;Node1 -->
<g id="edge1" class="edge">
<title>Node0&#45;&gt;Node1</title>
<path fill="none" stroke="#191970" d="M73.1464,-35.8807C81.5184,-37.2639 90.3768,-38.7275 98.9326,-40.141"/>
<polygon fill="#191970" stroke="#191970" points="73.6655,-32.4191 63.2287,-34.2421 72.5244,-39.3255 73.6655,-32.4191"/>
</g>
<!-- Node2 -->
<g id="node3" class="node">
<title>Node2</title>
<g id="a_node3"><a xlink:href="classmty_1_1DiracSpace.html" target="_top" xlink:title="mty::DiracSpace">
<polygon fill="#ffffff" stroke="#000000" points="101.5,-.5 101.5,-19.5 191.5,-19.5 191.5,-.5 101.5,-.5"/>
<text text-anchor="middle" x="146.5" y="-7.5" font-family="Helvetica,sans-Serif" font-size="10.00" fill="#000000">mty::DiracSpace</text>
</a>
</g>
</g>
<!-- Node0&#45;&gt;Node2 -->
<g id="edge2" class="edge">
<title>Node0&#45;&gt;Node2</title>
<path fill="none" stroke="#191970" d="M73.1763,-22.1143C82.249,-20.6154 91.8917,-19.0222 101.1006,-17.5008"/>
<polygon fill="#191970" stroke="#191970" points="72.5244,-18.6745 63.2287,-23.7579 73.6655,-25.5809 72.5244,-18.6745"/>
</g>
</g>
</svg>
