<?xml version="1.0" encoding="UTF-8" standalone="no"?>
<!DOCTYPE svg PUBLIC "-//W3C//DTD SVG 1.1//EN"
 "http://www.w3.org/Graphics/SVG/1.1/DTD/svg11.dtd">
<!-- Generated by graphviz version 2.40.1 (20161225.0304)
 -->
<!-- Title: Graphical Class Hierarchy Pages: 1 -->
<svg width="192pt" height="180pt"
 viewBox="0.00 0.00 192.00 180.00" xmlns="http://www.w3.org/2000/svg" xmlns:xlink="http://www.w3.org/1999/xlink">
<g id="graph0" class="graph" transform="scale(1 1) rotate(0) translate(4 176)">
<title>Graphical Class Hierarchy</title>
<polygon fill="#ffffff" stroke="transparent" points="-4,4 -4,-176 188,-176 188,4 -4,4"/>
<!-- Node45 -->
<g id="node1" class="node">
<title>Node45</title>
<polygon fill="#ffffff" stroke="#bfbfbf" points="0,-76.5 0,-95.5 55,-95.5 55,-76.5 0,-76.5"/>
<text text-anchor="middle" x="27.5" y="-83.5" font-family="Helvetica,sans-Serif" font-size="10.00" fill="#000000">QWidget</text>
</g>
<!-- Node0 -->
<g id="node2" class="node">
<title>Node0</title>
<g id="a_node2"><a xlink:href="classDiagramRenderer.html" target="_top" xlink:title="DiagramRenderer">
<polygon fill="#ffffff" stroke="#000000" points="91,-152.5 91,-171.5 184,-171.5 184,-152.5 91,-152.5"/>
<text text-anchor="middle" x="137.5" y="-159.5" font-family="Helvetica,sans-Serif" font-size="10.00" fill="#000000">DiagramRenderer</text>
</a>
</g>
</g>
<!-- Node45&#45;&gt;Node0 -->
<g id="edge1" class="edge">
<title>Node45&#45;&gt;Node0</title>
<path fill="none" stroke="#191970" d="M43.2689,-103.0076C55.4039,-115.3461 73.0814,-131.7733 91,-143 96.7643,-146.6116 103.3328,-149.7862 109.6803,-152.4548"/>
<polygon fill="#191970" stroke="#191970" points="45.5969,-100.3785 36.1481,-95.5856 40.5457,-105.2247 45.5969,-100.3785"/>
</g>
<!-- Node47 -->
<g id="node3" class="node">
<title>Node47</title>
<g id="a_node3"><a xlink:href="classEdgeForm.html" target="_top" xlink:title="EdgeForm">
<polygon fill="#ffffff" stroke="#000000" points="106.5,-114.5 106.5,-133.5 168.5,-133.5 168.5,-114.5 106.5,-114.5"/>
<text text-anchor="middle" x="137.5" y="-121.5" font-family="Helvetica,sans-Serif" font-size="10.00" fill="#000000">EdgeForm</text>
</a>
</g>
</g>
<!-- Node45&#45;&gt;Node47 -->
<g id="edge2" class="edge">
<title>Node45&#45;&gt;Node47</title>
<path fill="none" stroke="#191970" d="M65.0499,-98.9718C79.7049,-104.0344 96.2039,-109.7341 109.7512,-114.4141"/>
<polygon fill="#191970" stroke="#191970" points="65.8524,-95.5461 55.2576,-95.589 63.5667,-102.1624 65.8524,-95.5461"/>
</g>
<!-- Node48 -->
<g id="node4" class="node">
<title>Node48</title>
<g id="a_node4"><a xlink:href="classMainWidget.html" target="_top" xlink:title="MainWidget">
<polygon fill="#ffffff" stroke="#000000" points="103.5,-76.5 103.5,-95.5 171.5,-95.5 171.5,-76.5 103.5,-76.5"/>
<text text-anchor="middle" x="137.5" y="-83.5" font-family="Helvetica,sans-Serif" font-size="10.00" fill="#000000">MainWidget</text>
</a>
</g>
</g>
<!-- Node45&#45;&gt;Node48 -->
<g id="edge3" class="edge">
<title>Node45&#45;&gt;Node48</title>
<path fill="none" stroke="#191970" d="M65.2953,-86C77.6829,-86 91.3652,-86 103.458,-86"/>
<polygon fill="#191970" stroke="#191970" points="65.2577,-82.5001 55.2576,-86 65.2576,-89.5001 65.2577,-82.5001"/>
</g>
<!-- Node49 -->
<g id="node5" class="node">
<title>Node49</title>
<g id="a_node5"><a xlink:href="classNodeForm.html" target="_top" xlink:title="NodeForm">
<polygon fill="#ffffff" stroke="#000000" points="106.5,-38.5 106.5,-57.5 168.5,-57.5 168.5,-38.5 106.5,-38.5"/>
<text text-anchor="middle" x="137.5" y="-45.5" font-family="Helvetica,sans-Serif" font-size="10.00" fill="#000000">NodeForm</text>
</a>
</g>
</g>
<!-- Node45&#45;&gt;Node49 -->
<g id="edge4" class="edge">
<title>Node45&#45;&gt;Node49</title>
<path fill="none" stroke="#191970" d="M65.0499,-73.0282C79.7049,-67.9656 96.2039,-62.2659 109.7512,-57.5859"/>
<polygon fill="#191970" stroke="#191970" points="63.5667,-69.8376 55.2576,-76.411 65.8524,-76.4539 63.5667,-69.8376"/>
</g>
<!-- Node50 -->
<g id="node6" class="node">
<title>Node50</title>
<g id="a_node6"><a xlink:href="classToolBar.html" target="_top" xlink:title="ToolBar">
<polygon fill="#ffffff" stroke="#000000" points="112.5,-.5 112.5,-19.5 162.5,-19.5 162.5,-.5 112.5,-.5"/>
<text text-anchor="middle" x="137.5" y="-7.5" font-family="Helvetica,sans-Serif" font-size="10.00" fill="#000000">ToolBar</text>
</a>
</g>
</g>
<!-- Node45&#45;&gt;Node50 -->
<g id="edge5" class="edge">
<title>Node45&#45;&gt;Node50</title>
<path fill="none" stroke="#191970" d="M43.2689,-68.9924C55.4039,-56.6539 73.0814,-40.2267 91,-29 97.5033,-24.9254 105.0302,-21.407 112.1086,-18.5438"/>
<polygon fill="#191970" stroke="#191970" points="40.5457,-66.7753 36.1481,-76.4144 45.5969,-71.6215 40.5457,-66.7753"/>
</g>
</g>
</svg>
