<?xml version="1.0" encoding="UTF-8" standalone="no"?>
<!DOCTYPE svg PUBLIC "-//W3C//DTD SVG 1.1//EN"
 "http://www.w3.org/Graphics/SVG/1.1/DTD/svg11.dtd">
<!-- Generated by graphviz version 2.40.1 (20161225.0304)
 -->
<!-- Title: Graphical Class Hierarchy Pages: 1 -->
<svg width="259pt" height="88pt"
 viewBox="0.00 0.00 259.00 88.00" xmlns="http://www.w3.org/2000/svg" xmlns:xlink="http://www.w3.org/1999/xlink">
<g id="graph0" class="graph" transform="scale(1 1) rotate(0) translate(4 84)">
<title>Graphical Class Hierarchy</title>
<polygon fill="#ffffff" stroke="transparent" points="-4,4 -4,-84 255,-84 255,4 -4,4"/>
<!-- Node0 -->
<g id="node1" class="node">
<title>Node0</title>
<g id="a_node1"><a xlink:href="classdrawer_1_1Base__iterable.html" target="_top" xlink:title="drawer::Base_iterable\l\&lt; T1, T2 \&gt;">
<polygon fill="#ffffff" stroke="#000000" points="0,-24.5 0,-54.5 111,-54.5 111,-24.5 0,-24.5"/>
<text text-anchor="start" x="8" y="-42.5" font-family="Helvetica,sans-Serif" font-size="10.00" fill="#000000">drawer::Base_iterable</text>
<text text-anchor="middle" x="55.5" y="-31.5" font-family="Helvetica,sans-Serif" font-size="10.00" fill="#000000">&lt; T1, T2 &gt;</text>
</a>
</g>
</g>
<!-- Node1 -->
<g id="node2" class="node">
<title>Node1</title>
<g id="a_node2"><a xlink:href="classdrawer_1_1Matrix.html" target="_top" xlink:title="drawer::Matrix\&lt; T1,\l T2 \&gt;">
<polygon fill="#ffffff" stroke="#000000" points="148,-49.5 148,-79.5 250,-79.5 250,-49.5 148,-49.5"/>
<text text-anchor="start" x="156" y="-67.5" font-family="Helvetica,sans-Serif" font-size="10.00" fill="#000000">drawer::Matrix&lt; T1,</text>
<text text-anchor="middle" x="199" y="-56.5" font-family="Helvetica,sans-Serif" font-size="10.00" fill="#000000"> T2 &gt;</text>
</a>
</g>
</g>
<!-- Node0&#45;&gt;Node1 -->
<g id="edge1" class="edge">
<title>Node0&#45;&gt;Node1</title>
<path fill="none" stroke="#191970" d="M121.3139,-50.9658C130.1737,-52.5093 139.1549,-54.074 147.7124,-55.5649"/>
<polygon fill="#191970" stroke="#191970" points="121.8441,-47.5056 111.3917,-49.2372 120.6426,-54.4017 121.8441,-47.5056"/>
</g>
<!-- Node2 -->
<g id="node3" class="node">
<title>Node2</title>
<g id="a_node3"><a xlink:href="classdrawer_1_1Vector.html" target="_top" xlink:title="drawer::Vector\&lt; T1,\l T2 \&gt;">
<polygon fill="#ffffff" stroke="#000000" points="147,-.5 147,-30.5 251,-30.5 251,-.5 147,-.5"/>
<text text-anchor="start" x="155" y="-18.5" font-family="Helvetica,sans-Serif" font-size="10.00" fill="#000000">drawer::Vector&lt; T1,</text>
<text text-anchor="middle" x="199" y="-7.5" font-family="Helvetica,sans-Serif" font-size="10.00" fill="#000000"> T2 &gt;</text>
</a>
</g>
</g>
<!-- Node0&#45;&gt;Node2 -->
<g id="edge2" class="edge">
<title>Node0&#45;&gt;Node2</title>
<path fill="none" stroke="#191970" d="M121.329,-28.4903C129.8629,-27.063 138.5094,-25.6169 146.7809,-24.2335"/>
<polygon fill="#191970" stroke="#191970" points="120.6774,-25.0506 111.3917,-30.1523 121.8321,-31.9547 120.6774,-25.0506"/>
</g>
</g>
</svg>
