<?xml version="1.0" encoding="UTF-8" standalone="no"?>
<!DOCTYPE svg PUBLIC "-//W3C//DTD SVG 1.1//EN"
 "http://www.w3.org/Graphics/SVG/1.1/DTD/svg11.dtd">
<!-- Generated by graphviz version 2.40.1 (20161225.0304)
 -->
<!-- Title: Graphical Class Hierarchy Pages: 1 -->
<svg width="176pt" height="66pt"
 viewBox="0.00 0.00 176.00 66.00" xmlns="http://www.w3.org/2000/svg" xmlns:xlink="http://www.w3.org/1999/xlink">
<g id="graph0" class="graph" transform="scale(1 1) rotate(0) translate(4 62)">
<title>Graphical Class Hierarchy</title>
<polygon fill="#ffffff" stroke="transparent" points="-4,4 -4,-62 172,-62 172,4 -4,4"/>
<!-- Node62 -->
<g id="node1" class="node">
<title>Node62</title>
<polygon fill="#ffffff" stroke="#bfbfbf" points="0,-19.5 0,-38.5 92,-38.5 92,-19.5 0,-19.5"/>
<text text-anchor="middle" x="46" y="-26.5" font-family="Helvetica,sans-Serif" font-size="10.00" fill="#000000">QGraphicsObject</text>
</g>
<!-- Node0 -->
<g id="node2" class="node">
<title>Node0</title>
<g id="a_node2"><a xlink:href="classEdge.html" target="_top" xlink:title="Edge">
<polygon fill="#ffffff" stroke="#000000" points="128.5,-38.5 128.5,-57.5 167.5,-57.5 167.5,-38.5 128.5,-38.5"/>
<text text-anchor="middle" x="148" y="-45.5" font-family="Helvetica,sans-Serif" font-size="10.00" fill="#000000">Edge</text>
</a>
</g>
</g>
<!-- Node62&#45;&gt;Node0 -->
<g id="edge1" class="edge">
<title>Node62&#45;&gt;Node0</title>
<path fill="none" stroke="#191970" d="M102.1158,-39.4529C111.5776,-41.2154 120.8022,-42.9337 128.4691,-44.3619"/>
<polygon fill="#191970" stroke="#191970" points="102.6968,-36.001 92.225,-37.6105 101.4149,-42.8827 102.6968,-36.001"/>
</g>
<!-- Node64 -->
<g id="node3" class="node">
<title>Node64</title>
<g id="a_node3"><a xlink:href="classNode.html" target="_top" xlink:title="Node">
<polygon fill="#ffffff" stroke="#000000" points="128,-.5 128,-19.5 168,-19.5 168,-.5 128,-.5"/>
<text text-anchor="middle" x="148" y="-7.5" font-family="Helvetica,sans-Serif" font-size="10.00" fill="#000000">Node</text>
</a>
</g>
</g>
<!-- Node62&#45;&gt;Node64 -->
<g id="edge2" class="edge">
<title>Node62&#45;&gt;Node64</title>
<path fill="none" stroke="#191970" d="M102.2466,-18.5227C111.452,-16.808 120.4269,-15.1362 127.9546,-13.7339"/>
<polygon fill="#191970" stroke="#191970" points="101.4149,-15.1173 92.225,-20.3895 102.6968,-21.999 101.4149,-15.1173"/>
</g>
</g>
</svg>
