<?xml version="1.0" encoding="UTF-8" standalone="no"?>
<!DOCTYPE svg PUBLIC "-//W3C//DTD SVG 1.1//EN"
 "http://www.w3.org/Graphics/SVG/1.1/DTD/svg11.dtd">
<!-- Generated by graphviz version 2.40.1 (20161225.0304)
 -->
<!-- Title: Graphical Class Hierarchy Pages: 1 -->
<svg width="371pt" height="66pt"
 viewBox="0.00 0.00 371.00 66.00" xmlns="http://www.w3.org/2000/svg" xmlns:xlink="http://www.w3.org/1999/xlink">
<g id="graph0" class="graph" transform="scale(1 1) rotate(0) translate(4 62)">
<title>Graphical Class Hierarchy</title>
<polygon fill="#ffffff" stroke="transparent" points="-4,4 -4,-62 367,-62 367,4 -4,4"/>
<!-- Node0 -->
<g id="node1" class="node">
<title>Node0</title>
<g id="a_node1"><a xlink:href="classJSON_1_1Object.html" target="_top" xlink:title="Abstract object in JSON tree structure. Can be specialized either in Node or in Leaf&lt;T&gt; with a specif...">
<polygon fill="#ffffff" stroke="#000000" points="0,-19.5 0,-38.5 78,-38.5 78,-19.5 0,-19.5"/>
<text text-anchor="middle" x="39" y="-26.5" font-family="Helvetica,sans-Serif" font-size="10.00" fill="#000000">JSON::Object</text>
</a>
</g>
</g>
<!-- Node1 -->
<g id="node2" class="node">
<title>Node1</title>
<g id="a_node2"><a xlink:href="classJSON_1_1AbstractLeaf.html" target="_top" xlink:title="Abstract class inherited from Object, from which all leafs will derive. This class only contains a pu...">
<polygon fill="#ffffff" stroke="#000000" points="114,-38.5 114,-57.5 219,-57.5 219,-38.5 114,-38.5"/>
<text text-anchor="middle" x="166.5" y="-45.5" font-family="Helvetica,sans-Serif" font-size="10.00" fill="#000000">JSON::AbstractLeaf</text>
</a>
</g>
</g>
<!-- Node0&#45;&gt;Node1 -->
<g id="edge1" class="edge">
<title>Node0&#45;&gt;Node1</title>
<path fill="none" stroke="#191970" d="M88.3252,-36.3504C96.7263,-37.6024 105.4803,-38.9069 113.9609,-40.1706"/>
<polygon fill="#191970" stroke="#191970" points="88.7012,-32.8679 78.2946,-34.8557 87.6694,-39.7914 88.7012,-32.8679"/>
</g>
<!-- Node3 -->
<g id="node4" class="node">
<title>Node3</title>
<g id="a_node4"><a xlink:href="classJSON_1_1Node.html" target="_top" xlink:title="Inherits from JSON::Object, specialized in JSON Node. A Node owns a vector of Object. The Node&#39;s children can either be Leaf or other Node objects. This allows to store the tree structure of a .json file. ">
<polygon fill="#ffffff" stroke="#000000" points="130,-.5 130,-19.5 203,-19.5 203,-.5 130,-.5"/>
<text text-anchor="middle" x="166.5" y="-7.5" font-family="Helvetica,sans-Serif" font-size="10.00" fill="#000000">JSON::Node</text>
</a>
</g>
</g>
<!-- Node0&#45;&gt;Node3 -->
<g id="edge3" class="edge">
<title>Node0&#45;&gt;Node3</title>
<path fill="none" stroke="#191970" d="M88.5518,-21.6158C102.2591,-19.5731 116.8891,-17.393 129.7287,-15.4797"/>
<polygon fill="#191970" stroke="#191970" points="87.6694,-18.2086 78.2946,-23.1443 88.7012,-25.1321 87.6694,-18.2086"/>
</g>
<!-- Node2 -->
<g id="node3" class="node">
<title>Node2</title>
<g id="a_node3"><a xlink:href="classJSON_1_1Leaf.html" target="_top" xlink:title="Template class inherited from Object that stores a parameter of a .json file. This class does not hav...">
<polygon fill="#ffffff" stroke="#000000" points="255,-38.5 255,-57.5 363,-57.5 363,-38.5 255,-38.5"/>
<text text-anchor="middle" x="309" y="-45.5" font-family="Helvetica,sans-Serif" font-size="10.00" fill="#000000">JSON::Leaf&lt; Type &gt;</text>
</a>
</g>
</g>
<!-- Node1&#45;&gt;Node2 -->
<g id="edge2" class="edge">
<title>Node1&#45;&gt;Node2</title>
<path fill="none" stroke="#191970" d="M229.3389,-48C237.7778,-48 246.3763,-48 254.652,-48"/>
<polygon fill="#191970" stroke="#191970" points="229.1569,-44.5001 219.1569,-48 229.1568,-51.5001 229.1569,-44.5001"/>
</g>
<!-- Node4 -->
<g id="node5" class="node">
<title>Node4</title>
<g id="a_node5"><a xlink:href="classJSON_1_1List.html" target="_top" xlink:title="A List is a particular Node of which all children are of the same type and have the same specifier...">
<polygon fill="#ffffff" stroke="#000000" points="276.5,-.5 276.5,-19.5 341.5,-19.5 341.5,-.5 276.5,-.5"/>
<text text-anchor="middle" x="309" y="-7.5" font-family="Helvetica,sans-Serif" font-size="10.00" fill="#000000">JSON::List</text>
</a>
</g>
</g>
<!-- Node3&#45;&gt;Node4 -->
<g id="edge4" class="edge">
<title>Node3&#45;&gt;Node4</title>
<path fill="none" stroke="#191970" d="M213.3385,-10C233.948,-10 257.6573,-10 276.316,-10"/>
<polygon fill="#191970" stroke="#191970" points="213.1973,-6.5001 203.1973,-10 213.1973,-13.5001 213.1973,-6.5001"/>
</g>
</g>
</svg>
