<?xml version="1.0" encoding="UTF-8" standalone="no"?>
<!DOCTYPE svg PUBLIC "-//W3C//DTD SVG 1.1//EN"
 "http://www.w3.org/Graphics/SVG/1.1/DTD/svg11.dtd">
<!-- Generated by graphviz version 2.40.1 (20161225.0304)
 -->
<!-- Title: Graphical Class Hierarchy Pages: 1 -->
<svg width="1126pt" height="161pt"
 viewBox="0.00 0.00 1126.00 161.00" xmlns="http://www.w3.org/2000/svg" xmlns:xlink="http://www.w3.org/1999/xlink">
<g id="graph0" class="graph" transform="scale(1 1) rotate(0) translate(4 157)">
<title>Graphical Class Hierarchy</title>
<polygon fill="#ffffff" stroke="transparent" points="-4,4 -4,-157 1122,-157 1122,4 -4,4"/>
<!-- Node0 -->
<g id="node1" class="node">
<title>Node0</title>
<g id="a_node1"><a doxygen="/home/uhlrich/Bureau/MARTY/newlife/marty-dev/csl/csl.tag:../../csl/html/" xlink:href="../../csl/html/classcsl_1_1Abstract.html" target="_top" xlink:title="csl::Abstract">
<polygon fill="#ffffff" stroke="#000000" points="0,-76.5 0,-95.5 72,-95.5 72,-76.5 0,-76.5"/>
<text text-anchor="middle" x="36" y="-83.5" font-family="Helvetica,sans-Serif" font-size="10.00" fill="#000000">csl::Abstract</text>
</a>
</g>
</g>
<!-- Node1 -->
<g id="node2" class="node">
<title>Node1</title>
<g id="a_node2"><a doxygen="/home/uhlrich/Bureau/MARTY/newlife/marty-dev/csl/csl.tag:../../csl/html/" xlink:href="../../csl/html/classcsl_1_1AbstractBuildingBlock.html" target="_top" xlink:title="csl::AbstractBuildingBlock">
<polygon fill="#ffffff" stroke="#000000" points="108,-114.5 108,-133.5 239,-133.5 239,-114.5 108,-114.5"/>
<text text-anchor="middle" x="173.5" y="-121.5" font-family="Helvetica,sans-Serif" font-size="10.00" fill="#000000">csl::AbstractBuildingBlock</text>
</a>
</g>
</g>
<!-- Node0&#45;&gt;Node1 -->
<g id="edge1" class="edge">
<title>Node0&#45;&gt;Node1</title>
<path fill="none" stroke="#191970" d="M80.5729,-98.3183C99.4645,-103.5393 121.1472,-109.5316 138.814,-114.4141"/>
<polygon fill="#191970" stroke="#191970" points="81.2681,-94.8793 70.6971,-95.589 79.4034,-101.6264 81.2681,-94.8793"/>
</g>
<!-- Node9 -->
<g id="node10" class="node">
<title>Node9</title>
<g id="a_node10"><a doxygen="/home/uhlrich/Bureau/MARTY/newlife/marty-dev/csl/csl.tag:../../csl/html/" xlink:href="../../csl/html/classcsl_1_1AbstractDuoFunc.html" target="_top" xlink:title="csl::AbstractDuoFunc">
<polygon fill="#ffffff" stroke="#000000" points="117.5,-76.5 117.5,-95.5 229.5,-95.5 229.5,-76.5 117.5,-76.5"/>
<text text-anchor="middle" x="173.5" y="-83.5" font-family="Helvetica,sans-Serif" font-size="10.00" fill="#000000">csl::AbstractDuoFunc</text>
</a>
</g>
</g>
<!-- Node0&#45;&gt;Node9 -->
<g id="edge9" class="edge">
<title>Node0&#45;&gt;Node9</title>
<path fill="none" stroke="#191970" d="M82.1991,-86C93.4908,-86 105.6952,-86 117.3938,-86"/>
<polygon fill="#191970" stroke="#191970" points="82.1265,-82.5001 72.1265,-86 82.1265,-89.5001 82.1265,-82.5001"/>
</g>
<!-- Node11 -->
<g id="node12" class="node">
<title>Node11</title>
<g id="a_node12"><a doxygen="/home/uhlrich/Bureau/MARTY/newlife/marty-dev/csl/csl.tag:../../csl/html/" xlink:href="../../csl/html/classcsl_1_1AbstractMultiFunc.html" target="_top" xlink:title="csl::AbstractMultiFunc">
<polygon fill="#ffffff" stroke="#000000" points="116,-38.5 116,-57.5 231,-57.5 231,-38.5 116,-38.5"/>
<text text-anchor="middle" x="173.5" y="-45.5" font-family="Helvetica,sans-Serif" font-size="10.00" fill="#000000">csl::AbstractMultiFunc</text>
</a>
</g>
</g>
<!-- Node0&#45;&gt;Node11 -->
<g id="edge11" class="edge">
<title>Node0&#45;&gt;Node11</title>
<path fill="none" stroke="#191970" d="M80.5729,-73.6817C99.4645,-68.4607 121.1472,-62.4684 138.814,-57.5859"/>
<polygon fill="#191970" stroke="#191970" points="79.4034,-70.3736 70.6971,-76.411 81.2681,-77.1207 79.4034,-70.3736"/>
</g>
<!-- Node2 -->
<g id="node3" class="node">
<title>Node2</title>
<g id="a_node3"><a doxygen="/home/uhlrich/Bureau/MARTY/newlife/marty-dev/csl/csl.tag:../../csl/html/" xlink:href="../../csl/html/classcsl_1_1Complexified.html" target="_top" xlink:title="csl::Complexified">
<polygon fill="#ffffff" stroke="#000000" points="289.5,-114.5 289.5,-133.5 381.5,-133.5 381.5,-114.5 289.5,-114.5"/>
<text text-anchor="middle" x="335.5" y="-121.5" font-family="Helvetica,sans-Serif" font-size="10.00" fill="#000000">csl::Complexified</text>
</a>
</g>
</g>
<!-- Node1&#45;&gt;Node2 -->
<g id="edge2" class="edge">
<title>Node1&#45;&gt;Node2</title>
<path fill="none" stroke="#191970" d="M249.6184,-124C263.0702,-124 276.7021,-124 289.0231,-124"/>
<polygon fill="#191970" stroke="#191970" points="249.3916,-120.5001 239.3916,-124 249.3916,-127.5001 249.3916,-120.5001"/>
</g>
<!-- Node3 -->
<g id="node4" class="node">
<title>Node3</title>
<g id="a_node4"><a doxygen="/home/uhlrich/Bureau/MARTY/newlife/marty-dev/csl/csl.tag:../../csl/html/" xlink:href="../../csl/html/classcsl_1_1AbstractElement.html" target="_top" xlink:title="csl::AbstractElement">
<polygon fill="#ffffff" stroke="#000000" points="432,-114.5 432,-133.5 540,-133.5 540,-114.5 432,-114.5"/>
<text text-anchor="middle" x="486" y="-121.5" font-family="Helvetica,sans-Serif" font-size="10.00" fill="#000000">csl::AbstractElement</text>
</a>
</g>
</g>
<!-- Node2&#45;&gt;Node3 -->
<g id="edge3" class="edge">
<title>Node2&#45;&gt;Node3</title>
<path fill="none" stroke="#191970" d="M392.1198,-124C405.1367,-124 418.9473,-124 431.8563,-124"/>
<polygon fill="#191970" stroke="#191970" points="391.883,-120.5001 381.883,-124 391.883,-127.5001 391.883,-120.5001"/>
</g>
<!-- Node4 -->
<g id="node5" class="node">
<title>Node4</title>
<g id="a_node5"><a doxygen="/home/uhlrich/Bureau/MARTY/newlife/marty-dev/csl/csl.tag:../../csl/html/" xlink:href="../../csl/html/classcsl_1_1TensorElement.html" target="_top" xlink:title="csl::TensorElement">
<polygon fill="#ffffff" stroke="#000000" points="576,-114.5 576,-133.5 677,-133.5 677,-114.5 576,-114.5"/>
<text text-anchor="middle" x="626.5" y="-121.5" font-family="Helvetica,sans-Serif" font-size="10.00" fill="#000000">csl::TensorElement</text>
</a>
</g>
</g>
<!-- Node3&#45;&gt;Node4 -->
<g id="edge4" class="edge">
<title>Node3&#45;&gt;Node4</title>
<path fill="none" stroke="#191970" d="M550.4858,-124C558.891,-124 567.407,-124 575.5481,-124"/>
<polygon fill="#191970" stroke="#191970" points="550.321,-120.5001 540.321,-124 550.3209,-127.5001 550.321,-120.5001"/>
</g>
<!-- Node5 -->
<g id="node6" class="node">
<title>Node5</title>
<g id="a_node6"><a doxygen="/home/uhlrich/Bureau/MARTY/newlife/marty-dev/csl/csl.tag:../../csl/html/" xlink:href="../../csl/html/classcsl_1_1TensorFieldElement.html" target="_top" xlink:title="csl::TensorFieldElement">
<polygon fill="#ffffff" stroke="#000000" points="713,-133.5 713,-152.5 835,-152.5 835,-133.5 713,-133.5"/>
<text text-anchor="middle" x="774" y="-140.5" font-family="Helvetica,sans-Serif" font-size="10.00" fill="#000000">csl::TensorFieldElement</text>
</a>
</g>
</g>
<!-- Node4&#45;&gt;Node5 -->
<g id="edge5" class="edge">
<title>Node4&#45;&gt;Node5</title>
<path fill="none" stroke="#191970" d="M687.4105,-131.8461C695.8506,-132.9333 704.5223,-134.0503 712.9647,-135.1378"/>
<polygon fill="#191970" stroke="#191970" points="687.6264,-128.3451 677.2611,-130.5387 686.732,-135.2877 687.6264,-128.3451"/>
</g>
<!-- Node8 -->
<g id="node9" class="node">
<title>Node8</title>
<g id="a_node9"><a xlink:href="classmty_1_1GeneratorElement.html" target="_top" xlink:title="mty::GeneratorElement">
<polygon fill="#ffffff" stroke="#000000" points="715,-95.5 715,-114.5 833,-114.5 833,-95.5 715,-95.5"/>
<text text-anchor="middle" x="774" y="-102.5" font-family="Helvetica,sans-Serif" font-size="10.00" fill="#000000">mty::GeneratorElement</text>
</a>
</g>
</g>
<!-- Node4&#45;&gt;Node8 -->
<g id="edge8" class="edge">
<title>Node4&#45;&gt;Node8</title>
<path fill="none" stroke="#191970" d="M687.348,-116.162C696.4099,-114.9947 705.7401,-113.7928 714.7681,-112.6299"/>
<polygon fill="#191970" stroke="#191970" points="686.732,-112.7123 677.2611,-117.4613 687.6264,-119.6549 686.732,-112.7123"/>
</g>
<!-- Node6 -->
<g id="node7" class="node">
<title>Node6</title>
<g id="a_node7"><a xlink:href="classmty_1_1QuantumField.html" target="_top" xlink:title="Class deriving from csl::TensorFieldElement, may enter expressions. In contrary to QuantumFieldParent...">
<polygon fill="#ffffff" stroke="#000000" points="871,-133.5 871,-152.5 971,-152.5 971,-133.5 871,-133.5"/>
<text text-anchor="middle" x="921" y="-140.5" font-family="Helvetica,sans-Serif" font-size="10.00" fill="#000000">mty::QuantumField</text>
</a>
</g>
</g>
<!-- Node5&#45;&gt;Node6 -->
<g id="edge6" class="edge">
<title>Node5&#45;&gt;Node6</title>
<path fill="none" stroke="#191970" d="M845.1245,-143C853.7356,-143 862.3903,-143 870.615,-143"/>
<polygon fill="#191970" stroke="#191970" points="845.0642,-139.5001 835.0642,-143 845.0641,-146.5001 845.0642,-139.5001"/>
</g>
<!-- Node7 -->
<g id="node8" class="node">
<title>Node7</title>
<g id="a_node8"><a xlink:href="classmty_1_1PolarizationField.html" target="_top" xlink:title="Representing polarization vectors in equations. Allows to compute polarization sums in cross&#45;sections...">
<polygon fill="#ffffff" stroke="#000000" points="1007,-133.5 1007,-152.5 1118,-152.5 1118,-133.5 1007,-133.5"/>
<text text-anchor="middle" x="1062.5" y="-140.5" font-family="Helvetica,sans-Serif" font-size="10.00" fill="#000000">mty::PolarizationField</text>
</a>
</g>
</g>
<!-- Node6&#45;&gt;Node7 -->
<g id="edge7" class="edge">
<title>Node6&#45;&gt;Node7</title>
<path fill="none" stroke="#191970" d="M981.3689,-143C989.7422,-143 998.3139,-143 1006.6008,-143"/>
<polygon fill="#191970" stroke="#191970" points="981.2861,-139.5001 971.286,-143 981.286,-146.5001 981.2861,-139.5001"/>
</g>
<!-- Node10 -->
<g id="node11" class="node">
<title>Node10</title>
<g id="a_node11"><a xlink:href="classmty_1_1FermionPropStruct.html" target="_top" xlink:title="mty::FermionPropStruct">
<polygon fill="#ffffff" stroke="#000000" points="275,-76.5 275,-95.5 396,-95.5 396,-76.5 275,-76.5"/>
<text text-anchor="middle" x="335.5" y="-83.5" font-family="Helvetica,sans-Serif" font-size="10.00" fill="#000000">mty::FermionPropStruct</text>
</a>
</g>
</g>
<!-- Node9&#45;&gt;Node10 -->
<g id="edge10" class="edge">
<title>Node9&#45;&gt;Node10</title>
<path fill="none" stroke="#191970" d="M239.8017,-86C251.4425,-86 263.5023,-86 274.9756,-86"/>
<polygon fill="#191970" stroke="#191970" points="239.7051,-82.5001 229.7051,-86 239.7051,-89.5001 239.7051,-82.5001"/>
</g>
<!-- Node12 -->
<g id="node13" class="node">
<title>Node12</title>
<g id="a_node13"><a xlink:href="classmty_1_1FeynmanIntegral.html" target="_top" xlink:title="mty::FeynmanIntegral">
<polygon fill="#ffffff" stroke="#000000" points="279.5,-38.5 279.5,-57.5 391.5,-57.5 391.5,-38.5 279.5,-38.5"/>
<text text-anchor="middle" x="335.5" y="-45.5" font-family="Helvetica,sans-Serif" font-size="10.00" fill="#000000">mty::FeynmanIntegral</text>
</a>
</g>
</g>
<!-- Node11&#45;&gt;Node12 -->
<g id="edge12" class="edge">
<title>Node11&#45;&gt;Node12</title>
<path fill="none" stroke="#191970" d="M241.1747,-48C253.9252,-48 267.1286,-48 279.4741,-48"/>
<polygon fill="#191970" stroke="#191970" points="241.0713,-44.5001 231.0713,-48 241.0712,-51.5001 241.0713,-44.5001"/>
</g>
<!-- Node13 -->
<g id="node14" class="node">
<title>Node13</title>
<g id="a_node14"><a xlink:href="classmty_1_1Propagator.html" target="_top" xlink:title="mty::Propagator">
<polygon fill="#ffffff" stroke="#000000" points="292.5,-.5 292.5,-19.5 378.5,-19.5 378.5,-.5 292.5,-.5"/>
<text text-anchor="middle" x="335.5" y="-7.5" font-family="Helvetica,sans-Serif" font-size="10.00" fill="#000000">mty::Propagator</text>
</a>
</g>
</g>
<!-- Node11&#45;&gt;Node13 -->
<g id="edge13" class="edge">
<title>Node11&#45;&gt;Node13</title>
<path fill="none" stroke="#191970" d="M224.2148,-36.1039C246.9856,-30.7626 273.4867,-24.5463 294.9145,-19.5201"/>
<polygon fill="#191970" stroke="#191970" points="223.3159,-32.7197 214.3794,-38.411 224.9145,-39.5347 223.3159,-32.7197"/>
</g>
</g>
</svg>
