<?xml version="1.0" encoding="UTF-8" standalone="no"?>
<!DOCTYPE svg PUBLIC "-//W3C//DTD SVG 1.1//EN"
 "http://www.w3.org/Graphics/SVG/1.1/DTD/svg11.dtd">
<!-- Generated by graphviz version 2.40.1 (20161225.0304)
 -->
<!-- Title: Graphical Class Hierarchy Pages: 1 -->
<svg width="794pt" height="249pt"
 viewBox="0.00 0.00 794.00 249.00" xmlns="http://www.w3.org/2000/svg" xmlns:xlink="http://www.w3.org/1999/xlink">
<g id="graph0" class="graph" transform="scale(1 1) rotate(0) translate(4 245)">
<title>Graphical Class Hierarchy</title>
<polygon fill="#ffffff" stroke="transparent" points="-4,4 -4,-245 790,-245 790,4 -4,4"/>
<!-- Node92 -->
<g id="node1" class="node">
<title>Node92</title>
<g id="a_node1"><a xlink:href="classmty_1_1ModelData.html" target="_top" xlink:title="The class ModelData contains all the necessary features to store and manipulate the content of a mode...">
<polygon fill="#ffffff" stroke="#000000" points="0,-104.5 0,-123.5 86,-123.5 86,-104.5 0,-104.5"/>
<text text-anchor="middle" x="43" y="-111.5" font-family="Helvetica,sans-Serif" font-size="10.00" fill="#000000">mty::ModelData</text>
</a>
</g>
</g>
<!-- Node93 -->
<g id="node2" class="node">
<title>Node93</title>
<g id="a_node2"><a xlink:href="classmty_1_1ModelBuilder.html" target="_top" xlink:title="Class containing all model building features of MARTY. ">
<polygon fill="#ffffff" stroke="#000000" points="122,-104.5 122,-123.5 217,-123.5 217,-104.5 122,-104.5"/>
<text text-anchor="middle" x="169.5" y="-111.5" font-family="Helvetica,sans-Serif" font-size="10.00" fill="#000000">mty::ModelBuilder</text>
</a>
</g>
</g>
<!-- Node92&#45;&gt;Node93 -->
<g id="edge1" class="edge">
<title>Node92&#45;&gt;Node93</title>
<path fill="none" stroke="#191970" d="M96.3149,-114C104.7562,-114 113.4396,-114 121.7434,-114"/>
<polygon fill="#191970" stroke="#191970" points="96.1804,-110.5001 86.1803,-114 96.1803,-117.5001 96.1804,-110.5001"/>
</g>
<!-- Node94 -->
<g id="node3" class="node">
<title>Node94</title>
<g id="a_node3"><a xlink:href="classmty_1_1Model.html" target="_top" xlink:title="Contains all objects in the theory. In particular QuantumField objects, Gauge, Flavor, Particle... ">
<polygon fill="#ffffff" stroke="#000000" points="270.5,-104.5 270.5,-123.5 335.5,-123.5 335.5,-104.5 270.5,-104.5"/>
<text text-anchor="middle" x="303" y="-111.5" font-family="Helvetica,sans-Serif" font-size="10.00" fill="#000000">mty::Model</text>
</a>
</g>
</g>
<!-- Node93&#45;&gt;Node94 -->
<g id="edge2" class="edge">
<title>Node93&#45;&gt;Node94</title>
<path fill="none" stroke="#191970" d="M227.3315,-114C241.9793,-114 257.2106,-114 270.1351,-114"/>
<polygon fill="#191970" stroke="#191970" points="227.3195,-110.5001 217.3195,-114 227.3195,-117.5001 227.3195,-110.5001"/>
</g>
<!-- Node87 -->
<g id="node4" class="node">
<title>Node87</title>
<g id="a_node4"><a xlink:href="classmty_1_1MSSM__Model.html" target="_top" xlink:title="Base class for MSSM models. If taken as is, represents the unconstrained MSSM with 105 parameters (+S...">
<polygon fill="#ffffff" stroke="#000000" points="398,-202.5 398,-221.5 499,-221.5 499,-202.5 398,-202.5"/>
<text text-anchor="middle" x="448.5" y="-209.5" font-family="Helvetica,sans-Serif" font-size="10.00" fill="#000000">mty::MSSM_Model</text>
</a>
</g>
</g>
<!-- Node94&#45;&gt;Node87 -->
<g id="edge3" class="edge">
<title>Node94&#45;&gt;Node87</title>
<path fill="none" stroke="#191970" d="M323.6067,-129.9353C332.8251,-137.3058 343.6894,-146.3329 353,-155 370.0284,-170.8514 369.2984,-180.6274 389,-193 395.0608,-196.8062 401.9513,-199.9127 408.8409,-202.4273"/>
<polygon fill="#191970" stroke="#191970" points="325.7131,-127.139 315.6953,-123.6901 321.3758,-132.6334 325.7131,-127.139"/>
</g>
<!-- Node1 -->
<g id="node8" class="node">
<title>Node1</title>
<g id="a_node8"><a xlink:href="classmty_1_1PMSSM__LEM.html" target="_top" xlink:title="mty::PMSSM_LEM">
<polygon fill="#ffffff" stroke="#000000" points="398,-164.5 398,-183.5 499,-183.5 499,-164.5 398,-164.5"/>
<text text-anchor="middle" x="448.5" y="-171.5" font-family="Helvetica,sans-Serif" font-size="10.00" fill="#000000">mty::PMSSM_LEM</text>
</a>
</g>
</g>
<!-- Node94&#45;&gt;Node1 -->
<g id="edge7" class="edge">
<title>Node94&#45;&gt;Node1</title>
<path fill="none" stroke="#191970" d="M330.3064,-128.1886C347.0059,-136.5701 368.9448,-147.0598 389,-155 397.57,-158.393 407.0085,-161.6275 415.794,-164.4347"/>
<polygon fill="#191970" stroke="#191970" points="331.6346,-124.9378 321.1333,-123.5326 328.4663,-131.1798 331.6346,-124.9378"/>
</g>
<!-- Node95 -->
<g id="node9" class="node">
<title>Node95</title>
<g id="a_node9"><a xlink:href="classmty_1_1QCD__Model.html" target="_top" xlink:title="mty::QCD_Model">
<polygon fill="#ffffff" stroke="#000000" points="402,-38.5 402,-57.5 495,-57.5 495,-38.5 402,-38.5"/>
<text text-anchor="middle" x="448.5" y="-45.5" font-family="Helvetica,sans-Serif" font-size="10.00" fill="#000000">mty::QCD_Model</text>
</a>
</g>
</g>
<!-- Node94&#45;&gt;Node95 -->
<g id="edge8" class="edge">
<title>Node94&#45;&gt;Node95</title>
<path fill="none" stroke="#191970" d="M327.0759,-99.2213C343.9847,-89.2495 367.357,-76.2688 389,-67 397.1738,-63.4995 406.216,-60.2921 414.7316,-57.5492"/>
<polygon fill="#191970" stroke="#191970" points="325.1861,-96.2732 318.3992,-104.4089 328.7782,-102.2813 325.1861,-96.2732"/>
</g>
<!-- Node96 -->
<g id="node10" class="node">
<title>Node96</title>
<g id="a_node10"><a xlink:href="classmty_1_1QED__Model.html" target="_top" xlink:title="mty::QED_Model">
<polygon fill="#ffffff" stroke="#000000" points="402.5,-.5 402.5,-19.5 494.5,-19.5 494.5,-.5 402.5,-.5"/>
<text text-anchor="middle" x="448.5" y="-7.5" font-family="Helvetica,sans-Serif" font-size="10.00" fill="#000000">mty::QED_Model</text>
</a>
</g>
</g>
<!-- Node94&#45;&gt;Node96 -->
<g id="edge9" class="edge">
<title>Node94&#45;&gt;Node96</title>
<path fill="none" stroke="#191970" d="M316.4635,-96.4337C331.9991,-77.2939 359.2545,-47.0055 389,-29 395.3081,-25.1816 402.4631,-22.0511 409.5701,-19.5126"/>
<polygon fill="#191970" stroke="#191970" points="313.6509,-94.3476 310.1834,-104.359 319.1372,-98.6951 313.6509,-94.3476"/>
</g>
<!-- Node97 -->
<g id="node11" class="node">
<title>Node97</title>
<g id="a_node11"><a xlink:href="classmty_1_1SM__Model.html" target="_top" xlink:title="Standard Model of particle physics. ">
<polygon fill="#ffffff" stroke="#000000" points="405.5,-126.5 405.5,-145.5 491.5,-145.5 491.5,-126.5 405.5,-126.5"/>
<text text-anchor="middle" x="448.5" y="-133.5" font-family="Helvetica,sans-Serif" font-size="10.00" fill="#000000">mty::SM_Model</text>
</a>
</g>
</g>
<!-- Node94&#45;&gt;Node97 -->
<g id="edge10" class="edge">
<title>Node94&#45;&gt;Node97</title>
<path fill="none" stroke="#191970" d="M345.7309,-120.461C364.5466,-123.306 386.6111,-126.6422 405.4619,-129.4925"/>
<polygon fill="#191970" stroke="#191970" points="346.0639,-116.9717 335.653,-118.9372 345.0174,-123.893 346.0639,-116.9717"/>
</g>
<!-- Node98 -->
<g id="node12" class="node">
<title>Node98</title>
<g id="a_node12"><a xlink:href="classmty_1_1TwoHDM__Model.html" target="_top" xlink:title="mty::TwoHDM_Model\&lt;\l type \&gt;">
<polygon fill="#ffffff" stroke="#000000" points="389,-77 389,-107 508,-107 508,-77 389,-77"/>
<text text-anchor="start" x="397" y="-95" font-family="Helvetica,sans-Serif" font-size="10.00" fill="#000000">mty::TwoHDM_Model&lt;</text>
<text text-anchor="middle" x="448.5" y="-84" font-family="Helvetica,sans-Serif" font-size="10.00" fill="#000000"> type &gt;</text>
</a>
</g>
</g>
<!-- Node94&#45;&gt;Node98 -->
<g id="edge11" class="edge">
<title>Node94&#45;&gt;Node98</title>
<path fill="none" stroke="#191970" d="M345.6077,-107.5576C359.1059,-105.5166 374.2858,-103.2214 388.7562,-101.0334"/>
<polygon fill="#191970" stroke="#191970" points="345.0174,-104.107 335.653,-109.0628 346.0639,-111.0283 345.0174,-104.107"/>
</g>
<!-- Node88 -->
<g id="node5" class="node">
<title>Node88</title>
<g id="a_node5"><a xlink:href="classmty_1_1MSSM__HEM.html" target="_top" xlink:title="mty::MSSM_HEM">
<polygon fill="#ffffff" stroke="#000000" points="549,-221.5 549,-240.5 646,-240.5 646,-221.5 549,-221.5"/>
<text text-anchor="middle" x="597.5" y="-228.5" font-family="Helvetica,sans-Serif" font-size="10.00" fill="#000000">mty::MSSM_HEM</text>
</a>
</g>
</g>
<!-- Node87&#45;&gt;Node88 -->
<g id="edge4" class="edge">
<title>Node87&#45;&gt;Node88</title>
<path fill="none" stroke="#191970" d="M509.2943,-219.7523C522.4729,-221.4328 536.2442,-223.1889 548.881,-224.8003"/>
<polygon fill="#191970" stroke="#191970" points="509.723,-216.2787 499.3606,-218.4856 508.8375,-223.2225 509.723,-216.2787"/>
</g>
<!-- Node89 -->
<g id="node6" class="node">
<title>Node89</title>
<g id="a_node6"><a xlink:href="classmty_1_1PMSSM__Model.html" target="_top" xlink:title="mty::PMSSM_Model">
<polygon fill="#ffffff" stroke="#000000" points="544,-183.5 544,-202.5 651,-202.5 651,-183.5 544,-183.5"/>
<text text-anchor="middle" x="597.5" y="-190.5" font-family="Helvetica,sans-Serif" font-size="10.00" fill="#000000">mty::PMSSM_Model</text>
</a>
</g>
</g>
<!-- Node87&#45;&gt;Node89 -->
<g id="edge5" class="edge">
<title>Node87&#45;&gt;Node89</title>
<path fill="none" stroke="#191970" d="M509.6208,-204.2061C520.9581,-202.7604 532.7228,-201.2602 543.8178,-199.8454"/>
<polygon fill="#191970" stroke="#191970" points="508.8375,-200.7775 499.3606,-205.5144 509.723,-207.7213 508.8375,-200.7775"/>
</g>
<!-- Node90 -->
<g id="node7" class="node">
<title>Node90</title>
<g id="a_node7"><a xlink:href="classmty_1_1NMFV__Model.html" target="_top" xlink:title="mty::NMFV_Model">
<polygon fill="#ffffff" stroke="#000000" points="687,-183.5 687,-202.5 786,-202.5 786,-183.5 687,-183.5"/>
<text text-anchor="middle" x="736.5" y="-190.5" font-family="Helvetica,sans-Serif" font-size="10.00" fill="#000000">mty::NMFV_Model</text>
</a>
</g>
</g>
<!-- Node89&#45;&gt;Node90 -->
<g id="edge6" class="edge">
<title>Node89&#45;&gt;Node90</title>
<path fill="none" stroke="#191970" d="M661.2864,-193C669.9173,-193 678.6665,-193 686.9968,-193"/>
<polygon fill="#191970" stroke="#191970" points="661.2411,-189.5001 651.241,-193 661.241,-196.5001 661.2411,-189.5001"/>
</g>
<!-- Node86 -->
<g id="node13" class="node">
<title>Node86</title>
<g id="a_node13"><a xlink:href="structmty_1_1MSSM__Data.html" target="_top" xlink:title="mty::MSSM_Data">
<polygon fill="#ffffff" stroke="#000000" points="255.5,-202.5 255.5,-221.5 350.5,-221.5 350.5,-202.5 255.5,-202.5"/>
<text text-anchor="middle" x="303" y="-209.5" font-family="Helvetica,sans-Serif" font-size="10.00" fill="#000000">mty::MSSM_Data</text>
</a>
</g>
</g>
<!-- Node86&#45;&gt;Node87 -->
<g id="edge12" class="edge">
<title>Node86&#45;&gt;Node87</title>
<path fill="none" stroke="#006400" d="M360.8009,-212C373.1004,-212 385.9957,-212 397.9972,-212"/>
<polygon fill="#006400" stroke="#006400" points="360.6422,-208.5001 350.6421,-212 360.6421,-215.5001 360.6422,-208.5001"/>
</g>
<!-- Node0 -->
<g id="node14" class="node">
<title>Node0</title>
<g id="a_node14"><a xlink:href="classmty_1_1PMSSM__data.html" target="_top" xlink:title="mty::PMSSM_data">
<polygon fill="#ffffff" stroke="#000000" points="253,-164.5 253,-183.5 353,-183.5 353,-164.5 253,-164.5"/>
<text text-anchor="middle" x="303" y="-171.5" font-family="Helvetica,sans-Serif" font-size="10.00" fill="#000000">mty::PMSSM_data</text>
</a>
</g>
</g>
<!-- Node0&#45;&gt;Node1 -->
<g id="edge13" class="edge">
<title>Node0&#45;&gt;Node1</title>
<path fill="none" stroke="#191970" d="M363.0806,-174C374.6323,-174 386.6237,-174 397.8409,-174"/>
<polygon fill="#191970" stroke="#191970" points="363.0729,-170.5001 353.0728,-174 363.0728,-177.5001 363.0729,-170.5001"/>
</g>
</g>
</svg>
