<?xml version="1.0" encoding="UTF-8" standalone="no"?>
<!DOCTYPE svg PUBLIC "-//W3C//DTD SVG 1.1//EN"
 "http://www.w3.org/Graphics/SVG/1.1/DTD/svg11.dtd">
<!-- Generated by graphviz version 2.40.1 (20161225.0304)
 -->
<!-- Title: Graphical Class Hierarchy Pages: 1 -->
<svg width="767pt" height="281pt"
 viewBox="0.00 0.00 767.00 281.00" xmlns="http://www.w3.org/2000/svg" xmlns:xlink="http://www.w3.org/1999/xlink">
<g id="graph0" class="graph" transform="scale(1 1) rotate(0) translate(4 277)">
<title>Graphical Class Hierarchy</title>
<polygon fill="#ffffff" stroke="transparent" points="-4,4 -4,-277 763,-277 763,4 -4,4"/>
<!-- Node163 -->
<g id="node1" class="node">
<title>Node163</title>
<polygon fill="#ffffff" stroke="#bfbfbf" points="0,-104.5 0,-123.5 125,-123.5 125,-104.5 0,-104.5"/>
<text text-anchor="middle" x="62.5" y="-111.5" font-family="Helvetica,sans-Serif" font-size="10.00" fill="#000000">enable_shared_from_this</text>
</g>
<!-- Node0 -->
<g id="node2" class="node">
<title>Node0</title>
<g id="a_node2"><a xlink:href="classmty_1_1wick_1_1Node.html" target="_top" xlink:title="Represents a contractible mty::QuantumField in the context of Wick contraction. ">
<polygon fill="#ffffff" stroke="#000000" points="180,-123.5 180,-142.5 269,-142.5 269,-123.5 180,-123.5"/>
<text text-anchor="middle" x="224.5" y="-130.5" font-family="Helvetica,sans-Serif" font-size="10.00" fill="#000000">mty::wick::Node</text>
</a>
</g>
</g>
<!-- Node163&#45;&gt;Node0 -->
<g id="edge1" class="edge">
<title>Node163&#45;&gt;Node0</title>
<path fill="none" stroke="#191970" d="M135.4617,-122.5572C150.5039,-124.3214 165.9195,-126.1294 179.6059,-127.7346"/>
<polygon fill="#191970" stroke="#191970" points="135.4731,-119.0347 125.1334,-121.3459 134.6576,-125.987 135.4731,-119.0347"/>
</g>
<!-- Node165 -->
<g id="node3" class="node">
<title>Node165</title>
<g id="a_node3"><a xlink:href="classsgl_1_1AbstractGammaSym.html" target="_top" xlink:title="sgl::AbstractGammaSym">
<polygon fill="#ffffff" stroke="#000000" points="161,-85.5 161,-104.5 288,-104.5 288,-85.5 161,-85.5"/>
<text text-anchor="middle" x="224.5" y="-92.5" font-family="Helvetica,sans-Serif" font-size="10.00" fill="#000000">sgl::AbstractGammaSym</text>
</a>
</g>
</g>
<!-- Node163&#45;&gt;Node165 -->
<g id="edge2" class="edge">
<title>Node163&#45;&gt;Node165</title>
<path fill="none" stroke="#191970" d="M135.1555,-105.4787C143.7626,-104.4692 152.4968,-103.4448 160.9637,-102.4518"/>
<polygon fill="#191970" stroke="#191970" points="134.6576,-102.013 125.1334,-106.6541 135.4731,-108.9653 134.6576,-102.013"/>
</g>
<!-- Node166 -->
<g id="node4" class="node">
<title>Node166</title>
<g id="a_node4"><a xlink:href="classsgl_1_1AbstractLiteral.html" target="_top" xlink:title="sgl::AbstractLiteral">
<polygon fill="#ffffff" stroke="#000000" points="340.5,-123.5 340.5,-142.5 438.5,-142.5 438.5,-123.5 340.5,-123.5"/>
<text text-anchor="middle" x="389.5" y="-130.5" font-family="Helvetica,sans-Serif" font-size="10.00" fill="#000000">sgl::AbstractLiteral</text>
</a>
</g>
</g>
<!-- Node165&#45;&gt;Node166 -->
<g id="edge3" class="edge">
<title>Node165&#45;&gt;Node166</title>
<path fill="none" stroke="#191970" d="M276.154,-106.8961C299.3465,-112.2374 326.3383,-118.4537 348.1629,-123.4799"/>
<polygon fill="#191970" stroke="#191970" points="276.6669,-103.4226 266.1365,-104.589 275.0959,-110.2441 276.6669,-103.4226"/>
</g>
<!-- Node174 -->
<g id="node12" class="node">
<title>Node174</title>
<g id="a_node12"><a xlink:href="classsgl_1_1AbstractMultiFunction.html" target="_top" xlink:title="sgl::AbstractMultiFunction">
<polygon fill="#ffffff" stroke="#000000" points="324,-66.5 324,-85.5 455,-85.5 455,-66.5 324,-66.5"/>
<text text-anchor="middle" x="389.5" y="-73.5" font-family="Helvetica,sans-Serif" font-size="10.00" fill="#000000">sgl::AbstractMultiFunction</text>
</a>
</g>
</g>
<!-- Node165&#45;&gt;Node174 -->
<g id="edge11" class="edge">
<title>Node165&#45;&gt;Node174</title>
<path fill="none" stroke="#191970" d="M298.2671,-86.5056C306.8321,-85.5193 315.5241,-84.5184 323.9682,-83.5461"/>
<polygon fill="#191970" stroke="#191970" points="297.8272,-83.033 288.2933,-87.6541 298.6281,-89.9871 297.8272,-83.033"/>
</g>
<!-- Node167 -->
<g id="node5" class="node">
<title>Node167</title>
<g id="a_node5"><a xlink:href="classsgl_1_1AbstractGeneralizedIndex.html" target="_top" xlink:title="sgl::AbstractGeneralized\lIndex">
<polygon fill="#ffffff" stroke="#000000" points="491,-191 491,-221 615,-221 615,-191 491,-191"/>
<text text-anchor="start" x="499" y="-209" font-family="Helvetica,sans-Serif" font-size="10.00" fill="#000000">sgl::AbstractGeneralized</text>
<text text-anchor="middle" x="553" y="-198" font-family="Helvetica,sans-Serif" font-size="10.00" fill="#000000">Index</text>
</a>
</g>
</g>
<!-- Node166&#45;&gt;Node167 -->
<g id="edge4" class="edge">
<title>Node166&#45;&gt;Node167</title>
<path fill="none" stroke="#191970" d="M417.7991,-146.927C438.0468,-156.7577 466.026,-170.0709 491,-181 498.549,-184.3036 506.6797,-187.6977 514.4888,-190.8781"/>
<polygon fill="#191970" stroke="#191970" points="419.3261,-143.7777 408.8036,-142.5417 416.2586,-150.0699 419.3261,-143.7777"/>
</g>
<!-- Node172 -->
<g id="node10" class="node">
<title>Node172</title>
<g id="a_node10"><a xlink:href="classsgl_1_1CSLExpr.html" target="_top" xlink:title="sgl::CSLExpr">
<polygon fill="#ffffff" stroke="#000000" points="515.5,-152.5 515.5,-171.5 590.5,-171.5 590.5,-152.5 515.5,-152.5"/>
<text text-anchor="middle" x="553" y="-159.5" font-family="Helvetica,sans-Serif" font-size="10.00" fill="#000000">sgl::CSLExpr</text>
</a>
</g>
</g>
<!-- Node166&#45;&gt;Node172 -->
<g id="edge9" class="edge">
<title>Node166&#45;&gt;Node172</title>
<path fill="none" stroke="#191970" d="M448.5993,-143.4824C470.8908,-147.4363 495.6217,-151.8228 515.4161,-155.3337"/>
<polygon fill="#191970" stroke="#191970" points="449.013,-140.0013 438.5554,-141.701 447.7904,-146.8937 449.013,-140.0013"/>
</g>
<!-- Node173 -->
<g id="node11" class="node">
<title>Node173</title>
<g id="a_node11"><a xlink:href="classsgl_1_1Field.html" target="_top" xlink:title="sgl::Field">
<polygon fill="#ffffff" stroke="#000000" points="525,-114.5 525,-133.5 581,-133.5 581,-114.5 525,-114.5"/>
<text text-anchor="middle" x="553" y="-121.5" font-family="Helvetica,sans-Serif" font-size="10.00" fill="#000000">sgl::Field</text>
</a>
</g>
</g>
<!-- Node166&#45;&gt;Node173 -->
<g id="edge10" class="edge">
<title>Node166&#45;&gt;Node173</title>
<path fill="none" stroke="#191970" d="M448.7051,-129.741C474.6986,-128.3102 503.9909,-126.6977 524.8992,-125.5468"/>
<polygon fill="#191970" stroke="#191970" points="448.3479,-126.2553 438.5554,-130.2997 448.7327,-133.2447 448.3479,-126.2553"/>
</g>
<!-- Node168 -->
<g id="node6" class="node">
<title>Node168</title>
<g id="a_node6"><a xlink:href="classsgl_1_1EpsilonIndex.html" target="_top" xlink:title="sgl::EpsilonIndex">
<polygon fill="#ffffff" stroke="#000000" points="659,-253.5 659,-272.5 751,-272.5 751,-253.5 659,-253.5"/>
<text text-anchor="middle" x="705" y="-260.5" font-family="Helvetica,sans-Serif" font-size="10.00" fill="#000000">sgl::EpsilonIndex</text>
</a>
</g>
</g>
<!-- Node167&#45;&gt;Node168 -->
<g id="edge5" class="edge">
<title>Node167&#45;&gt;Node168</title>
<path fill="none" stroke="#191970" d="M600.7056,-224.8457C616.6563,-231.054 634.558,-237.9214 651,-244 659.4828,-247.1361 668.7582,-250.4434 677.1908,-253.404"/>
<polygon fill="#191970" stroke="#191970" points="601.6448,-221.4552 591.0567,-221.0783 599.0988,-227.9758 601.6448,-221.4552"/>
</g>
<!-- Node169 -->
<g id="node7" class="node">
<title>Node169</title>
<g id="a_node7"><a xlink:href="classsgl_1_1GammaIndex.html" target="_top" xlink:title="sgl::GammaIndex">
<polygon fill="#ffffff" stroke="#000000" points="658,-215.5 658,-234.5 752,-234.5 752,-215.5 658,-215.5"/>
<text text-anchor="middle" x="705" y="-222.5" font-family="Helvetica,sans-Serif" font-size="10.00" fill="#000000">sgl::GammaIndex</text>
</a>
</g>
</g>
<!-- Node167&#45;&gt;Node169 -->
<g id="edge6" class="edge">
<title>Node167&#45;&gt;Node169</title>
<path fill="none" stroke="#191970" d="M625.3763,-215.047C636.4497,-216.4312 647.6259,-217.8282 657.9618,-219.1202"/>
<polygon fill="#191970" stroke="#191970" points="625.6197,-211.5503 615.2628,-213.7828 624.7514,-218.4963 625.6197,-211.5503"/>
</g>
<!-- Node170 -->
<g id="node8" class="node">
<title>Node170</title>
<g id="a_node8"><a xlink:href="classsgl_1_1MetricIndex.html" target="_top" xlink:title="sgl::MetricIndex">
<polygon fill="#ffffff" stroke="#000000" points="662,-177.5 662,-196.5 748,-196.5 748,-177.5 662,-177.5"/>
<text text-anchor="middle" x="705" y="-184.5" font-family="Helvetica,sans-Serif" font-size="10.00" fill="#000000">sgl::MetricIndex</text>
</a>
</g>
</g>
<!-- Node167&#45;&gt;Node170 -->
<g id="edge7" class="edge">
<title>Node167&#45;&gt;Node170</title>
<path fill="none" stroke="#191970" d="M625.201,-196.9749C637.6615,-195.4173 650.2586,-193.8427 661.6479,-192.419"/>
<polygon fill="#191970" stroke="#191970" points="624.7514,-193.5037 615.2628,-198.2172 625.6197,-200.4497 624.7514,-193.5037"/>
</g>
<!-- Node171 -->
<g id="node9" class="node">
<title>Node171</title>
<g id="a_node9"><a xlink:href="classsgl_1_1MomentumIndex.html" target="_top" xlink:title="sgl::MomentumIndex">
<polygon fill="#ffffff" stroke="#000000" points="651,-139.5 651,-158.5 759,-158.5 759,-139.5 651,-139.5"/>
<text text-anchor="middle" x="705" y="-146.5" font-family="Helvetica,sans-Serif" font-size="10.00" fill="#000000">sgl::MomentumIndex</text>
</a>
</g>
</g>
<!-- Node167&#45;&gt;Node171 -->
<g id="edge8" class="edge">
<title>Node167&#45;&gt;Node171</title>
<path fill="none" stroke="#191970" d="M600.7056,-187.1543C616.6563,-180.946 634.558,-174.0786 651,-168 659.4828,-164.8639 668.7582,-161.5566 677.1908,-158.596"/>
<polygon fill="#191970" stroke="#191970" points="599.0988,-184.0242 591.0567,-190.9217 601.6448,-190.5448 599.0988,-184.0242"/>
</g>
<!-- Node175 -->
<g id="node13" class="node">
<title>Node175</title>
<g id="a_node13"><a xlink:href="classsgl_1_1IndexChain.html" target="_top" xlink:title="sgl::IndexChain">
<polygon fill="#ffffff" stroke="#000000" points="510.5,-76.5 510.5,-95.5 595.5,-95.5 595.5,-76.5 510.5,-76.5"/>
<text text-anchor="middle" x="553" y="-83.5" font-family="Helvetica,sans-Serif" font-size="10.00" fill="#000000">sgl::IndexChain</text>
</a>
</g>
</g>
<!-- Node174&#45;&gt;Node175 -->
<g id="edge12" class="edge">
<title>Node174&#45;&gt;Node175</title>
<path fill="none" stroke="#191970" d="M465.2065,-80.6304C480.7478,-81.5809 496.5819,-82.5494 510.4458,-83.3973"/>
<polygon fill="#191970" stroke="#191970" points="465.2547,-77.1269 455.0596,-80.0098 464.8273,-84.1138 465.2547,-77.1269"/>
</g>
<!-- Node176 -->
<g id="node14" class="node">
<title>Node176</title>
<g id="a_node14"><a xlink:href="classsgl_1_1Prod.html" target="_top" xlink:title="sgl::Prod">
<polygon fill="#ffffff" stroke="#000000" points="525,-38.5 525,-57.5 581,-57.5 581,-38.5 525,-38.5"/>
<text text-anchor="middle" x="553" y="-45.5" font-family="Helvetica,sans-Serif" font-size="10.00" fill="#000000">sgl::Prod</text>
</a>
</g>
</g>
<!-- Node174&#45;&gt;Node176 -->
<g id="edge13" class="edge">
<title>Node174&#45;&gt;Node176</title>
<path fill="none" stroke="#191970" d="M455.2154,-64.746C479.5078,-60.5858 505.7664,-56.0889 524.95,-52.8037"/>
<polygon fill="#191970" stroke="#191970" points="454.5758,-61.3045 445.3101,-66.4423 455.7575,-68.204 454.5758,-61.3045"/>
</g>
<!-- Node177 -->
<g id="node15" class="node">
<title>Node177</title>
<g id="a_node15"><a xlink:href="classsgl_1_1Sum.html" target="_top" xlink:title="sgl::Sum">
<polygon fill="#ffffff" stroke="#000000" points="525,-.5 525,-19.5 581,-19.5 581,-.5 525,-.5"/>
<text text-anchor="middle" x="553" y="-7.5" font-family="Helvetica,sans-Serif" font-size="10.00" fill="#000000">sgl::Sum</text>
</a>
</g>
</g>
<!-- Node174&#45;&gt;Node177 -->
<g id="edge14" class="edge">
<title>Node174&#45;&gt;Node177</title>
<path fill="none" stroke="#191970" d="M417.4606,-61.7971C437.6026,-51.8773 465.5951,-38.7227 491,-29 501.9349,-24.8151 514.2176,-20.8947 524.9483,-17.7146"/>
<polygon fill="#191970" stroke="#191970" points="415.6447,-58.7912 408.2491,-66.3777 418.7616,-65.059 415.6447,-58.7912"/>
</g>
</g>
</svg>
