<?xml version="1.0" encoding="UTF-8" standalone="no"?>
<!DOCTYPE svg PUBLIC "-//W3C//DTD SVG 1.1//EN"
 "http://www.w3.org/Graphics/SVG/1.1/DTD/svg11.dtd">
<!-- Generated by graphviz version 2.40.1 (20161225.0304)
 -->
<!-- Title: Graphical Class Hierarchy Pages: 1 -->
<svg width="401pt" height="370pt"
 viewBox="0.00 0.00 401.00 370.00" xmlns="http://www.w3.org/2000/svg" xmlns:xlink="http://www.w3.org/1999/xlink">
<g id="graph0" class="graph" transform="scale(1 1) rotate(0) translate(4 366)">
<title>Graphical Class Hierarchy</title>
<polygon fill="#ffffff" stroke="transparent" points="-4,4 -4,-366 397,-366 397,4 -4,4"/>
<!-- Node0 -->
<g id="node1" class="node">
<title>Node0</title>
<g id="a_node1"><a xlink:href="classmty_1_1AbstractGroup.html" target="_top" xlink:title="Abstract base class for groups. ">
<polygon fill="#ffffff" stroke="#000000" points="0,-171.5 0,-190.5 102,-190.5 102,-171.5 0,-171.5"/>
<text text-anchor="middle" x="51" y="-178.5" font-family="Helvetica,sans-Serif" font-size="10.00" fill="#000000">mty::AbstractGroup</text>
</a>
</g>
</g>
<!-- Node1 -->
<g id="node2" class="node">
<title>Node1</title>
<g id="a_node2"><a xlink:href="classmty_1_1SemiSimpleGroup.html" target="_top" xlink:title="Base class for all Semi simple groups, i.e. groups that has a SemiSimpleAlgebra. ">
<polygon fill="#ffffff" stroke="#000000" points="138,-171.5 138,-190.5 256,-190.5 256,-171.5 138,-171.5"/>
<text text-anchor="middle" x="197" y="-178.5" font-family="Helvetica,sans-Serif" font-size="10.00" fill="#000000">mty::SemiSimpleGroup</text>
</a>
</g>
</g>
<!-- Node0&#45;&gt;Node1 -->
<g id="edge1" class="edge">
<title>Node0&#45;&gt;Node1</title>
<path fill="none" stroke="#191970" d="M112.2903,-181C120.789,-181 129.505,-181 137.9615,-181"/>
<polygon fill="#191970" stroke="#191970" points="112.0637,-177.5001 102.0637,-181 112.0637,-184.5001 112.0637,-177.5001"/>
</g>
<!-- Node2 -->
<g id="node3" class="node">
<title>Node2</title>
<g id="a_node3"><a xlink:href="classmty_1_1group_1_1E6.html" target="_top" xlink:title="Exceptional group of algebra . See mty::algebra::E6. ">
<polygon fill="#ffffff" stroke="#000000" points="302,-342.5 302,-361.5 383,-361.5 383,-342.5 302,-342.5"/>
<text text-anchor="middle" x="342.5" y="-349.5" font-family="Helvetica,sans-Serif" font-size="10.00" fill="#000000">mty::group::E6</text>
</a>
</g>
</g>
<!-- Node1&#45;&gt;Node2 -->
<g id="edge2" class="edge">
<title>Node1&#45;&gt;Node2</title>
<path fill="none" stroke="#191970" d="M204.1965,-200.2045C217.0768,-232.1093 247.0024,-296.1615 292,-333 296.7113,-336.857 302.2858,-339.9803 307.9814,-342.4938"/>
<polygon fill="#191970" stroke="#191970" points="207.3836,-198.7438 200.4848,-190.7028 200.8634,-201.2909 207.3836,-198.7438"/>
</g>
<!-- Node3 -->
<g id="node4" class="node">
<title>Node3</title>
<g id="a_node4"><a xlink:href="classmty_1_1group_1_1E7.html" target="_top" xlink:title="Exceptional group of algebra . See mty::algebra::E7. ">
<polygon fill="#ffffff" stroke="#000000" points="302,-304.5 302,-323.5 383,-323.5 383,-304.5 302,-304.5"/>
<text text-anchor="middle" x="342.5" y="-311.5" font-family="Helvetica,sans-Serif" font-size="10.00" fill="#000000">mty::group::E7</text>
</a>
</g>
</g>
<!-- Node1&#45;&gt;Node3 -->
<g id="edge3" class="edge">
<title>Node1&#45;&gt;Node3</title>
<path fill="none" stroke="#191970" d="M208.0554,-199.5054C223.801,-224.4166 254.9246,-268.6457 292,-295 297.2681,-298.7448 303.3651,-301.8511 309.4614,-304.3912"/>
<polygon fill="#191970" stroke="#191970" points="210.8487,-197.3669 202.62,-190.6932 204.8908,-201.0418 210.8487,-197.3669"/>
</g>
<!-- Node4 -->
<g id="node5" class="node">
<title>Node4</title>
<g id="a_node5"><a xlink:href="classmty_1_1group_1_1E8.html" target="_top" xlink:title="Exceptional group of algebra . See mty::algebra::E8. ">
<polygon fill="#ffffff" stroke="#000000" points="302,-266.5 302,-285.5 383,-285.5 383,-266.5 302,-266.5"/>
<text text-anchor="middle" x="342.5" y="-273.5" font-family="Helvetica,sans-Serif" font-size="10.00" fill="#000000">mty::group::E8</text>
</a>
</g>
</g>
<!-- Node1&#45;&gt;Node4 -->
<g id="edge4" class="edge">
<title>Node1&#45;&gt;Node4</title>
<path fill="none" stroke="#191970" d="M214.2269,-197.59C232.3786,-214.3641 262.3893,-240.1521 292,-257 298.3505,-260.6133 305.5194,-263.7886 312.4183,-266.4574"/>
<polygon fill="#191970" stroke="#191970" points="216.4506,-194.8769 206.7655,-190.5818 211.6583,-199.9792 216.4506,-194.8769"/>
</g>
<!-- Node5 -->
<g id="node6" class="node">
<title>Node5</title>
<g id="a_node6"><a xlink:href="classmty_1_1group_1_1F4.html" target="_top" xlink:title="Exceptional group of algebra . See mty::algebra::F4. ">
<polygon fill="#ffffff" stroke="#000000" points="302.5,-228.5 302.5,-247.5 382.5,-247.5 382.5,-228.5 302.5,-228.5"/>
<text text-anchor="middle" x="342.5" y="-235.5" font-family="Helvetica,sans-Serif" font-size="10.00" fill="#000000">mty::group::F4</text>
</a>
</g>
</g>
<!-- Node1&#45;&gt;Node5 -->
<g id="edge5" class="edge">
<title>Node1&#45;&gt;Node5</title>
<path fill="none" stroke="#191970" d="M229.7097,-194.2772C247.9969,-201.6515 271.2246,-210.9377 292,-219 300.0342,-222.1178 308.8159,-225.4486 316.7703,-228.4366"/>
<polygon fill="#191970" stroke="#191970" points="230.9544,-191.0053 220.3714,-190.5047 228.3324,-197.4957 230.9544,-191.0053"/>
</g>
<!-- Node6 -->
<g id="node7" class="node">
<title>Node6</title>
<g id="a_node7"><a xlink:href="classmty_1_1group_1_1G2.html" target="_top" xlink:title="Exceptional group of algebra . See mty::algebra::G2. ">
<polygon fill="#ffffff" stroke="#000000" points="301.5,-190.5 301.5,-209.5 383.5,-209.5 383.5,-190.5 301.5,-190.5"/>
<text text-anchor="middle" x="342.5" y="-197.5" font-family="Helvetica,sans-Serif" font-size="10.00" fill="#000000">mty::group::G2</text>
</a>
</g>
</g>
<!-- Node1&#45;&gt;Node6 -->
<g id="edge6" class="edge">
<title>Node1&#45;&gt;Node6</title>
<path fill="none" stroke="#191970" d="M266.1813,-190.034C278.1573,-191.5979 290.2625,-193.1786 301.1947,-194.6062"/>
<polygon fill="#191970" stroke="#191970" points="266.5495,-186.5524 256.1804,-188.728 265.643,-193.4935 266.5495,-186.5524"/>
</g>
<!-- Node7 -->
<g id="node8" class="node">
<title>Node7</title>
<g id="a_node8"><a xlink:href="classmty_1_1group_1_1Lorentz.html" target="_top" xlink:title="Lorentz group. Algebra of Lorentz: . ">
<polygon fill="#ffffff" stroke="#000000" points="292,-152.5 292,-171.5 393,-171.5 393,-152.5 292,-152.5"/>
<text text-anchor="middle" x="342.5" y="-159.5" font-family="Helvetica,sans-Serif" font-size="10.00" fill="#000000">mty::group::Lorentz</text>
</a>
</g>
</g>
<!-- Node1&#45;&gt;Node7 -->
<g id="edge7" class="edge">
<title>Node1&#45;&gt;Node7</title>
<path fill="none" stroke="#191970" d="M266.2262,-171.9602C274.8342,-170.8361 283.5081,-169.7034 291.7644,-168.6253"/>
<polygon fill="#191970" stroke="#191970" points="265.643,-168.5065 256.1804,-173.272 266.5495,-175.4476 265.643,-168.5065"/>
</g>
<!-- Node8 -->
<g id="node9" class="node">
<title>Node8</title>
<g id="a_node9"><a xlink:href="classmty_1_1group_1_1SO.html" target="_top" xlink:title="Special orthogonal group. The algebra of &#160;is &#160;if &#160;is odd, &#160;else. See mty::algebra::B and mty::algebra...">
<polygon fill="#ffffff" stroke="#000000" points="301,-114.5 301,-133.5 384,-133.5 384,-114.5 301,-114.5"/>
<text text-anchor="middle" x="342.5" y="-121.5" font-family="Helvetica,sans-Serif" font-size="10.00" fill="#000000">mty::group::SO</text>
</a>
</g>
</g>
<!-- Node1&#45;&gt;Node8 -->
<g id="edge8" class="edge">
<title>Node1&#45;&gt;Node8</title>
<path fill="none" stroke="#191970" d="M229.7097,-167.7228C247.9969,-160.3485 271.2246,-151.0623 292,-143 300.0342,-139.8822 308.8159,-136.5514 316.7703,-133.5634"/>
<polygon fill="#191970" stroke="#191970" points="228.3324,-164.5043 220.3714,-171.4953 230.9544,-170.9947 228.3324,-164.5043"/>
</g>
<!-- Node9 -->
<g id="node10" class="node">
<title>Node9</title>
<g id="a_node10"><a xlink:href="classmty_1_1group_1_1Sp.html" target="_top" xlink:title="Simplectic group. The algebra of &#160;is . See mty::algebra::C. ">
<polygon fill="#ffffff" stroke="#000000" points="302,-76.5 302,-95.5 383,-95.5 383,-76.5 302,-76.5"/>
<text text-anchor="middle" x="342.5" y="-83.5" font-family="Helvetica,sans-Serif" font-size="10.00" fill="#000000">mty::group::Sp</text>
</a>
</g>
</g>
<!-- Node1&#45;&gt;Node9 -->
<g id="edge9" class="edge">
<title>Node1&#45;&gt;Node9</title>
<path fill="none" stroke="#191970" d="M214.2269,-164.41C232.3786,-147.6359 262.3893,-121.8479 292,-105 298.3505,-101.3867 305.5194,-98.2114 312.4183,-95.5426"/>
<polygon fill="#191970" stroke="#191970" points="211.6583,-162.0208 206.7655,-171.4182 216.4506,-167.1231 211.6583,-162.0208"/>
</g>
<!-- Node10 -->
<g id="node11" class="node">
<title>Node10</title>
<g id="a_node11"><a xlink:href="classmty_1_1group_1_1SU.html" target="_top" xlink:title="Special unitary group. The algebra of &#160;is &#160;, see mty::algebra::A. ">
<polygon fill="#ffffff" stroke="#000000" points="301,-38.5 301,-57.5 384,-57.5 384,-38.5 301,-38.5"/>
<text text-anchor="middle" x="342.5" y="-45.5" font-family="Helvetica,sans-Serif" font-size="10.00" fill="#000000">mty::group::SU</text>
</a>
</g>
</g>
<!-- Node1&#45;&gt;Node10 -->
<g id="edge10" class="edge">
<title>Node1&#45;&gt;Node10</title>
<path fill="none" stroke="#191970" d="M208.0554,-162.4946C223.801,-137.5834 254.9246,-93.3543 292,-67 297.2681,-63.2552 303.3651,-60.1489 309.4614,-57.6088"/>
<polygon fill="#191970" stroke="#191970" points="204.8908,-160.9582 202.62,-171.3068 210.8487,-164.6331 204.8908,-160.9582"/>
</g>
<!-- Node11 -->
<g id="node12" class="node">
<title>Node11</title>
<g id="a_node12"><a xlink:href="classmty_1_1group_1_1U1.html" target="_top" xlink:title="Abelian unitary group. mty::algebra::R is the associated SemiSimpleAlgebra. ">
<polygon fill="#ffffff" stroke="#000000" points="301.5,-.5 301.5,-19.5 383.5,-19.5 383.5,-.5 301.5,-.5"/>
<text text-anchor="middle" x="342.5" y="-7.5" font-family="Helvetica,sans-Serif" font-size="10.00" fill="#000000">mty::group::U1</text>
</a>
</g>
</g>
<!-- Node1&#45;&gt;Node11 -->
<g id="edge11" class="edge">
<title>Node1&#45;&gt;Node11</title>
<path fill="none" stroke="#191970" d="M204.1965,-161.7955C217.0768,-129.8907 247.0024,-65.8385 292,-29 296.7113,-25.143 302.2858,-22.0197 307.9814,-19.5062"/>
<polygon fill="#191970" stroke="#191970" points="200.8634,-160.7091 200.4848,-171.2972 207.3836,-163.2562 200.8634,-160.7091"/>
</g>
</g>
</svg>
