<?xml version="1.0" encoding="UTF-8" standalone="no"?>
<!DOCTYPE svg PUBLIC "-//W3C//DTD SVG 1.1//EN"
 "http://www.w3.org/Graphics/SVG/1.1/DTD/svg11.dtd">
<!-- Generated by graphviz version 2.40.1 (20161225.0304)
 -->
<!-- Title: Graphical Class Hierarchy Pages: 1 -->
<svg width="986pt" height="161pt"
 viewBox="0.00 0.00 986.00 161.00" xmlns="http://www.w3.org/2000/svg" xmlns:xlink="http://www.w3.org/1999/xlink">
<g id="graph0" class="graph" transform="scale(1 1) rotate(0) translate(4 157)">
<title>Graphical Class Hierarchy</title>
<polygon fill="#ffffff" stroke="transparent" points="-4,4 -4,-157 982,-157 982,4 -4,4"/>
<!-- Node0 -->
<g id="node1" class="node">
<title>Node0</title>
<g id="a_node1"><a doxygen="/home/uhlrich/Bureau/MARTY/newlife/marty-dev/csl/csl.tag:../../csl/html/" xlink:href="../../csl/html/classcsl_1_1AbstractParent.html" target="_top" xlink:title="csl::AbstractParent">
<polygon fill="#ffffff" stroke="#000000" points="0,-38.5 0,-57.5 101,-57.5 101,-38.5 0,-38.5"/>
<text text-anchor="middle" x="50.5" y="-45.5" font-family="Helvetica,sans-Serif" font-size="10.00" fill="#000000">csl::AbstractParent</text>
</a>
</g>
</g>
<!-- Node1 -->
<g id="node2" class="node">
<title>Node1</title>
<g id="a_node2"><a doxygen="/home/uhlrich/Bureau/MARTY/newlife/marty-dev/csl/csl.tag:../../csl/html/" xlink:href="../../csl/html/classcsl_1_1TensorParent.html" target="_top" xlink:title="csl::TensorParent">
<polygon fill="#ffffff" stroke="#000000" points="137,-38.5 137,-57.5 231,-57.5 231,-38.5 137,-38.5"/>
<text text-anchor="middle" x="184" y="-45.5" font-family="Helvetica,sans-Serif" font-size="10.00" fill="#000000">csl::TensorParent</text>
</a>
</g>
</g>
<!-- Node0&#45;&gt;Node1 -->
<g id="edge1" class="edge">
<title>Node0&#45;&gt;Node1</title>
<path fill="none" stroke="#191970" d="M111.5823,-48C120.0499,-48 128.64,-48 136.8023,-48"/>
<polygon fill="#191970" stroke="#191970" points="111.3515,-44.5001 101.3515,-48 111.3514,-51.5001 111.3515,-44.5001"/>
</g>
<!-- Node2 -->
<g id="node3" class="node">
<title>Node2</title>
<g id="a_node3"><a doxygen="/home/uhlrich/Bureau/MARTY/newlife/marty-dev/csl/csl.tag:../../csl/html/" xlink:href="../../csl/html/classcsl_1_1TensorFieldParent.html" target="_top" xlink:title="csl::TensorFieldParent">
<polygon fill="#ffffff" stroke="#000000" points="267,-57.5 267,-76.5 382,-76.5 382,-57.5 267,-57.5"/>
<text text-anchor="middle" x="324.5" y="-64.5" font-family="Helvetica,sans-Serif" font-size="10.00" fill="#000000">csl::TensorFieldParent</text>
</a>
</g>
</g>
<!-- Node1&#45;&gt;Node2 -->
<g id="edge2" class="edge">
<title>Node1&#45;&gt;Node2</title>
<path fill="none" stroke="#191970" d="M241.3277,-55.7525C249.7843,-56.8961 258.4997,-58.0747 266.9606,-59.2189"/>
<polygon fill="#191970" stroke="#191970" points="241.5542,-52.2514 231.1753,-54.3796 240.616,-59.1882 241.5542,-52.2514"/>
</g>
<!-- Node13 -->
<g id="node14" class="node">
<title>Node13</title>
<g id="a_node14"><a xlink:href="classmty_1_1GeneratorParent.html" target="_top" xlink:title="mty::GeneratorParent">
<polygon fill="#ffffff" stroke="#000000" points="269.5,-19.5 269.5,-38.5 379.5,-38.5 379.5,-19.5 269.5,-19.5"/>
<text text-anchor="middle" x="324.5" y="-26.5" font-family="Helvetica,sans-Serif" font-size="10.00" fill="#000000">mty::GeneratorParent</text>
</a>
</g>
</g>
<!-- Node1&#45;&gt;Node13 -->
<g id="edge13" class="edge">
<title>Node1&#45;&gt;Node13</title>
<path fill="none" stroke="#191970" d="M241.1496,-40.2716C250.4876,-39.0088 260.1458,-37.7027 269.4322,-36.4469"/>
<polygon fill="#191970" stroke="#191970" points="240.616,-36.8118 231.1753,-41.6204 241.5542,-43.7486 240.616,-36.8118"/>
</g>
<!-- Node3 -->
<g id="node4" class="node">
<title>Node3</title>
<g id="a_node4"><a xlink:href="classmty_1_1QuantumFieldParent.html" target="_top" xlink:title="Base class for parents of QuantumField objects. ">
<polygon fill="#ffffff" stroke="#000000" points="418,-57.5 418,-76.5 546,-76.5 546,-57.5 418,-57.5"/>
<text text-anchor="middle" x="482" y="-64.5" font-family="Helvetica,sans-Serif" font-size="10.00" fill="#000000">mty::QuantumFieldParent</text>
</a>
</g>
</g>
<!-- Node2&#45;&gt;Node3 -->
<g id="edge3" class="edge">
<title>Node2&#45;&gt;Node3</title>
<path fill="none" stroke="#191970" d="M392.4398,-67C400.8819,-67 409.4929,-67 417.8748,-67"/>
<polygon fill="#191970" stroke="#191970" points="392.2529,-63.5001 382.2529,-67 392.2528,-70.5001 392.2529,-63.5001"/>
</g>
<!-- Node4 -->
<g id="node5" class="node">
<title>Node4</title>
<g id="a_node5"><a xlink:href="classmty_1_1BaseVectorBoson.html" target="_top" xlink:title="Base class for vector objects. ">
<polygon fill="#ffffff" stroke="#000000" points="582,-114.5 582,-133.5 700,-133.5 700,-114.5 582,-114.5"/>
<text text-anchor="middle" x="641" y="-121.5" font-family="Helvetica,sans-Serif" font-size="10.00" fill="#000000">mty::BaseVectorBoson</text>
</a>
</g>
</g>
<!-- Node3&#45;&gt;Node4 -->
<g id="edge4" class="edge">
<title>Node3&#45;&gt;Node4</title>
<path fill="none" stroke="#191970" d="M515.6845,-80.2964C535.0035,-87.7973 559.7631,-97.2003 582,-105 591.1391,-108.2056 601.1444,-111.5056 610.2774,-114.4374"/>
<polygon fill="#191970" stroke="#191970" points="516.7083,-76.939 506.12,-76.5659 514.1646,-83.4605 516.7083,-76.939"/>
</g>
<!-- Node8 -->
<g id="node9" class="node">
<title>Node8</title>
<g id="a_node9"><a xlink:href="classmty_1_1DiracFermion.html" target="_top" xlink:title="Dirac or Majorana fermion in MARTY. ">
<polygon fill="#ffffff" stroke="#000000" points="592,-76.5 592,-95.5 690,-95.5 690,-76.5 592,-76.5"/>
<text text-anchor="middle" x="641" y="-83.5" font-family="Helvetica,sans-Serif" font-size="10.00" fill="#000000">mty::DiracFermion</text>
</a>
</g>
</g>
<!-- Node3&#45;&gt;Node8 -->
<g id="edge8" class="edge">
<title>Node3&#45;&gt;Node8</title>
<path fill="none" stroke="#191970" d="M556.2543,-75.8732C568.282,-77.3104 580.4706,-78.7669 591.7124,-80.1103"/>
<polygon fill="#191970" stroke="#191970" points="556.5577,-72.3846 546.2131,-74.6733 555.7271,-79.3352 556.5577,-72.3846"/>
</g>
<!-- Node9 -->
<g id="node10" class="node">
<title>Node9</title>
<g id="a_node10"><a xlink:href="classmty_1_1ScalarBoson.html" target="_top" xlink:title="Scalar boson, spin 0 particles in MARTY. ">
<polygon fill="#ffffff" stroke="#000000" points="593.5,-38.5 593.5,-57.5 688.5,-57.5 688.5,-38.5 593.5,-38.5"/>
<text text-anchor="middle" x="641" y="-45.5" font-family="Helvetica,sans-Serif" font-size="10.00" fill="#000000">mty::ScalarBoson</text>
</a>
</g>
</g>
<!-- Node3&#45;&gt;Node9 -->
<g id="edge9" class="edge">
<title>Node3&#45;&gt;Node9</title>
<path fill="none" stroke="#191970" d="M556.2256,-58.1303C568.7875,-56.6292 581.5258,-55.107 593.1786,-53.7145"/>
<polygon fill="#191970" stroke="#191970" points="555.7271,-54.6648 546.2131,-59.3267 556.5577,-61.6154 555.7271,-54.6648"/>
</g>
<!-- Node12 -->
<g id="node13" class="node">
<title>Node12</title>
<g id="a_node13"><a xlink:href="classmty_1_1WeylFermion.html" target="_top" xlink:title="Weyl fermion, two&#45;component Chiral particle. ">
<polygon fill="#ffffff" stroke="#000000" points="592.5,-.5 592.5,-19.5 689.5,-19.5 689.5,-.5 592.5,-.5"/>
<text text-anchor="middle" x="641" y="-7.5" font-family="Helvetica,sans-Serif" font-size="10.00" fill="#000000">mty::WeylFermion</text>
</a>
</g>
</g>
<!-- Node3&#45;&gt;Node12 -->
<g id="edge12" class="edge">
<title>Node3&#45;&gt;Node12</title>
<path fill="none" stroke="#191970" d="M515.6845,-53.7036C535.0035,-46.2027 559.7631,-36.7997 582,-29 591.1391,-25.7944 601.1444,-22.4944 610.2774,-19.5626"/>
<polygon fill="#191970" stroke="#191970" points="514.1646,-50.5395 506.12,-57.4341 516.7083,-57.061 514.1646,-50.5395"/>
</g>
<!-- Node5 -->
<g id="node6" class="node">
<title>Node5</title>
<g id="a_node6"><a xlink:href="classmty_1_1FieldStrength.html" target="_top" xlink:title="Field strength object in MARTY. ">
<polygon fill="#ffffff" stroke="#000000" points="743,-133.5 743,-152.5 840,-152.5 840,-133.5 743,-133.5"/>
<text text-anchor="middle" x="791.5" y="-140.5" font-family="Helvetica,sans-Serif" font-size="10.00" fill="#000000">mty::FieldStrength</text>
</a>
</g>
</g>
<!-- Node4&#45;&gt;Node5 -->
<g id="edge5" class="edge">
<title>Node4&#45;&gt;Node5</title>
<path fill="none" stroke="#191970" d="M710.1138,-132.7253C721.1569,-134.1195 732.3775,-135.536 742.8156,-136.8538"/>
<polygon fill="#191970" stroke="#191970" points="710.4093,-129.2349 700.0496,-131.4548 709.5325,-136.1798 710.4093,-129.2349"/>
</g>
<!-- Node6 -->
<g id="node7" class="node">
<title>Node6</title>
<g id="a_node7"><a xlink:href="classmty_1_1VectorBoson.html" target="_top" xlink:title="Implementation of vector bosons in AMRTY. ">
<polygon fill="#ffffff" stroke="#000000" points="744,-95.5 744,-114.5 839,-114.5 839,-95.5 744,-95.5"/>
<text text-anchor="middle" x="791.5" y="-102.5" font-family="Helvetica,sans-Serif" font-size="10.00" fill="#000000">mty::VectorBoson</text>
</a>
</g>
</g>
<!-- Node4&#45;&gt;Node6 -->
<g id="edge6" class="edge">
<title>Node4&#45;&gt;Node6</title>
<path fill="none" stroke="#191970" d="M710.0038,-115.2886C721.4178,-113.8476 733.0247,-112.3823 743.7646,-111.0264"/>
<polygon fill="#191970" stroke="#191970" points="709.5325,-111.8202 700.0496,-116.5452 710.4093,-118.7651 709.5325,-111.8202"/>
</g>
<!-- Node7 -->
<g id="node8" class="node">
<title>Node7</title>
<g id="a_node8"><a xlink:href="classmty_1_1GaugeBoson.html" target="_top" xlink:title="Gauge boson implementation in MARTY. ">
<polygon fill="#ffffff" stroke="#000000" points="883,-95.5 883,-114.5 978,-114.5 978,-95.5 883,-95.5"/>
<text text-anchor="middle" x="930.5" y="-102.5" font-family="Helvetica,sans-Serif" font-size="10.00" fill="#000000">mty::GaugeBoson</text>
</a>
</g>
</g>
<!-- Node6&#45;&gt;Node7 -->
<g id="edge7" class="edge">
<title>Node6&#45;&gt;Node7</title>
<path fill="none" stroke="#191970" d="M849.3452,-105C860.4047,-105 871.8695,-105 882.5759,-105"/>
<polygon fill="#191970" stroke="#191970" points="849.3359,-101.5001 839.3359,-105 849.3359,-108.5001 849.3359,-101.5001"/>
</g>
<!-- Node10 -->
<g id="node11" class="node">
<title>Node10</title>
<g id="a_node11"><a xlink:href="classmty_1_1GhostBoson.html" target="_top" xlink:title="Ghost boson, created with the vector bosons in non abelian gauge groups. ">
<polygon fill="#ffffff" stroke="#000000" points="745,-38.5 745,-57.5 838,-57.5 838,-38.5 745,-38.5"/>
<text text-anchor="middle" x="791.5" y="-45.5" font-family="Helvetica,sans-Serif" font-size="10.00" fill="#000000">mty::GhostBoson</text>
</a>
</g>
</g>
<!-- Node9&#45;&gt;Node10 -->
<g id="edge10" class="edge">
<title>Node9&#45;&gt;Node10</title>
<path fill="none" stroke="#191970" d="M698.9686,-48C714.1957,-48 730.4208,-48 744.9629,-48"/>
<polygon fill="#191970" stroke="#191970" points="698.6192,-44.5001 688.6191,-48 698.6191,-51.5001 698.6192,-44.5001"/>
</g>
<!-- Node11 -->
<g id="node12" class="node">
<title>Node11</title>
<g id="a_node12"><a xlink:href="classmty_1_1GoldstoneBoson.html" target="_top" xlink:title="Goldstone boson class. ">
<polygon fill="#ffffff" stroke="#000000" points="736,-.5 736,-19.5 847,-19.5 847,-.5 736,-.5"/>
<text text-anchor="middle" x="791.5" y="-7.5" font-family="Helvetica,sans-Serif" font-size="10.00" fill="#000000">mty::GoldstoneBoson</text>
</a>
</g>
</g>
<!-- Node9&#45;&gt;Node11 -->
<g id="edge11" class="edge">
<title>Node9&#45;&gt;Node11</title>
<path fill="none" stroke="#191970" d="M688.6847,-35.96C709.7103,-30.6512 734.0674,-24.5012 753.7956,-19.5201"/>
<polygon fill="#191970" stroke="#191970" points="687.8164,-32.5693 678.9775,-38.411 689.5301,-39.3563 687.8164,-32.5693"/>
</g>
</g>
</svg>
