<?xml version="1.0" encoding="UTF-8" standalone="no"?>
<!DOCTYPE svg PUBLIC "-//W3C//DTD SVG 1.1//EN"
 "http://www.w3.org/Graphics/SVG/1.1/DTD/svg11.dtd">
<!-- Generated by graphviz version 2.40.1 (20161225.0304)
 -->
<!-- Title: Graphical Class Hierarchy Pages: 1 -->
<svg width="208pt" height="256pt"
 viewBox="0.00 0.00 208.00 256.00" xmlns="http://www.w3.org/2000/svg" xmlns:xlink="http://www.w3.org/1999/xlink">
<g id="graph0" class="graph" transform="scale(1 1) rotate(0) translate(4 252)">
<title>Graphical Class Hierarchy</title>
<polygon fill="#ffffff" stroke="transparent" points="-4,4 -4,-252 204,-252 204,4 -4,4"/>
<!-- Node9 -->
<g id="node1" class="node">
<title>Node9</title>
<polygon fill="#ffffff" stroke="#bfbfbf" points="0,-114.5 0,-133.5 44,-133.5 44,-114.5 0,-114.5"/>
<text text-anchor="middle" x="22" y="-121.5" font-family="Helvetica,sans-Serif" font-size="10.00" fill="#000000">vector</text>
</g>
<!-- Node0 -->
<g id="node2" class="node">
<title>Node0</title>
<g id="a_node2"><a xlink:href="classmty_1_1AlgebraState.html" target="_top" xlink:title="Class inherited from std::vector&lt;int&gt;, dynkin labels for a state of a semi&#45;simple algebra (see docume...">
<polygon fill="#ffffff" stroke="#000000" points="92.5,-228.5 92.5,-247.5 187.5,-247.5 187.5,-228.5 92.5,-228.5"/>
<text text-anchor="middle" x="140" y="-235.5" font-family="Helvetica,sans-Serif" font-size="10.00" fill="#000000">mty::AlgebraState</text>
</a>
</g>
</g>
<!-- Node9&#45;&gt;Node0 -->
<g id="edge1" class="edge">
<title>Node9&#45;&gt;Node0</title>
<path fill="none" stroke="#191970" d="M28.8558,-143.0227C37.5391,-164.4944 54.511,-199.0263 80,-219 84.9882,-222.9089 90.796,-226.0219 96.7959,-228.4989"/>
<polygon fill="#191970" stroke="#191970" points="32.1099,-141.7332 25.2579,-133.6523 25.575,-144.2423 32.1099,-141.7332"/>
</g>
<!-- Node11 -->
<g id="node3" class="node">
<title>Node11</title>
<g id="a_node3"><a xlink:href="classmty_1_1ConjugationList.html" target="_top" xlink:title="mty::ConjugationList">
<polygon fill="#ffffff" stroke="#000000" points="86.5,-190.5 86.5,-209.5 193.5,-209.5 193.5,-190.5 86.5,-190.5"/>
<text text-anchor="middle" x="140" y="-197.5" font-family="Helvetica,sans-Serif" font-size="10.00" fill="#000000">mty::ConjugationList</text>
</a>
</g>
</g>
<!-- Node9&#45;&gt;Node11 -->
<g id="edge2" class="edge">
<title>Node9&#45;&gt;Node11</title>
<path fill="none" stroke="#191970" d="M36.1851,-141.8598C46.9964,-154.4009 62.8979,-170.7092 80,-181 86.2727,-184.7745 93.3718,-187.8747 100.4351,-190.395"/>
<polygon fill="#191970" stroke="#191970" points="38.6481,-139.3478 29.5614,-133.8996 33.2673,-143.8252 38.6481,-139.3478"/>
</g>
<!-- Node12 -->
<g id="node4" class="node">
<title>Node12</title>
<g id="a_node4"><a xlink:href="structmty_1_1lha_1_1LHAInputData.html" target="_top" xlink:title="Helper struct to define a block of LHAElementInputData to make easy the definition of a modifiable bl...">
<polygon fill="#ffffff" stroke="#000000" points="80,-152.5 80,-171.5 200,-171.5 200,-152.5 80,-152.5"/>
<text text-anchor="middle" x="140" y="-159.5" font-family="Helvetica,sans-Serif" font-size="10.00" fill="#000000">mty::lha::LHAInputData</text>
</a>
</g>
</g>
<!-- Node9&#45;&gt;Node12 -->
<g id="edge3" class="edge">
<title>Node9&#45;&gt;Node12</title>
<path fill="none" stroke="#191970" d="M53.6452,-134.4293C62.194,-137.2296 71.4461,-140.2446 80,-143 89.6722,-146.1156 100.2353,-149.475 109.7656,-152.4899"/>
<polygon fill="#191970" stroke="#191970" points="54.6094,-131.0621 44.0166,-131.2691 52.4265,-137.713 54.6094,-131.0621"/>
</g>
<!-- Node13 -->
<g id="node5" class="node">
<title>Node13</title>
<g id="a_node5"><a xlink:href="classmty_1_1SumGaugeIrrep.html" target="_top" xlink:title="mty::SumGaugeIrrep">
<polygon fill="#ffffff" stroke="#000000" points="86.5,-114.5 86.5,-133.5 193.5,-133.5 193.5,-114.5 86.5,-114.5"/>
<text text-anchor="middle" x="140" y="-121.5" font-family="Helvetica,sans-Serif" font-size="10.00" fill="#000000">mty::SumGaugeIrrep</text>
</a>
</g>
</g>
<!-- Node9&#45;&gt;Node13 -->
<g id="edge4" class="edge">
<title>Node9&#45;&gt;Node13</title>
<path fill="none" stroke="#191970" d="M54.2965,-124C64.1235,-124 75.2031,-124 86.0531,-124"/>
<polygon fill="#191970" stroke="#191970" points="54.1949,-120.5001 44.1949,-124 54.1949,-127.5001 54.1949,-120.5001"/>
</g>
<!-- Node14 -->
<g id="node6" class="node">
<title>Node14</title>
<g id="a_node6"><a xlink:href="classmty_1_1SumIrrep.html" target="_top" xlink:title="Contains a sum of Irrep (irreducible representation) of a given SemiSimpleAlgebra. ">
<polygon fill="#ffffff" stroke="#000000" points="100.5,-76.5 100.5,-95.5 179.5,-95.5 179.5,-76.5 100.5,-76.5"/>
<text text-anchor="middle" x="140" y="-83.5" font-family="Helvetica,sans-Serif" font-size="10.00" fill="#000000">mty::SumIrrep</text>
</a>
</g>
</g>
<!-- Node9&#45;&gt;Node14 -->
<g id="edge5" class="edge">
<title>Node9&#45;&gt;Node14</title>
<path fill="none" stroke="#191970" d="M53.6452,-113.5707C62.194,-110.7704 71.4461,-107.7554 80,-105 89.6722,-101.8844 100.2353,-98.525 109.7656,-95.5101"/>
<polygon fill="#191970" stroke="#191970" points="52.4265,-110.287 44.0166,-116.7309 54.6094,-116.9379 52.4265,-110.287"/>
</g>
<!-- Node15 -->
<g id="node7" class="node">
<title>Node15</title>
<g id="a_node7"><a xlink:href="classmty_1_1wick_1_1Vertex.html" target="_top" xlink:title="Represents a Vertex in feynman diagrams, i.e. a set of Nodes at the same space&#45;time point...">
<polygon fill="#ffffff" stroke="#000000" points="93,-38.5 93,-57.5 187,-57.5 187,-38.5 93,-38.5"/>
<text text-anchor="middle" x="140" y="-45.5" font-family="Helvetica,sans-Serif" font-size="10.00" fill="#000000">mty::wick::Vertex</text>
</a>
</g>
</g>
<!-- Node9&#45;&gt;Node15 -->
<g id="edge6" class="edge">
<title>Node9&#45;&gt;Node15</title>
<path fill="none" stroke="#191970" d="M36.1851,-106.1402C46.9964,-93.5991 62.8979,-77.2908 80,-67 86.2727,-63.2255 93.3718,-60.1253 100.4351,-57.605"/>
<polygon fill="#191970" stroke="#191970" points="33.2673,-104.1748 29.5614,-114.1004 38.6481,-108.6522 33.2673,-104.1748"/>
</g>
<!-- Node16 -->
<g id="node8" class="node">
<title>Node16</title>
<g id="a_node8"><a xlink:href="structmty_1_1WilsonSet.html" target="_top" xlink:title="mty::WilsonSet">
<polygon fill="#ffffff" stroke="#000000" points="98,-.5 98,-19.5 182,-19.5 182,-.5 98,-.5"/>
<text text-anchor="middle" x="140" y="-7.5" font-family="Helvetica,sans-Serif" font-size="10.00" fill="#000000">mty::WilsonSet</text>
</a>
</g>
</g>
<!-- Node9&#45;&gt;Node16 -->
<g id="edge7" class="edge">
<title>Node9&#45;&gt;Node16</title>
<path fill="none" stroke="#191970" d="M28.8558,-104.9773C37.5391,-83.5056 54.511,-48.9737 80,-29 85.2463,-24.8889 91.399,-21.6582 97.7284,-19.1218"/>
<polygon fill="#191970" stroke="#191970" points="25.575,-103.7577 25.2579,-114.3477 32.1099,-106.2668 25.575,-103.7577"/>
</g>
</g>
</svg>
