<?xml version="1.0" encoding="UTF-8" standalone="no"?>
<!DOCTYPE svg PUBLIC "-//W3C//DTD SVG 1.1//EN"
 "http://www.w3.org/Graphics/SVG/1.1/DTD/svg11.dtd">
<!-- Generated by graphviz version 2.40.1 (20161225.0304)
 -->
<!-- Title: mty::doc::DefaultComparator&lt; Comparable &gt; Pages: 1 -->
<svg width="198pt" height="117pt"
 viewBox="0.00 0.00 198.00 117.00" xmlns="http://www.w3.org/2000/svg" xmlns:xlink="http://www.w3.org/1999/xlink">
<g id="graph0" class="graph" transform="scale(1 1) rotate(0) translate(4 113)">
<title>mty::doc::DefaultComparator&lt; Comparable &gt;</title>
<polygon fill="#ffffff" stroke="transparent" points="-4,4 -4,-113 194,-113 194,4 -4,4"/>
<!-- Node0 -->
<g id="node1" class="node">
<title>Node0</title>
<polygon fill="#bfbfbf" stroke="#000000" points="23.5,-.5 23.5,-30.5 166.5,-30.5 166.5,-.5 23.5,-.5"/>
<text text-anchor="start" x="31.5" y="-18.5" font-family="Helvetica,sans-Serif" font-size="10.00" fill="#000000">mty::doc::DefaultComparator</text>
<text text-anchor="middle" x="95" y="-7.5" font-family="Helvetica,sans-Serif" font-size="10.00" fill="#000000">&lt; Comparable &gt;</text>
</g>
<!-- Node1 -->
<g id="node2" class="node">
<title>Node1</title>
<polygon fill="#ffffff" stroke="#bfbfbf" points="0,-67.5 0,-108.5 190,-108.5 190,-67.5 0,-67.5"/>
<text text-anchor="start" x="8" y="-96.5" font-family="Helvetica,sans-Serif" font-size="10.00" fill="#000000">std::equal_to&lt; std</text>
<text text-anchor="start" x="8" y="-85.5" font-family="Helvetica,sans-Serif" font-size="10.00" fill="#000000">::remove_reference_t</text>
<text text-anchor="middle" x="95" y="-74.5" font-family="Helvetica,sans-Serif" font-size="10.00" fill="#000000">&lt; std::remove_cv_t&lt; Comparable &gt; &gt; &gt;</text>
</g>
<!-- Node1&#45;&gt;Node0 -->
<g id="edge1" class="edge">
<title>Node1&#45;&gt;Node0</title>
<path fill="none" stroke="#191970" d="M95,-57.3279C95,-48.0871 95,-38.3508 95,-30.5991"/>
<polygon fill="#191970" stroke="#191970" points="91.5001,-57.4183 95,-67.4183 98.5001,-57.4184 91.5001,-57.4183"/>
</g>
</g>
</svg>
